<svg xmlns="http://www.w3.org/2000/svg" width="149" height="148.994" viewBox="0 0 149 148.994">
  <g id="zapatillas" transform="translate(0 -0.012)">
    <g id="Grupo_86047" data-name="Grupo 86047" transform="translate(2.913 2.922)">
      <path id="Trazado_148252" data-name="Trazado 148252" d="M152.117,416.392,10.98,422.881l-.969,6.786a11.677,11.677,0,0,0,11.8,11.64h86.445a90.35,90.35,0,0,0,41.846-10.226,5.84,5.84,0,0,0,3.079-5.186v-4.633A11.573,11.573,0,0,0,152.117,416.392Z" transform="translate(-10.011 -298.134)" fill="#eefaff"/>
      <path id="Trazado_148253" data-name="Trazado 148253" d="M146.877,314.738a235.848,235.848,0,0,1-27.861-9.149L74.065,282.012,60.1,300.636a11.64,11.64,0,0,1-9.312,4.656H41.472a11.641,11.641,0,0,1-11.64-11.64H18.192l-4.851,33.954.157.023a11.808,11.808,0,0,0,10.677,6.763h86.448a79.083,79.083,0,0,0,43.854-13.276,11.6,11.6,0,0,0-7.6-6.379Z" transform="translate(-12.372 -202.859)" fill="#7ae582"/>
      <path id="Trazado_148254" data-name="Trazado 148254" d="M152.216,150.881,11.079,144.392a11.573,11.573,0,0,0-1.068,4.871V153.9a5.84,5.84,0,0,0,3.079,5.186,90.347,90.347,0,0,0,41.843,10.226h86.448a11.677,11.677,0,0,0,11.8-11.64Z" transform="translate(-10.011 -105.287)" fill="#eefaff"/>
      <path id="Trazado_148255" data-name="Trazado 148255" d="M149.966,21.652h-11.64a11.641,11.641,0,0,1-11.64,11.64h-9.312a11.64,11.64,0,0,1-9.312-4.656L94.094,10.012,49.143,33.589a235.844,235.844,0,0,1-27.861,9.149,11.6,11.6,0,0,0-7.6,6.379A79.083,79.083,0,0,0,57.535,62.393h86.448A11.808,11.808,0,0,0,154.66,55.63l.157-.023Z" transform="translate(-12.613 -10.012)" fill="#7ae582"/>
      <g id="Grupo_86046" data-name="Grupo 86046" transform="translate(35.805 4.86)">
        <path id="Trazado_148256" data-name="Trazado 148256" d="M331.239,344.532l-8.73,15.121a5.82,5.82,0,0,1-10.08-5.82l8.73-15.121Z" transform="translate(-259.676 -247.919)" fill="#eefaff"/>
        <path id="Trazado_148257" data-name="Trazado 148257" d="M243.229,324.693a5.82,5.82,0,0,1-10.08-5.82l11.64-20.161,10.08,5.82-11.64,20.161Z" transform="translate(-203.467 -219.559)" fill="#eefaff"/>
        <path id="Trazado_148258" data-name="Trazado 148258" d="M224.051,46.873a5.82,5.82,0,0,1-10.08,5.82l-11.64-20.161,10.08-5.82Z" transform="translate(-182.17 -26.712)" fill="#eefaff"/>
        <path id="Trazado_148259" data-name="Trazado 148259" d="M151.861,81.833a5.82,5.82,0,1,1-10.08,5.82l-8.73-15.121,10.08-5.82Z" transform="translate(-133.051 -55.072)" fill="#eefaff"/>
      </g>
    </g>
    <g id="Grupo_86048" data-name="Grupo 86048" transform="translate(0 0.012)">
      <path id="Trazado_148260" data-name="Trazado 148260" d="M138.159,304.834a231.049,231.049,0,0,1-25.005-8.054,2.9,2.9,0,0,0-1.417-2.058l-10.08-5.82a2.911,2.911,0,0,0-3.975,1.065l-.107.184q-2.643-1.237-5.255-2.537l.322-.558a2.91,2.91,0,0,0-1.065-3.975l-10.08-5.82a2.911,2.911,0,0,0-3.975,1.066l-.542.939c-3.641-2.158-7.25-4.425-10.758-6.765a2.91,2.91,0,0,0-3.943.675L48.309,291.8a8.77,8.77,0,0,1-6.984,3.491H32.013a8.74,8.74,0,0,1-8.73-8.73,2.91,2.91,0,0,0-2.91-2.91H8.733a2.91,2.91,0,0,0-2.881,2.5C-.337,329.546,0,326.911,0,327.3a14.649,14.649,0,0,0,14.713,14.55h86.445a93.825,93.825,0,0,0,43.19-10.555A8.7,8.7,0,0,0,149,323.531V318.9A14.535,14.535,0,0,0,138.159,304.834ZM101.266,295.4l5.041,2.91-7.277,12.6A2.91,2.91,0,0,1,93.991,308Zm-15.121-8.73L75.96,304.308a2.91,2.91,0,0,1-5.04-2.911l10.186-17.64Zm-74.889,2.8h6.5a14.576,14.576,0,0,0,14.258,11.64h9.312a14.617,14.617,0,0,0,11.64-5.82l12.325-16.434c2.881,1.875,5.819,3.7,8.777,5.448L65.88,298.488A8.73,8.73,0,0,0,81,307.218l8.4-14.554q2.6,1.3,5.25,2.546l-5.7,9.879a8.73,8.73,0,0,0,15.121,8.729l6.754-11.7a236.567,236.567,0,0,0,25.851,8.341,8.686,8.686,0,0,1,4.332,2.676,75.91,75.91,0,0,1-39.844,11.254H14.716a8.946,8.946,0,0,1-7.79-4.6Zm131.92,34.059a2.934,2.934,0,0,1-1.514,2.605,87.983,87.983,0,0,1-40.5,9.9H14.716a8.719,8.719,0,0,1-8.891-8.537l.037-.261a14.74,14.74,0,0,0,8.854,2.979h86.448a81.7,81.7,0,0,0,42.005-11.581c0,.089.007.178.007.267v4.632Z" transform="translate(0 -192.859)"/>
      <circle id="Elipse_4343" data-name="Elipse 4343" cx="2.91" cy="2.91" r="2.91" transform="translate(89.051 64.021)"/>
      <path id="Trazado_148261" data-name="Trazado 148261" d="M143.156,14.15a2.91,2.91,0,0,0-2.881-2.5h-11.64a2.91,2.91,0,0,0-2.91,2.91,8.74,8.74,0,0,1-8.73,8.73h-9.312A8.769,8.769,0,0,1,100.7,19.8L86.731,1.176A2.91,2.91,0,0,0,82.788.5c-3.508,2.34-7.116,4.607-10.758,6.765l-.542-.939a2.91,2.91,0,0,0-3.975-1.066l-10.08,5.82a2.91,2.91,0,0,0-1.065,3.975l.322.558q-2.6,1.294-5.255,2.537l-.107-.184A2.911,2.911,0,0,0,47.352,16.9l-10.08,5.82a2.9,2.9,0,0,0-1.417,2.058,231.126,231.126,0,0,1-25,8.054A14.534,14.534,0,0,0,.012,46.9v4.633A8.7,8.7,0,0,0,4.656,59.3,93.822,93.822,0,0,0,47.844,69.853h31.03a2.91,2.91,0,0,0,0-5.82H47.844a87.983,87.983,0,0,1-40.5-9.9,2.934,2.934,0,0,1-1.512-2.6s0-4.811.007-4.9A81.7,81.7,0,0,0,47.844,58.213h86.448a14.74,14.74,0,0,0,8.854-2.979l.037.261a8.72,8.72,0,0,1-8.891,8.537H105.064a2.91,2.91,0,0,0,0,5.82h29.228A14.649,14.649,0,0,0,149.005,55.3c0-.391.343,2.269-5.849-41.152ZM67.9,11.757,78.087,29.4a2.91,2.91,0,1,1-5.04,2.911L62.862,14.667ZM47.742,23.4,55.017,36a2.91,2.91,0,1,1-5.04,2.911L42.7,26.307Zm86.55,29H47.844A75.911,75.911,0,0,1,8,41.138a8.693,8.693,0,0,1,4.334-2.676,236.6,236.6,0,0,0,25.85-8.341l6.754,11.7a8.73,8.73,0,1,0,15.121-8.729l-5.7-9.877Q57,21.964,59.6,20.665l8.4,14.552a8.73,8.73,0,1,0,15.121-8.729L74.94,12.306c2.958-1.752,5.9-3.573,8.777-5.448L96.042,23.292a14.618,14.618,0,0,0,11.64,5.82H117a14.576,14.576,0,0,0,14.258-11.64h6.5l4.331,30.317a8.946,8.946,0,0,1-7.79,4.6Z" transform="translate(-0.008 -0.012)"/>
    </g>
  </g>
</svg>
