<svg xmlns="http://www.w3.org/2000/svg" width="106.452" height="110" viewBox="0 0 106.452 110">
  <g id="investigar" transform="translate(-3.548 -1.774)">
    <path id="Trazado_143787" data-name="Trazado 143787" d="M5.323,110H83.387V17.742L69.192,3.548H5.323Z" fill="#fff5a2"/>
    <path id="Trazado_143789" data-name="Trazado 143789" d="M39.032,102.9V74.516H49.677V102.9" fill="#3ca8f4"/>
    <path id="Trazado_143791" data-name="Trazado 143791" d="M19.516,102.9V81.613H30.161V102.9" fill="#8ad24a"/>
    <path id="Trazado_143793" data-name="Trazado 143793" d="M58.548,102.9V81.613H69.194V102.9" fill="#8ad24a"/>
    <path id="Trazado_143795" data-name="Trazado 143795" d="M78.333,76.525H88.368v10.1H78.333Z" transform="translate(-33.275 82.844) rotate(-45)" fill="#5a5b5d"/>
    <path id="Trazado_143796" data-name="Trazado 143796" d="M10.645,101.129H78.065v3.548H10.645Z" fill="#5a5b5d"/>
    <path id="Trazado_143797" data-name="Trazado 143797" d="M65.645,31.935A17.742,17.742,0,0,0,47.9,14.194V31.935Z" fill="#3ca8f4"/>
    <path id="Trazado_143798" data-name="Trazado 143798" d="M58.538,39.65q.011-.309.011-.617H40.806V21.29a17.742,17.742,0,0,0,0,35.484c.208,0,.413,0,.619-.011" fill="#6db569"/>
    <path id="Trazado_143799" data-name="Trazado 143799" d="M40.806,21.29a17.653,17.653,0,0,0-11.616,4.352A17.724,17.724,0,0,0,42.581,55c.208,0,.413,0,.619-.011L58.538,39.65q.011-.309.011-.617H40.806Z" fill="#8ad24a"/>
    <circle id="Elipse_4273" data-name="Elipse 4273" cx="23.065" cy="23.065" r="23.065" transform="translate(40.806 39.032)" fill="#0f2771"/>
    <circle id="Elipse_4274" data-name="Elipse 4274" cx="15.968" cy="15.968" r="15.968" transform="translate(47.903 46.129)" fill="#ddd"/>
    <path id="Trazado_143801" data-name="Trazado 143801" d="M69.192,3.548l0,14.194H83.387" fill="#fde947"/>
    <path id="Trazado_143802" data-name="Trazado 143802" d="M62.1,47.9a15.888,15.888,0,0,0-10.361,3.832,15.956,15.956,0,0,0,22.5,22.5A15.956,15.956,0,0,0,62.1,47.9Z" fill="#fff"/>
    <path id="Trazado_143803" data-name="Trazado 143803" d="M90.484,81.613,85.1,76.226a23.15,23.15,0,0,1-7.1,7.1l5.386,5.386Z" fill="#0f2771"/>
    <path id="Trazado_143804" data-name="Trazado 143804" d="M81.613,90.484,92.258,79.839,106.02,93.6a7.527,7.527,0,1,1-10.645,10.645Z" fill="#3ca8f4"/>
    <path id="Trazado_143806" data-name="Trazado 143806" d="M84.641,16.488,70.446,2.294a1.766,1.766,0,0,0-1.254-.52H5.323A1.774,1.774,0,0,0,3.548,3.548V110a1.774,1.774,0,0,0,1.774,1.774H83.387A1.774,1.774,0,0,0,85.161,110V96.541l8.96,8.96a9.3,9.3,0,0,0,13.156-13.154L93.512,78.584a1.772,1.772,0,0,0-2.509,0l-.52.52-4.929-4.929a24.65,24.65,0,0,0-.394-24.807V17.742A1.769,1.769,0,0,0,84.641,16.488Zm-5.537-.52H70.968l0-8.136Zm2.509,92.258H7.1V5.323H67.418l0,12.419a1.775,1.775,0,0,0,1.774,1.774H81.613V44.747a24.5,24.5,0,0,0-22-7.1,1.733,1.733,0,0,0-1.065-.392H42.581V21.29a1.774,1.774,0,0,0-1.774-1.774,19.507,19.507,0,0,0-1.48,38.958,23.976,23.976,0,0,0,2.136,14.268H39.032a1.774,1.774,0,0,0-1.774,1.774v26.613H31.935V81.613a1.774,1.774,0,0,0-1.774-1.774H19.516a1.774,1.774,0,0,0-1.774,1.774v19.516h-7.1v3.548H78.065v-3.548h-7.1V85.889a24.8,24.8,0,0,0,4.984-2.108l4.927,4.929-.52.52a1.773,1.773,0,0,0,0,2.509l1.254,1.254ZM63.871,83.387A21.29,21.29,0,1,1,85.161,62.1,21.314,21.314,0,0,1,63.871,83.387Zm-3.548,17.742V86.652a24.888,24.888,0,0,0,3.548.284,24.633,24.633,0,0,0,3.548-.284v14.477ZM40.806,40.806H51.143A24.927,24.927,0,0,0,40.088,54.961a15.956,15.956,0,0,1-1.056-31.8v15.87A1.774,1.774,0,0,0,40.806,40.806Zm7.1,40.288v20.034h-7.1V76.29h2.709A25.035,25.035,0,0,0,47.9,81.095Zm3.548,2.48a24.682,24.682,0,0,0,5.323,2.315v15.239H51.452ZM28.387,101.129h-7.1V83.387h7.1Zm76.379-6.274a5.753,5.753,0,1,1-8.135,8.136L84.122,90.484l8.136-8.136ZM87.975,81.613,83.387,86.2l-4.423-4.423a25.074,25.074,0,0,0,4.588-4.588Z"/>
    <path id="Trazado_143807" data-name="Trazado 143807" d="M47.9,33.71H65.645a1.774,1.774,0,0,0,1.774-1.774A19.539,19.539,0,0,0,47.9,12.419a1.774,1.774,0,0,0-1.774,1.774V31.935A1.774,1.774,0,0,0,47.9,33.71Zm1.774-17.644a16,16,0,0,1,14.094,14.1H49.677Z"/>
    <path id="Trazado_143808" data-name="Trazado 143808" d="M63.871,44.355A17.742,17.742,0,1,0,81.613,62.1,17.762,17.762,0,0,0,63.871,44.355Zm0,31.935A14.194,14.194,0,1,1,78.065,62.1,14.21,14.21,0,0,1,63.871,76.29Z"/>
  </g>
</svg>
