<svg xmlns="http://www.w3.org/2000/svg" xmlns:xlink="http://www.w3.org/1999/xlink" width="322.003" height="218.109" viewBox="0 0 322.003 218.109">
  <defs>
    <clipPath id="clip-path">
      <path id="Trazado_144446" data-name="Trazado 144446" d="M1606.8,290.739a46.192,46.192,0,0,0-9.056-33.555c-7.321-9.825-5.037-41.842-25.413-47.338-30.272-3.893-44.525,38.509-52.494,56.562a48.324,48.324,0,0,0,38.127,67.412q1.732.22,3.449.313C1585.826,334.128,1603.759,314.735,1606.8,290.739Z" transform="translate(-1515.738 -209.594)" fill="none"/>
    </clipPath>
  </defs>
  <g id="Grupo_83920" data-name="Grupo 83920" transform="translate(-14.013)">
    <g id="Grupo_83656" data-name="Grupo 83656" transform="translate(268.735 72.352)">
      <g id="Grupo_83555" data-name="Grupo 83555" transform="translate(47.89 13.073)">
        <path id="Trazado_144185" data-name="Trazado 144185" d="M3131.211,914.27c-1.3-.538-2.671.264-1.262,5.133,1.632,5.639,9.291,18.068,9.291,18.068s-3.927,21.6-3.9,21.957c.12,1.478,1.072,5.034,2.456,5.046,1.714.015,10.683-18.933,10.934-24.655C3149.184,929.486,3138.064,917.1,3131.211,914.27Z" transform="translate(-3129.354 -914.125)" fill="#4182af"/>
      </g>
      <g id="Grupo_83558" data-name="Grupo 83558" transform="translate(42.957 137.757)">
        <g id="Grupo_83557" data-name="Grupo 83557">
          <g id="Grupo_83556" data-name="Grupo 83556">
            <path id="Trazado_144186" data-name="Trazado 144186" d="M3095.307,1947.421c-1.09-.477-1.228-1.448-1.692-2.368-.031-.062-.21-1.384-.211-1.489-.006-.456-1.324-1.667-1.937-.717-1.21,1.872-2.537-1.053-2.467-.272.209,2.325-.858,6.075.008,6.33,1.845.542,10.458,1.172,10.621.267C3099.726,1948.629,3097.191,1948.247,3095.307,1947.421Z" transform="translate(-3088.663 -1942.439)" fill="#264962"/>
          </g>
        </g>
      </g>
      <g id="Grupo_83561" data-name="Grupo 83561" transform="translate(18.955 137.757)">
        <g id="Grupo_83560" data-name="Grupo 83560">
          <g id="Grupo_83559" data-name="Grupo 83559">
            <path id="Trazado_144187" data-name="Trazado 144187" d="M2897.357,1947.421c-1.09-.477-1.228-1.448-1.692-2.368-.032-.062-.211-1.384-.212-1.489-.005-.456-1.323-1.667-1.937-.717-1.21,1.872-2.537-1.053-2.466-.272.209,2.325-.858,6.075.008,6.33,1.845.542,10.458,1.172,10.621.267C2901.777,1948.629,2899.242,1948.247,2897.357,1947.421Z" transform="translate(-2890.713 -1942.439)" fill="#264962"/>
          </g>
        </g>
      </g>
      <g id="Grupo_83565" data-name="Grupo 83565" transform="translate(17.929 38.767)">
        <g id="Grupo_83564" data-name="Grupo 83564">
          <g id="Grupo_83563" data-name="Grupo 83563">
            <g id="Grupo_83562" data-name="Grupo 83562">
              <path id="Trazado_144188" data-name="Trazado 144188" d="M2893.005,1138.1c2.176-4.806,18.722-11.042,23.087-12.069.319,4.84,2.552,7.855,5.193,13.075,3.692,7.3-6.418,87.317-6.418,87.317h-9.057l2.272-74.785-17.146,74.785h-8.688S2890.509,1143.615,2893.005,1138.1Z" transform="translate(-2882.248 -1126.033)" fill="#4182af"/>
            </g>
          </g>
        </g>
      </g>
      <g id="Grupo_83568" data-name="Grupo 83568" transform="translate(26.334 51.444)">
        <g id="Grupo_83567" data-name="Grupo 83567">
          <g id="Grupo_83566" data-name="Grupo 83566">
            <path id="Trazado_144189" data-name="Trazado 144189" d="M2952.628,1235.735l9.49-.289,9.537-4.86h2.755s5.533.4,7.909.662a12.46,12.46,0,0,1,.568,3.285c-.152.923-.281,1.692-.281,1.692a29.584,29.584,0,0,1-9.287,3.546c-5.026.929-13.509,3.383-21.747,2.662C2951.946,1239.887,2952.3,1237.623,2952.628,1235.735Z" transform="translate(-2951.571 -1230.586)" fill="#2a5776"/>
          </g>
        </g>
      </g>
      <g id="Grupo_83571" data-name="Grupo 83571" transform="translate(25.046 11.737)">
        <g id="Grupo_83570" data-name="Grupo 83570">
          <g id="Grupo_83569" data-name="Grupo 83569">
            <path id="Trazado_144190" data-name="Trazado 144190" d="M2942.878,931.735c-.732-10.612-2.652-16.474-1.639-20.1,1.3-4.644,8.091-7.809,11.979-8.349,3.2-.444,11.05-.174,13.9,1.819,4.563,3.2,7.233,42.78,7.233,42.78s-2.765,1.828-10.169,3.188c-.392.072-.708-7.072-1.127-7-.878.145-1.9,7.5-2.9,7.624-13.617,1.736-18.228,0-18.228,0S2943.746,944.322,2942.878,931.735Z" transform="translate(-2940.95 -903.107)" fill="#4182af"/>
          </g>
        </g>
      </g>
      <g id="Grupo_83574" data-name="Grupo 83574" transform="translate(34.559 11.352)">
        <g id="Grupo_83573" data-name="Grupo 83573">
          <g id="Grupo_83572" data-name="Grupo 83572">
            <path id="Trazado_144191" data-name="Trazado 144191" d="M3024.126,900.065c-2.353.364-3.971,2.529-4.583,3.49a.6.6,0,0,0,.129.782l3.361,2.714s-3.295-1.566-3.622-1.238,9.076,15.445,10.244,15.982,2.655-17.291,2.07-17.268-1.436,1.154-1.436,1.154l.723-3.12a.576.576,0,0,0-.109-.488C3030.355,901.378,3028.385,899.407,3024.126,900.065Z" transform="translate(-3019.404 -899.932)" fill="#90d1ff"/>
          </g>
        </g>
      </g>
      <g id="Grupo_83577" data-name="Grupo 83577" transform="translate(37.59 11.316)">
        <g id="Grupo_83576" data-name="Grupo 83576">
          <g id="Grupo_83575" data-name="Grupo 83575">
            <path id="Trazado_144192" data-name="Trazado 144192" d="M3044.4,901.152s1.937,5.023,2.912,7.547,4.763,14.083,4.763,14.083-1.517-19.794-1.948-21.175C3049.8,900.564,3046.5,898,3044.4,901.152Z" transform="translate(-3044.4 -899.634)" fill="#f7f7f7"/>
          </g>
        </g>
      </g>
      <g id="Grupo_83580" data-name="Grupo 83580" transform="translate(37.859)">
        <g id="Grupo_83579" data-name="Grupo 83579">
          <g id="Grupo_83578" data-name="Grupo 83578">
            <path id="Trazado_144193" data-name="Trazado 144193" d="M3048.691,807.55c.387-.57,1.356-1.647,2.609-1.087a1.806,1.806,0,0,1,1.223,2.007,1.041,1.041,0,0,1,.119,1.47,4.208,4.208,0,0,1-.468.765c-.242.357.007.8-.189.747s-3.685,2.53-3.94,2.49a.739.739,0,0,1-.626-.643,4.8,4.8,0,0,0-.495-1.386c-.973-1.74.749-3.369.749-3.369A8.9,8.9,0,0,0,3048.691,807.55Z" transform="translate(-3046.625 -806.307)" fill="#091946"/>
          </g>
        </g>
      </g>
      <g id="Grupo_83583" data-name="Grupo 83583" transform="translate(38.642 6.638)">
        <g id="Grupo_83582" data-name="Grupo 83582">
          <g id="Grupo_83581" data-name="Grupo 83581">
            <path id="Trazado_144194" data-name="Trazado 144194" d="M3057.315,867.753c-1.584.885-4.2-.754-4.233-1.51l.55-4.98.04-.207.073.04,2.424,1.309.238.733.078.239.083.256.027.082.313,1.63S3057.707,867.535,3057.315,867.753Z" transform="translate(-3053.082 -861.056)" fill="#fff5a2"/>
          </g>
        </g>
      </g>
      <g id="Grupo_83586" data-name="Grupo 83586" transform="translate(39.191 2.249)">
        <g id="Grupo_83585" data-name="Grupo 83585">
          <g id="Grupo_83584" data-name="Grupo 83584">
            <path id="Trazado_144195" data-name="Trazado 144195" d="M3062.823,830.464a1.523,1.523,0,0,1-.234.846.015.015,0,0,0,0,.005,1.016,1.016,0,0,1-.16.18c-.034.031-.07.06-.107.087a2.292,2.292,0,0,1-1.663.248h0c-.034,0-.068-.007-.1-.013h0c-.073-.009-.149-.02-.228-.032s-.186-.031-.283-.05a1.763,1.763,0,0,1-.861-.206c-.062-.03-.123-.063-.182-.1a2.761,2.761,0,0,1-1.384-1.983,1.218,1.218,0,0,1,.022-.3l.06-.691.1-.105a3.244,3.244,0,0,0,.682-1.7c.094-1.177,1.354-1.539,1.864-1.672,1.74-.455,1.466.361,1.851,1.293A12.457,12.457,0,0,1,3062.823,830.464Z" transform="translate(-3057.609 -824.851)" fill="#fff5a2"/>
          </g>
        </g>
      </g>
      <g id="Grupo_83590" data-name="Grupo 83590" transform="translate(42.692 5.777)">
        <g id="Grupo_83589" data-name="Grupo 83589">
          <g id="Grupo_83588" data-name="Grupo 83588">
            <g id="Grupo_83587" data-name="Grupo 83587">
              <path id="Trazado_144196" data-name="Trazado 144196" d="M3086.478,854.485c-.011.022.048.058.139.061a.546.546,0,0,0,.356-.111.019.019,0,0,1,.008-.006.56.56,0,0,0,.162-.2.39.39,0,0,0,.046-.239c-.006-.028-.015-.04-.03-.039a.029.029,0,0,0-.02.006,1.4,1.4,0,0,0-.108.15.9.9,0,0,1-.145.154.127.127,0,0,1-.021.017.9.9,0,0,1-.271.142C3086.527,854.444,3086.481,854.459,3086.478,854.485Z" transform="translate(-3086.477 -853.951)" fill="#cbba34"/>
            </g>
          </g>
        </g>
      </g>
      <g id="Grupo_83593" data-name="Grupo 83593" transform="translate(40.959 3.898)">
        <g id="Grupo_83592" data-name="Grupo 83592">
          <g id="Grupo_83591" data-name="Grupo 83591">
            <path id="Trazado_144197" data-name="Trazado 144197" d="M3072.329,838.648a1.221,1.221,0,0,1,1.123-.091c.114.056.077.212-.089.209a2.684,2.684,0,0,0-1,.093C3072.178,838.91,3072.1,838.746,3072.329,838.648Z" transform="translate(-3072.19 -838.454)" fill="#091946"/>
          </g>
        </g>
      </g>
      <g id="Grupo_83596" data-name="Grupo 83596" transform="translate(43.312 3.933)">
        <g id="Grupo_83595" data-name="Grupo 83595">
          <g id="Grupo_83594" data-name="Grupo 83594">
            <path id="Trazado_144198" data-name="Trazado 144198" d="M3092.306,838.833a.851.851,0,0,0-.585-.074c-.125.016-.194.148-.033.189a5.224,5.224,0,0,1,.643.144C3092.477,839.152,3092.512,838.966,3092.306,838.833Z" transform="translate(-3091.594 -838.741)" fill="#091946"/>
          </g>
        </g>
      </g>
      <g id="Grupo_83600" data-name="Grupo 83600" transform="translate(41.799 5.235)">
        <g id="Grupo_83599" data-name="Grupo 83599">
          <g id="Grupo_83598" data-name="Grupo 83598">
            <g id="Grupo_83597" data-name="Grupo 83597">
              <path id="Trazado_144199" data-name="Trazado 144199" d="M3079.4,849.7c0,.118-.069.213-.146.21s-.137-.1-.134-.219.069-.213.147-.21S3079.4,849.581,3079.4,849.7Z" transform="translate(-3079.12 -849.481)" fill="#434a59"/>
            </g>
          </g>
        </g>
      </g>
      <g id="Grupo_83604" data-name="Grupo 83604" transform="translate(43.772 5.144)">
        <g id="Grupo_83603" data-name="Grupo 83603">
          <g id="Grupo_83602" data-name="Grupo 83602">
            <g id="Grupo_83601" data-name="Grupo 83601">
              <path id="Trazado_144200" data-name="Trazado 144200" d="M3095.668,848.948c0,.118-.069.213-.147.21s-.137-.1-.134-.219.069-.212.146-.21S3095.672,848.83,3095.668,848.948Z" transform="translate(-3095.387 -848.73)" fill="#434a59"/>
            </g>
          </g>
        </g>
      </g>
      <g id="Grupo_83608" data-name="Grupo 83608" transform="translate(40.66 8.35)">
        <g id="Grupo_83607" data-name="Grupo 83607">
          <g id="Grupo_83606" data-name="Grupo 83606">
            <g id="Grupo_83605" data-name="Grupo 83605">
              <path id="Trazado_144201" data-name="Trazado 144201" d="M3071.232,876.175l.3,1.577a3.353,3.353,0,0,1-1.665-1.869q-.026-.068-.046-.131a1.035,1.035,0,0,1-.084-.544c.088-.17.539.364,1.2.533l.176.042a3.628,3.628,0,0,0,1.854.021,2.292,2.292,0,0,1-1.663.248h0a.039.039,0,0,0-.026.009A.112.112,0,0,0,3071.232,876.175Z" transform="translate(-3069.726 -875.175)" fill="#cbba34"/>
            </g>
          </g>
        </g>
      </g>
      <g id="Grupo_83611" data-name="Grupo 83611" transform="translate(37.881 10.868)">
        <g id="Grupo_83610" data-name="Grupo 83610">
          <g id="Grupo_83609" data-name="Grupo 83609">
            <path id="Trazado_144202" data-name="Trazado 144202" d="M3050.795,897.868s-2.8-1.539-3.386-1.927l-.61,1.618,2.56,2.868,1.289-1.623,2.107.984-1.174-3.286Z" transform="translate(-3046.799 -895.941)" fill="#fff"/>
          </g>
        </g>
      </g>
      <g id="Grupo_83613" data-name="Grupo 83613" transform="translate(19.643 66.527)">
        <g id="Grupo_83612" data-name="Grupo 83612">
          <path id="Trazado_144203" data-name="Trazado 144203" d="M2896.528,1426.373a.169.169,0,0,1-.142-.193l3.959-32.961c.035-.273,3.574-27.339,4.47-32.571a53.115,53.115,0,0,0,.822-5.478.17.17,0,0,1,.328-.08,50.632,50.632,0,0,1-.816,5.616c-.894,5.226-4.432,32.285-4.468,32.561l-3.96,32.964a.17.17,0,0,1-.167.145Zm9.115-71.174h0Zm0,0h0Z" transform="translate(-2896.384 -1354.974)" fill="#284b64"/>
        </g>
      </g>
      <g id="Grupo_83615" data-name="Grupo 83615" transform="translate(43.594 61.68)">
        <g id="Grupo_83614" data-name="Grupo 83614">
          <path id="Trazado_144204" data-name="Trazado 144204" d="M3094.087,1317.866a.17.17,0,0,0,.151-.093,6,6,0,0,1,1.945-2.455.17.17,0,1,0-.167-.295,6.216,6.216,0,0,0-2.08,2.6.17.17,0,0,0,.151.246Z" transform="translate(-3093.917 -1315.001)" fill="#284b64"/>
        </g>
      </g>
      <g id="Grupo_83617" data-name="Grupo 83617" transform="translate(43.123 65.3)">
        <g id="Grupo_83616" data-name="Grupo 83616">
          <path id="Trazado_144205" data-name="Trazado 144205" d="M3090.207,1417.621a.17.17,0,0,0,.169-.16c0-.048.279-4.847.446-6.689.1-1.119.2-5.309.292-9.006.059-2.455.115-11.335.161-12.269.034-.69.052-2.38.076-4.52.054-4.941.135-12.407.5-14.062a68.826,68.826,0,0,0,.286-8.617,75.223,75.223,0,0,1,.27-8.583c.509-2.6-.51-8.468-.554-8.717a.17.17,0,1,0-.334.059c.011.06,1.051,6.051.554,8.593a74.924,74.924,0,0,0-.275,8.647,71.13,71.13,0,0,1-.277,8.545c-.371,1.689-.453,9.176-.506,14.131-.023,2.136-.042,3.824-.075,4.508-.045.938-.1,9.82-.161,12.277-.089,3.692-.19,7.876-.291,8.984-.168,1.848-.444,6.653-.447,6.7a.17.17,0,0,0,.16.179Z" transform="translate(-3090.037 -1344.858)" fill="#284b64"/>
        </g>
      </g>
      <g id="Grupo_83619" data-name="Grupo 83619" transform="translate(26.909 63.601)">
        <g id="Grupo_83618" data-name="Grupo 83618">
          <path id="Trazado_144206" data-name="Trazado 144206" d="M2956.485,1334.8a.188.188,0,0,0,.038,0,11.694,11.694,0,0,0,5.966-3.7.17.17,0,0,0-.3-.167,11.534,11.534,0,0,1-5.747,3.541.17.17,0,0,0,.038.335Z" transform="translate(-2956.315 -1330.843)" fill="#284b64"/>
        </g>
      </g>
      <g id="Grupo_83633" data-name="Grupo 83633" transform="translate(39.214 4.434)">
        <g id="Grupo_83629" data-name="Grupo 83629" transform="translate(1.524)">
          <g id="Grupo_83622" data-name="Grupo 83622" transform="translate(0 0.092)">
            <g id="Grupo_83621" data-name="Grupo 83621">
              <g id="Grupo_83620" data-name="Grupo 83620">
                <path id="Trazado_144207" data-name="Trazado 144207" d="M3071.064,845.231a.814.814,0,0,1-.691-.683.775.775,0,0,1,.179-.6.887.887,0,0,1,.571-.309.834.834,0,0,1,.956.687h0a.773.773,0,0,1-.179.6.886.886,0,0,1-.572.309A.912.912,0,0,1,3071.064,845.231Zm.3-1.443a.767.767,0,0,0-.223,0,.742.742,0,0,0-.479.258.632.632,0,0,0-.146.487.689.689,0,0,0,.793.562.741.741,0,0,0,.478-.258.628.628,0,0,0,.146-.487h0A.668.668,0,0,0,3071.366,843.788Z" transform="translate(-3070.367 -843.632)" fill="#091946"/>
              </g>
            </g>
          </g>
          <g id="Grupo_83625" data-name="Grupo 83625" transform="translate(2.517)">
            <g id="Grupo_83624" data-name="Grupo 83624">
              <g id="Grupo_83623" data-name="Grupo 83623">
                <path id="Trazado_144208" data-name="Trazado 144208" d="M3091.7,844.317a.72.72,0,0,1-.571-.634.7.7,0,0,1,.558-.8.622.622,0,0,1,.49.154.765.765,0,0,1,.253.482h0a.765.765,0,0,1-.123.531.623.623,0,0,1-.435.274A.6.6,0,0,1,3091.7,844.317Zm.138-1.292a.459.459,0,0,0-.133,0,.586.586,0,0,0,.149,1.154.478.478,0,0,0,.334-.212.618.618,0,0,0,.1-.43h0a.622.622,0,0,0-.2-.391A.5.5,0,0,0,3091.838,843.024Z" transform="translate(-3091.122 -842.873)" fill="#091946"/>
              </g>
            </g>
          </g>
          <g id="Grupo_83628" data-name="Grupo 83628" transform="translate(1.562 0.564)">
            <g id="Grupo_83627" data-name="Grupo 83627">
              <g id="Grupo_83626" data-name="Grupo 83626">
                <path id="Trazado_144209" data-name="Trazado 144209" d="M3083.311,847.8a.073.073,0,0,1-.028-.133,1.12,1.12,0,0,1,1.025-.037.073.073,0,1,1-.06.132.975.975,0,0,0-.888.027A.071.071,0,0,1,3083.311,847.8Z" transform="translate(-3083.25 -847.522)" fill="#091946"/>
              </g>
            </g>
          </g>
        </g>
        <g id="Grupo_83632" data-name="Grupo 83632" transform="translate(0 0.663)">
          <g id="Grupo_83631" data-name="Grupo 83631">
            <g id="Grupo_83630" data-name="Grupo 83630">
              <path id="Trazado_144210" data-name="Trazado 144210" d="M3057.858,848.487a.073.073,0,0,1,.017-.144l1.527.112a.074.074,0,0,1,.067.077.073.073,0,0,1-.078.067l-1.527-.112Z" transform="translate(-3057.797 -848.342)" fill="#091946"/>
            </g>
          </g>
        </g>
      </g>
      <g id="Grupo_83634" data-name="Grupo 83634" transform="translate(45.403 34.593)">
        <path id="Trazado_144211" data-name="Trazado 144211" d="M3110.453,1109.288h-.019a.241.241,0,0,1-.222-.259,62.137,62.137,0,0,0,0-8.368,80.262,80.262,0,0,0-1.364-8.763.241.241,0,1,1,.471-.1,80.831,80.831,0,0,1,1.374,8.826,62.8,62.8,0,0,1,0,8.444A.241.241,0,0,1,3110.453,1109.288Z" transform="translate(-3108.843 -1091.605)" fill="#2f6386"/>
      </g>
      <g id="Grupo_83635" data-name="Grupo 83635" transform="translate(57.409 35.971)">
        <path id="Trazado_144212" data-name="Trazado 144212" d="M3210.327,1107.128a.242.242,0,0,1-.207-.116l-2.231-3.675a.241.241,0,1,1,.412-.25l2.231,3.675a.241.241,0,0,1-.206.366Z" transform="translate(-3207.854 -1102.971)" fill="#2f6386"/>
      </g>
      <g id="Grupo_83649" data-name="Grupo 83649" transform="translate(0 78.576)">
        <g id="Grupo_83638" data-name="Grupo 83638" transform="translate(11.802 3.577)">
          <g id="Grupo_83637" data-name="Grupo 83637">
            <g id="Grupo_83636" data-name="Grupo 83636">
              <path id="Trazado_144213" data-name="Trazado 144213" d="M2839.856,1488.358a.732.732,0,0,1-1.05-.735l.236-2.205c-2.1.242-4.765.559-5.783.706-.048.522-.076,1.505-.073,2.336a.732.732,0,1,1-1.463.006c0-.03,0-.739.022-1.475.049-1.471.134-1.933.594-2.16.141-.069.333-.164,7.445-.972a.732.732,0,0,1,.81.8l-.333,3.114A.731.731,0,0,1,2839.856,1488.358Zm-6.985-2.17Z" transform="translate(-2831.723 -1483.855)" fill="#817622"/>
            </g>
          </g>
        </g>
        <g id="Grupo_83640" data-name="Grupo 83640" transform="translate(14.178)">
          <g id="Grupo_83639" data-name="Grupo 83639">
            <path id="Trazado_144214" data-name="Trazado 144214" d="M2852.921,1455.021s-2.244,3.7-1.428,5.361c.327.663,3.224.041,3.763-.166s-.615-.972-.7-1.141c-.156-.317-.223-.257.366-1.191s1.207-2.165.847-2.66S2853.637,1453.656,2852.921,1455.021Z" transform="translate(-2851.315 -1454.354)" fill="#fff5a2"/>
          </g>
        </g>
        <g id="Grupo_83642" data-name="Grupo 83642" transform="translate(16.787 2.005)">
          <g id="Grupo_83641" data-name="Grupo 83641">
            <path id="Trazado_144215" data-name="Trazado 144215" d="M2873.845,1470.889s.819,1.325,1.254,1.5,1.434-.123,1.337.43-1.243.592-1.811.385-1.655-.6-1.786-.869S2873.845,1470.889,2873.845,1470.889Z" transform="translate(-2872.83 -1470.889)" fill="#fff5a2"/>
          </g>
        </g>
        <g id="Grupo_83644" data-name="Grupo 83644" transform="translate(0 6.317)">
          <g id="Grupo_83643" data-name="Grupo 83643">
            <path id="Trazado_144216" data-name="Trazado 144216" d="M2734.385,1528.4l26.661-.1,2.034-21.847-26.35,2.073Z" transform="translate(-2734.385 -1506.457)" fill="#cbba34"/>
          </g>
        </g>
        <g id="Grupo_83646" data-name="Grupo 83646" transform="translate(26.66 6.317)">
          <g id="Grupo_83645" data-name="Grupo 83645">
            <path id="Trazado_144217" data-name="Trazado 144217" d="M2958.078,1526.273l-1.781-19.816-2.034,21.847Z" transform="translate(-2954.262 -1506.457)" fill="#72691e"/>
          </g>
        </g>
        <g id="Grupo_83648" data-name="Grupo 83648" transform="translate(0.681 19.995)">
          <g id="Grupo_83647" data-name="Grupo 83647">
            <path id="Trazado_144218" data-name="Trazado 144218" d="M2740,1621.759l26.671-1.758.069-.738-26.652,1.757Z" transform="translate(-2740.001 -1619.263)" fill="#807522"/>
          </g>
        </g>
      </g>
      <g id="Grupo_83650" data-name="Grupo 83650" transform="translate(14.028 16.901)">
        <path id="Trazado_144219" data-name="Trazado 144219" d="M2862.92,946.265s-9.263,13.213-11.569,29.734a151.77,151.77,0,0,0-.766,31.95s4.944,1.766,7.962-.2c0,0,1.045-22.133,2.315-28.51s7.119-24.122,7.119-24.122S2867.06,942.955,2862.92,946.265Z" transform="translate(-2850.081 -945.694)" fill="#4182af"/>
      </g>
      <g id="Grupo_83651" data-name="Grupo 83651" transform="translate(26.763 26.672)">
        <path id="Trazado_144220" data-name="Trazado 144220" d="M2955.454,1041.862a.345.345,0,0,1-.329-.45c.458-1.448,4.492-14.165,4.945-14.959a.345.345,0,1,1,.6.343c-.315.552-3.1,9.168-4.887,14.824A.345.345,0,0,1,2955.454,1041.862Z" transform="translate(-2955.109 -1026.28)" fill="#2f6386"/>
      </g>
      <g id="Grupo_83652" data-name="Grupo 83652" transform="translate(42.282 6.812)">
        <path id="Trazado_144221" data-name="Trazado 144221" d="M3083.2,862.769a.107.107,0,0,1-.013-.212,6.133,6.133,0,0,1,1.362-.042.106.106,0,0,1,.08.128.108.108,0,0,1-.128.08,5.8,5.8,0,0,0-1.287.046Z" transform="translate(-3083.098 -862.485)" fill="#cbba34"/>
      </g>
      <g id="Grupo_83655" data-name="Grupo 83655" transform="translate(38.495 4.74)">
        <g id="Grupo_83654" data-name="Grupo 83654">
          <g id="Grupo_83653" data-name="Grupo 83653">
            <path id="Trazado_144222" data-name="Trazado 144222" d="M3052.926,845.957c-.129-.343-.4-.823-.814-.382-.6.641.009,2.311.908,2.134C3053.688,847.577,3052.993,846.138,3052.926,845.957Z" transform="translate(-3051.871 -845.398)" fill="#fff5a2"/>
          </g>
        </g>
      </g>
    </g>
    <g id="Grupo_83683" data-name="Grupo 83683" transform="translate(14.013 81.668)">
      <path id="Trazado_144250" data-name="Trazado 144250" d="M774.69,898.24c-.816-2.652-3.026-3.961-4.216-5.032a14.128,14.128,0,0,1-1.825-2.242,8.988,8.988,0,0,1-1.361-3.067c-.251-1.077-.556-2.37-.622-2.612-.182-.659-.561-1.727-1.45-2.032a3.255,3.255,0,0,0-1.932.094c-1.927-.661-2.1,1.141-2.685,1.823-.357.414-.4,2.844-.371,4.693-1.509,2.042-3.825,10.136-2.354,12.474s10,4.012,13.292,3.5S775.506,900.892,774.69,898.24Z" transform="translate(-742.392 -883.14)" fill="#091946"/>
      <path id="Trazado_144251" data-name="Trazado 144251" d="M680.922,1294.094c-.212-.378-23.251,10.1-24.339,10.988,0,0,3.278,60.04,3.466,63.793.092,1.841,3.556.8,3.943-1.023,4.576-21.538,3.675-28.336,3.675-28.336s-.054-26.823-.244-30.666c.26,1.4,22.616,59.052,22.788,59.817.63,2.8,3.8.733,3.7-.308C693.814,1367.377,682.026,1296.062,680.922,1294.094Z" transform="translate(-653.796 -1244.256)" fill="#fff5a2"/>
      <path id="Trazado_144252" data-name="Trazado 144252" d="M649.793,1006.887s-3.516,3.264-6.5,13.408-3.969,20.326-4.494,25.569.691,19.694,3.123,18.807S657.395,1003.675,649.793,1006.887Z" transform="translate(-638.061 -991.773)" fill="#fff5a2"/>
      <path id="Trazado_144253" data-name="Trazado 144253" d="M773.842,981.745s3.847-2,4.643-3.251a9.44,9.44,0,0,1,1.25,1.461c.073.284-4.714,3.719-4.714,3.719l-1.591-1.18-1.52.387a7.4,7.4,0,0,1,1.193-3.011,7.043,7.043,0,0,1,.989-1.017s-.248,1.184-.279,1.586C773.789,980.764,773.842,981.745,773.842,981.745Z" transform="translate(-755.14 -966.932)" fill="#b1d5de"/>
      <path id="Trazado_144254" data-name="Trazado 144254" d="M667.914,999.643l8.922,2.111s4.2-21.1,1.49-20.594C672.6,982.24,669.209,995.816,667.914,999.643Z" transform="translate(-663.754 -969.267)" fill="#cbba34"/>
      <path id="Trazado_144255" data-name="Trazado 144255" d="M711.273,999.076c-.013-.119-.024-.236-.032-.353-.354-5.129,4.144-16.7,3.039-20.339-.774-2.55-2.023-5.333-7.011-5.813-5.408-.521-8.221,1.094-10.4,4-2.2,2.923-2.427,8.065-2.73,12.328-.248,3.495-.741,6.479-.741,6.479s-.167.549-.445,1.505A41.026,41.026,0,0,0,711.273,999.076Z" transform="translate(-685.756 -961.641)" fill="#cbba34"/>
      <path id="Trazado_144256" data-name="Trazado 144256" d="M677.448,1192.2c-1.054-6.3-4.641-11.958-5.108-16.252a41.024,41.024,0,0,1-18.321-2.2c-1.336,4.606-5.23,18.673-5.371,26.622-.054,3.06,2.288,36.013,2.288,36.013a92.009,92.009,0,0,0,14.6,1.172c11.586.048,18.207-2.382,18.207-2.382S679.026,1201.638,677.448,1192.2Z" transform="translate(-646.822 -1138.516)" fill="#4182af"/>
      <path id="Trazado_144257" data-name="Trazado 144257" d="M808.928,1013.718c-2.992,3,6.773,18.747,5.626,23.467-1.348,5.547-9.064,22.11-8.936,24.622.09,1.765.621,2.5,3.4.459,2.33-1.707,12.657-13.749,13.346-23.094.646-8.755-4.823-19.613-7-23.005C813.608,1013.424,810.5,1012.141,808.928,1013.718Z" transform="translate(-784.76 -997.284)" fill="#fff5a2"/>
      <g id="Grupo_83675" data-name="Grupo 83675" transform="translate(35.947 122.329)">
        <path id="Trazado_144258" data-name="Trazado 144258" d="M931.853,1895.436c.674.615,3.392,4.22,4.361,4.324a3.772,3.772,0,0,0,1.235-.066,9.333,9.333,0,0,1-1.891-2.878,22.786,22.786,0,0,1-1.8-4.784h-3.691a23.013,23.013,0,0,1,.412,2.965A2,2,0,0,1,931.853,1895.436Z" transform="translate(-930.066 -1892.032)" fill="#fff5a2"/>
        <path id="Trazado_144259" data-name="Trazado 144259" d="M930.478,1916.482a2,2,0,0,1,1.375.439c.674.615,3.392,4.22,4.361,4.324a3.773,3.773,0,0,0,1.235-.066,1.284,1.284,0,0,0,.347.207,6.151,6.151,0,0,1,2.142,1.16.546.546,0,0,1-.388.936l-3.808-.028a1.967,1.967,0,0,1-1.809-1.2,3.373,3.373,0,0,0-.5-.9,1.858,1.858,0,0,0-1.4-.447l-.019,2.519-1.211-.009a22.707,22.707,0,0,0-.692-4.608A4.914,4.914,0,0,1,930.478,1916.482Z" transform="translate(-930.066 -1913.517)" fill="#4182af"/>
      </g>
      <g id="Grupo_83676" data-name="Grupo 83676" transform="translate(0 122.517)">
        <path id="Trazado_144260" data-name="Trazado 144260" d="M662.34,1896.8c-.714.615-3.671,4.221-4.646,4.325a3.727,3.727,0,0,1-1.23-.066,10.236,10.236,0,0,0,2.081-2.878,9.253,9.253,0,0,0,1.48-3.926l4.011-.67a24.915,24.915,0,0,0-.293,2.777A2.112,2.112,0,0,0,662.34,1896.8Z" transform="translate(-653.692 -1893.584)" fill="#fff5a2"/>
        <path id="Trazado_144261" data-name="Trazado 144261" d="M643.653,1916.482a2.111,2.111,0,0,0-1.4.439c-.714.615-3.671,4.22-4.646,4.324a3.727,3.727,0,0,1-1.23-.066,1.4,1.4,0,0,1-.361.207,6.68,6.68,0,0,0-2.218,1.16.526.526,0,0,0,.326.936l3.81-.028a2.133,2.133,0,0,0,1.888-1.2,3.678,3.678,0,0,1,.557-.9,1.948,1.948,0,0,1,1.431-.447l-.147,2.519,1.212-.009a23.51,23.51,0,0,1,1-4.608A4.8,4.8,0,0,0,643.653,1916.482Z" transform="translate(-633.601 -1913.705)" fill="#4182af"/>
      </g>
      <g id="Grupo_83677" data-name="Grupo 83677" transform="translate(18.491 6.279)">
        <path id="Trazado_144262" data-name="Trazado 144262" d="M789.227,934.926l.41,4.75c.053.856-1.953,3.167-3.371,2.154-.415-.3.046-1.5.374-2.409l.788-3.682Z" transform="translate(-786.101 -934.926)" fill="#fff5a2"/>
      </g>
      <g id="Grupo_83678" data-name="Grupo 83678" transform="translate(17.048 1.88)">
        <path id="Trazado_144263" data-name="Trazado 144263" d="M778.857,902.294c.094,1.42-.8,2.161-2.2,2.446-1.366.278-1.863.019-2.237-.91a3.213,3.213,0,0,1-.216-.9,4.369,4.369,0,0,1,.441-2.092,7.133,7.133,0,0,0,.324-.949,1.764,1.764,0,0,1,1.631-1.238c.42,0,.5.816.9,1.136.548.44,1.443,1.176,1.443,1.176A9.447,9.447,0,0,0,778.857,902.294Z" transform="translate(-774.202 -898.647)" fill="#fff5a2"/>
      </g>
      <path id="Trazado_144264" data-name="Trazado 144264" d="M779.945,944.084a2.914,2.914,0,0,1-.929-.134c.361.4.893.485,1.875.285.044-.009.086-.02.128-.03l-.39,1.819a3.017,3.017,0,0,0,1.436-2.38C781.954,943.4,780.817,944.056,779.945,944.084Z" transform="translate(-761.384 -936.261)" fill="#cbba34"/>
      <path id="Trazado_144265" data-name="Trazado 144265" d="M792.5,909.85a.782.782,0,0,0-.724-.152c-.092.025-.113.126,0,.138a1.7,1.7,0,0,1,.644.143C792.524,910.025,792.621,909.929,792.5,909.85Z" transform="translate(-772.528 -906.448)" fill="#0f2771"/>
      <path id="Trazado_144266" data-name="Trazado 144266" d="M780,908.406a.733.733,0,0,1,.43.087c.091.039.134.138.015.127a4.206,4.206,0,0,0-.475-.056C779.859,908.57,779.843,908.443,780,908.406Z" transform="translate(-762.147 -905.334)" fill="#0f2771"/>
      <path id="Trazado_144267" data-name="Trazado 144267" d="M780.829,922.049a.4.4,0,0,0,.257.373c.258.085.375.063.341-.046s-.278-.049-.372-.18-.02-.254-.082-.273A.107.107,0,0,0,780.829,922.049Z" transform="translate(-762.975 -917.216)" fill="#cbba34"/>
      <path id="Trazado_144268" data-name="Trazado 144268" d="M791.8,915.118c.016.118-.039.223-.122.234s-.164-.076-.179-.194.039-.223.122-.234S791.781,915,791.8,915.118Z" transform="translate(-772.348 -911.069)" fill="#0f2771"/>
      <path id="Trazado_144269" data-name="Trazado 144269" d="M779.23,914.512c.016.118-.039.223-.122.234s-.164-.076-.18-.194.039-.223.122-.234S779.214,914.394,779.23,914.512Z" transform="translate(-761.305 -910.537)" fill="#0f2771"/>
      <g id="Grupo_83679" data-name="Grupo 83679" transform="translate(21.32 3.631)">
        <path id="Trazado_144270" data-name="Trazado 144270" d="M809.721,914.079a2.394,2.394,0,0,0,.2-.471c.1-.31.315-.748.707-.376.57.541-.041,2.165-.852,2.048C809.171,915.193,809.508,914.454,809.721,914.079Z" transform="translate(-809.433 -913.089)" fill="#fff5a2"/>
      </g>
      <path id="Trazado_144271" data-name="Trazado 144271" d="M826.278,1013.826s1.084.474,4.868-.63a14.386,14.386,0,0,0,4.733-2.435s-3.9-8.733-6.318-11.734-4.328-2.9-5.255-2.627a2.63,2.63,0,0,0-1.6,2.1C821.773,1001.908,826.278,1013.826,826.278,1013.826Z" transform="translate(-799.665 -982.557)" fill="#cbba34"/>
      <g id="Grupo_83680" data-name="Grupo 83680" transform="translate(29.47 37.957)">
        <path id="Trazado_144272" data-name="Trazado 144272" d="M876.908,1199.948a.235.235,0,0,1-.045,0,.255.255,0,0,1-.206-.3,8.331,8.331,0,0,0,.075-3.145.255.255,0,1,1,.495-.125,8.7,8.7,0,0,1-.067,3.359A.255.255,0,0,1,876.908,1199.948Z" transform="translate(-876.653 -1196.185)" fill="#c66c67"/>
      </g>
      <path id="Trazado_144273" data-name="Trazado 144273" d="M781.394,972.215A20.907,20.907,0,0,0,783.521,971c.313-.287.5-.861.678-.77a2.859,2.859,0,0,1,.627,1.109,20.757,20.757,0,0,1-2.792,2.766c-.313.118-.926-1.035-.926-1.035s-1.226.513-1.24.291a12.512,12.512,0,0,1,.956-2.061C780.858,971.306,781.394,972.215,781.394,972.215Z" transform="translate(-762.133 -959.664)" fill="#fff"/>
      <g id="Grupo_83681" data-name="Grupo 83681" transform="translate(8.52 60.824)">
        <path id="Trazado_144274" data-name="Trazado 144274" d="M717.663,1417.849a.408.408,0,0,1-.377-.252L703.9,1385.344a.408.408,0,1,1,.754-.313l13.387,32.254a.408.408,0,0,1-.377.565Z" transform="translate(-703.868 -1384.78)" fill="#326b91"/>
      </g>
      <path id="Trazado_144275" data-name="Trazado 144275" d="M789.166,1411.673a2.413,2.413,0,0,0-1.666,1.258c-.534,1.083-1.953,2.793-1.56,3.155s1.271-1.123,1.584-1.18-.114,3.823.359,3.937.634-1.62.634-1.62.005,1.4.286,1.622.529-.529.529-.529.5.255.671,0a5.213,5.213,0,0,0,.19-1.432s.59.613.727,0,0-4.943-.569-5.209A1.582,1.582,0,0,0,789.166,1411.673Z" transform="translate(-767.409 -1347.481)" fill="#fff5a2"/>
      <g id="Grupo_83682" data-name="Grupo 83682" transform="translate(17.564 5.691)">
        <path id="Trazado_144276" data-name="Trazado 144276" d="M779.728,930.347h-.006l-1.167-.07a.1.1,0,0,1-.1-.108.1.1,0,0,1,.108-.1l1.167.07a.1.1,0,0,1-.006.2Z" transform="translate(-778.459 -930.072)" fill="#cbba34"/>
      </g>
    </g>
    <g id="Grupo_83739" data-name="Grupo 83739" transform="translate(50.564 51.547)">
      <g id="Grupo_83684" data-name="Grupo 83684" transform="translate(0 16.098)">
        <path id="Trazado_144277" data-name="Trazado 144277" d="M958.558,768.311s-22.333,19.746-23.408,29.111,6.782,9.284,11.03,7.646,12.691-19.2,14.687-24.729S963.527,764.515,958.558,768.311Z" transform="translate(-935.05 -767.491)" fill="#336b91"/>
      </g>
      <g id="Grupo_83685" data-name="Grupo 83685" transform="translate(20.883 155.771)">
        <path id="Trazado_144278" data-name="Trazado 144278" d="M1112.416,1925.334c1.294-.567,1.458-1.719,2.009-2.811.037-.074.25-1.643.251-1.768.007-.542,1.571-1.979,2.3-.852,1.437,2.223,3.012-1.25,2.929-.323-.248,2.761,1.019,7.213-.01,7.515-2.191.643-12.417,1.391-12.61.317C1107.169,1926.768,1110.178,1926.313,1112.416,1925.334Z" transform="translate(-1107.282 -1919.418)" fill="#404859"/>
      </g>
      <g id="Grupo_83686" data-name="Grupo 83686" transform="translate(42.869 155.771)">
        <path id="Trazado_144279" data-name="Trazado 144279" d="M1293.742,1925.334c1.294-.567,1.458-1.719,2.009-2.811.037-.074.25-1.643.251-1.768.007-.542,1.571-1.979,2.3-.852,1.437,2.223,3.012-1.25,2.929-.323-.248,2.761,1.019,7.213-.01,7.515-2.191.643-12.417,1.391-12.61.317C1288.495,1926.768,1291.5,1926.313,1293.742,1925.334Z" transform="translate(-1288.608 -1919.418)" fill="#404859"/>
      </g>
      <g id="Grupo_83688" data-name="Grupo 83688" transform="translate(16.31 46.029)">
        <g id="Grupo_83687" data-name="Grupo 83687">
          <path id="Trazado_144280" data-name="Trazado 144280" d="M1104.1,1028.672c-2.584-5.707-22.229-13.11-27.411-14.329-.379,5.746-3.03,9.326-6.166,15.524-4.384,8.665,7.62,95.882,7.62,95.882s1.536,1.188,5.206,1.188c4.7,0,5.547-1.188,5.547-1.188l-2.7-81,14.06,81s.706.791,5.364,1.141c4.272.322,4.952-1.141,4.952-1.141S1107.065,1035.218,1104.1,1028.672Z" transform="translate(-1069.562 -1014.343)" fill="#4182af"/>
        </g>
      </g>
      <g id="Grupo_83689" data-name="Grupo 83689" transform="translate(19.307 68.018)">
        <path id="Trazado_144281" data-name="Trazado 144281" d="M1127.146,1195.691l-32.868.762s8.016,4.656,21.376,5.685c5.153.4,9.182.615,12.189.734C1127.612,1200.191,1127.379,1197.771,1127.146,1195.691Z" transform="translate(-1094.278 -1195.691)" fill="#326588"/>
      </g>
      <g id="Grupo_83690" data-name="Grupo 83690" transform="translate(15.519 13.937)">
        <path id="Trazado_144282" data-name="Trazado 144282" d="M1100.4,783.653c.869-12.6,3.149-19.559,1.947-23.86-1.542-5.514-9.607-9.272-14.223-9.913-3.8-.527-13.12-.206-16.5,2.16-5.418,3.794-8.588,50.793-8.588,50.793s4.448,2.942,16.857,4.524c16.168,2.061,21.643,0,21.643,0S1099.373,798.6,1100.4,783.653Z" transform="translate(-1063.041 -749.662)" fill="#4182af"/>
      </g>
      <g id="Grupo_83691" data-name="Grupo 83691" transform="translate(31.454 14.298)">
        <path id="Trazado_144283" data-name="Trazado 144283" d="M1196.509,754.622a142.083,142.083,0,0,0-1.857,17.864c-.343,9.484-.215,12.059.343,12.274s9.208-30.068,7.372-31.32S1196.885,752.291,1196.509,754.622Z" transform="translate(-1194.462 -752.643)" fill="#fff"/>
      </g>
      <g id="Grupo_83692" data-name="Grupo 83692" transform="translate(31.469 0)">
        <path id="Trazado_144284" data-name="Trazado 144284" d="M1201.111,636.912a.422.422,0,0,0-.013-.565c-.253-.306-.344-.1-.75-.086a6.6,6.6,0,0,1-1.358-.592.183.183,0,0,0-.117-.06h-.011a7.018,7.018,0,0,0-1.818-.654,2.138,2.138,0,0,0-.506-.195,1.729,1.729,0,0,0-1.773.632c-.1.222.256.35.356.129.117-.258.674-.376.924-.407a1.092,1.092,0,0,1,.109-.007,2.012,2.012,0,0,0-1.568,2.023,4.3,4.3,0,0,0,.489,2c.3,2.189,5.832,4.626,5.671,4s1.849-2.525,1.018-3.95c-.478-.82-.081-.918-.081-.918a.524.524,0,0,0,.283-.787A.9.9,0,0,0,1201.111,636.912Z" transform="translate(-1194.583 -634.722)" fill="#091946"/>
      </g>
      <g id="Grupo_83695" data-name="Grupo 83695" transform="translate(34.408 6.047)">
        <g id="Grupo_83694" data-name="Grupo 83694">
          <g id="Grupo_83693" data-name="Grupo 83693">
            <path id="Trazado_144285" data-name="Trazado 144285" d="M1221.7,684.938l1.771,6.822c.137.787.156,3.147-3.289,2.626a1.616,1.616,0,0,1-1.3-2.057l.825-7.739Z" transform="translate(-1218.825 -684.59)" fill="#fff5a2"/>
          </g>
        </g>
      </g>
      <g id="Grupo_83698" data-name="Grupo 83698" transform="translate(31.586 2.941)">
        <g id="Grupo_83697" data-name="Grupo 83697">
          <g id="Grupo_83696" data-name="Grupo 83696">
            <path id="Trazado_144286" data-name="Trazado 144286" d="M1199.587,660.207l1.8,3.2a2.241,2.241,0,0,1-1.033,2.95,6.191,6.191,0,0,1-2.666.643c-1,.076-1.691-.763-1.947-2.045a12.221,12.221,0,0,1-.025-4.156C1196.035,658.825,1198.259,658.207,1199.587,660.207Z" transform="translate(-1195.552 -658.979)" fill="#fff5a2"/>
          </g>
        </g>
      </g>
      <g id="Grupo_83701" data-name="Grupo 83701" transform="translate(34.66 9.352)">
        <g id="Grupo_83700" data-name="Grupo 83700">
          <g id="Grupo_83699" data-name="Grupo 83699">
            <path id="Trazado_144287" data-name="Trazado 144287" d="M1220.9,714.3a4.821,4.821,0,0,0,2.2-2.447l-2.008.523Z" transform="translate(-1220.904 -711.851)" fill="#cbba34"/>
          </g>
        </g>
      </g>
      <g id="Grupo_83704" data-name="Grupo 83704" transform="translate(31.237 3.465)">
        <g id="Grupo_83703" data-name="Grupo 83703">
          <g id="Grupo_83702" data-name="Grupo 83702">
            <path id="Trazado_144288" data-name="Trazado 144288" d="M1198.216,667.416l-.409-3.585c-.162-.245-.695-.753-.874-.432a7.29,7.29,0,0,1,.083,2.712c-.183.315-.891-.029-2.047.165-.736.124-1.744-.323-2.065.3-.23.443.186,1.464-.165,2.615-.382,1.251.951,1.983,2.219,1.938a6.5,6.5,0,0,0,2.869-.974C1198.915,669.611,1198.725,668.517,1198.216,667.416Z" transform="translate(-1192.673 -663.295)" fill="#091946"/>
          </g>
        </g>
      </g>
      <g id="Grupo_83707" data-name="Grupo 83707" transform="translate(36.468 4.087)">
        <g id="Grupo_83706" data-name="Grupo 83706">
          <g id="Grupo_83705" data-name="Grupo 83705">
            <path id="Trazado_144289" data-name="Trazado 144289" d="M1235.926,669.132c.048-.383.208-.942.742-.591.776.51.556,2.374-.41,2.412C1235.539,670.981,1235.9,669.334,1235.926,669.132Z" transform="translate(-1235.813 -668.43)" fill="#fff5a2"/>
          </g>
        </g>
      </g>
      <g id="Grupo_83717" data-name="Grupo 83717" transform="translate(31.875 5.103)">
        <g id="Grupo_83710" data-name="Grupo 83710" transform="translate(0.194 0.885)">
          <g id="Grupo_83709" data-name="Grupo 83709">
            <g id="Grupo_83708" data-name="Grupo 83708">
              <path id="Trazado_144290" data-name="Trazado 144290" d="M1200.38,684.335a1.43,1.43,0,0,1-.662-.209c-.156-.094-.272.164-.118.257a1.616,1.616,0,0,0,.732.231C1200.512,684.625,1200.562,684.347,1200.38,684.335Z" transform="translate(-1199.528 -684.106)" fill="#cbba34"/>
            </g>
          </g>
        </g>
        <g id="Grupo_83713" data-name="Grupo 83713" transform="translate(1.659)">
          <g id="Grupo_83712" data-name="Grupo 83712">
            <g id="Grupo_83711" data-name="Grupo 83711">
              <path id="Trazado_144291" data-name="Trazado 144291" d="M1211.809,676.808a.141.141,0,0,0-.162.1.507.507,0,0,0-.027.273.153.153,0,0,0,.225.1C1211.973,677.213,1212.006,676.821,1211.809,676.808Z" transform="translate(-1211.613 -676.807)" fill="#091946"/>
            </g>
          </g>
        </g>
        <g id="Grupo_83716" data-name="Grupo 83716" transform="translate(0 0.072)">
          <g id="Grupo_83715" data-name="Grupo 83715">
            <g id="Grupo_83714" data-name="Grupo 83714">
              <path id="Trazado_144292" data-name="Trazado 144292" d="M1198.128,677.4a.14.14,0,0,0-.161.1.506.506,0,0,0-.026.273.153.153,0,0,0,.225.1C1198.292,677.808,1198.325,677.417,1198.128,677.4Z" transform="translate(-1197.932 -677.403)" fill="#091946"/>
            </g>
          </g>
        </g>
      </g>
      <g id="Grupo_83720" data-name="Grupo 83720" transform="translate(33.493 4.087)">
        <g id="Grupo_83719" data-name="Grupo 83719">
          <g id="Grupo_83718" data-name="Grupo 83718">
            <path id="Trazado_144293" data-name="Trazado 144293" d="M1211.477,668.432c.21.029.422.046.63.085a.173.173,0,0,1-.058.342c-.209-.038-.42-.055-.63-.084S1211.256,668.4,1211.477,668.432Z" transform="translate(-1211.279 -668.43)" fill="#091946"/>
          </g>
        </g>
      </g>
      <g id="Grupo_83723" data-name="Grupo 83723" transform="translate(31.661 4.087)">
        <g id="Grupo_83722" data-name="Grupo 83722">
          <g id="Grupo_83721" data-name="Grupo 83721">
            <path id="Trazado_144294" data-name="Trazado 144294" d="M1196.7,668.449c-.155.091-.315.172-.465.271s.01.405.168.3.311-.179.465-.271S1196.863,668.353,1196.7,668.449Z" transform="translate(-1196.171 -668.43)" fill="#091946"/>
          </g>
        </g>
      </g>
      <g id="Grupo_83724" data-name="Grupo 83724" transform="translate(31.454 15.333)">
        <path id="Trazado_144295" data-name="Trazado 144295" d="M1198.821,762.914s.672-.74.656-1.194-2.554-1.04-2.287.226a2.5,2.5,0,0,0,.341.883s-2.84,16.083-2.879,17.159c-.343,9.484-.214,12.059.343,12.274.206.079,1.515-4,2.993-9.238C1198.338,781.783,1198.821,762.914,1198.821,762.914Z" transform="translate(-1194.462 -761.182)" fill="#3ca8f4"/>
      </g>
      <g id="Grupo_83725" data-name="Grupo 83725" transform="translate(33.298 12.918)">
        <path id="Trazado_144296" data-name="Trazado 144296" d="M1210.86,741.876l.954,1.507,3.536-2.124,1.48,1.435-3.3,3.069-1.882-1.464-1.972.642a12.131,12.131,0,0,1,.663-2.2C1210.436,742.569,1210.86,741.876,1210.86,741.876Z" transform="translate(-1209.673 -741.259)" fill="#fff"/>
      </g>
      <g id="Grupo_83726" data-name="Grupo 83726" transform="translate(30.546 71.753)">
        <path id="Trazado_144297" data-name="Trazado 144297" d="M1189.373,1231.626a.454.454,0,0,1-.453-.439c-.055-1.659-1.833-3.939-1.851-3.962a.454.454,0,1,1,.714-.561c.081.1,1.98,2.539,2.045,4.493a.454.454,0,0,1-.439.469Z" transform="translate(-1186.971 -1226.491)" fill="#326588"/>
      </g>
      <g id="Grupo_83727" data-name="Grupo 83727" transform="translate(28.951 42.355)">
        <path id="Trazado_144298" data-name="Trazado 144298" d="M1175.857,984.253l2.646-.214a7.061,7.061,0,0,1,5.472,2.838c2.488,3.026-3.8,1.306-6.927,2S1172.252,984.552,1175.857,984.253Z" transform="translate(-1173.818 -984.036)" fill="#fff5a2"/>
      </g>
      <g id="Grupo_83728" data-name="Grupo 83728" transform="translate(50.372 73.866)">
        <path id="Trazado_144299" data-name="Trazado 144299" d="M1355.191,1326.282a.455.455,0,0,1-.443-.557,12.453,12.453,0,0,0-.005-4.4,37.381,37.381,0,0,1-.093-6.988c.044-1,.087-1.944.087-2.679,0-1.437-.16-3.556-.3-5.427-.1-1.282-.188-2.494-.214-3.313-.034-1.055-.443-6.783-.839-12.322-.351-4.91-.714-9.987-.834-12.063-.053-.909-.135-2.279-.233-3.9-.4-6.566-.991-16.488-.991-18.4,0-2.335-.827-11.72-.835-11.815a.454.454,0,0,1,.9-.08c.034.388.839,9.521.839,11.9,0,1.881.619,12.185.99,18.341.1,1.625.18,3,.233,3.905.12,2.07.482,7.144.833,12.051.415,5.8.806,11.285.841,12.358.026.8.116,2,.212,3.274.142,1.886.3,4.024.3,5.495,0,.756-.043,1.71-.088,2.72a36.871,36.871,0,0,0,.081,6.8,13.116,13.116,0,0,1-.005,4.758A.455.455,0,0,1,1355.191,1326.282Z" transform="translate(-1350.488 -1243.924)" fill="#326588"/>
      </g>
      <g id="Grupo_83729" data-name="Grupo 83729" transform="translate(29.624 73.866)">
        <path id="Trazado_144300" data-name="Trazado 144300" d="M1183.321,1326.788a.454.454,0,0,1-.454-.454v-6.051c0-.155,0-.516.01-1.04.137-12.848-.078-20.541-.64-22.864-.994-4.11-1.89-22.874-1.944-24.489-.016-.473-.11-1.535-.23-2.88-.366-4.117-.979-11.009-.539-14.192.569-4.112.766-10.392.769-10.455a.454.454,0,1,1,.907.028c0,.063-.2,6.392-.777,10.552-.427,3.081.181,9.908.544,13.987.126,1.412.216,2.432.233,2.93.09,2.707,1,20.522,1.919,24.305.58,2.4.8,10.164.666,23.087-.005.52-.009.877-.009,1.031v6.051A.454.454,0,0,1,1183.321,1326.788Z" transform="translate(-1179.37 -1243.924)" fill="#326588"/>
      </g>
      <g id="Grupo_83730" data-name="Grupo 83730" transform="translate(33.99 20.719)">
        <path id="Trazado_144301" data-name="Trazado 144301" d="M1232.437,805.616c4.6.747,3.693,6.605,3.966,10.237.339,4.514-4.37,20.961-8.389,27.1-5.913,9.026-14.19-1.846-12.379-7.7C1218.656,825.491,1227.833,804.869,1232.437,805.616Z" transform="translate(-1215.381 -805.596)" fill="#4182af"/>
      </g>
      <g id="Grupo_83731" data-name="Grupo 83731" transform="translate(11.751 42.705)">
        <path id="Trazado_144302" data-name="Trazado 144302" d="M1063.854,993.442c-5.756-2.487-27.194-6.107-29.072-6.52-.32,2.391-2.307,5.483-2.82,6.249,1.637,1.017,22.116,11.452,25.691,12.211,7.853,1.668,9.295-2.459,10.106-5.45C1068.323,997.854,1066.586,994.623,1063.854,993.442Z" transform="translate(-1031.962 -986.922)" fill="#4182af"/>
      </g>
      <g id="Grupo_83732" data-name="Grupo 83732" transform="translate(9.123 36.995)">
        <path id="Trazado_144303" data-name="Trazado 144303" d="M1014.715,944.7c.549.373,2.776,2.881,4.908,2.368,3.343-.8.917-4.032-.031-4.734-3.346-2.478-8.639-3.328-9.221-1.577C1009.637,942.967,1014.415,944.5,1014.715,944.7Z" transform="translate(-1010.295 -939.833)" fill="#fff5a2"/>
      </g>
      <g id="Grupo_83733" data-name="Grupo 83733" transform="translate(6.804 40.95)">
        <path id="Trazado_144304" data-name="Trazado 144304" d="M996.857,972.452s14.632,1.688,18.49,1.621,4.859,2.43,3.337,3.845-16.937,6.8-22.777,6.63S988.775,974.866,996.857,972.452Z" transform="translate(-991.161 -972.452)" fill="#fff5a2"/>
      </g>
      <g id="Grupo_83734" data-name="Grupo 83734" transform="translate(0.716 40.211)">
        <path id="Trazado_144305" data-name="Trazado 144305" d="M968.307,975.814c-.566-2.769-.928-7.388-.533-9.075.021-.089-21.337-.38-21.337-.38-8.081,2.414-6.336,14.131-.5,14.305a40.093,40.093,0,0,0,14.314-1.87C961.347,978.428,968.352,976.032,968.307,975.814Z" transform="translate(-940.959 -966.359)" fill="#4182af"/>
      </g>
      <g id="Grupo_83735" data-name="Grupo 83735" transform="translate(20.209 42.788)">
        <path id="Trazado_144306" data-name="Trazado 144306" d="M1119.2,1005.132a21,21,0,0,1-5.836-.874,42.375,42.375,0,0,1-11.449-5.5.454.454,0,0,1,.531-.737,41.388,41.388,0,0,0,11.172,5.364c8.259,2.4,13.7-.628,16.041-4.258,2.424-3.761,4.051-11.088,4.067-11.162a.454.454,0,0,1,.887.195c-.067.307-1.68,7.562-4.191,11.459a11.994,11.994,0,0,1-6.5,4.812A15.554,15.554,0,0,1,1119.2,1005.132Z" transform="translate(-1101.722 -987.609)" fill="#2e678e"/>
      </g>
      <g id="Grupo_83736" data-name="Grupo 83736" transform="translate(34.683 38.779)">
        <path id="Trazado_144307" data-name="Trazado 144307" d="M1221.543,963.01a.454.454,0,0,1-.365-.724c.017-.024,1-1.415,3.543-7.461a.454.454,0,0,1,.837.352c-2.621,6.24-3.611,7.6-3.652,7.651A.453.453,0,0,1,1221.543,963.01Z" transform="translate(-1221.089 -954.547)" fill="#2e678e"/>
      </g>
      <g id="Grupo_83737" data-name="Grupo 83737" transform="translate(33.536 46.207)">
        <path id="Trazado_144308" data-name="Trazado 144308" d="M1215.924,1020.156a.453.453,0,0,1-.326-.138,32.361,32.361,0,0,0-3.747-3.374.454.454,0,1,1,.48-.771,32.236,32.236,0,0,1,3.92,3.514.454.454,0,0,1-.326.769Z" transform="translate(-1211.636 -1015.804)" fill="#2e678e"/>
      </g>
      <g id="Grupo_83738" data-name="Grupo 83738" transform="translate(32.186 7.159)">
        <path id="Trazado_144309" data-name="Trazado 144309" d="M1200.611,694.1a.114.114,0,0,1,0-.229,12.14,12.14,0,0,0,1.548-.1.114.114,0,1,1,.047.224,11.992,11.992,0,0,1-1.592.108Z" transform="translate(-1200.497 -693.769)" fill="#cbba34"/>
      </g>
    </g>
    <g id="Grupo_83774" data-name="Grupo 83774" transform="translate(215.422 58.529)">
      <g id="Grupo_83744" data-name="Grupo 83744" transform="translate(40.074 141.013)">
        <g id="Grupo_83741" data-name="Grupo 83741" transform="translate(0.931)">
          <g id="Grupo_83740" data-name="Grupo 83740">
            <path id="Trazado_144310" data-name="Trazado 144310" d="M2634.237,1863.537c.745.834,3.2,5.1,4.5,5.229a12.644,12.644,0,0,0,2.573-.1c-.7-.661-4.195-5.929-2.794-13.373l-5.643.321s.452,6.337.247,6.7C2633.646,1862.3,2633.777,1863.022,2634.237,1863.537Z" transform="translate(-2632.875 -1855.29)" fill="#fff5a2"/>
          </g>
        </g>
        <g id="Grupo_83743" data-name="Grupo 83743" transform="translate(0 7.019)">
          <g id="Grupo_83742" data-name="Grupo 83742">
            <path id="Trazado_144311" data-name="Trazado 144311" d="M2637.58,1921.377a6.341,6.341,0,0,0-2.6-1.565,1.308,1.308,0,0,1-.416-.28,12.644,12.644,0,0,1-2.573.1c-1.3-.133-3.755-4.4-4.5-5.229-.46-.515-.591-1.239-1.115-1.228a7.856,7.856,0,0,0-1.177,3.188c.041,1.325.189,4.884.259,6.3h1.657l.11-3.446s1.289-.133,1.792.6a3.613,3.613,0,0,1,.422,1.222,2.058,2.058,0,0,0,2.13,1.627h5.208C2637.449,1922.661,2637.968,1921.837,2637.58,1921.377Z" transform="translate(-2625.198 -1913.178)" fill="#9b8f2a"/>
          </g>
        </g>
      </g>
      <g id="Grupo_83746" data-name="Grupo 83746" transform="translate(36.604 12.534)">
        <g id="Grupo_83745" data-name="Grupo 83745">
          <path id="Trazado_144312" data-name="Trazado 144312" d="M2596.893,796.548c-2.736,6.395,13.223,19.935,13.295,21.973.063,1.788-1.04,19.908-1.04,19.908l3.167,2.575a45.044,45.044,0,0,0,8.451-20.987c.708-6.326-6.125-13.565-13.352-18.972C2602.727,797.538,2597.99,793.985,2596.893,796.548Z" transform="translate(-2596.578 -795.674)" fill="#4182af"/>
        </g>
      </g>
      <g id="Grupo_83747" data-name="Grupo 83747" transform="translate(48.921 33.448)">
        <path id="Trazado_144313" data-name="Trazado 144313" d="M2701.389,972.708a.32.32,0,0,0,.28-.474c-.187-.339-1.862-3.336-3.024-4.026a.319.319,0,1,0-.326.549c.858.51,2.306,2.905,2.791,3.785A.319.319,0,0,0,2701.389,972.708Z" transform="translate(-2698.162 -968.163)" fill="#326b93"/>
      </g>
      <g id="Grupo_83752" data-name="Grupo 83752" transform="translate(0 141.755)">
        <g id="Grupo_83749" data-name="Grupo 83749" transform="translate(3.782)">
          <g id="Grupo_83748" data-name="Grupo 83748">
            <path id="Trazado_144314" data-name="Trazado 144314" d="M2333.892,1868.271c-.973.834-5,5.738-6.331,5.871a5.1,5.1,0,0,1-1.682-.1c.879-.661,5.011-7.266,6.094-12.467l5.6-.164s-1.871,5.917-1.765,6.277A2.861,2.861,0,0,0,2333.892,1868.271Z" transform="translate(-2325.879 -1861.408)" fill="#fff5a2"/>
          </g>
        </g>
        <g id="Grupo_83751" data-name="Grupo 83751" transform="translate(0 6.276)">
          <g id="Grupo_83750" data-name="Grupo 83750">
            <path id="Trazado_144315" data-name="Trazado 144315" d="M2294.953,1921.371a9,9,0,0,1,3.027-1.565,1.858,1.858,0,0,0,.492-.28,5.1,5.1,0,0,0,1.683.1c1.333-.133,5.357-5.037,6.331-5.871a2.86,2.86,0,0,1,1.917-.586,6.591,6.591,0,0,1,.3,3.188c-.4,1.325-1.031,4.32-1.453,6.3H2305.6l.3-3.446a2.643,2.643,0,0,0-1.955.6,4.959,4.959,0,0,0-.757,1.222,2.877,2.877,0,0,1-2.576,1.628H2295.4A.724.724,0,0,1,2294.953,1921.371Z" transform="translate(-2294.691 -1913.171)" fill="#9a8d29"/>
          </g>
        </g>
      </g>
      <g id="Grupo_83754" data-name="Grupo 83754" transform="translate(7.494 39.399)">
        <g id="Grupo_83753" data-name="Grupo 83753">
          <path id="Trazado_144316" data-name="Trazado 144316" d="M2374.359,1026.006c2.022-7.316,20.921-13.729,23.728-3.282.862,3.207,4.252,5.684,5.363,16.622,1.972,19.413-5.523,85.067-7.181,86.262s-7.825,2.4-8.238.371c-.529-2.595.185-70.294.6-78.787-.5,2.666-22.854,76.79-24.154,78.416s-5.848,0-7.962-1.381c-.614-.4,13.085-68.036,13.085-68.036S2372.316,1033.4,2374.359,1026.006Z" transform="translate(-2356.5 -1017.242)" fill="#cbba34"/>
        </g>
      </g>
      <g id="Grupo_83755" data-name="Grupo 83755" transform="translate(39.274 56.354)">
        <path id="Trazado_144317" data-name="Trazado 144317" d="M2618.951,1170.424a.375.375,0,0,1-.061-.005.358.358,0,0,1-.291-.413c.061-.352,1.527-8.658,4.621-12.791a.358.358,0,1,1,.573.429c-2.992,4-4.474,12.4-4.489,12.485A.358.358,0,0,1,2618.951,1170.424Z" transform="translate(-2618.593 -1157.071)" fill="#958825"/>
      </g>
      <g id="Grupo_83757" data-name="Grupo 83757" transform="translate(22.535 11.467)">
        <g id="Grupo_83756" data-name="Grupo 83756">
          <path id="Trazado_144318" data-name="Trazado 144318" d="M2480.547,834.465c-.1-2.418,2.976-17.538,2.771-19.492-1.2-11.42-3.728-15.582-2.392-20.418,1.183-4.282,4.905-7.083,10.435-7.615,6-.578,7.473,2.859,10.207,5.81,5.415,5.845,2.924,10.195,4.449,20.852.389,2.722,7.579,14.177,8.155,17.367.4,2.228-10.178,6.1-15.963,6.455C2492.2,837.793,2480.647,836.832,2480.547,834.465Z" transform="translate(-2480.545 -786.876)" fill="#90d1ff"/>
        </g>
      </g>
      <g id="Grupo_83758" data-name="Grupo 83758" transform="translate(8.279 62.016)">
        <path id="Trazado_144319" data-name="Trazado 144319" d="M2363.151,1286.811a.189.189,0,0,1-.052-.008.179.179,0,0,1-.12-.223c0-.012.364-1.214.6-2.165.179-.716,2.24-10.908,3.472-17,.433-2.142.779-3.848.932-4.6.522-2.561,4.821-22.556,5.922-25.555.813-2.214,2.151-10.471,3.035-15.936.287-1.77.534-3.3.7-4.21.656-3.66,2.636-13.109,2.656-13.2a.179.179,0,1,1,.35.073c-.02.095-2,9.538-2.655,13.193-.163.908-.41,2.436-.7,4.2-.887,5.478-2.228,13.756-3.053,16-1.095,2.981-5.385,22.945-5.907,25.5-.154.752-.5,2.458-.932,4.6-1.312,6.487-3.294,16.289-3.475,17.013-.24.958-.6,2.168-.606,2.181A.179.179,0,0,1,2363.151,1286.811Z" transform="translate(-2362.972 -1203.772)" fill="#958825"/>
      </g>
      <g id="Grupo_83759" data-name="Grupo 83759" transform="translate(40.2 66.06)">
        <path id="Trazado_144320" data-name="Trazado 144320" d="M2626.412,1318.348l-.028,0a.18.18,0,0,1-.149-.2c.013-.079.311-1.948.49-2.614.1-.381-.075-5.823-.475-14.558l-.01-.234c-.061-1.333.415-10.589.622-13.719.12-1.821.175-9.849.163-23.861v-.992c0-2.268.179-24.641.181-24.866a.179.179,0,0,1,.179-.177h0a.179.179,0,0,1,.177.18c0,.226-.181,22.6-.181,24.863v.992c.012,14.02-.043,22.056-.164,23.885-.2,3.039-.68,12.384-.621,13.68l.01.234c.293,6.389.611,14.12.464,14.668-.174.647-.479,2.557-.482,2.577A.178.178,0,0,1,2626.412,1318.348Z" transform="translate(-2626.232 -1237.12)" fill="#958825"/>
      </g>
      <path id="Trazado_144321" data-name="Trazado 144321" d="M2558.38,702.859a5.615,5.615,0,0,1,2.21,2.8,5.3,5.3,0,0,1-.646,4.737,2.055,2.055,0,0,1-3.312.012C2555.585,709.033,2556.075,702.828,2558.38,702.859Z" transform="translate(-2524.41 -701.579)" fill="#091946"/>
      <g id="Grupo_83760" data-name="Grupo 83760" transform="translate(30.141 7.179)">
        <path id="Trazado_144322" data-name="Trazado 144322" d="M2544.044,751.508l-.765,5.008c-.123.825,1.627,3.232,3.086,2.37.427-.253.082-1.458-.161-2.365l-.385-4.447Z" transform="translate(-2543.273 -751.508)" fill="#fff5a2"/>
      </g>
      <g id="Grupo_83761" data-name="Grupo 83761" transform="translate(30.658 2.141)">
        <path id="Trazado_144323" data-name="Trazado 144323" d="M2547.964,711.6a11.932,11.932,0,0,0-.429,2.481c-.029,1.562.983,2.328,2.533,2.569,1.511.234,2.044-.075,2.406-1.113a3.532,3.532,0,0,0,.19-1,4.793,4.793,0,0,0-.591-2.27,7.8,7.8,0,0,1-.4-1.024C2550.919,709.5,2548.723,709.454,2547.964,711.6Z" transform="translate(-2547.534 -709.96)" fill="#fff5a2"/>
      </g>
      <g id="Grupo_83762" data-name="Grupo 83762" transform="translate(29.656 4.202)">
        <path id="Trazado_144324" data-name="Trazado 144324" d="M2540.386,728.03a2.447,2.447,0,0,1-.14-.5c-.06-.323-.225-.79-.664-.464-.638.474-.223,2.178.606,2.16C2540.8,729.215,2540.555,728.432,2540.386,728.03Z" transform="translate(-2539.271 -726.958)" fill="#ff867a"/>
      </g>
      <g id="Grupo_83763" data-name="Grupo 83763" transform="translate(34.181 5.203)">
        <path id="Trazado_144325" data-name="Trazado 144325" d="M2576.679,735.781a.094.094,0,0,1,0-.187c.321-.035.31-.266.308-.276a.094.094,0,0,1,.188-.012.469.469,0,0,1-.476.474Z" transform="translate(-2576.594 -735.218)" fill="#cbba34"/>
      </g>
      <g id="Grupo_83765" data-name="Grupo 83765" transform="translate(33.054 4.265)">
        <g id="Grupo_83764" data-name="Grupo 83764">
          <path id="Trazado_144326" data-name="Trazado 144326" d="M2567.775,727.9c0,.1-.055.183-.122.182s-.119-.083-.118-.184.056-.182.122-.182S2567.777,727.8,2567.775,727.9Z" transform="translate(-2567.507 -727.691)" fill="#091946"/>
          <path id="Trazado_144327" data-name="Trazado 144327" d="M2567.445,727.906h0a.131.131,0,0,1-.108-.068.265.265,0,0,1-.038-.146c0-.118.066-.211.149-.211h0c.083,0,.147.095.146.214h0C2567.594,727.814,2567.528,727.906,2567.445,727.906Zm0-.366c-.049,0-.091.07-.092.153a.21.21,0,0,0,.029.114.079.079,0,0,0,.06.041h0c.049,0,.091-.07.092-.153s-.04-.155-.089-.155Z" transform="translate(-2567.298 -727.482)" fill="#091946"/>
        </g>
      </g>
      <g id="Grupo_83767" data-name="Grupo 83767" transform="translate(34.605 4.158)">
        <g id="Grupo_83766" data-name="Grupo 83766">
          <path id="Trazado_144328" data-name="Trazado 144328" d="M2580.564,727.015c0,.1-.056.182-.122.182s-.119-.083-.118-.184.055-.183.121-.182S2580.565,726.914,2580.564,727.015Z" transform="translate(-2580.296 -726.802)" fill="#091946"/>
          <path id="Trazado_144329" data-name="Trazado 144329" d="M2580.234,727.018h0a.132.132,0,0,1-.108-.068.27.27,0,0,1-.038-.146c0-.118.067-.21.149-.21h0a.13.13,0,0,1,.108.068.285.285,0,0,1,0,.291A.131.131,0,0,1,2580.234,727.018Zm0-.366c-.049,0-.091.07-.092.153a.2.2,0,0,0,.029.114.079.079,0,0,0,.06.041h0a.08.08,0,0,0,.061-.04.213.213,0,0,0,.031-.113h0a.211.211,0,0,0-.029-.114.079.079,0,0,0-.06-.041Z" transform="translate(-2580.087 -726.594)" fill="#091946"/>
        </g>
      </g>
      <g id="Grupo_83768" data-name="Grupo 83768" transform="translate(31.394 7.737)">
        <path id="Trazado_144330" data-name="Trazado 144330" d="M2553.627,756.161c-.137.239.587,2.4,1.522,2.8l-.123-1.413a.325.325,0,0,1,.376-.347h0c1.236.192,1.817.019,2.186-.617a3.647,3.647,0,0,1-1.688.257C2554.955,756.728,2553.773,755.906,2553.627,756.161Z" transform="translate(-2553.611 -756.112)" fill="#cbba34"/>
      </g>
      <path id="Trazado_144331" data-name="Trazado 144331" d="M2579.427,720.453a.739.739,0,0,0-.605-.281.142.142,0,0,0-.024.282.727.727,0,0,1,.242.044c.038.016.109.04.132.077a.146.146,0,0,0,.188.067A.142.142,0,0,0,2579.427,720.453Z" transform="translate(-2544.24 -716.792)" fill="#091946"/>
      <path id="Trazado_144332" data-name="Trazado 144332" d="M2564.822,721.1a.739.739,0,0,0-.666.047.142.142,0,0,0,.115.258.73.73,0,0,1,.233-.08.317.317,0,0,1,.153,0,.146.146,0,0,0,.2-.032A.143.143,0,0,0,2564.822,721.1Z" transform="translate(-2531.412 -717.555)" fill="#091946"/>
      <path id="Trazado_144333" data-name="Trazado 144333" d="M2528.818,694.06s.41-1.1-.521-1.537a2.729,2.729,0,0,0-2.835.426,11.417,11.417,0,0,0-2.62,3.371c-.872,1.679-.72,3.8,1.129,4.631s2.956.971,3.088.522-1.116-1.545-.92-2.516S2528.679,695.242,2528.818,694.06Z" transform="translate(-2494.727 -692.304)" fill="#091946"/>
      <g id="Grupo_83769" data-name="Grupo 83769" transform="translate(26.429 52.367)">
        <path id="Trazado_144334" data-name="Trazado 144334" d="M2514.813,1126.253a21.44,21.44,0,0,1,2.906-1.98c.682-.236,4.969.107,4.968.374,0,.7-3.108.634-3.108.634s2.959.446,3.025.853-.138.529-.138.529a.589.589,0,0,1-.03.687,11.764,11.764,0,0,1-2.649.492,6.642,6.642,0,0,1,1.708.26c.632.236-1.355.4-2.215.6s-2.211,1.452-3.827,1.878-2.634.1-2.78-.384S2513.8,1127.019,2514.813,1126.253Z" transform="translate(-2512.66 -1124.193)" fill="#fff5a2"/>
      </g>
      <g id="Grupo_83771" data-name="Grupo 83771" transform="translate(3.213 14.343)">
        <g id="Grupo_83770" data-name="Grupo 83770">
          <path id="Trazado_144335" data-name="Trazado 144335" d="M2346.156,811.247c3.231,6.159-14.976,21.645-14.887,23.682.078,1.787,14.815,14.893,14.815,14.893s.872.737.268,3.021c-.846,3.2-2.571,3.435-2.571,3.435s-20.162-6.584-22.472-18.574c-1.2-6.251,6.907-14.061,13.686-20.021C2339.391,813.819,2344.861,808.778,2346.156,811.247Z" transform="translate(-2321.189 -810.593)" fill="#90d1ff"/>
        </g>
      </g>
      <g id="Grupo_83772" data-name="Grupo 83772" transform="translate(11.873 37.751)">
        <path id="Trazado_144336" data-name="Trazado 144336" d="M2392.956,1007.07a.319.319,0,0,0,.293-.31,5.3,5.3,0,0,1,1.261-2.594.319.319,0,0,0-.508-.387,5.679,5.679,0,0,0-1.392,2.968.32.32,0,0,0,.314.325Z" transform="translate(-2392.61 -1003.653)" fill="#326b93"/>
      </g>
      <g id="Grupo_83773" data-name="Grupo 83773" transform="translate(33.682 6.332)">
        <path id="Trazado_144337" data-name="Trazado 144337" d="M2572.985,744.846c-.222,0-.382-.009-.4-.01a.121.121,0,1,1,.015-.242,6.13,6.13,0,0,0,1.289-.063.121.121,0,1,1,.049.238A5.107,5.107,0,0,1,2572.985,744.846Z" transform="translate(-2572.475 -744.528)" fill="#cbba34"/>
      </g>
    </g>
    <g id="Grupo_83814" data-name="Grupo 83814" transform="translate(153.68 40.568)">
      <path id="Trazado_144338" data-name="Trazado 144338" d="M2208.678,1250.814s.626,7.085-.722,8.117-3.444-5.266-3.757-5.075-.619,2.209-1.7,2.181.767-2.769.469-3.969-.094-3.44,1.1-4.223S2208.093,1246.872,2208.678,1250.814Z" transform="translate(-2151.63 -1162.125)" fill="#cbba34"/>
      <path id="Trazado_144339" data-name="Trazado 144339" d="M2100.02,685.661c5.73,6.529,9.916,13.619,12.556,32.455a138.795,138.795,0,0,1-.16,36.431s-5.636,2.017-9.079-.219c0,0-1.2-25.236-2.656-32.506s-8.132-27.5-8.132-27.5S2094.8,679.711,2100.02,685.661Z" transform="translate(-2055.317 -667.253)" fill="#8ad24a"/>
      <g id="Grupo_83777" data-name="Grupo 83777" transform="translate(39.369 168.67)">
        <g id="Grupo_83776" data-name="Grupo 83776" transform="translate(0 0)">
          <g id="Grupo_83775" data-name="Grupo 83775">
            <path id="Trazado_144340" data-name="Trazado 144340" d="M2118.379,1941.395c-1.345-.589-1.516-1.787-2.088-2.922-.039-.076-.26-1.708-.261-1.838-.007-.563-1.634-2.058-2.391-.885-1.493,2.311-3.131-1.3-3.044-.335.258,2.87-1.059,7.5.01,7.812,2.278.669,12.908,1.446,13.109.33C2123.834,1942.885,2120.705,1942.413,2118.379,1941.395Z" transform="translate(-2110.179 -1935.246)" fill="#404859"/>
          </g>
        </g>
      </g>
      <g id="Grupo_83780" data-name="Grupo 83780" transform="translate(1.488 168.67)">
        <g id="Grupo_83779" data-name="Grupo 83779" transform="translate(0 0)">
          <g id="Grupo_83778" data-name="Grupo 83778">
            <path id="Trazado_144341" data-name="Trazado 144341" d="M1805.96,1941.395c-1.345-.589-1.516-1.787-2.088-2.922-.039-.076-.26-1.708-.261-1.838-.007-.563-1.634-2.058-2.391-.885-1.494,2.311-3.131-1.3-3.044-.335.258,2.87-1.059,7.5.01,7.812,2.278.669,12.908,1.446,13.109.33C1811.415,1942.885,1808.286,1942.413,1805.96,1941.395Z" transform="translate(-1797.76 -1935.246)" fill="#404859"/>
          </g>
        </g>
      </g>
      <g id="Grupo_83784" data-name="Grupo 83784" transform="translate(0 55.15)">
        <g id="Grupo_83783" data-name="Grupo 83783">
          <g id="Grupo_83782" data-name="Grupo 83782">
            <g id="Grupo_83781" data-name="Grupo 83781">
              <path id="Trazado_144342" data-name="Trazado 144342" d="M1803.172,1013.91c2.686-5.932,23.108-13.629,28.5-14.9.394,5.974,3.15,9.7,6.41,16.138,4.557,9.007-3.85,99.112-3.85,99.112s-1.6,1.235-5.412,1.235c-4.885,0-5.767-1.235-5.767-1.235l-1.266-83.643-25.57,83.643s-.734.822-5.576,1.187c-4.441.335-5.147-1.187-5.147-1.187S1801.781,1016.983,1803.172,1013.91Z" transform="translate(-1785.488 -999.014)" fill="#70bc2d"/>
            </g>
          </g>
        </g>
      </g>
      <path id="Trazado_144343" data-name="Trazado 144343" d="M1955.359,1118.435c-.246-.486-.488-.954-.727-1.411-5.052-1.061-17.016-.108-19.345.528-2.8.765-16.334,8.749-16.334,8.749s4.174,2.724,13.787,3.03c8.181.26,20.422-1,23.888-1.382C1956.467,1123.232,1956.071,1119.843,1955.359,1118.435Z" transform="translate(-1902.77 -1047.146)" fill="#8ad24a"/>
      <g id="Grupo_83787" data-name="Grupo 83787" transform="translate(11.683 15.831)">
        <g id="Grupo_83786" data-name="Grupo 83786">
          <g id="Grupo_83785" data-name="Grupo 83785">
            <path id="Trazado_144344" data-name="Trazado 144344" d="M1884.687,712.768c-.987-13.518-3.366-19.98-2.737-24.579.807-5.9,8.58-10.91,13.243-12.224,3.835-1.081,13.482-2.071,17.3-.113,6.118,3.14,13.279,57.486,13.279,57.486s-3.515,3.493-13.882,5.149c-.906.145-3.052-8.231-3.052-8.231s-3.253,8.716-4.318,8.843c-14.246,1.7-19.065-1.477-19.065-1.477A245.272,245.272,0,0,0,1884.687,712.768Z" transform="translate(-1881.845 -674.733)" fill="#ce4949"/>
          </g>
        </g>
      </g>
      <g id="Grupo_83790" data-name="Grupo 83790" transform="translate(26.294 16.587)">
        <g id="Grupo_83789" data-name="Grupo 83789">
          <g id="Grupo_83788" data-name="Grupo 83788">
            <path id="Trazado_144345" data-name="Trazado 144345" d="M2008.7,682.62a147.782,147.782,0,0,1,4.444,18.134c1.7,9.719,1.93,12.389,1.385,12.689s-13.744-29.66-12.03-31.21S2007.979,680.271,2008.7,682.62Z" transform="translate(-2002.342 -680.964)" fill="#fff"/>
          </g>
        </g>
      </g>
      <g id="Grupo_83793" data-name="Grupo 83793" transform="translate(29.969 18.766)">
        <g id="Grupo_83792" data-name="Grupo 83792">
          <g id="Grupo_83791" data-name="Grupo 83791">
            <path id="Trazado_144346" data-name="Trazado 144346" d="M2033.5,700.852s-.8-.667-.844-1.136,2.483-1.433,2.387-.091a2.6,2.6,0,0,1-.227.958s4.769,14.864,4.961,15.967c1.7,9.719,1.93,12.389,1.385,12.689-.2.111-2.127-3.9-4.391-9.09C2036.237,718.919,2033.5,700.852,2033.5,700.852Z" transform="translate(-2032.657 -698.939)" fill="#434a59"/>
          </g>
        </g>
      </g>
      <g id="Grupo_83794" data-name="Grupo 83794" transform="translate(24.046)">
        <path id="Trazado_144347" data-name="Trazado 144347" d="M1991.594,548.276s1.6-.227,1.673-1.347a2.328,2.328,0,0,0-1.071-1.9c-.011.046-.631.791-.741.787s-1.167-2.808-3.661-1.079c-2.157,1.5-2.92,1.293-3.232,1.816a1.3,1.3,0,0,0,.072,1.18.846.846,0,0,0-.736.611c-.569,1.53,1.571,6.394,3.355,6.223S1991.594,548.276,1991.594,548.276Z" transform="translate(-1983.804 -544.169)" fill="#7f635d"/>
      </g>
      <g id="Grupo_83795" data-name="Grupo 83795" transform="translate(26.537 6.707)">
        <path id="Trazado_144348" data-name="Trazado 144348" d="M2004.35,609.081c-.045.969,4.254,2.566,5.572,1.979.525-.234.788-.76.268-1.96l-1.087-4.664-.5-2.146-.456-1.956-2.954-.848S2004.429,607.384,2004.35,609.081Z" transform="translate(-2004.35 -599.486)" fill="#ff867a"/>
      </g>
      <g id="Grupo_83796" data-name="Grupo 83796" transform="translate(28.279 9.935)">
        <path id="Trazado_144349" data-name="Trazado 144349" d="M2021.722,627.828l-.255-1.1a9.692,9.692,0,0,1-2.756-.626,3.478,3.478,0,0,0,1.72,2.379,6.552,6.552,0,0,0,1.536.4Z" transform="translate(-2018.711 -626.106)" fill="#c66c67"/>
      </g>
      <g id="Grupo_83797" data-name="Grupo 83797" transform="translate(27.281 2.702)">
        <path id="Trazado_144350" data-name="Trazado 144350" d="M2010.709,568.824l-.226,4.032a2.51,2.51,0,0,0,2.48,2.183,4.058,4.058,0,0,0,3.062-.66,2.36,2.36,0,0,0,.778-2.736,13.421,13.421,0,0,0-1.992-4.112C2013.543,565.737,2011.049,566.207,2010.709,568.824Z" transform="translate(-2010.484 -566.457)" fill="#ff867a"/>
      </g>
      <path id="Trazado_144351" data-name="Trazado 144351" d="M2015.974,592.525a6.656,6.656,0,0,1,.724-.013c.133.007.337-.312.481-.2a6.868,6.868,0,0,1,.793,1.158,4.781,4.781,0,0,1,.419,1.992,2.1,2.1,0,0,1-1.839,2.516,6.381,6.381,0,0,1-3.568-.271,1.764,1.764,0,0,1-.852-1.316,16.161,16.161,0,0,0-.335-2.942c-.219-.582-.111-.719-.033-.74s.172-.05.315.208,1.023,1.162,1.34,1.068.095-.822.953-1.169A5.235,5.235,0,0,1,2015.974,592.525Z" transform="translate(-1984.243 -586.451)" fill="#7f635d"/>
      <g id="Grupo_83798" data-name="Grupo 83798" transform="translate(30.129 6.298)">
        <path id="Trazado_144352" data-name="Trazado 144352" d="M2033.976,596.493a8.9,8.9,0,0,0,2.552-.379s.35.828-.127,1.221S2034.7,597.428,2033.976,596.493Z" transform="translate(-2033.976 -596.114)" fill="#fff"/>
      </g>
      <g id="Grupo_83799" data-name="Grupo 83799" transform="translate(31.278 5.401)">
        <path id="Trazado_144353" data-name="Trazado 144353" d="M2043.589,589.134a.2.2,0,0,0,.176-.221c-.022-.26.383-.27.405-.011a.593.593,0,0,1-.462.619.209.209,0,0,1-.253-.135A.2.2,0,0,1,2043.589,589.134Z" transform="translate(-2043.447 -588.714)" fill="#c66c67"/>
      </g>
      <g id="Grupo_83800" data-name="Grupo 83800" transform="translate(29.241 4.808)">
        <path id="Trazado_144354" data-name="Trazado 144354" d="M2026.692,583.846a.164.164,0,0,1,.224.052.607.607,0,0,1,.067.3.167.167,0,0,1-.158.167.165.165,0,0,1-.168-.159C2026.661,584.164,2026.611,583.9,2026.692,583.846Z" transform="translate(-2026.646 -583.823)" fill="#3a4b66"/>
      </g>
      <g id="Grupo_83801" data-name="Grupo 83801" transform="translate(31.475 4.557)">
        <path id="Trazado_144355" data-name="Trazado 144355" d="M2045.4,581.9l.005.187a.163.163,0,0,1-.326.009l-.005-.187A.163.163,0,0,1,2045.4,581.9Z" transform="translate(-2045.07 -581.752)" fill="#3a4b66"/>
      </g>
      <g id="Grupo_83802" data-name="Grupo 83802" transform="translate(25.714 5.401)">
        <path id="Trazado_144356" data-name="Trazado 144356" d="M1999.227,590.02c-.131-.2-.411-.51-.531-.721-.228-.4-.648-.938-1.006-.267-.52.977.632,2.907,1.614,2.476C1999.757,591.31,1999.7,590.727,1999.227,590.02Z" transform="translate(-1997.561 -588.714)" fill="#ff867a"/>
      </g>
      <g id="Grupo_83803" data-name="Grupo 83803" transform="translate(26.891 5.487)">
        <path id="Trazado_144357" data-name="Trazado 144357" d="M2007.759,589.426a11.343,11.343,0,0,0,.476,1.08c.179.4.447.644.035.769-.253.077-.758-.837-1-1.277Z" transform="translate(-2007.27 -589.426)" fill="#7f635d"/>
      </g>
      <g id="Grupo_83805" data-name="Grupo 83805" transform="translate(25.432 14.715)">
        <g id="Grupo_83804" data-name="Grupo 83804">
          <path id="Trazado_144358" data-name="Trazado 144358" d="M2000.961,668.812a2,2,0,0,0,.551-.968,12.889,12.889,0,0,0,.294-2.311,6.537,6.537,0,0,1,1.122,2.921,21.58,21.58,0,0,1-.153,2.719s-1.154-1.106-1.612-1.118l-1.333,2.141s-4.17-3.181-4.521-3.851a3.641,3.641,0,0,1,.755-2.7.334.334,0,0,1,.555.076A5.888,5.888,0,0,0,2000.961,668.812Z" transform="translate(-1995.236 -665.533)" fill="#e7f2f2"/>
        </g>
      </g>
      <g id="Grupo_83807" data-name="Grupo 83807" transform="translate(35.835 82.856)">
        <g id="Grupo_83806" data-name="Grupo 83806">
          <path id="Trazado_144359" data-name="Trazado 144359" d="M2081.49,1231.873a.454.454,0,0,1-.219-.056.459.459,0,0,1-.184-.622l1.875-3.443a.459.459,0,1,1,.805.439l-1.875,3.443A.458.458,0,0,1,2081.49,1231.873Z" transform="translate(-2081.032 -1227.512)" fill="#3d6fc1"/>
        </g>
      </g>
      <g id="Grupo_83808" data-name="Grupo 83808" transform="translate(28.64 3.793)">
        <path id="Trazado_144360" data-name="Trazado 144360" d="M2021.808,576.232l-.022,0a.114.114,0,0,1-.091-.134.879.879,0,0,1,.959-.646.115.115,0,0,1,.112.118.112.112,0,0,1-.118.112c-.634-.015-.724.439-.728.459A.114.114,0,0,1,2021.808,576.232Z" transform="translate(-2021.693 -575.45)" fill="#7f635d"/>
      </g>
      <g id="Grupo_83809" data-name="Grupo 83809" transform="translate(30.842 3.608)">
        <path id="Trazado_144361" data-name="Trazado 144361" d="M2040.649,574.25a.114.114,0,0,1-.056-.014.873.873,0,0,0-.6-.053.115.115,0,1,1-.065-.22,1.094,1.094,0,0,1,.772.073.115.115,0,0,1-.055.215Z" transform="translate(-2039.85 -573.923)" fill="#7f635d"/>
      </g>
      <g id="Grupo_83810" data-name="Grupo 83810" transform="translate(27.863 9.168)">
        <path id="Trazado_144362" data-name="Trazado 144362" d="M2018.954,620.438a8.165,8.165,0,0,1-3.257-.229,3.26,3.26,0,0,0-.416-.2c.015.253.024.448.026.535a1.764,1.764,0,0,0,.851,1.316,6.382,6.382,0,0,0,3.568.271,2.054,2.054,0,0,0,1.844-2.354A15.627,15.627,0,0,1,2018.954,620.438Z" transform="translate(-2015.282 -619.777)" fill="#5b4946"/>
      </g>
      <g id="Grupo_83811" data-name="Grupo 83811" transform="translate(37.993 48.58)">
        <path id="Trazado_144363" data-name="Trazado 144363" d="M2099.506,968.084h-.035a.485.485,0,0,1-.449-.518,171.805,171.805,0,0,0-.195-22.214.485.485,0,1,1,.967-.078,172.878,172.878,0,0,1,.2,22.362A.485.485,0,0,1,2099.506,968.084Z" transform="translate(-2098.826 -944.826)" fill="#a52f2f"/>
      </g>
      <g id="Grupo_83812" data-name="Grupo 83812" transform="translate(21.027 62.215)">
        <path id="Trazado_144364" data-name="Trazado 144364" d="M1959.394,1060.829a.485.485,0,0,1-.134-.951l8.949-2.582a.485.485,0,0,1,.269.932l-8.949,2.582A.485.485,0,0,1,1959.394,1060.829Z" transform="translate(-1958.909 -1057.277)" fill="#a52f2f"/>
      </g>
      <g id="Grupo_83813" data-name="Grupo 83813" transform="translate(42.998 61.641)">
        <path id="Trazado_144365" data-name="Trazado 144365" d="M2148.168,1053.517H2140.6a.485.485,0,0,1,0-.97h7.572a.485.485,0,1,1,0,.97Z" transform="translate(-2140.111 -1052.547)" fill="#a52f2f"/>
      </g>
      <path id="Trazado_144366" data-name="Trazado 144366" d="M1834.1,1322.069s-2.369,6.706-1.321,8.041,4.647-4.243,4.9-3.98.05,2.294,1.108,2.537-.054-2.873.533-3.962.947-3.308-.017-4.364S1835.648,1318.4,1834.1,1322.069Z" transform="translate(-1826.811 -1225.417)" fill="#cbba34"/>
      <path id="Trazado_144367" data-name="Trazado 144367" d="M1828.554,756.7a88.187,88.187,0,0,0-8.5,33.693,173.071,173.071,0,0,0,2.641,36.344s5.8,1.461,9.015-1.1c0,0-1.246-25.234-.506-32.61s5.429-28.158,5.429-28.158S1832.888,752.485,1828.554,756.7Z" transform="translate(-1815.756 -730.16)" fill="#8ad24a"/>
    </g>
    <g id="Grupo_83919" data-name="Grupo 83919">
      <g id="Grupo_83858" data-name="Grupo 83858" transform="translate(153.902 126.068)">
        <rect id="Rectngulo_32591" data-name="Rectngulo 32591" width="6.063" height="27.375" transform="translate(6.014 27.921) rotate(-172.768)" fill="#4182af"/>
      </g>
      <g id="Grupo_83860" data-name="Grupo 83860" transform="translate(107.925 21.794)">
        <g id="Grupo_83859" data-name="Grupo 83859">
          <path id="Trazado_144401" data-name="Trazado 144401" d="M1408.568,437.533a55.128,55.128,0,1,1,47.749,61.63A55.19,55.19,0,0,1,1408.568,437.533Zm6.766.859c-3.354,26.425,15.567,49.912,41.992,53.265s50.5-14.677,53.855-41.1a48.308,48.308,0,0,0-95.848-12.164Z" transform="translate(-1408.125 -389.341)" fill="#4182af"/>
        </g>
      </g>
      <g id="Grupo_83862" data-name="Grupo 83862" transform="translate(114.249 27.131)">
        <g id="Grupo_83861" data-name="Grupo 83861">
          <path id="Trazado_144402" data-name="Trazado 144402" d="M1460.63,475.586c-3.354,26.425,18.149,50.391,44.457,54.569,28.228,4.483,49.634-16.36,52.987-42.785s-17.013-50.271-43.438-53.625A48.362,48.362,0,0,0,1460.63,475.586Z" transform="translate(-1460.285 -433.357)" fill="#fff"/>
        </g>
      </g>
      <g id="Grupo_83864" data-name="Grupo 83864" transform="translate(114.152 21.17)">
        <g id="Grupo_83863" data-name="Grupo 83863">
          <path id="Trazado_144403" data-name="Trazado 144403" d="M1459.929,432.379a55.128,55.128,0,1,1,47.749,61.63A55.19,55.19,0,0,1,1459.929,432.379Zm6.766.859A48.308,48.308,0,1,0,1520.7,391.4,48.363,48.363,0,0,0,1466.695,433.237Z" transform="translate(-1459.486 -384.187)" fill="#3ca8f4"/>
        </g>
      </g>
      <g id="Grupo_83866" data-name="Grupo 83866" transform="translate(141.699 144.831)">
        <g id="Grupo_83865" data-name="Grupo 83865">
          <path id="Trazado_144404" data-name="Trazado 144404" d="M1703.181,1404.168h0a9.747,9.747,0,0,1,8.243,11l-5.408,37.786a9.746,9.746,0,0,1-11,8.243h0a9.747,9.747,0,0,1-8.243-11l5.408-37.786A9.746,9.746,0,0,1,1703.181,1404.168Z" transform="translate(-1686.677 -1404.069)" fill="#1c47cc"/>
        </g>
      </g>
      <g id="Grupo_83916" data-name="Grupo 83916" transform="translate(120.973)">
        <g id="Grupo_83915" data-name="Grupo 83915" clip-path="url(#clip-path)">
          <g id="Grupo_83914" data-name="Grupo 83914" transform="translate(-17.136 4.522)">
            <path id="Trazado_144414" data-name="Trazado 144414" d="M2352.822,406.517a7.177,7.177,0,0,1-5.344-3.163c-1.938-3.022-6.7-7.605-5.664-8.806s4.13,2.9,5.074,2.961-1.612-11.262-.252-11.757,2.415,4.577,2.415,4.577-.452-4.143.3-4.89,1.741,1.389,1.741,1.389,1.406-.922,1.984-.216,1.04,4.169,1.04,4.169,1.538-2.008,2.149-.234,1.654,14.612.056,15.588A4.706,4.706,0,0,1,2352.822,406.517Z" transform="translate(-2224.386 -368.502)" fill="#ff867a"/>
            <path id="Trazado_144415" data-name="Trazado 144415" d="M1719.875,1561.976c-.52-1.027-1.032-2.018-1.538-2.984-10.681-2.243-35.981-.228-40.906,1.117-5.922,1.617-34.539,18.5-34.539,18.5s8.825,5.759,29.153,6.406c17.3.551,43.184-2.116,50.512-2.923C1722.218,1572.12,1721.382,1564.953,1719.875,1561.976Z" transform="translate(-1610.339 -1399.014)" fill="#3d6fc1"/>
            <g id="Grupo_83880" data-name="Grupo 83880" transform="translate(23.04 45.694)">
              <g id="Grupo_83879" data-name="Grupo 83879">
                <g id="Grupo_83878" data-name="Grupo 83878">
                  <path id="Trazado_144416" data-name="Trazado 144416" d="M1570.435,704.173c-2.086-28.584-7.118-42.249-5.787-51.974,1.705-12.469,18.144-23.07,28-25.849,8.109-2.285,28.508-4.38,36.574-.24,12.936,6.64,28.08,121.557,28.08,121.557s-7.432,7.385-29.354,10.888c-1.917.306-6.453-17.406-6.453-17.406s-6.879,18.431-9.131,18.7c-30.125,3.591-40.314-3.123-40.314-3.123S1572.832,737.013,1570.435,704.173Z" transform="translate(-1564.427 -623.746)" fill="#8ad24a"/>
                </g>
              </g>
            </g>
            <g id="Grupo_83883" data-name="Grupo 83883" transform="translate(53.934 47.291)">
              <g id="Grupo_83882" data-name="Grupo 83882">
                <g id="Grupo_83881" data-name="Grupo 83881">
                  <path id="Trazado_144417" data-name="Trazado 144417" d="M1832.66,640.421a312.3,312.3,0,0,1,9.4,38.345c3.589,20.551,4.081,26.2,2.93,26.831s-29.062-62.719-25.439-66S1831.141,635.456,1832.66,640.421Z" transform="translate(-1819.223 -636.92)" fill="#fff"/>
                </g>
              </g>
            </g>
            <g id="Grupo_83886" data-name="Grupo 83886" transform="translate(61.707 51.9)">
              <g id="Grupo_83885" data-name="Grupo 83885">
                <g id="Grupo_83884" data-name="Grupo 83884">
                  <path id="Trazado_144418" data-name="Trazado 144418" d="M1885.112,678.974s-1.686-1.41-1.785-2.4,5.25-3.029,5.048-.192a5.493,5.493,0,0,1-.479,2.026s10.083,31.43,10.491,33.763c3.589,20.551,4.081,26.2,2.93,26.831-.425.234-4.5-8.254-9.284-19.221C1890.9,717.179,1885.112,678.974,1885.112,678.974Z" transform="translate(-1883.326 -674.93)" fill="#3ca8f4"/>
                </g>
              </g>
            </g>
            <g id="Grupo_83887" data-name="Grupo 83887" transform="translate(49.181 12.218)">
              <path id="Trazado_144419" data-name="Trazado 144419" d="M1796.5,356.343s3.377-.48,3.539-2.848a4.925,4.925,0,0,0-2.265-4.026c-.025.1-1.336,1.673-1.567,1.664s-2.468-5.938-7.742-2.282c-4.562,3.161-6.175,2.733-6.835,3.84a2.74,2.74,0,0,0,.151,2.495,1.788,1.788,0,0,0-1.555,1.293c-1.2,3.234,3.322,13.52,7.094,13.159S1796.5,356.343,1796.5,356.343Z" transform="translate(-1780.024 -347.66)" fill="#091946"/>
            </g>
            <g id="Grupo_83888" data-name="Grupo 83888" transform="translate(54.449 26.401)">
              <path id="Trazado_144420" data-name="Trazado 144420" d="M1823.47,484.92c-.094,2.048,9,5.426,11.782,4.185,1.109-.494,1.665-1.608.566-4.146l-2.3-9.863-1.056-4.538-.965-4.137-6.247-1.793S1823.637,481.332,1823.47,484.92Z" transform="translate(-1823.47 -464.63)" fill="#fde947"/>
            </g>
            <g id="Grupo_83889" data-name="Grupo 83889" transform="translate(58.131 33.226)">
              <path id="Trazado_144421" data-name="Trazado 144421" d="M1860.2,524.562l-.539-2.318c-2.324-.326-5.25-.822-5.828-1.324,0,0,.778,3.911,3.638,5.029a13.859,13.859,0,0,0,3.249.838Z" transform="translate(-1853.836 -520.92)" fill="#cbba34"/>
            </g>
            <g id="Grupo_83890" data-name="Grupo 83890" transform="translate(56.022 17.933)">
              <path id="Trazado_144422" data-name="Trazado 144422" d="M1836.917,399.794l-.477,8.526c.066,2.82,2.86,4.412,5.243,4.615,2.246.191,4.189.231,6.474-1.395,1.4-.993,2.429-2.849,1.646-5.786a28.39,28.39,0,0,0-4.212-8.695C1842.908,393.267,1837.635,394.26,1836.917,399.794Z" transform="translate(-1836.44 -394.79)" fill="#fde947"/>
            </g>
            <path id="Trazado_144423" data-name="Trazado 144423" d="M1848.047,449.911a13.97,13.97,0,0,1,1.531-.027c.28.015.713-.66,1.016-.433a14.52,14.52,0,0,1,1.677,2.45,10.115,10.115,0,0,1,.886,4.211c.073,1.964.03,4.337-3.888,5.319a13.492,13.492,0,0,1-7.544-.573,3.729,3.729,0,0,1-1.8-2.782,34.155,34.155,0,0,0-.709-6.221c-.463-1.232-.236-1.52-.069-1.565s.364-.106.667.44,2.163,2.456,2.833,2.259.2-1.738,2.015-2.472A11.063,11.063,0,0,1,1848.047,449.911Z" transform="translate(-1782.616 -424.851)" fill="#091946"/>
            <g id="Grupo_83891" data-name="Grupo 83891" transform="translate(62.045 25.536)">
              <path id="Trazado_144424" data-name="Trazado 144424" d="M1886.116,458.3a18.82,18.82,0,0,0,5.4-.8s.74,1.751-.269,2.581S1887.638,460.279,1886.116,458.3Z" transform="translate(-1886.116 -457.5)" fill="#fff"/>
            </g>
            <g id="Grupo_83892" data-name="Grupo 83892" transform="translate(64.473 23.639)">
              <path id="Trazado_144425" data-name="Trazado 144425" d="M1906.444,442.742a.416.416,0,0,0,.371-.467c-.048-.55.809-.571.856-.023a1.254,1.254,0,0,1-.978,1.309.442.442,0,0,1-.535-.285A.432.432,0,0,1,1906.444,442.742Z" transform="translate(-1906.142 -441.853)" fill="#cbba34"/>
            </g>
            <g id="Grupo_83893" data-name="Grupo 83893" transform="translate(60.166 22.385)">
              <path id="Trazado_144426" data-name="Trazado 144426" d="M1870.713,431.559a.348.348,0,0,1,.475.111,1.288,1.288,0,0,1,.142.644.354.354,0,0,1-.336.354.347.347,0,0,1-.354-.336C1870.647,432.231,1870.542,431.665,1870.713,431.559Z" transform="translate(-1870.615 -431.51)" fill="#091946"/>
            </g>
            <g id="Grupo_83894" data-name="Grupo 83894" transform="translate(64.889 21.854)">
              <path id="Trazado_144427" data-name="Trazado 144427" d="M1910.265,427.455l.011.4a.345.345,0,0,1-.69.018l-.01-.4A.345.345,0,0,1,1910.265,427.455Z" transform="translate(-1909.575 -427.131)" fill="#091946"/>
            </g>
            <g id="Grupo_83895" data-name="Grupo 83895" transform="translate(52.708 23.639)">
              <path id="Trazado_144428" data-name="Trazado 144428" d="M1812.637,444.614c-.277-.417-.87-1.077-1.124-1.524-.482-.849-1.371-1.984-2.126-.564-1.1,2.066,1.337,6.148,3.413,5.236C1813.757,447.342,1813.63,446.11,1812.637,444.614Z" transform="translate(-1809.114 -441.853)" fill="#fde947"/>
            </g>
            <g id="Grupo_83896" data-name="Grupo 83896" transform="translate(55.198 23.822)">
              <path id="Trazado_144429" data-name="Trazado 144429" d="M1830.677,443.359a23.861,23.861,0,0,0,1.006,2.283c.377.843.944,1.361.073,1.627-.536.163-1.6-1.771-2.112-2.7Z" transform="translate(-1829.644 -443.359)" fill="#091946"/>
            </g>
            <g id="Grupo_83898" data-name="Grupo 83898" transform="translate(52.112 43.335)">
              <g id="Grupo_83897" data-name="Grupo 83897">
                <path id="Trazado_144430" data-name="Trazado 144430" d="M1816.3,611.225a4.224,4.224,0,0,0,1.166-2.048,27.237,27.237,0,0,0,.622-4.887,13.82,13.82,0,0,1,2.373,6.176,45.6,45.6,0,0,1-.323,5.75s-2.439-2.339-3.409-2.364l-2.819,4.528s-8.818-6.727-9.561-8.143c-.541-1.031.418-4.341,1.6-5.7a.707.707,0,0,1,1.172.161C1808,606.524,1811.5,610.913,1816.3,611.225Z" transform="translate(-1804.198 -604.29)" fill="#e7f2f2"/>
              </g>
            </g>
            <g id="Grupo_83900" data-name="Grupo 83900" transform="translate(74.11 187.422)">
              <g id="Grupo_83899" data-name="Grupo 83899">
                <path id="Trazado_144431" data-name="Trazado 144431" d="M1986.587,1801.848a.97.97,0,0,1-.851-1.434l3.965-7.28a.97.97,0,0,1,1.7.928l-3.965,7.28A.97.97,0,0,1,1986.587,1801.848Z" transform="translate(-1985.618 -1792.628)" fill="#3d6fc1"/>
              </g>
            </g>
            <g id="Grupo_83901" data-name="Grupo 83901" transform="translate(58.896 20.238)">
              <path id="Trazado_144432" data-name="Trazado 144432" d="M1860.386,415.458a.242.242,0,0,1-.239-.287,1.86,1.86,0,0,1,2.028-1.365.243.243,0,0,1,.236.249.236.236,0,0,1-.249.236c-1.34-.032-1.531.929-1.539.97A.242.242,0,0,1,1860.386,415.458Z" transform="translate(-1860.144 -413.805)" fill="#091946"/>
            </g>
            <g id="Grupo_83902" data-name="Grupo 83902" transform="translate(63.551 19.847)">
              <path id="Trazado_144433" data-name="Trazado 144433" d="M1900.225,411.269a.244.244,0,0,1-.118-.031,1.849,1.849,0,0,0-1.259-.112.243.243,0,0,1-.138-.465,2.316,2.316,0,0,1,1.634.153.243.243,0,0,1-.118.455Z" transform="translate(-1898.536 -410.577)" fill="#091946"/>
            </g>
            <g id="Grupo_83903" data-name="Grupo 83903" transform="translate(57.252 31.603)">
              <path id="Trazado_144434" data-name="Trazado 144434" d="M1854.351,508.935a17.268,17.268,0,0,1-6.886-.485,6.916,6.916,0,0,0-.879-.421c.032.534.051.948.056,1.131a3.728,3.728,0,0,0,1.8,2.782,13.491,13.491,0,0,0,7.544.573c3.695-.926,3.944-3.088,3.9-4.978A33.038,33.038,0,0,1,1854.351,508.935Z" transform="translate(-1846.586 -507.537)" fill="#060e26"/>
            </g>
            <g id="Grupo_83904" data-name="Grupo 83904" transform="translate(79.212 115.484)">
              <path id="Trazado_144435" data-name="Trazado 144435" d="M2028.6,1247.426h-.035a.485.485,0,0,1-.449-.518c1.574-22.137-.392-46.809-.412-47.056a.485.485,0,0,1,.967-.079c.02.247,1.991,24.991.412,47.2A.485.485,0,0,1,2028.6,1247.426Z" transform="translate(-2027.701 -1199.327)" fill="#ce4949"/>
            </g>
            <g id="Grupo_83905" data-name="Grupo 83905" transform="translate(43.339 144.316)">
              <path id="Trazado_144436" data-name="Trazado 144436" d="M1732.326,1443.543a.485.485,0,0,1-.134-.951l18.923-5.459a.485.485,0,0,1,.269.932l-18.923,5.458A.479.479,0,0,1,1732.326,1443.543Z" transform="translate(-1731.841 -1437.115)" fill="#ce4949"/>
            </g>
            <g id="Grupo_83906" data-name="Grupo 83906" transform="translate(89.798 143.103)">
              <path id="Trazado_144437" data-name="Trazado 144437" d="M2131.5,1428.081h-16.012a.485.485,0,0,1,0-.97H2131.5a.485.485,0,0,1,0,.97Z" transform="translate(-2115.002 -1427.111)" fill="#ce4949"/>
            </g>
            <path id="Trazado_144438" data-name="Trazado 144438" d="M1402.227,764.61s-19.2,29.349-24.756,69.182-1.847,77.032-1.847,77.032,11.92,4.258,19.2-.473c0,0,2.52-53.364,5.58-68.738s17.165-58.159,17.165-58.159S1412.206,756.629,1402.227,764.61Z" transform="translate(-1374.409 -700.533)" fill="#8ad24a"/>
            <path id="Trazado_144439" data-name="Trazado 144439" d="M2069.533,543.9c12.066,3.217,46.708,39.06,46.708,39.06l-12.292-48.642s.425-2.123,7.824-3.336c6.092-1,7.763.728,7.763.728s32.021,60.009,14.5,75.672c-19.408,17.346-47.529-16.155-54.443-25.738S2061.005,541.627,2069.533,543.9Z" transform="translate(-1982.613 -496.264)" fill="#8ad24a"/>
            <g id="Grupo_83907" data-name="Grupo 83907" transform="translate(94.407 54.916)">
              <path id="Trazado_144440" data-name="Trazado 144440" d="M2161.481,737a.485.485,0,0,1-.471-.374c-3.544-15.041-7.939-36.024-7.983-36.234a.485.485,0,1,1,.949-.2c.044.21,4.436,21.181,7.978,36.211a.485.485,0,0,1-.361.583A.49.49,0,0,1,2161.481,737Z" transform="translate(-2153.016 -699.808)" fill="#70bc2d"/>
            </g>
            <g id="Grupo_83908" data-name="Grupo 83908" transform="translate(133.143 86.212)">
              <path id="Trazado_144441" data-name="Trazado 144441" d="M2475.88,968.024a.485.485,0,0,1-.446-.294c-.245-.573-2.655-8.305-2.928-9.185a.485.485,0,1,1,.926-.288c1.07,3.436,2.723,8.693,2.894,9.091a.485.485,0,0,1-.446.676Z" transform="translate(-2472.483 -957.915)" fill="#ce4949"/>
            </g>
            <g id="Grupo_83909" data-name="Grupo 83909" transform="translate(28.714 83.452)">
              <path id="Trazado_144442" data-name="Trazado 144442" d="M1611.71,980.417a.485.485,0,0,1-.463-.631c.543-1.716,13.322-42.042,14.666-44.394a.485.485,0,1,1,.842.481c-1.035,1.811-9.992,29.708-14.583,44.206A.485.485,0,0,1,1611.71,980.417Z" transform="translate(-1611.225 -935.147)" fill="#70bc2d"/>
            </g>
            <g id="Grupo_83913" data-name="Grupo 83913" transform="translate(65.507)">
              <g id="Grupo_83910" data-name="Grupo 83910">
                <path id="Trazado_144443" data-name="Trazado 144443" d="M1915.642,254.9l-.065,0a.97.97,0,0,1-.9-1.032l.4-6.065a.97.97,0,0,1,1.937.128l-.4,6.065A.97.97,0,0,1,1915.642,254.9Z" transform="translate(-1914.67 -246.893)" fill="#0f2771"/>
              </g>
              <g id="Grupo_83911" data-name="Grupo 83911" transform="translate(8.407 3.733)">
                <path id="Trazado_144444" data-name="Trazado 144444" d="M1984.978,284.285a.97.97,0,0,1-.623-1.715l5.58-4.664a.971.971,0,1,1,1.245,1.489l-5.58,4.664A.966.966,0,0,1,1984.978,284.285Z" transform="translate(-1984.007 -277.68)" fill="#0f2771"/>
              </g>
              <g id="Grupo_83912" data-name="Grupo 83912" transform="translate(9.009 18.485)">
                <path id="Trazado_144445" data-name="Trazado 144445" d="M1989.941,401.679a.97.97,0,0,1-.064-1.939l5.822-.391a.97.97,0,1,1,.13,1.936l-5.823.391Z" transform="translate(-1988.972 -399.347)" fill="#0f2771"/>
              </g>
            </g>
          </g>
        </g>
      </g>
      <g id="Grupo_83917" data-name="Grupo 83917" transform="translate(130.367 87.44)">
        <path id="Trazado_144447" data-name="Trazado 144447" d="M1610.912,954.539a2.165,2.165,0,0,1-1.225-.379c-6.226-4.254-12.46-12.044-16.269-20.331a2.176,2.176,0,1,1,3.953-1.817c3.5,7.611,9.157,14.721,14.77,18.555a2.176,2.176,0,0,1-1.229,3.972Z" transform="translate(-1593.219 -930.743)" fill="#fff"/>
      </g>
      <g id="Grupo_83918" data-name="Grupo 83918" transform="translate(126.758 50.517)">
        <path id="Trazado_144448" data-name="Trazado 144448" d="M1566.481,659.668a2.177,2.177,0,0,1-2.114-1.669,31.61,31.61,0,0,1-.9-6.744,55.392,55.392,0,0,1,5.392-23.851,2.176,2.176,0,0,1,3.871,1.987,51.856,51.856,0,0,0-4.913,21.783,27.265,27.265,0,0,0,.785,5.81,2.177,2.177,0,0,1-2.117,2.683Z" transform="translate(-1563.455 -626.222)" fill="#fff"/>
      </g>
    </g>
  </g>
</svg>
