<svg xmlns="http://www.w3.org/2000/svg" width="328.757" height="251.319" viewBox="0 0 328.757 251.319">
  <g id="Grupo_83921" data-name="Grupo 83921" transform="translate(-635.668 -8890.803)">
    <g id="Shadow" transform="translate(644.293 9123.717)">
      <path id="_Path_" data-name="&lt;Path&gt;" d="M157.572,0C244.6,0,315.145,4.12,315.145,9.2S244.6,18.4,157.572,18.4,0,14.285,0,9.2,70.548,0,157.572,0Z" fill="#1d8070"/>
    </g>
    <g id="Character_2" data-name="Character 2" transform="translate(794.814 8930.526)">
      <g id="Grupo_83490" data-name="Grupo 83490" transform="translate(0 0)">
        <g id="Grupo_83461" data-name="Grupo 83461" transform="translate(56.438 48.736)">
          <g id="Grupo_83460" data-name="Grupo 83460" transform="translate(12.355)">
            <path id="Trazado_143963" data-name="Trazado 143963" d="M410.8,337.378l4.127-65.711a42.388,42.388,0,0,0-42.3-45.045h0a42.389,42.389,0,0,0-42.321,40l-4.328,76.75h78.443A6.4,6.4,0,0,0,410.8,337.378Z" transform="translate(-325.974 -226.622)" fill="#407bff"/>
            <path id="Trazado_143964" data-name="Trazado 143964" d="M410.95,335l3.977-63.332a42.388,42.388,0,0,0-42.3-45.045h0a42.389,42.389,0,0,0-42.321,40l-4.328,76.75h76.058A8.935,8.935,0,0,0,410.95,335Z" transform="translate(-325.974 -226.622)" fill="#58a65e"/>
          </g>
          <path id="Trazado_143965" data-name="Trazado 143965" d="M395.221,343.374l4.5-71.706a42.388,42.388,0,0,0-42.3-45.045h0a42.388,42.388,0,0,0-42.321,40l-4.328,76.75Z" transform="translate(-310.772 -226.622)" fill="#7ae582"/>
        </g>
        <g id="Grupo_83462" data-name="Grupo 83462" transform="translate(139.483 165.491)">
          <path id="Trazado_143966" data-name="Trazado 143966" d="M415.712,382.628H416.8a1.236,1.236,0,0,0,1.156-1.1l1.6-11.24h-6.593l1.6,11.24A1.236,1.236,0,0,0,415.712,382.628Z" transform="translate(-412.957 -370.286)" fill="#091946"/>
          <path id="Trazado_143967" data-name="Trazado 143967" d="M415.712,382.628H416.8a1.236,1.236,0,0,0,1.156-1.1l1.6-11.24h-6.593l1.6,11.24A1.236,1.236,0,0,0,415.712,382.628Z" transform="translate(-412.957 -370.286)" fill="#091946" opacity="0.7"/>
        </g>
        <g id="Grupo_83463" data-name="Grupo 83463" transform="translate(33.562 165.491)">
          <path id="Trazado_143968" data-name="Trazado 143968" d="M285.12,382.628h.983a1.173,1.173,0,0,0,1.048-1.1l1.449-11.24h-5.977l1.449,11.24A1.173,1.173,0,0,0,285.12,382.628Z" transform="translate(-282.623 -370.286)" fill="#091946"/>
          <path id="Trazado_143969" data-name="Trazado 143969" d="M285.12,382.628h.983a1.173,1.173,0,0,0,1.048-1.1l1.449-11.24h-5.977l1.449,11.24A1.173,1.173,0,0,0,285.12,382.628Z" transform="translate(-282.623 -370.286)" fill="#091946" opacity="0.5"/>
        </g>
        <g id="Grupo_83464" data-name="Grupo 83464" transform="translate(64.132 165.491)">
          <path id="Trazado_143970" data-name="Trazado 143970" d="M322.736,382.628h.983a1.174,1.174,0,0,0,1.048-1.1l1.449-11.24h-5.977l1.449,11.24A1.173,1.173,0,0,0,322.736,382.628Z" transform="translate(-320.239 -370.286)" fill="#407bff"/>
          <path id="Trazado_143971" data-name="Trazado 143971" d="M322.736,382.628h.983a1.174,1.174,0,0,0,1.048-1.1l1.449-11.24h-5.977l1.449,11.24A1.173,1.173,0,0,0,322.736,382.628Z" transform="translate(-320.239 -370.286)" fill="#fff" opacity="0.7"/>
        </g>
        <g id="Grupo_83465" data-name="Grupo 83465" transform="translate(106.571 165.491)">
          <path id="Trazado_143972" data-name="Trazado 143972" d="M375.214,382.628H376.3a1.236,1.236,0,0,0,1.156-1.1l1.6-11.24h-6.593l1.6,11.24A1.236,1.236,0,0,0,375.214,382.628Z" transform="translate(-372.459 -370.286)" fill="#091946"/>
          <path id="Trazado_143973" data-name="Trazado 143973" d="M375.214,382.628H376.3a1.236,1.236,0,0,0,1.156-1.1l1.6-11.24h-6.593l1.6,11.24A1.236,1.236,0,0,0,375.214,382.628Z" transform="translate(-372.459 -370.286)" fill="#091946" opacity="0.5"/>
        </g>
        <g id="Grupo_83467" data-name="Grupo 83467" transform="translate(28.239 87.254)">
          <g id="Grupo_83466" data-name="Grupo 83466">
            <path id="Trazado_143974" data-name="Trazado 143974" d="M321.377,325.17h-28.9l-1.914-27.862-.408-5.981v-.009l-.189-2.753a19.268,19.268,0,0,0-.283-2.155c-.032-.155-.071-.32-.1-.475a1.763,1.763,0,0,0-.086-.347,16.68,16.68,0,0,0-4.4-7.478,14.16,14.16,0,0,0-9.023-4.068h27.18q.447-.026.895-.026a14.113,14.113,0,0,1,9.847,4.094,16.672,16.672,0,0,1,4.4,7.478,1.656,1.656,0,0,1,.086.347,17.679,17.679,0,0,1,.385,2.631l.188,2.753v.009Z" transform="translate(-276.073 -274.017)" fill="#407bff"/>
            <path id="Trazado_143975" data-name="Trazado 143975" d="M321.377,325.17h-28.9l-1.914-27.862-.408-5.981v-.009l-.189-2.753a19.268,19.268,0,0,0-.283-2.155c-.032-.155-.071-.32-.1-.475a1.763,1.763,0,0,0-.086-.347,16.68,16.68,0,0,0-4.4-7.478,14.16,14.16,0,0,0-9.023-4.068h27.18q.447-.026.895-.026a14.113,14.113,0,0,1,9.847,4.094,16.672,16.672,0,0,1,4.4,7.478,1.656,1.656,0,0,1,.086.347,17.679,17.679,0,0,1,.385,2.631l.188,2.753v.009Z" transform="translate(-276.073 -274.017)" fill="#58a65e"/>
          </g>
        </g>
        <g id="Grupo_83468" data-name="Grupo 83468" transform="translate(96.446 123.565)" opacity="0.1">
          <path id="Trazado_143976" data-name="Trazado 143976" d="M360,318.7h11.609c2.822,0,5.109,1.786,5.109,3.99v6.866c0,2.2-2.288,3.99-5.109,3.99H360Z" transform="translate(-360 -318.698)"/>
        </g>
        <g id="Grupo_83469" data-name="Grupo 83469" transform="translate(44.648 123.565)">
          <path id="Trazado_144449" data-name="Trazado 144449" d="M5.425,0H54.5a5.425,5.425,0,0,1,5.425,5.425v4A5.425,5.425,0,0,1,54.5,14.845H5.425A5.425,5.425,0,0,1,0,9.42v-4A5.425,5.425,0,0,1,5.425,0Z" transform="translate(59.927 14.845) rotate(180)" fill="#58a65e"/>
        </g>
        <path id="Trazado_143977" data-name="Trazado 143977" d="M437.546,290.48a16.467,16.467,0,0,1-13.658,16.229l-2.995,39.6c-.26,3.367-2.7,5.947-5.626,5.947H383.389c2.926,0,5.367-2.58,5.626-5.947l1.6-21.137,1.394-18.462a16.427,16.427,0,0,0,11.814-8.664c.156-.285.295-.588.424-.892a16.209,16.209,0,0,0,1.42-6.673,16.481,16.481,0,0,0-.346-3.358c-.087-.441-.2-.883-.32-1.308a16.7,16.7,0,0,0-2.736-5.357l-.008-.009a16.5,16.5,0,0,0-13.053-6.431h31.878a16.5,16.5,0,0,1,13.053,6.431l.008.009A16.418,16.418,0,0,1,437.546,290.48Z" transform="translate(-267.935 -186.763)" fill="#407bff"/>
        <path id="Trazado_143978" data-name="Trazado 143978" d="M437.546,290.48a16.467,16.467,0,0,1-13.658,16.229l-2.995,39.6c-.26,3.367-2.7,5.947-5.626,5.947H383.389c2.926,0,5.367-2.58,5.626-5.947l1.6-21.137,1.394-18.462a16.427,16.427,0,0,0,11.814-8.664c.156-.285.295-.588.424-.892a16.209,16.209,0,0,0,1.42-6.673,16.481,16.481,0,0,0-.346-3.358c-.087-.441-.2-.883-.32-1.308a16.7,16.7,0,0,0-2.736-5.357l-.008-.009a16.5,16.5,0,0,0-13.053-6.431h31.878a16.5,16.5,0,0,1,13.053,6.431l.008.009A16.418,16.418,0,0,1,437.546,290.48Z" transform="translate(-267.935 -186.763)" fill="#58a65e"/>
        <path id="Trazado_143979" data-name="Trazado 143979" d="M381.94,290.481c0,8.132-5.352,14.9-12.385,16.225l-2.714,39.6c-.234,3.37-2.445,5.951-5.1,5.951H276.619c-2.651,0-4.863-2.58-5.1-5.951l-2.723-39.66c-6.89-1.447-12.1-8.133-12.1-16.163a17.542,17.542,0,0,1,2.751-9.517,15.487,15.487,0,0,1,5.508-5.208,13.639,13.639,0,0,1,6.671-1.743,14.135,14.135,0,0,1,9.846,4.1,16.632,16.632,0,0,1,4.4,7.476,1.954,1.954,0,0,1,.085.352,17.5,17.5,0,0,1,.383,2.627l.191,2.753v.007l2.318,33.843H349.51l2.51-36.6c.362-5.169,2.878-9.478,6.372-11.518a13.867,13.867,0,0,1,7.726-2.995,8.425,8.425,0,0,1,.893-.039,13.517,13.517,0,0,1,6.486,1.65c.064.024.12.063.184.093a15.384,15.384,0,0,1,5.167,4.692l.007.008A17.543,17.543,0,0,1,381.94,290.481Z" transform="translate(-244.204 -186.763)" fill="#407bff"/>
        <g id="Grupo_83470" data-name="Grupo 83470" transform="translate(12.489 87.25)">
          <path id="Trazado_143980" data-name="Trazado 143980" d="M348.106,352.254H276.619c-2.651,0-4.863-2.58-5.1-5.951l-2.723-39.66c-6.89-1.447-12.1-8.133-12.1-16.163a17.542,17.542,0,0,1,2.751-9.517,15.487,15.487,0,0,1,5.508-5.208,13.639,13.639,0,0,1,6.671-1.743,14.135,14.135,0,0,1,9.846,4.1,16.632,16.632,0,0,1,4.4,7.476,1.954,1.954,0,0,1,.085.352,17.5,17.5,0,0,1,.383,2.627l.191,2.753v.007l2.318,33.843H349.51Z" transform="translate(-256.693 -274.013)" fill="#7ae582"/>
        </g>
        <g id="Grupo_83488" data-name="Grupo 83488">
          <g id="Grupo_83487" data-name="Grupo 83487">
            <g id="Grupo_83471" data-name="Grupo 83471" transform="translate(28.636 42.742)">
              <path id="Trazado_143981" data-name="Trazado 143981" d="M342.552,229.385c-1.412.783-2.708,1.486-4.042,2.172s-2.688,1.33-4.042,1.959c-2.731,1.247-5.5,2.429-8.345,3.47a89.7,89.7,0,0,1-8.745,2.767,55.473,55.473,0,0,1-9.392,1.681l-.67.062-.323-.024c-2.867-.331-5.411-.852-7.962-1.381s-5.082-1.129-7.586-1.765-4.989-1.3-7.471-2.019-4.955-1.451-7.412-2.291l1.13-5.643c5.109.33,10.212.843,15.269,1.343l7.549.757c2.485.239,5.028.451,7.256.536l-.984.023a54.236,54.236,0,0,0,7.524-1.9c2.549-.834,5.1-1.738,7.632-2.834s5.067-2.207,7.572-3.4c1.279-.587,2.529-1.208,3.746-1.815s2.517-1.256,3.63-1.838Z" transform="translate(-276.562 -219.246)" fill="#58a65e"/>
              <path id="Trazado_143982" data-name="Trazado 143982" d="M342.552,229.385c-1.412.783-2.708,1.486-4.042,2.172s-2.688,1.33-4.042,1.959c-2.731,1.247-5.5,2.429-8.345,3.47a89.7,89.7,0,0,1-8.745,2.767,55.473,55.473,0,0,1-9.392,1.681l-.67.062-.323-.024c-2.867-.331-5.411-.852-7.962-1.381s-5.082-1.129-7.586-1.765-4.989-1.3-7.471-2.019-4.955-1.451-7.412-2.291l1.13-5.643c5.109.33,10.212.843,15.269,1.343l7.549.757c2.485.239,5.028.451,7.256.536l-.984.023a54.236,54.236,0,0,0,7.524-1.9c2.549-.834,5.1-1.738,7.632-2.834s5.067-2.207,7.572-3.4c1.279-.587,2.529-1.208,3.746-1.815s2.517-1.256,3.63-1.838Z" transform="translate(-276.562 -219.246)" fill="#58a65e" opacity="0.1"/>
            </g>
            <path id="Trazado_143983" data-name="Trazado 143983" d="M275.236,226.262a13.85,13.85,0,0,0-3.931-1.922l-2.1,8.215,6.3,2.652.716-.877A5.6,5.6,0,0,0,275.236,226.262Z" transform="translate(-246.547 -177.459)" fill="#d5f2bc"/>
            <path id="Trazado_143984" data-name="Trazado 143984" d="M267.922,231.816l2.1-8.215-5.884-3.208-1.775,5.785Z" transform="translate(-245.267 -176.719)" fill="#d5f2bc"/>
            <path id="Trazado_143985" data-name="Trazado 143985" d="M333.409,239.138l.228-.011.1.02c3.1-.337,12.226-1.871,18.831-8.38-.99-1.9-2.337-3.376-3.987-3.707C344.034,226.231,338.458,229.49,333.409,239.138Z" transform="translate(-258.574 -177.945)" opacity="0.2" style="isolation: isolate"/>
            <path id="Trazado_143986" data-name="Trazado 143986" d="M339.98,279.269c7.785-21.022,2.663-40.355,3.642-51.056a12.222,12.222,0,0,1,9.862-10.875c5.322-1.029,11.889-2.18,18.161-3.026a12.285,12.285,0,0,1,13.93,12.34c-.549,31.715-10.709,52.617-10.709,52.617l-16.412-.071Z" transform="translate(-259.805 -175.56)" fill="#407bff"/>
            <path id="Trazado_143987" data-name="Trazado 143987" d="M339.98,279.269c7.785-21.022,2.663-40.355,3.642-51.056a12.222,12.222,0,0,1,9.862-10.875c5.322-1.029,11.889-2.18,18.161-3.026a12.285,12.285,0,0,1,13.93,12.34c-.549,31.715-10.709,52.617-10.709,52.617l-16.412-.071Z" transform="translate(-259.805 -175.56)" fill="#7ae582" opacity="0.8"/>
            <g id="character-2--inject-102" transform="translate(0 98.78)">
              <path id="Trazado_143988" data-name="Trazado 143988" d="M262.879,382.54,260.8,396.22h6.613l4.341-13.68Z" transform="translate(-244.973 -305.871)" fill="#d7f4bd"/>
              <path id="Trazado_143989" data-name="Trazado 143989" d="M256.307,395.57l8.836-.206a.5.5,0,0,1,.554.484l.02,6.486a1.484,1.484,0,0,1-1.455,1.325c-3.072.023-4.534-.114-8.421-.021a99.678,99.678,0,0,1-12.364-.815c-3.147-.538-2.3-3.492-.873-3.54,6.426-.235,10.015-1.574,12.32-3.231A2.429,2.429,0,0,1,256.307,395.57Z" transform="translate(-241.326 -308.272)" fill="#a89a28"/>
              <path id="Trazado_143990" data-name="Trazado 143990" d="M262.332,388.027l.836-5.486h8.871l-2.136,6.84Z" transform="translate(-245.26 -305.871)" fill="#1d8070" opacity="0.998"/>
              <g id="Grupo_83472" data-name="Grupo 83472" transform="translate(16.182 0.008)">
                <path id="Trazado_143991" data-name="Trazado 143991" d="M321.156,288.21s-53.756.534-54.593,17.561c-1.189,24.479-5.326,61.8-5.326,61.8l10.138,2.787s14.46-37.005,15.024-56.122c15.12-3.013,54,0,58.564-9.931a26.692,26.692,0,0,0,1.724-16.095Z" transform="translate(-261.238 -288.21)" fill="#407bff"/>
                <path id="Trazado_143992" data-name="Trazado 143992" d="M321.156,288.21s-53.756.534-54.593,17.561c-1.189,24.479-5.326,61.8-5.326,61.8l10.138,2.787s14.46-37.005,15.024-56.122c15.12-3.013,54,0,58.564-9.931a26.692,26.692,0,0,0,1.724-16.095Z" transform="translate(-261.238 -288.21)" fill="#a09221"/>
              </g>
              <path id="Trazado_143993" data-name="Trazado 143993" d="M321.558,388.936l3.589,9.282h7.246l-2.5-9.762Z" transform="translate(-256.354 -306.979)" fill="#d7f4bd"/>
              <path id="Trazado_143994" data-name="Trazado 143994" d="M330.214,390.053l-1.407-7.142-9.153,1.138L322,390.258Z" transform="translate(-255.997 -305.94)" fill="#1d8070"/>
              <path id="Trazado_143995" data-name="Trazado 143995" d="M320.368,396.685h9.249a.571.571,0,0,1,.61.525v.01l.453,6.933a1.432,1.432,0,0,1-1.443,1.394c-3.219-.053-4.763-.236-8.832-.236-2.5,0-7.547.245-11.007.245s-3.357-3.235-1.9-3.506c6.576-1.315,9.119-3.13,11.44-4.865A2.473,2.473,0,0,1,320.368,396.685Z" transform="translate(-253.542 -308.52)" fill="#746a1f"/>
              <path id="Trazado_143996" data-name="Trazado 143996" d="M341.823,288.208s-48.756,3.3-47.556,20.323c1.31,18.631,20.835,61.825,20.835,61.825h9.858s-6.552-39.2-9.526-58.18c13.749,0,45.621,2.074,50.2-7.882a26.641,26.641,0,0,0,1.714-16.095Z" transform="translate(-251.238 -288.2)" fill="#407bff"/>
              <path id="Trazado_143997" data-name="Trazado 143997" d="M341.823,288.208s-48.756,3.3-47.556,20.323c1.31,18.631,20.835,61.825,20.835,61.825h9.858s-6.552-39.2-9.526-58.18c13.749,0,45.621,2.074,50.2-7.882a26.641,26.641,0,0,0,1.714-16.095Z" transform="translate(-251.238 -288.2)" fill="#e6a800"/>
            </g>
            <path id="Trazado_143998" data-name="Trazado 143998" d="M360.543,200.98c1.125,4.338,1.477,9.739-4.587,11.986-1.681,2.68-2.506,5.505,3.977,4.5a19.935,19.935,0,0,0,13.075-7.4c-3.881-3.391-3.17-13.808-2.189-19.686Z" transform="translate(-262.573 -171.098)" fill="#d5f2bc"/>
            <g id="Grupo_83473" data-name="Grupo 83473" transform="translate(78.241 37.777)">
              <path id="Trazado_143999" data-name="Trazado 143999" d="M356.639,213.137c-5.561.957-10.142,5.258-12.6,10.34s-3.044,10.867-3,16.51.69,11.277.541,16.919c-.172,6.519-1.745,11.11-3.986,17.235,0,1.456,2.2,2.278,4.072,2.656,3.881-8.478,6.434-16.581,6.164-25.9-.2-6.762-.292-14.462.81-21.137,1.086-6.574,9.079-15.369,8.7-16.568Z" transform="translate(-337.6 -213.137)" fill="#266999"/>
            </g>
            <path id="Trazado_144000" data-name="Trazado 144000" d="M366.7,205.565a5.418,5.418,0,0,1-4.111,1,19.289,19.289,0,0,0-.229-3.152l6.727-5.527a14.547,14.547,0,0,1,.284,2.176A6.16,6.16,0,0,1,366.7,205.565Z" transform="translate(-263.997 -172.503)" fill="#1d8070" style="isolation: isolate"/>
            <g id="Grupo_83481" data-name="Grupo 83481" transform="translate(84.049)">
              <g id="Grupo_83474" data-name="Grupo 83474">
                <path id="Trazado_144001" data-name="Trazado 144001" d="M353.882,171.508c-7.117,4.017-7.19,15.39-5,21.962a9.852,9.852,0,0,0,17.258,2.9c3.476-4.4,2.976-8.838,2.805-16.471S361,167.49,353.882,171.508Z" transform="translate(-345.284 -167.29)" fill="#d5f2bc"/>
                <path id="Trazado_144002" data-name="Trazado 144002" d="M356.5,195.1c-2.293.981-4.806,2.258-7.121,1.983a9.842,9.842,0,0,0,17.093,2.444c2.844-3.6,3.742-6.039,2.905-12.606C364.939,192.136,361.4,193,356.5,195.1Z" transform="translate(-345.614 -170.45)" fill="#1d8070" opacity="0.2" style="isolation: isolate"/>
                <path id="Trazado_144003" data-name="Trazado 144003" d="M366.381,174.259a6.488,6.488,0,0,0,.723,7.778c.642.672,1.429,1.2,2.049,1.891a5.564,5.564,0,0,1,1.4,3.946,4.078,4.078,0,0,1,3.858-3.434q-1.448,4.47-2.9,8.941a12.365,12.365,0,0,0,7.06-9.75C379.187,177.89,372.067,165.521,366.381,174.259Z" transform="translate(-348.617 -167.511)" fill="#091946"/>
                <path id="Trazado_144004" data-name="Trazado 144004" d="M345.915,173.837a4.859,4.859,0,0,0-1.133,2.117,1.986,1.986,0,0,0,.856,2.1,3.005,3.005,0,0,0,1.93.093l6.489-1.128c3.721-.647,7.446-1.295,11.119-2.174,1.649-.395,3.5-1.016,4.151-2.581,2.107-5.079-6.888-5.739-9.888-5.595A19.4,19.4,0,0,0,345.915,173.837Z" transform="translate(-344.746 -166.654)" fill="#091946"/>
                <path id="Trazado_144005" data-name="Trazado 144005" d="M374.6,185.9c-2.136.481-3.043,3.545-2.982,5.511.014,2.228,1.651,3.684,3.506,2.339a6.88,6.88,0,0,0,2.667-4.29C378.166,187.355,376.731,185.423,374.6,185.9Z" transform="translate(-349.778 -170.245)" fill="#d5f2bc"/>
                <path id="Trazado_144006" data-name="Trazado 144006" d="M356.256,194.5a2.624,2.624,0,0,1-2.213.336c.823-1.833.714-1.42.964-4.547Z" transform="translate(-346.487 -171.08)" fill="#29b39d"/>
                <path id="Trazado_144007" data-name="Trazado 144007" d="M360.548,182.591a4.32,4.32,0,0,0-3.179-.812h0l-.021,0a.347.347,0,0,1-.4-.291.387.387,0,0,1,.307-.429,4.96,4.96,0,0,1,3.8,1.025l.007.008a.364.364,0,0,1-.033.513.516.516,0,0,1-.16.1A.356.356,0,0,1,360.548,182.591Z" transform="translate(-347.032 -169.344)" fill="#091946"/>
                <path id="Trazado_144008" data-name="Trazado 144008" d="M348.4,184.316l-.023-.014a.348.348,0,0,1-.1-.482,3.816,3.816,0,0,1,2.79-1.914h.026a.34.34,0,0,1,.34.34.38.38,0,0,1-.351.392,3.042,3.042,0,0,0-2.193,1.543.386.386,0,0,1-.293.186A.323.323,0,0,1,348.4,184.316Z" transform="translate(-345.396 -169.51)" fill="#091946"/>
              </g>
              <g id="Grupo_83475" data-name="Grupo 83475" transform="translate(9.132 23.296)">
                <path id="Trazado_144009" data-name="Trazado 144009" d="M355.983,198.745a31.777,31.777,0,0,1,2.151,3.126c.171-.068.341-.136.508-.215,2.288-.99,2.939-2.37,2.967-3.6a5.128,5.128,0,0,0-.868-2.74c-.82,1.408-2.864,2.531-3.985,3.074C356.289,198.627,355.983,198.745,355.983,198.745Z" transform="translate(-355.983 -195.319)" fill="#2e353a"/>
                <path id="Trazado_144010" data-name="Trazado 144010" d="M356.934,198.393l.326.453a.683.683,0,0,0,.84.222c1.691-.8,2.812-1.644,3.219-2.545a.661.661,0,0,0-.026-.549,4.371,4.371,0,0,0-.374-.655C360.1,196.727,358.056,197.85,356.934,198.393Z" transform="translate(-356.161 -195.319)" fill="#fff"/>
                <path id="Trazado_144011" data-name="Trazado 144011" d="M359.255,202.289c2.288-.99,2.939-2.37,2.967-3.6a6.707,6.707,0,0,0-2.267,1.712A3.216,3.216,0,0,0,359.255,202.289Z" transform="translate(-356.596 -195.95)" fill="#29b39d"/>
              </g>
              <g id="Grupo_83476" data-name="Grupo 83476" transform="translate(5.077 17.376)">
                <path id="Trazado_144012" data-name="Trazado 144012" d="M351.529,188.042c-.4.072-.623.638-.5,1.247s.544,1.05.939.969.623-.638.5-1.247S351.927,187.969,351.529,188.042Z" transform="translate(-350.993 -188.034)" fill="#091946"/>
              </g>
              <g id="Grupo_83477" data-name="Grupo 83477" transform="translate(12.05 16.219)">
                <path id="Trazado_144013" data-name="Trazado 144013" d="M360.109,186.618c-.4.072-.623.638-.5,1.247s.545,1.05.94.969.623-.637.5-1.247S360.507,186.545,360.109,186.618Z" transform="translate(-359.573 -186.61)" fill="#091946"/>
              </g>
              <g id="Grupo_83480" data-name="Grupo 83480" transform="translate(2.537 17.426)">
                <path id="Trazado_144014" data-name="Trazado 144014" d="M347.867,191.8,353,190.643l.087,2.177-4.766,1.141Z" transform="translate(-347.867 -188.573)" fill="#fff" opacity="0.9"/>
                <g id="Grupo_83478" data-name="Grupo 83478" transform="translate(6.691)" opacity="0.8">
                  <path id="Trazado_144015" data-name="Trazado 144015" d="M356.1,189.824l.613,2,6.577-1.416-.39-2.313Z" transform="translate(-356.1 -188.096)" fill="#fff" opacity="0.9"/>
                </g>
                <g id="Grupo_83479" data-name="Grupo 83479" transform="translate(5.129 1.728)">
                  <path id="Trazado_144016" data-name="Trazado 144016" d="M354.21,191.365l-.032-.8,1.562-.342.232.757Z" transform="translate(-354.178 -190.222)" fill="#263238"/>
                </g>
              </g>
            </g>
            <path id="Trazado_144017" data-name="Trazado 144017" d="M351.92,277.994s9.256,3.586,11.369,4.289a27.051,27.051,0,0,0,7.619,1.747,9.371,9.371,0,0,0,7.207-2.693c2.211-2.356,2.9-5.937,3.473-9.287q2.547-14.786,5.091-29.571c.837-4.86,2.948-12.164,2.77-14.946-.331-5.118-3.592-11.16-11.891-14.489-3.223-1.294-6.407-.8-9.125,2.454-1.621,1.94-6.352,6.6-7.513,14.817-.932,6.584-2.374,15.11-2.285,21.8C358.75,260.889,355.255,271.977,351.92,277.994Z" transform="translate(-262.041 -175.219)" fill="#266999"/>
            <g id="Grupo_83482" data-name="Grupo 83482" transform="translate(83.881 45.663)">
              <path id="Trazado_144018" data-name="Trazado 144018" d="M387.619,226.79c.944,8.568-3.791,30.161-4.706,31.455-3.881,12.529-14.55,5.777-16.1,5.2-2.691-.994-5.429-2.932-7.988-4.226-4.968-2.467-9.669-4.452-14.288-7.522l2.6-5.135c5.058,1.729,19.389,5.428,21.75,6,1.027.268,5.016,2.363,4.974-.4.566-.918,1.347-18.8,3.061-25.124a5.366,5.366,0,0,1,1-1.945l.156-.2a5.477,5.477,0,0,1,9.539,1.887Z" transform="translate(-344.54 -222.841)" fill="#58a65e"/>
              <path id="Trazado_144019" data-name="Trazado 144019" d="M387.619,226.79c.944,8.568-3.791,30.161-4.706,31.455-3.881,12.529-14.55,5.777-16.1,5.2-2.691-.994-5.429-2.932-7.988-4.226-4.968-2.467-9.669-4.452-14.288-7.522l2.6-5.135c5.058,1.729,19.389,5.428,21.75,6,1.027.268,5.016,2.363,4.974-.4.566-.918,1.347-18.8,3.061-25.124a5.366,5.366,0,0,1,1-1.945l.156-.2a5.477,5.477,0,0,1,9.539,1.887Z" transform="translate(-344.54 -222.841)" fill="#58a65e" opacity="0.1"/>
            </g>
            <g id="Grupo_83486" data-name="Grupo 83486" transform="translate(56.797 48.108)">
              <g id="Grupo_83484" data-name="Grupo 83484" transform="translate(0 0.345)">
                <g id="Grupo_83483" data-name="Grupo 83483" transform="translate(0.849 2.119)">
                  <path id="Trazado_144020" data-name="Trazado 144020" d="M339.058,260.269H315l-2.746-31.388h24.054Z" transform="translate(-312.258 -228.881)" fill="#263238"/>
                  <path id="Trazado_144021" data-name="Trazado 144021" d="M339.058,260.269H315l-2.746-31.388h24.054Z" transform="translate(-312.258 -228.881)" fill="#fb0" opacity="0.5"/>
                </g>
                <path id="Trazado_144022" data-name="Trazado 144022" d="M338.013,260.074H313.959l-2.746-31.388h24.054Z" transform="translate(-311.213 -226.725)" fill="#407bff"/>
                <path id="Trazado_144023" data-name="Trazado 144023" d="M338.013,260.074H313.959l-2.746-31.388h24.054Z" transform="translate(-311.213 -226.725)" fill="#ffda73"/>
                <path id="Trazado_144024" data-name="Trazado 144024" d="M330.036,230.2H319.92l-.343-3.922h10.117Z" transform="translate(-312.779 -226.273)" fill="#7ae582"/>
              </g>
              <g id="Grupo_83485" data-name="Grupo 83485" transform="translate(6.797)">
                <path id="Trazado_144025" data-name="Trazado 144025" d="M319.576,226.194l1-.345h10.475l.142,1.67-.779.9-.052,1.364-.324.33-.343-3.922Z" transform="translate(-319.576 -225.849)" fill="#58a65e"/>
                <path id="Trazado_144026" data-name="Trazado 144026" d="M319.576,226.194l1-.345h10.475l.142,1.67-.779.9-.052,1.364-.324.33-.343-3.922Z" transform="translate(-319.576 -225.849)" fill="#58a65e" opacity="0.5"/>
              </g>
            </g>
            <path id="Trazado_144027" data-name="Trazado 144027" d="M348.2,253.375l.549,2.933c-1.3,3.384-8.758,2.49-8.758,2.49l-.012-8.669,6.576,1.528A2.188,2.188,0,0,1,348.2,253.375Z" transform="translate(-259.805 -182.289)" fill="#d5f2bc"/>
            <path id="Trazado_144028" data-name="Trazado 144028" d="M338.118,250.129l.037,8.689-6.6.164-1.514-7.645Z" transform="translate(-257.943 -182.289)" fill="#d5f2bc"/>
          </g>
        </g>
        <g id="Grupo_83489" data-name="Grupo 83489" transform="translate(103.902 87.25)">
          <path id="Trazado_144029" data-name="Trazado 144029" d="M370.579,325.168l2.51-36.6c.362-5.169,2.878-9.478,6.372-11.518a13.867,13.867,0,0,1,7.726-2.995,8.426,8.426,0,0,1,.893-.039,13.517,13.517,0,0,1,6.486,1.65c.064.024.12.063.184.093a15.385,15.385,0,0,1,5.167,4.692l.007.008a17.544,17.544,0,0,1,3.084,10.025c0,8.132-5.352,14.9-12.385,16.225l-2.714,39.6c-.234,3.37-2.445,5.951-5.1,5.951H369.175Z" transform="translate(-369.175 -274.013)" fill="#407bff"/>
          <path id="Trazado_144030" data-name="Trazado 144030" d="M370.579,325.168l2.51-36.6c.362-5.169,2.878-9.478,6.372-11.518a13.867,13.867,0,0,1,7.726-2.995,8.426,8.426,0,0,1,.893-.039,13.517,13.517,0,0,1,6.486,1.65c.064.024.12.063.184.093a15.385,15.385,0,0,1,5.167,4.692l.007.008a17.544,17.544,0,0,1,3.084,10.025c0,8.132-5.352,14.9-12.385,16.225l-2.714,39.6c-.234,3.37-2.445,5.951-5.1,5.951H369.175Z" transform="translate(-369.175 -274.013)" fill="#7ae582"/>
        </g>
      </g>
    </g>
    <g id="Grupo_83491" data-name="Grupo 83491" transform="translate(812.49 8894.491)">
      <path id="Trazado_144031" data-name="Trazado 144031" d="M145.16,126.864v33.979a3.212,3.212,0,0,0,3.21,3.21h34.84l12.434,9.614a2.373,2.373,0,0,0,3.8-1.9v-7.712h1.942a3.212,3.212,0,0,0,3.21-3.21V126.856a3.2,3.2,0,0,0-3.21-3.186H148.354A3.194,3.194,0,0,0,145.16,126.864Z" transform="translate(-145.16 -123.67)" fill="#a6ffac" stroke="#091946" stroke-miterlimit="10" stroke-width="1"/>
    </g>
    <g id="Grupo_83492" data-name="Grupo 83492" transform="translate(844.076 8890.803)">
      <rect id="Rect치ngulo_32589" data-name="Rect치ngulo 32589" width="6.64" height="0.813" transform="translate(0 0.008)" fill="#091946"/>
      <path id="Trazado_144032" data-name="Trazado 144032" d="M158.57,127.357h.813V123.35a5.583,5.583,0,0,0-5.582-5.575H138.985v.813H153.8a4.77,4.77,0,0,1,4.77,4.762Z" transform="translate(-127.509 -117.775)" fill="#091946"/>
    </g>
    <g id="Character_1" data-name="Character 1" transform="translate(635.668 8944.968)">
      <g id="Grupo_83534" data-name="Grupo 83534" transform="translate(0 0)">
        <g id="Grupo_83500" data-name="Grupo 83500" transform="translate(11.779 35.346)">
          <g id="Grupo_83499" data-name="Grupo 83499">
            <path id="Trazado_144037" data-name="Trazado 144037" d="M64.206,338.672,60.079,272.96a42.388,42.388,0,0,1,42.3-45.045h0a42.389,42.389,0,0,1,42.321,40l4.328,76.751H70.59A6.4,6.4,0,0,1,64.206,338.672Z" transform="translate(-59.994 -227.915)" fill="#58a65e"/>
            <path id="Trazado_144038" data-name="Trazado 144038" d="M64.057,336.292,60.079,272.96a42.388,42.388,0,0,1,42.3-45.045h0a42.389,42.389,0,0,1,42.321,40l4.328,76.751H72.974A8.936,8.936,0,0,1,64.057,336.292Z" transform="translate(-59.994 -227.915)" fill="#58a65e" opacity="0.1"/>
          </g>
          <path id="Trazado_144039" data-name="Trazado 144039" d="M79.785,344.667l-4.5-71.707a42.388,42.388,0,0,1,42.3-45.045h0a42.389,42.389,0,0,1,42.321,40l4.328,76.751Z" transform="translate(-62.842 -227.915)" fill="#7ae582"/>
        </g>
        <g id="Grupo_83501" data-name="Grupo 83501" transform="translate(23.534 152.102)">
          <path id="Trazado_144040" data-name="Trazado 144040" d="M78.3,383.921H77.212a1.237,1.237,0,0,1-1.156-1.1l-1.6-11.24h6.593l-1.6,11.24A1.236,1.236,0,0,1,78.3,383.921Z" transform="translate(-74.458 -371.58)" fill="#091946"/>
          <path id="Trazado_144041" data-name="Trazado 144041" d="M78.3,383.921H77.212a1.237,1.237,0,0,1-1.156-1.1l-1.6-11.24h6.593l-1.6,11.24A1.236,1.236,0,0,1,78.3,383.921Z" transform="translate(-74.458 -371.58)" fill="#091946" opacity="0.7"/>
        </g>
        <g id="Grupo_83502" data-name="Grupo 83502" transform="translate(130.072 152.102)">
          <path id="Trazado_144042" data-name="Trazado 144042" d="M209.03,383.921h-.983a1.174,1.174,0,0,1-1.048-1.1l-1.449-11.24h5.977l-1.449,11.24A1.173,1.173,0,0,1,209.03,383.921Z" transform="translate(-205.55 -371.58)" fill="#091946"/>
          <path id="Trazado_144043" data-name="Trazado 144043" d="M209.03,383.921h-.983a1.174,1.174,0,0,1-1.048-1.1l-1.449-11.24h5.977l-1.449,11.24A1.173,1.173,0,0,1,209.03,383.921Z" transform="translate(-205.55 -371.58)" fill="#091946" opacity="0.5"/>
        </g>
        <g id="Grupo_83503" data-name="Grupo 83503" transform="translate(99.501 152.102)">
          <path id="Trazado_144044" data-name="Trazado 144044" d="M171.413,383.921h-.982a1.174,1.174,0,0,1-1.048-1.1l-1.449-11.24h5.977l-1.449,11.24A1.173,1.173,0,0,1,171.413,383.921Z" transform="translate(-167.934 -371.58)" fill="#091946"/>
          <path id="Trazado_144045" data-name="Trazado 144045" d="M171.413,383.921h-.982a1.174,1.174,0,0,1-1.048-1.1l-1.449-11.24h5.977l-1.449,11.24A1.173,1.173,0,0,1,171.413,383.921Z" transform="translate(-167.934 -371.58)" fill="#091946" opacity="0.7"/>
        </g>
        <g id="Grupo_83504" data-name="Grupo 83504" transform="translate(56.446 152.102)">
          <path id="Trazado_144046" data-name="Trazado 144046" d="M118.794,383.921H117.71a1.237,1.237,0,0,1-1.156-1.1l-1.6-11.24h6.593l-1.6,11.24A1.237,1.237,0,0,1,118.794,383.921Z" transform="translate(-114.956 -371.58)" fill="#091946"/>
          <path id="Trazado_144047" data-name="Trazado 144047" d="M118.794,383.921H117.71a1.237,1.237,0,0,1-1.156-1.1l-1.6-11.24h6.593l-1.6,11.24A1.237,1.237,0,0,1,118.794,383.921Z" transform="translate(-114.956 -371.58)" fill="#091946" opacity="0.5"/>
        </g>
        <g id="Grupo_83506" data-name="Grupo 83506" transform="translate(96.067 73.864)">
          <g id="Grupo_83505" data-name="Grupo 83505">
            <path id="Trazado_144048" data-name="Trazado 144048" d="M163.708,326.463h28.9L194.52,298.6l.408-5.981v-.009l.189-2.753a19.051,19.051,0,0,1,.282-2.154c.032-.156.071-.32.1-.476a1.7,1.7,0,0,1,.086-.346,16.672,16.672,0,0,1,4.4-7.478,14.159,14.159,0,0,1,9.022-4.068H181.834q-.447-.027-.895-.027a14.115,14.115,0,0,0-9.847,4.094,16.677,16.677,0,0,0-4.4,7.478,1.7,1.7,0,0,0-.086.346,17.7,17.7,0,0,0-.384,2.631l-.189,2.753v.009Z" transform="translate(-163.708 -275.31)" fill="#58a65e"/>
            <path id="Trazado_144049" data-name="Trazado 144049" d="M163.708,326.463h28.9L194.52,298.6l.408-5.981v-.009l.189-2.753a19.051,19.051,0,0,1,.282-2.154c.032-.156.071-.32.1-.476a1.7,1.7,0,0,1,.086-.346,16.672,16.672,0,0,1,4.4-7.478,14.159,14.159,0,0,1,9.022-4.068H181.834q-.447-.027-.895-.027a14.115,14.115,0,0,0-9.847,4.094,16.677,16.677,0,0,0-4.4,7.478,1.7,1.7,0,0,0-.086.346,17.7,17.7,0,0,0-.384,2.631l-.189,2.753v.009Z" transform="translate(-163.708 -275.31)" fill="#58a65e" opacity="0.1"/>
          </g>
        </g>
        <g id="Grupo_83507" data-name="Grupo 83507" transform="translate(56.446 110.175)" opacity="0.1">
          <path id="Trazado_144050" data-name="Trazado 144050" d="M131.674,319.991H120.065c-2.822,0-5.11,1.786-5.11,3.989v6.866c0,2.2,2.288,3.99,5.11,3.99h11.608Z" transform="translate(-114.955 -319.991)"/>
        </g>
        <g id="Grupo_83508" data-name="Grupo 83508" transform="translate(65.035 110.176)">
          <rect id="Rect치ngulo_32590" data-name="Rect치ngulo 32590" width="59.927" height="14.845" rx="5.425" fill="#58a65e"/>
        </g>
        <path id="Trazado_144051" data-name="Trazado 144051" d="M45.5,291.773A16.466,16.466,0,0,0,59.158,308l2.995,39.6c.259,3.367,2.7,5.946,5.626,5.946H99.656c-2.926,0-5.366-2.579-5.625-5.946l-1.6-21.137L91.036,308a16.426,16.426,0,0,1-11.815-8.663c-.156-.286-.294-.589-.424-.892a16.215,16.215,0,0,1-1.419-6.674,16.486,16.486,0,0,1,.346-3.358c.086-.441.2-.883.319-1.307a16.713,16.713,0,0,1,2.736-5.358l.009-.008A16.491,16.491,0,0,1,93.84,275.31H61.963a16.494,16.494,0,0,0-13.053,6.432l-.009.008A16.419,16.419,0,0,0,45.5,291.773Z" transform="translate(-45.5 -201.446)" fill="#407bff"/>
        <path id="Trazado_144052" data-name="Trazado 144052" d="M45.5,291.773A16.466,16.466,0,0,0,59.158,308l2.995,39.6c.259,3.367,2.7,5.946,5.626,5.946H99.656c-2.926,0-5.366-2.579-5.625-5.946l-1.6-21.137L91.036,308a16.426,16.426,0,0,1-11.815-8.663c-.156-.286-.294-.589-.424-.892a16.215,16.215,0,0,1-1.419-6.674,16.486,16.486,0,0,1,.346-3.358c.086-.441.2-.883.319-1.307a16.713,16.713,0,0,1,2.736-5.358l.009-.008A16.491,16.491,0,0,1,93.84,275.31H61.963a16.494,16.494,0,0,0-13.053,6.432l-.009.008A16.419,16.419,0,0,0,45.5,291.773Z" transform="translate(-45.5 -201.446)" fill="#58a65e"/>
        <path id="Trazado_144053" data-name="Trazado 144053" d="M84.721,291.774c0,8.133,5.352,14.9,12.384,16.225l2.715,39.6c.233,3.37,2.445,5.951,5.1,5.951h85.119c2.651,0,4.862-2.581,5.1-5.951l2.722-39.66c6.89-1.447,12.1-8.132,12.1-16.163a17.537,17.537,0,0,0-2.75-9.516,15.473,15.473,0,0,0-5.508-5.208,13.644,13.644,0,0,0-6.671-1.744,14.136,14.136,0,0,0-9.846,4.1,16.621,16.621,0,0,0-4.4,7.475,1.887,1.887,0,0,0-.085.352,17.294,17.294,0,0,0-.383,2.627l-.192,2.753v.007l-2.318,33.843H117.151l-2.509-36.6c-.362-5.169-2.878-9.478-6.372-11.518a13.867,13.867,0,0,0-7.727-2.995,8.613,8.613,0,0,0-.893-.039,13.523,13.523,0,0,0-6.485,1.65,1.882,1.882,0,0,0-.184.094,15.37,15.37,0,0,0-5.168,4.692l-.007.007A17.549,17.549,0,0,0,84.721,291.774Z" transform="translate(-52.846 -201.446)" fill="#407bff"/>
        <g id="Grupo_83509" data-name="Grupo 83509" transform="translate(64.304 73.86)">
          <path id="Trazado_144054" data-name="Trazado 144054" d="M126.029,353.548h71.487c2.651,0,4.862-2.581,5.1-5.951l2.722-39.66c6.89-1.447,12.1-8.132,12.1-16.163a17.537,17.537,0,0,0-2.75-9.516,15.473,15.473,0,0,0-5.508-5.208,13.644,13.644,0,0,0-6.671-1.744,14.136,14.136,0,0,0-9.846,4.1,16.621,16.621,0,0,0-4.4,7.475,1.887,1.887,0,0,0-.085.352,17.294,17.294,0,0,0-.383,2.627l-.192,2.753v.007l-2.318,33.843H124.625Z" transform="translate(-124.625 -275.306)" fill="#7ae582"/>
        </g>
        <g id="Grupo_83531" data-name="Grupo 83531" transform="translate(49.037)">
          <g id="Grupo_83530" data-name="Grupo 83530">
            <g id="Grupo_83529" data-name="Grupo 83529">
              <g id="Grupo_83528" data-name="Grupo 83528">
                <g id="Grupo_83512" data-name="Grupo 83512" transform="translate(8.121 83.245)">
                  <path id="Trazado_144055" data-name="Trazado 144055" d="M153.13,385.033l6.935,1.921,6.22-16.3-6.929-1.922Z" transform="translate(-122.818 -302.191)" fill="#d7f4bd"/>
                  <path id="Trazado_144056" data-name="Trazado 144056" d="M162.62,387.855a3.634,3.634,0,0,0-2.223-1.35l-7.142-1.388a.648.648,0,0,0-.768.438l-2.209,6.512a1.425,1.425,0,0,0,.872,1.819l.047.015c2.632,1.038,4.412.68,8.53,1.477,2.536.494,7.865,2.181,11.425,2.036s3.55-3.669,2.053-3.927C167.893,392.652,163.827,389.461,162.62,387.855Z" transform="translate(-122.269 -305.256)" fill="#091946"/>
                  <g id="Grupo_83510" data-name="Grupo 83510" transform="translate(33.323 66.545)">
                    <path id="Trazado_144057" data-name="Trazado 144057" d="M166.979,370.663l-3.208,8.4-6.935-1.927,3.208-8.4Z" transform="translate(-156.836 -368.736)" fill="#1d8070"/>
                  </g>
                  <g id="Grupo_83511" data-name="Grupo 83511">
                    <path id="Trazado_144058" data-name="Trazado 144058" d="M136.167,293.508s41.737-.228,40.436,13.752c-.879,9.437-5.413,19.367-8.949,28.949-5.125,13.887-9.569,25.985-9.569,25.985l-9.512-3.29s8.541-40.165,14.3-44.275H127.581c-11.678,0-16.727-12.826-5.357-27.775C129.174,286.86,136.167,293.508,136.167,293.508Z" transform="translate(-115.832 -286.854)" fill="#040e29"/>
                    <path id="Trazado_144059" data-name="Trazado 144059" d="M136.167,293.508s41.737-.228,40.436,13.752c.647,8.684-18.517,54.934-18.517,54.934l-9.512-3.29s8.541-40.165,14.3-44.275H127.581c-11.678,0-16.727-12.826-5.357-27.775C129.174,286.86,136.167,293.508,136.167,293.508Z" transform="translate(-115.832 -286.854)" fill="#040e29" opacity="0.6"/>
                  </g>
                </g>
                <g id="Grupo_83527" data-name="Grupo 83527">
                  <g id="Grupo_83513" data-name="Grupo 83513" transform="translate(27.858 37.716)">
                    <path id="Trazado_144060" data-name="Trazado 144060" d="M170.15,257.6c-5.134,4.693-15.223-6.409-16.845-7.731-3.482-2.838-13.707-12.386-13.166-15.7,1.594-9.758,17.616,4.066,22.237,13.588Z" transform="translate(-140.119 -230.832)" fill="#e6a800"/>
                  </g>
                  <path id="Trazado_144061" data-name="Trazado 144061" d="M119.424,227.574c-2.574.547-5.362-.384-7.172,1.525a12.106,12.106,0,0,0-2.833,7.213,48.134,48.134,0,0,0,.569,10.937q.85,6.6,1.7,13.2a39.49,39.49,0,0,1-.414,10.87l0,.022a1.749,1.749,0,0,0,1,1.892s19.984.688,25.793.468c3.091-.117.97-8.24,1.917-12.976.21-1.051,2.279-5.394,2.584-6.506,1.435-5.245.484-8.847-.847-14.12-.966-3.825-1.363-9.346-3.315-9.769C134.924,229.578,126.595,226.048,119.424,227.574Z" transform="translate(-106.485 -192.434)" fill="#407bff"/>
                  <path id="Trazado_144062" data-name="Trazado 144062" d="M119.424,227.574c-2.574.547-5.362-.384-7.172,1.525a12.106,12.106,0,0,0-2.833,7.213,48.134,48.134,0,0,0,.569,10.937q.85,6.6,1.7,13.2a39.49,39.49,0,0,1-.414,10.87l0,.022a1.749,1.749,0,0,0,1,1.892s19.984.688,25.793.468c3.091-.117.97-8.24,1.917-12.976.21-1.051,2.279-5.394,2.584-6.506,1.435-5.245.484-8.847-.847-14.12-.966-3.825-1.363-9.346-3.315-9.769C134.924,229.578,126.595,226.048,119.424,227.574Z" transform="translate(-106.485 -192.434)" fill="#fb0"/>
                  <path id="Trazado_144063" data-name="Trazado 144063" d="M116.158,231.638c-.266-.4-7.292-6.323-8.572.514-1.781,9.516,1.9,18.88,1.9,18.88s.847,10.3,3.834,11.327,5.839,1.282,6.846-.478a10.474,10.474,0,0,0,1.006-4.4S120.817,238.748,116.158,231.638Z" transform="translate(-106.075 -192.749)" fill="#e6a800"/>
                  <path id="Trazado_144064" data-name="Trazado 144064" d="M123.822,211.59c.728,4.382,1.339,12.388-1.8,15.209A41.045,41.045,0,0,1,134.7,237.791a6.62,6.62,0,0,0,2.323-7.391,6.459,6.459,0,0,0-3.223-3.892c-2.971-1.635-2.687-4.695-1.872-7.573Z" transform="translate(-108.871 -189.511)" fill="#d7f4bd"/>
                  <path id="Trazado_144065" data-name="Trazado 144065" d="M125.467,220.742l2.853,1.095a9.517,9.517,0,0,0,3.835.622h0a6.165,6.165,0,0,0,0,2.71,5.473,5.473,0,0,1-5.669-1.819A9.387,9.387,0,0,1,125.467,220.742Z" transform="translate(-109.516 -191.225)" fill="#1d8070" style="isolation: isolate"/>
                  <path id="Trazado_144066" data-name="Trazado 144066" d="M211.305,367.056h7.764l-8.134-19.48-5.265,8.944Z" transform="translate(-124.538 -214.982)" fill="#d7f4bd"/>
                  <path id="Trazado_144067" data-name="Trazado 144067" d="M218.5,368.8l-9.113-2.07a.637.637,0,0,0-.766.407l-2.541,7.008a1.4,1.4,0,0,0,.953,1.734l.043.011c3.195.668,4.766.828,8.773,1.738,2.467.56,8.71,2.2,12.112,2.97s4.3-2.562,2.944-3.195c-6.076-2.813-9.37-5.5-11.136-7.794A2.2,2.2,0,0,0,218.5,368.8Z" transform="translate(-124.605 -218.566)" fill="#091946"/>
                  <g id="Grupo_83514" data-name="Grupo 83514" transform="translate(81.131 132.6)">
                    <path id="Trazado_144068" data-name="Trazado 144068" d="M210.935,347.583l3.463,8.3-6.985,3.9-1.743-3.254Z" transform="translate(-205.67 -347.583)" fill="#1d8070"/>
                  </g>
                  <path id="Trazado_144069" data-name="Trazado 144069" d="M111.337,283.88l-.84,2.648c-.111.2.124.419.47.432l30.1.913c.272,0,.494-.118.518-.29l.346-2.661c0-.184-.2-.345-.494-.358l-29.578-.895A.555.555,0,0,0,111.337,283.88Z" transform="translate(-106.707 -203.011)" fill="#e6a800"/>
                  <g id="Grupo_83516" data-name="Grupo 83516" transform="translate(0 78.69)" style="isolation: isolate">
                    <g id="Grupo_83515" data-name="Grupo 83515" transform="translate(0.08)">
                      <path id="Trazado_144070" data-name="Trazado 144070" d="M148.1,305.169c-9.89,4.214-20.624,8.429-26.456,8.429-11.684,0-22.063-8.437-11-27.621,6.95-.025,19.036.2,19.036.2s22.79-6.465,39.319-4.58a18.658,18.658,0,0,1,16.162,14.93c4.2,21.112,10.656,43.981,10.656,43.981l-8.314,5.66s-12.962-27.257-20.425-48.885C163.138,298.542,155.882,301.855,148.1,305.169Z" transform="translate(-105.937 -281.249)" fill="#091946"/>
                    </g>
                    <path id="Trazado_144071" data-name="Trazado 144071" d="M185.147,296.524a18.658,18.658,0,0,0-16.162-14.93c-16.529-1.885-39.319,4.58-39.319,4.58s-12.086-.222-19.036-.2c-11.244,19.119-.685,27.621,11,27.621,5.833,0,16.566-4.215,26.456-8.429,7.777-3.314,15.034-6.627,18.979-7.89,7.462,21.628,20.425,48.885,20.425,48.885l8.314-5.66S189.343,317.636,185.147,296.524Z" transform="translate(-105.839 -281.249)" fill="#091946" opacity="0.5"/>
                  </g>
                  <g id="Grupo_83517" data-name="Grupo 83517" transform="translate(61.228 94.728)">
                    <path id="Trazado_144072" data-name="Trazado 144072" d="M188.845,309.909a77.717,77.717,0,0,1-1.222,8.085c-.037-.086-.074-.167-.1-.253-.012-.025-.019-.044-.031-.068-.037-.086-.062-.179-.1-.259-2.216-5.493-4.376-11.129-6.2-16.431a.488.488,0,0,1,.055.019V301C186,303.014,189.221,305.866,188.845,309.909Z" transform="translate(-181.179 -300.983)" fill="#040e29"/>
                    <path id="Trazado_144073" data-name="Trazado 144073" d="M188.845,309.909a77.717,77.717,0,0,1-1.222,8.085c-.037-.086-.074-.167-.1-.253-.012-.025-.019-.044-.031-.068-.037-.086-.062-.179-.1-.259-2.216-5.493-4.376-11.129-6.2-16.431a.488.488,0,0,1,.055.019V301C186,303.014,189.221,305.866,188.845,309.909Z" transform="translate(-181.179 -300.983)" fill="#040e29" opacity="0.6"/>
                  </g>
                  <g id="Grupo_83521" data-name="Grupo 83521" transform="translate(1.759)">
                    <g id="Grupo_83519" data-name="Grupo 83519" transform="translate(0 4.484)">
                      <path id="Trazado_144074" data-name="Trazado 144074" d="M117.541,203.325c2.44,6.87,3.326,9.828,7.9,12.4,6.883,3.886,14.767-.631,14.427-8.092-.306-6.71-4.247-16.819-11.889-17.631a9.944,9.944,0,0,0-10.433,13.322Z" transform="translate(-109.675 -189.94)" fill="#d7f4bd"/>
                      <path id="Trazado_144075" data-name="Trazado 144075" d="M132.856,205.023c.172.6.6.948.974.836s.52-.647.377-1.224-.6-.941-.974-.836S132.695,204.455,132.856,205.023Z" transform="translate(-112.647 -192.533)" fill="#091946"/>
                      <path id="Trazado_144076" data-name="Trazado 144076" d="M140.71,202.549c.166.6.6.947.967.837s.521-.647.377-1.224-.6-.941-.968-.838S140.543,201.981,140.71,202.549Z" transform="translate(-114.118 -192.069)" fill="#091946"/>
                      <path id="Trazado_144077" data-name="Trazado 144077" d="M140.982,201.249l1.253-.791S141.853,201.727,140.982,201.249Z" transform="translate(-114.181 -191.91)" fill="#263238"/>
                      <path id="Trazado_144078" data-name="Trazado 144078" d="M137.906,204.431a15.977,15.977,0,0,0,3.071,3.053,2.5,2.5,0,0,1-1.924.938Z" transform="translate(-113.605 -192.655)" fill="#1d8070"/>
                      <path id="Trazado_144079" data-name="Trazado 144079" d="M111.378,209.539a20.058,20.058,0,0,1,1.13,3.827,5.3,5.3,0,0,1-4.5,5.526,5.092,5.092,0,0,0,5.87-2.653,6.911,6.911,0,0,1-3.475,3.753,7.383,7.383,0,0,0,5.892-2.835l-1.157,2.965a12.67,12.67,0,0,0,4.59-4.81,2.434,2.434,0,0,0,.192-2.588,2.888,2.888,0,0,0-2.3-.679c-.829-.017-1.822-.209-2.126-.981-.293-.743.253-1.548.851-2.076s1.324-1.015,1.544-1.783a3.3,3.3,0,0,0-.114-1.675q-.55-2.247-1.1-4.493a4.629,4.629,0,0,0-.563-1.508c-1.635-2.434-3.435,1.135-4.035,2.352A10.636,10.636,0,0,0,111.378,209.539Z" transform="translate(-108.004 -191.58)" fill="#091946"/>
                      <path id="Trazado_144080" data-name="Trazado 144080" d="M116.944,213.708a5.711,5.711,0,0,0,3.776,2.189c1.991.246,2.691-1.606,1.893-3.327-.721-1.552-2.626-3.545-4.5-3.021A2.566,2.566,0,0,0,116.944,213.708Z" transform="translate(-109.563 -193.597)" fill="#d7f4bd"/>
                      <path id="Trazado_144081" data-name="Trazado 144081" d="M132.181,199.174a.368.368,0,0,1-.3.3,4.3,4.3,0,0,0-2.575,2.29.363.363,0,1,1-.661-.3c.07-.07,1.083-2.324,3.1-2.71a.368.368,0,0,1,.423.289A.282.282,0,0,1,132.181,199.174Z" transform="translate(-111.864 -191.591)" fill="#091946"/>
                      <g id="Grupo_83518" data-name="Grupo 83518" transform="translate(24.076 5.955)">
                        <path id="Trazado_144082" data-name="Trazado 144082" d="M138.2,197.271a.384.384,0,0,0-.306.08c-.092.1-.385.269-.216.354.992.511,2.363,1.336,3.419,1.169.176-.037.6-.191.51-.316a.515.515,0,0,0-.484-.163c-.841.121-1.955-.668-2.736-1.074A.627.627,0,0,0,138.2,197.271Z" transform="translate(-137.629 -197.268)" fill="#091946"/>
                      </g>
                      <path id="Trazado_144083" data-name="Trazado 144083" d="M133.142,203.722l1.255-.785S134,204.2,133.142,203.722Z" transform="translate(-112.713 -192.375)" fill="#263238"/>
                    </g>
                    <g id="Grupo_83520" data-name="Grupo 83520" transform="translate(1.664 0.933)">
                      <path id="Trazado_144084" data-name="Trazado 144084" d="M128.7,186.149a17.578,17.578,0,0,0-5.946-.514,14.093,14.093,0,0,0-7.877,2.734,12.8,12.8,0,0,0-4.3,6.876,19.922,19.922,0,0,0-.209,8.191,5.316,5.316,0,0,0,1.573,3.425,20.928,20.928,0,0,1,.744-4.315,7.018,7.018,0,0,1,2.406-3.583,3.847,3.847,0,0,0,1.3-1.156,4.874,4.874,0,0,0,.291-1.476,4.542,4.542,0,0,1,1.9-2.785,15.329,15.329,0,0,1,3.065-1.577c3.419-1.477,7.153-2.319,10.308-4.3A14.818,14.818,0,0,0,128.7,186.149Z" transform="translate(-110.052 -185.571)" fill="#091946"/>
                    </g>
                    <path id="Trazado_144085" data-name="Trazado 144085" d="M115.207,196.81a5.377,5.377,0,0,0,2.9,1.8c1.348.31,4.72.235,4.922-.119.241-.423-.995-4.137-2.36-4.365a9.249,9.249,0,0,0,3.3,2.05,10.844,10.844,0,0,0,4.228-.02c.708-.167-.886-3.122-2.049-3.969,3.5.732,7.2,1.564,9.786,4.043,2.656,2.549,3.634,6.45,3.5,10.129a5.01,5.01,0,0,0,1.88-4,14.889,14.889,0,0,1-1.035,11.6c3.728-3.056,5.12-8.4,4.139-13.115s-4.047-8.813-7.808-11.826c-3.217-2.577-7.12-4.5-11.24-4.6C119.938,184.3,109.925,190.443,115.207,196.81Z" transform="translate(-109.074 -184.423)" fill="#091946"/>
                  </g>
                  <g id="Grupo_83524" data-name="Grupo 83524" transform="translate(1.263 24.163)">
                    <g id="Grupo_83522" data-name="Grupo 83522">
                      <path id="Trazado_144086" data-name="Trazado 144086" d="M118.4,224.1c.032-.268.063-.619.1-1a3.464,3.464,0,0,0-2.823-3.7l-.044-.008a1.442,1.442,0,0,1-1.1-.945c-.631-1.82-.872-2.372-1.476-4.163-1.643-.394-3.578.21-5.281.394a14.755,14.755,0,0,0-.093,6.207,2.671,2.671,0,0,0,.52,1.272,22.138,22.138,0,0,0,5.069,3.122C114.773,225.729,116.837,224.249,118.4,224.1Z" transform="translate(-107.393 -214.155)" fill="#d7f4bd"/>
                    </g>
                    <g id="Grupo_83523" data-name="Grupo 83523" transform="translate(4.135 9.415)">
                      <path id="Trazado_144087" data-name="Trazado 144087" d="M114.431,227.5s-4.477,28.888.135,33.291c2.71,2.588,5.051,1.161,6.519-.457a5.735,5.735,0,0,0,1.413-4.453l-3.143-29.606S116.248,224.47,114.431,227.5Z" transform="translate(-112.481 -225.74)" fill="#d7f4bd"/>
                    </g>
                  </g>
                  <g id="Grupo_83526" data-name="Grupo 83526" transform="translate(49.939 22.333)">
                    <path id="Trazado_144088" data-name="Trazado 144088" d="M173.086,254.253a10,10,0,0,0,3.955-8.6,140.9,140.9,0,0,0-1.52-14.828l-4.254-1.405s-1.322,7.3-1.615,11.312c-.058.788-.146,1.717-.242,2.7-.19,1.787-.419,3.759-.623,5.387Z" transform="translate(-167.569 -215.185)" fill="#d7f4bd"/>
                    <g id="Grupo_83525" data-name="Grupo 83525" transform="translate(0 26.728)">
                      <path id="Trazado_144089" data-name="Trazado 144089" d="M175.24,260.216c1.3-1.2,1.526-2.639,2.2-5.723.643-2.912-.082-6.467-.68-5.958a.646.646,0,0,0-.165.254c-1.031,2.435-5.048.3-6.187-.916a8.446,8.446,0,0,1-1.278-1.564,1.314,1.314,0,0,1-.032-1.481c-1.234-.509-2.225,4.349-1.634,5.544l.3.9A12.485,12.485,0,0,0,170,255.286l2.235,2.692Z" transform="translate(-167.289 -244.791)" fill="#e6a800"/>
                    </g>
                    <path id="Trazado_144090" data-name="Trazado 144090" d="M171.586,228.477l-.508-7.422a31.26,31.26,0,0,0,4.1,1.581c2.069.7,4.853-.539,4.232.8a57.308,57.308,0,0,1-3.463,5.822Z" transform="translate(-167.998 -213.617)" fill="#d7f4bd"/>
                    <path id="Trazado_144091" data-name="Trazado 144091" d="M171.078,219.341l3.166-7.438,4.157,2.545c1.145,2.485,1.012,7.276,1.012,7.276S173.651,221.986,171.078,219.341Z" transform="translate(-167.998 -211.903)" fill="#d7f4bd"/>
                  </g>
                </g>
              </g>
            </g>
          </g>
          <path id="Trazado_144092" data-name="Trazado 144092" d="M137.3,213.754c.108.532.486.9.833.825s.532-.562.416-1.095-.485-.895-.832-.818S137.188,213.253,137.3,213.754Z" transform="translate(-111.726 -189.711)" fill="#091946"/>
        </g>
        <g id="Grupo_83533" data-name="Grupo 83533" transform="translate(31.875 73.86)">
          <g id="Grupo_83532" data-name="Grupo 83532">
            <path id="Trazado_144093" data-name="Trazado 144093" d="M117.151,326.461l-2.509-36.6c-.362-5.169-2.878-9.478-6.372-11.518a13.867,13.867,0,0,0-7.727-2.995,8.613,8.613,0,0,0-.893-.039,13.523,13.523,0,0,0-6.485,1.65,1.882,1.882,0,0,0-.184.094,15.37,15.37,0,0,0-5.168,4.692l-.007.007a17.549,17.549,0,0,0-3.083,10.025c0,8.133,5.352,14.9,12.384,16.225l2.715,39.6c.233,3.37,2.445,5.951,5.1,5.951h13.632Z" transform="translate(-84.721 -275.306)" fill="#7ae582"/>
          </g>
          <path id="Trazado_144094" data-name="Trazado 144094" d="M117.151,326.461l-2.509-36.6c-.362-5.169-2.878-9.478-6.372-11.518a13.867,13.867,0,0,0-7.727-2.995,8.613,8.613,0,0,0-.893-.039,13.523,13.523,0,0,0-6.485,1.65,1.882,1.882,0,0,0-.184.094,15.37,15.37,0,0,0-5.168,4.692l-.007.007a17.549,17.549,0,0,0-3.083,10.025c0,8.133,5.352,14.9,12.384,16.225l2.715,39.6c.233,3.37,2.445,5.951,5.1,5.951h13.632Z" transform="translate(-84.721 -275.306)" fill="#7ae582" opacity="0.1"/>
        </g>
      </g>
    </g>
    <g id="Table" transform="translate(706 9036.058)">
      <g id="Grupo_83548" data-name="Grupo 83548" transform="translate(0 0)">
        <g id="Grupo_83539" data-name="Grupo 83539" transform="translate(0 24.164)">
          <g id="Grupo_83535" data-name="Grupo 83535" transform="translate(63.861 62.633)">
            <path id="Trazado_144451" data-name="Trazado 144451" d="M27.259,0C42.314,0,54.518,3.121,54.518,6.972s-12.2,6.972-27.259,6.972S0,10.822,0,6.972,12.2,0,27.259,0Z" fill="#3ca8f4"/>
            <path id="Trazado_144450" data-name="Trazado 144450" d="M27.259,0C42.314,0,54.518,2.6,54.518,5.813c0,2.417-6.92,4.49-17.059,5.392-2.937.262-6.482.421-10.2.421C12.2,11.626,0,9.023,0,5.813S12.2,0,27.259,0Z" fill="#a6daff"/>
          </g>
          <g id="Grupo_83536" data-name="Grupo 83536" transform="translate(83.666 9.387)">
            <path id="Trazado_144095" data-name="Trazado 144095" d="M244.692,397.524h-4.5l-5.205-56.094H249.9Z" transform="translate(-234.989 -338.473)" fill="#266999"/>
            <path id="Trazado_144096" data-name="Trazado 144096" d="M249.9,340.749c0,1.634-3.338,2.958-7.455,2.958s-7.454-1.325-7.454-2.958,3.338-2.958,7.454-2.958S249.9,339.115,249.9,340.749Z" transform="translate(-234.989 -337.791)" fill="#263238"/>
            <path id="Trazado_144097" data-name="Trazado 144097" d="M249.9,340.749c0,1.634-3.338,2.958-7.455,2.958s-7.454-1.325-7.454-2.958,3.338-2.958,7.454-2.958S249.9,339.115,249.9,340.749Z" transform="translate(-234.989 -337.791)" fill="#fff" opacity="0.7"/>
          </g>
          <g id="Grupo_83538" data-name="Grupo 83538">
            <path id="Trazado_144098" data-name="Trazado 144098" d="M132.04,342.105a2.519,2.519,0,0,1,.87-1.755c6.3,6.339,46.258,11.223,94.614,11.223s88.315-4.884,94.622-11.223a2.519,2.519,0,0,1,.87,1.755c0,7.16-42.756,12.971-95.491,12.971S132.04,349.265,132.04,342.105Z" transform="translate(-132.04 -328.883)" fill="#fff" opacity="0.7"/>
            <g id="Grupo_83537" data-name="Grupo 83537">
              <path id="Trazado_144099" data-name="Trazado 144099" d="M133.11,341.916c6.3-6.339,46.258-11.215,94.614-11.215s88.315,4.876,94.622,11.215c-6.306,6.339-46.267,11.223-94.622,11.223S139.408,348.255,133.11,341.916Z" transform="translate(-132.24 -327.076)" fill="#fff" opacity="0.7"/>
              <path id="Trazado_144100" data-name="Trazado 144100" d="M132.04,339.211c0-7.168,42.748-12.971,95.483-12.971s95.491,5.8,95.491,12.971a2.488,2.488,0,0,1-.87,1.747c-6.306-6.339-46.267-11.215-94.622-11.215s-88.315,4.876-94.614,11.215A2.488,2.488,0,0,1,132.04,339.211Z" transform="translate(-132.04 -326.24)" fill="#fff" opacity="0.7"/>
            </g>
          </g>
        </g>
        <g id="Grupo_83547" data-name="Grupo 83547" transform="translate(89.263)">
          <g id="Grupo_83546" data-name="Grupo 83546">
            <g id="Grupo_83545" data-name="Grupo 83545">
              <g id="Grupo_83544" data-name="Grupo 83544">
                <g id="Grupo_83541" data-name="Grupo 83541" transform="translate(2.372 26.122)">
                  <path id="Trazado_144101" data-name="Trazado 144101" d="M285.473,333.841l-39.949-.753a.83.83,0,0,1-.73-.908h0a.838.838,0,0,1,.771-.879l39.949.753a.83.83,0,0,1,.73.908h0A.838.838,0,0,1,285.473,333.841Z" transform="translate(-244.795 -329.146)" fill="#263238"/>
                  <path id="Trazado_144102" data-name="Trazado 144102" d="M285.473,333.841l-39.949-.753a.83.83,0,0,1-.73-.908h0a.838.838,0,0,1,.771-.879l39.949.753a.83.83,0,0,1,.73.908h0A.838.838,0,0,1,285.473,333.841Z" transform="translate(-244.795 -329.146)" fill="#266999" opacity="0.2"/>
                  <path id="Trazado_144103" data-name="Trazado 144103" d="M314.13,330.43l-19.1,2.887a.781.781,0,0,1-.831-.775h0a.889.889,0,0,1,.66-1l19.1-2.887a.782.782,0,0,1,.831.775h0A.891.891,0,0,1,314.13,330.43Z" transform="translate(-254.047 -328.649)" fill="#263238"/>
                  <g id="Grupo_83540" data-name="Grupo 83540" transform="translate(0.772 0.007)">
                    <path id="Trazado_144104" data-name="Trazado 144104" d="M304.884,328.658H264.5l-18.761,2.147,38.86.733Z" transform="translate(-245.744 -328.658)" fill="#58a65e"/>
                    <path id="Trazado_144105" data-name="Trazado 144105" d="M304.884,328.658H264.5l-18.761,2.147,38.86.733Z" transform="translate(-245.744 -328.658)" fill="#a6daff" opacity="0.6"/>
                  </g>
                  <path id="Trazado_144106" data-name="Trazado 144106" d="M314.13,330.43l-19.1,2.887a.781.781,0,0,1-.831-.775h0a.889.889,0,0,1,.66-1l19.1-2.887a.782.782,0,0,1,.831.775h0A.891.891,0,0,1,314.13,330.43Z" transform="translate(-254.047 -328.649)" fill="#266999" opacity="0.5"/>
                </g>
                <g id="Grupo_83542" data-name="Grupo 83542" transform="translate(1.094 0.118)">
                  <path id="Trazado_144107" data-name="Trazado 144107" d="M284.132,325.544l-37.251-.7a2.89,2.89,0,0,1-2.532-2.895l-1.122-22.49a2.449,2.449,0,0,1,2.248-2.8l37.251.7a2.891,2.891,0,0,1,2.532,2.895l1.122,22.49A2.45,2.45,0,0,1,284.132,325.544Z" transform="translate(-243.222 -296.652)" fill="#407bff"/>
                  <path id="Trazado_144108" data-name="Trazado 144108" d="M284.132,325.544l-37.251-.7a2.89,2.89,0,0,1-2.532-2.895l-1.122-22.49a2.449,2.449,0,0,1,2.248-2.8l37.251.7a2.891,2.891,0,0,1,2.532,2.895l1.122,22.49A2.45,2.45,0,0,1,284.132,325.544Z" transform="translate(-243.222 -296.652)" fill="#266999" opacity="0.2"/>
                </g>
                <g id="Grupo_83543" data-name="Grupo 83543">
                  <path id="Trazado_144109" data-name="Trazado 144109" d="M282.786,325.4l-37.251-.7A2.89,2.89,0,0,1,243,321.8l-1.123-22.49a2.451,2.451,0,0,1,2.248-2.805l37.251.7a2.891,2.891,0,0,1,2.532,2.895l1.122,22.49A2.449,2.449,0,0,1,282.786,325.4Z" transform="translate(-241.876 -296.507)" fill="#407bff"/>
                  <path id="Trazado_144110" data-name="Trazado 144110" d="M282.786,325.4l-37.251-.7A2.89,2.89,0,0,1,243,321.8l-1.123-22.49a2.451,2.451,0,0,1,2.248-2.805l37.251.7a2.891,2.891,0,0,1,2.532,2.895l1.122,22.49A2.449,2.449,0,0,1,282.786,325.4Z" transform="translate(-241.876 -296.507)" fill="#3ca8f4" opacity="0.6"/>
                </g>
              </g>
            </g>
            <path id="Trazado_144111" data-name="Trazado 144111" d="M262.352,312.914a4.4,4.4,0,0,0,4.3,3.954,3.565,3.565,0,0,0,3.608-3.954,4.4,4.4,0,0,0-4.3-3.953A3.565,3.565,0,0,0,262.352,312.914Z" transform="translate(-245.708 -298.839)" fill="#ffda73"/>
          </g>
        </g>
      </g>
    </g>
  </g>
</svg>
