<svg id="lupa-3" xmlns="http://www.w3.org/2000/svg" width="109.999" height="110" viewBox="0 0 109.999 110">
  <path id="Trazado_143809" data-name="Trazado 143809" d="M65.535,76.264,95.866,106.6a4.3,4.3,0,0,0,6.077,0l4.652-4.652a4.3,4.3,0,0,0,0-6.077L76.264,65.537Zm0,0" fill="#8ad24a"/>
  <path id="Trazado_143810" data-name="Trazado 143810" d="M84,73.271,73.27,84l-7.734-7.735L76.264,65.537Zm0,0" fill="#fde947"/>
  <path id="Trazado_143811" data-name="Trazado 143811" d="M82.931,42.54A40.391,40.391,0,1,1,42.54,2.148,40.391,40.391,0,0,1,82.931,42.54Zm0,0" fill="#3ca8f4"/>
  <path id="Trazado_143812" data-name="Trazado 143812" d="M70.9,42.54A28.36,28.36,0,1,1,42.54,14.18,28.361,28.361,0,0,1,70.9,42.54Zm0,0" fill="#fff"/>
  <path id="Trazado_143813" data-name="Trazado 143813" d="M40.411,54.409,29.076,43.074,35.153,37l5.258,5.258L52.9,29.767l6.077,6.077Zm0,0" fill="#8ad24a"/>
  <path id="Trazado_143814" data-name="Trazado 143814" d="M40.411,56.558a2.142,2.142,0,0,0,1.52-.629L60.5,37.363a2.148,2.148,0,0,0,0-3.038l-6.077-6.077a2.149,2.149,0,0,0-3.038,0l-10.97,10.97-3.739-3.74a2.15,2.15,0,0,0-3.038,0l-6.078,6.077a2.151,2.151,0,0,0,0,3.039L38.892,55.928A2.141,2.141,0,0,0,40.411,56.558ZM35.153,40.036l3.739,3.74a2.15,2.15,0,0,0,3.038,0L52.9,32.806l3.038,3.038L40.411,51.371l-8.3-8.3Zm0,0"/>
  <path id="Trazado_143815" data-name="Trazado 143815" d="M23.864,60.932a2.149,2.149,0,1,0-3.057,3.02l.161.162a2.149,2.149,0,1,0,3.038-3.039Zm0,0"/>
  <path id="Trazado_143816" data-name="Trazado 143816" d="M64.112,20.967A30.513,30.513,0,0,0,15.344,56.382a2.149,2.149,0,0,0,3.829-1.95A26.211,26.211,0,1,1,31.491,66.318a2.148,2.148,0,0,0-1.81,3.9A30.512,30.512,0,0,0,64.112,20.967Zm0,0"/>
  <path id="Trazado_143817" data-name="Trazado 143817" d="M108.114,94.348,78.695,64.93A42.575,42.575,0,1,0,64.927,78.7l29.419,29.418a6.453,6.453,0,0,0,9.116,0l4.652-4.652A6.453,6.453,0,0,0,108.114,94.348ZM4.3,42.54A38.243,38.243,0,1,1,42.54,80.783,38.286,38.286,0,0,1,4.3,42.54ZM76.2,68.515l4.755,4.756-7.69,7.69L68.513,76.2A42.9,42.9,0,0,0,76.2,68.515Zm28.871,31.91-4.652,4.652a2.151,2.151,0,0,1-3.038,0L76.308,84,84,76.31l21.077,21.077A2.152,2.152,0,0,1,105.075,100.425Zm0,0"/>
</svg>
