<svg xmlns="http://www.w3.org/2000/svg" xmlns:xlink="http://www.w3.org/1999/xlink" width="509.464" height="344" viewBox="0 0 509.464 344">
  <defs>
    <linearGradient id="linear-gradient" x1="0.5" x2="0.5" y2="1" gradientUnits="objectBoundingBox">
      <stop offset="0" stop-color="#93ff33"/>
      <stop offset="1" stop-color="#8ad24a"/>
    </linearGradient>
  </defs>
  <g id="Grupo_86250" data-name="Grupo 86250" transform="translate(-545.268 -1116)">
    <g id="Grupo_84440" data-name="Grupo 84440" transform="translate(856.268 1116)">
      <rect id="Rectángulo_32952" data-name="Rectángulo 32952" width="387.822" height="344" transform="translate(-257.848 0)" fill="url(#linear-gradient)"/>
      <path id="Trazado_145415" data-name="Trazado 145415" d="M54.319,527.484a1.444,1.444,0,0,1,.414-.061h313.98c54.488-35.825,22.215-117.478,4.764-140.153-21.994-28.579-6.953-99.607-68.08-144.71s-116.682,15.064-144.257,54.6S59.292,313.774,30.576,401.631,54.318,527.484,54.318,527.484Z" transform="translate(-275.71 -187.543)" opacity="0.485" fill="url(#linear-gradient)"/>
      <g id="Grupo_84429" data-name="Grupo 84429" transform="translate(-286.465 192.284)">
        <path id="Trazado_145416" data-name="Trazado 145416" d="M416.959,1865.241l-1.942,14.554-1.445,2.6-2.6-1.88,1.06-14.8Z" transform="translate(-381.693 -1736.703)" fill="url(#linear-gradient)"/>
        <path id="Trazado_145417" data-name="Trazado 145417" d="M415.644,1969.645l-12.743.042a.141.141,0,0,1-.142-.14l0-1.028a.141.141,0,0,1,.141-.142l12.743-.042a.141.141,0,0,1,.142.141l0,1.028A.141.141,0,0,1,415.644,1969.645Z" transform="translate(-374.888 -1822.064)" fill="url(#linear-gradient)"/>
        <path id="Trazado_145418" data-name="Trazado 145418" d="M404.092,1941.937l-.419,3.646c-.052.45.2.857.531.856l11.479-.039a.836.836,0,0,0,.748-.538,1.594,1.594,0,0,0-.327-1.624c-1.033-1.449-4.41-1.792-6.066-3.026l-5.347.018C404.392,1941.231,404.139,1941.53,404.092,1941.937Z" transform="translate(-375.642 -1799.607)" fill="url(#linear-gradient)"/>
        <g id="Grupo_84421" data-name="Grupo 84421" transform="translate(33.503 141.922)">
          <path id="Trazado_145419" data-name="Trazado 145419" d="M435.606,1944.857h0a.247.247,0,0,1-.066-.3,2.217,2.217,0,0,1,2.358-1.473c.083.014.139.124.126.237v0c-.013.11-.088.182-.168.169a1.912,1.912,0,0,0-2.062,1.278C435.755,1944.863,435.675,1944.9,435.606,1944.857Z" transform="translate(-435.517 -1943.054)" fill="url(#linear-gradient)"/>
        </g>
        <g id="Grupo_84422" data-name="Grupo 84422" transform="translate(34.696 142.387)">
          <path id="Trazado_145420" data-name="Trazado 145420" d="M442.546,1947.562h0a.246.246,0,0,1-.066-.3,2.217,2.217,0,0,1,2.358-1.473c.083.014.139.124.126.238v0c-.013.11-.088.182-.168.169a1.912,1.912,0,0,0-2.062,1.278C442.7,1947.568,442.615,1947.6,442.546,1947.562Z" transform="translate(-442.457 -1945.759)" fill="url(#linear-gradient)"/>
        </g>
        <g id="Grupo_84423" data-name="Grupo 84423" transform="translate(35.806 142.821)">
          <path id="Trazado_145421" data-name="Trazado 145421" d="M449,1950.085h0a.247.247,0,0,1-.066-.3,2.217,2.217,0,0,1,2.358-1.473c.083.014.139.124.126.237v0c-.013.11-.088.182-.168.168a1.912,1.912,0,0,0-2.062,1.278C449.15,1950.092,449.07,1950.127,449,1950.085Z" transform="translate(-448.912 -1948.283)" fill="url(#linear-gradient)"/>
        </g>
        <path id="Trazado_145422" data-name="Trazado 145422" d="M407.268,1956.141c-.914-2.942-2.474-3.262-3.325-3.191l-.27,2.345c-.052.45.2.857.531.856Z" transform="translate(-375.642 -1809.319)" opacity="0.3" fill="url(#linear-gradient)" style="mix-blend-mode: multiply;isolation: isolate"/>
        <path id="Trazado_145423" data-name="Trazado 145423" d="M256.886,1875.954l-5.841,12.512-1.445,2.6-3-3.307,4.284-12.048Z" transform="translate(-245.588 -1745.375)" fill="url(#linear-gradient)"/>
        <path id="Trazado_145424" data-name="Trazado 145424" d="M253.623,1969.645l-12.743.042a.141.141,0,0,1-.142-.14l0-1.028a.141.141,0,0,1,.141-.142l12.743-.042a.141.141,0,0,1,.142.141l0,1.028A.141.141,0,0,1,253.623,1969.645Z" transform="translate(-240.735 -1822.064)" fill="url(#linear-gradient)"/>
        <path id="Trazado_145425" data-name="Trazado 145425" d="M242.071,1941.937l-.419,3.646c-.052.45.2.857.531.856l11.478-.039a.836.836,0,0,0,.748-.538,1.594,1.594,0,0,0-.327-1.624c-1.032-1.449-4.41-1.792-6.066-3.026l-5.347.018C242.371,1941.231,242.118,1941.53,242.071,1941.937Z" transform="translate(-241.488 -1799.607)" fill="url(#linear-gradient)"/>
        <g id="Grupo_84424" data-name="Grupo 84424" transform="translate(5.635 141.922)">
          <path id="Trazado_145426" data-name="Trazado 145426" d="M273.585,1944.857h0a.246.246,0,0,1-.066-.3,2.217,2.217,0,0,1,2.358-1.473c.083.014.139.124.126.237v0c-.013.11-.088.182-.168.169a1.912,1.912,0,0,0-2.062,1.278C273.734,1944.863,273.654,1944.9,273.585,1944.857Z" transform="translate(-273.496 -1943.054)" fill="url(#linear-gradient)"/>
        </g>
        <g id="Grupo_84425" data-name="Grupo 84425" transform="translate(6.829 142.387)">
          <path id="Trazado_145427" data-name="Trazado 145427" d="M280.525,1947.562h0a.246.246,0,0,1-.066-.3,2.217,2.217,0,0,1,2.358-1.473c.083.014.139.124.126.238v0c-.013.11-.088.182-.168.169a1.912,1.912,0,0,0-2.062,1.278C280.674,1947.568,280.594,1947.6,280.525,1947.562Z" transform="translate(-280.436 -1945.759)" fill="url(#linear-gradient)"/>
        </g>
        <g id="Grupo_84426" data-name="Grupo 84426" transform="translate(7.939 142.821)">
          <path id="Trazado_145428" data-name="Trazado 145428" d="M286.98,1950.085h0a.247.247,0,0,1-.066-.3,2.217,2.217,0,0,1,2.358-1.473c.083.014.139.124.126.237v0c-.013.11-.088.182-.168.168a1.912,1.912,0,0,0-2.062,1.278C287.129,1950.092,287.049,1950.127,286.98,1950.085Z" transform="translate(-286.891 -1948.283)" fill="url(#linear-gradient)"/>
        </g>
        <path id="Trazado_145429" data-name="Trazado 145429" d="M245.247,1956.141c-.914-2.942-2.474-3.262-3.325-3.191l-.27,2.345c-.052.45.2.857.531.856Z" transform="translate(-241.488 -1809.319)" opacity="0.3" fill="url(#linear-gradient)" style="mix-blend-mode: multiply;isolation: isolate"/>
        <path id="Trazado_145430" data-name="Trazado 145430" d="M281.814,1593.515s12.462,15.85,11.742,20.053-9.129,32.9-9.129,32.9-5.646.721-8.408,0c0,0,4.685-29.3,4.685-31.223s-4.685-6.6-4.685-6.6,2.282,5.644-.721,13.57-18.5,27.14-18.5,27.14-6.006-2.042-6.246-3.963c0,0,12.973-24.739,12.733-26.78s-7.447-24.5-7.447-24.5l2.523-3.963Z" transform="translate(-248.864 -1508.929)" fill="url(#linear-gradient)"/>
        <path id="Trazado_145431" data-name="Trazado 145431" d="M300.209,1122.464a.169.169,0,0,1-.258-.148c.031-1.041.108-4.317-.155-4.386-.313-.081-.453,2.845-.74,2.932s-.078-2.764-.427-2.8-.452,2.573-.6,2.61-.32-2.469-.513-2.612-.34,2.556-.511,2.654-.689-1.8-.857-1.772-.284.015-.34,4.616l.055,1.813.844,1.456,2-.291s3.621-4.687,3.543-4.919S301.973,1121.38,300.209,1122.464Z" transform="translate(-286.331 -1117.928)" fill="url(#linear-gradient)"/>
        <path id="Trazado_145432" data-name="Trazado 145432" d="M448.05,1293.929a.169.169,0,0,0,.258-.148c-.031-1.041-.108-4.317.155-4.386.313-.081.453,2.845.74,2.932s.078-2.764.427-2.8.452,2.573.6,2.61.32-2.469.513-2.611.34,2.556.511,2.653.69-1.8.857-1.772.284.015.34,4.616l-.055,1.813-.844,1.456-2-.291s-3.621-4.687-3.543-4.919S446.286,1292.845,448.05,1293.929Z" transform="translate(-410.702 -1259.901)" fill="url(#linear-gradient)"/>
        <path id="Trazado_145433" data-name="Trazado 145433" d="M384.041,1625.061q-.4.544-.789,1.1c-.26.367-.512.74-.768,1.111l-.751,1.122-.739,1.129-.051.078.032.091c.234.661.458,1.325.7,1.983l.359.989.369.985c.249.655.5,1.31.764,1.961s.528,1.3.813,1.943c-.185-.678-.389-1.35-.6-2.02s-.426-1.337-.648-2l-.336-1-.347-.993c-.228-.663-.474-1.32-.711-1.98l-.019.169.7-1.152.69-1.16c.225-.39.454-.777.674-1.17S383.829,1625.459,384.041,1625.061Z" transform="translate(-356.827 -1537.834)" fill="url(#linear-gradient)"/>
        <path id="Trazado_145434" data-name="Trazado 145434" d="M331.869,1335.042l-.6,7.126,6.29-.3-.725-6.311Z" transform="translate(-315.696 -1297.699)" fill="url(#linear-gradient)"/>
        <path id="Trazado_145435" data-name="Trazado 145435" d="M339.069,1338.558l-.345-3-4.964-.515-.208,2.468A4.994,4.994,0,0,0,339.069,1338.558Z" transform="translate(-317.587 -1297.699)" fill="url(#linear-gradient)"/>
        <path id="Trazado_145436" data-name="Trazado 145436" d="M242.122,1176.951c.24-3.6,7.848-21.776,7.848-21.776s4.244.32,6.086,3.122c0,0-4.965,14.731-5.285,17.213s1.842,15.051,3.523,15.932l3.043-.24s2.162,2.722,6.647.08c0,0,6.006.961,8.248,3.362,0,0,7.307,7.426,7.668,6.765s-1.441-16.392-1.441-16.392l5.706.54s3.205,23.222,1.2,24.2c-3.573,1.741-13.072-4.75-13.072-4.75-.007,1.417-.1,2.646-.061,3.409.9,17.753,3.363,24.739,3.363,24.739s-13.053,3.763-26.746.8c0,0-4.164-23.538-2.963-35.387C245.886,1198.568,241.882,1180.554,242.122,1176.951Z" transform="translate(-241.875 -1148.769)" fill="url(#linear-gradient)"/>
        <path id="Trazado_145437" data-name="Trazado 145437" d="M291.265,1435.73a44.883,44.883,0,0,0,1.452,6.312s-13.053,3.763-26.746.8c0,0-4.164-23.537-2.963-35.387C263.008,1407.456,268.368,1431.217,291.265,1435.73Z" transform="translate(-258.996 -1357.657)" opacity="0.3" fill="url(#linear-gradient)" style="mix-blend-mode: multiply;isolation: isolate"/>
        <g id="Grupo_84428" data-name="Grupo 84428" transform="translate(9.791 20.911)">
          <path id="Trazado_145438" data-name="Trazado 145438" d="M377.1,1265.505l.49,4.145-2.833-4.91s1.616-1.439,1.792-1.132A15.327,15.327,0,0,1,377.1,1265.505Z" transform="translate(-361.499 -1259.427)" fill="url(#linear-gradient)"/>
          <g id="Grupo_84427" data-name="Grupo 84427" transform="translate(0.743 3.732)">
            <path id="Trazado_145439" data-name="Trazado 145439" d="M384.145,1294.115a1.29,1.29,0,1,0,1.513-1.33A1.442,1.442,0,0,0,384.145,1294.115Z" transform="translate(-369.988 -1287.34)" fill="url(#linear-gradient)"/>
            <path id="Trazado_145440" data-name="Trazado 145440" d="M316.906,1272.627a6.54,6.54,0,0,0,.262-1.182,12.427,12.427,0,0,0,.006-3.164c-.024-.205-.036-.411-.044-.618a6.721,6.721,0,1,0-13.285,1.677,1.452,1.452,0,0,0-1.3.176,2.026,2.026,0,0,0,2.338,3.188,1.292,1.292,0,0,0,.254-.249,6.3,6.3,0,0,0,7.342,4.325,6.03,6.03,0,0,0,3.64-2.527,3.011,3.011,0,0,0,.177-.256A5.83,5.83,0,0,0,316.906,1272.627Z" transform="translate(-301.982 -1261.204)" fill="url(#linear-gradient)"/>
          </g>
          <path id="Trazado_145441" data-name="Trazado 145441" d="M312.324,1241.8s1.916-.476-.531-1.517-8.329-1.41-11.246,1.371c0,0-1.1-1.264-1.991-.635s1.027,1.168,1.027,1.168-1.277.317-1.488,1.047c-.156.54.625.341,1.043.2-.686.327-2.954,2.853.008,8.029.462-.248,2.118-5.114,2.118-5.114s7.432,1.75,5.994-.907c0,0,7.829,2.268,5.914-.893C313.171,1244.546,315.8,1244.006,312.324,1241.8Z" transform="translate(-297.66 -1239.506)" fill="url(#linear-gradient)"/>
          <path id="Trazado_145442" data-name="Trazado 145442" d="M306.32,1272.146a1.265,1.265,0,0,1,1.179-.046c.7.292,1.088,1.9,1.088,1.9s3.228.987.832-6.379c-2.549-7.836-2.1,1.28-2.1,1.28Z" transform="translate(-304.831 -1260.157)" fill="url(#linear-gradient)"/>
        </g>
      </g>
      <g id="Grupo_84430" data-name="Grupo 84430" transform="translate(116.544 222.056)">
        <path id="Trazado_145443" data-name="Trazado 145443" d="M1757.6,1377.8l-8.737,10.682-4.21-10.309a41.684,41.684,0,0,0-1.134-4.5c-.174-.069-.29.044-.54,1.691a.136.136,0,0,1-.225.082c-.624-.56-2.6-2.309-2.776-2.183-.212.15,1.513,1.756,1.417,1.978s-1.739-1.388-1.941-1.191,1.347,1.614,1.291,1.727-1.684-1.087-1.872-1.042,1.394,1.537,1.365,1.693-1.463-.51-1.535-.394-.139.182,2.661,2.607l1.143.908.011,0c.1,2.31.359,10.867,2.756,15.831,1.279,2.648,9.909-4.057,12.325-6Z" transform="translate(-1738.677 -1359.112)" fill="url(#linear-gradient)"/>
        <path id="Trazado_145444" data-name="Trazado 145444" d="M1851.718,1340.191a13.469,13.469,0,0,1-1.536,5.633c-1.192,1.851-2.828,5.133.24,7.173s7.49-.73,7.553-.934,1.544-2.5,1.424-4.337.7-4.033-.813-5.588S1851.718,1340.191,1851.718,1340.191Z" transform="translate(-1829.747 -1331.734)" fill="url(#linear-gradient)"/>
        <path id="Trazado_145445" data-name="Trazado 145445" d="M1882.337,1306.454a12.755,12.755,0,0,1-1.255-6.5,7.5,7.5,0,0,0-1.21-5.208c-2.248-3.1-5.051-4.133-8.16-3.57-3.6.651-5.74,5-5.524,7.676l6.595.129-1.816.362c-4.346,11.26-1.6,11.678-.868,13.126s5.263,2.935,8.815,2.312C1884.633,1313.774,1883.866,1309.662,1882.337,1306.454Z" transform="translate(-1844.243 -1291.025)" fill="url(#linear-gradient)"/>
        <path id="Trazado_145446" data-name="Trazado 145446" d="M1894.713,1372.724l.2,5.383s-2.031,1.66-5.562-.573a4.223,4.223,0,0,0,.651-2.823C1889.953,1372.625,1894.713,1372.724,1894.713,1372.724Z" transform="translate(-1863.438 -1358.671)" fill="url(#linear-gradient)"/>
        <path id="Trazado_145447" data-name="Trazado 145447" d="M1896.829,1372.724l.088,2.245c-.836,1.381-2.442,2.023-5.007,1.627a6.2,6.2,0,0,0,.211-1.885C1892.07,1372.625,1896.829,1372.724,1896.829,1372.724Z" transform="translate(-1865.554 -1358.671)" opacity="0.6" fill="url(#linear-gradient)"/>
        <path id="Trazado_145448" data-name="Trazado 145448" d="M1866.263,1334.808a1.123,1.123,0,1,1-1.268-1.212A1.255,1.255,0,0,1,1866.263,1334.808Z" transform="translate(-1842.507 -1326.267)" fill="url(#linear-gradient)"/>
        <path id="Trazado_145449" data-name="Trazado 145449" d="M1870.833,1317.292a5.692,5.692,0,0,1-.185-1.037,10.825,10.825,0,0,1,.109-2.753c.028-.178.046-.357.06-.536a5.852,5.852,0,1,1,11.5,1.938,1.264,1.264,0,0,1,1.125.2,1.764,1.764,0,0,1-2.149,2.689,1.122,1.122,0,0,1-.212-.226,5.488,5.488,0,0,1-6.544,3.5,5.252,5.252,0,0,1-3.075-2.33,2.606,2.606,0,0,1-.145-.229A5.084,5.084,0,0,1,1870.833,1317.292Z" transform="translate(-1847.913 -1304.735)" fill="url(#linear-gradient)"/>
        <path id="Trazado_145450" data-name="Trazado 145450" d="M1902.866,1309.447a1.717,1.717,0,0,1,.723.012l.31-.048-.073-.389-.119-.055.255-1.056-.148-1.1s-.962-3.151-1.005-3.235-1.147-1.36-1.218-1.431-2.1-.385-2.1-.385-3.147-1.84-3.2.24a5.1,5.1,0,0,0,2.256,3.833,3.492,3.492,0,0,1,.091-1.774A17.469,17.469,0,0,0,1902.866,1309.447Z" transform="translate(-1869.185 -1299.29)" fill="url(#linear-gradient)"/>
        <path id="Trazado_145451" data-name="Trazado 145451" d="M1974.443,1417.458c-.087-.089-1.221.79-1.278.658s1.041-1.771.866-1.773-1.373,1.388-1.445,1.3,1.011-1.654.793-1.788-1.346,1.622-1.476,1.445,1.072-1.946.854-2.035a13.929,13.929,0,0,0-2.014,2.491.123.123,0,0,1-.215-.027c-.554-1.406-.679-1.483-.82-1.387s-.633,4.167-.633,4.167l-9.094,7.431s-5.871-12.986-7.383-13.856c-.38-.218-1.009.382-1.883.285l-.24,10.057c2.43,4.1,6.673,10.481,9.476,10.388,3.321-.111,8.453-8.477,10.327-11.733h0l2.34-2.779C1974.6,1417.591,1974.53,1417.547,1974.443,1417.458Z" transform="translate(-1914.045 -1392.878)" fill="url(#linear-gradient)"/>
        <path id="Trazado_145452" data-name="Trazado 145452" d="M1875.587,1650.548s5.855,21.579,8.2,23.584c1.5,1.283,26.573,20.559,26.686,20.421s3.039-3.5,3.039-3.5-22.379-20.192-23.057-21.969-3.172-20.593-3.172-20.593Z" transform="translate(-1852.039 -1587.007)" fill="url(#linear-gradient)"/>
        <path id="Trazado_145453" data-name="Trazado 145453" d="M1859.958,1395.739s12.841.856,15.523,1.655c0,0,.057,2.542-.542,3.054a35.308,35.308,0,0,1-8.5,2.9c-1.884.149-3.254,1.518-4.681-.564s-1.8-2.6-1.8-3.138Z" transform="translate(-1839.098 -1377.728)" fill="url(#linear-gradient)"/>
        <path id="Trazado_145454" data-name="Trazado 145454" d="M2063.858,1896.93l-.254-5.884,4.4-2.5.2,1.845-1.915,4.943s-1.229,1.661-1.326,1.71A6.972,6.972,0,0,1,2063.858,1896.93Z" transform="translate(-2007.717 -1785.77)" fill="url(#linear-gradient)"/>
        <path id="Trazado_145455" data-name="Trazado 145455" d="M1840.06,1699.153l7.093,42.951s4.055,4.864,4.241,2.443c.043-.563-.008-4.623.052-5.362.505-6.207,1.113-18.446.7-22.748-.453-4.654-2.046-12.526-2.046-12.526Z" transform="translate(-1822.622 -1628.955)" fill="url(#linear-gradient)"/>
        <path id="Trazado_145456" data-name="Trazado 145456" d="M2065.082,1896.93l.094,1.507a.7.7,0,0,0,1.3.306l4.731-8.373a.614.614,0,0,0-.232-.837l-1.753-.99C2067.848,1895.122,2066.219,1896.743,2065.082,1896.93Z" transform="translate(-2008.94 -1785.77)" fill="url(#linear-gradient)"/>
        <path id="Trazado_145457" data-name="Trazado 145457" d="M1830.1,1397.092c-.627,3.2-2.24,13.2.218,21.261a22.385,22.385,0,0,0-3.539,11.221c0,6.048,3.539,29.441,3.539,29.441s10.158-.57,15.409-2.51v-14.949l2.4,13.579,2.4-1.027s3.31-22.213-5.25-34.443c0,0,3.25-8.442,3.478-9.241,0,0-.625-7.154,1.43-11.49a23.762,23.762,0,0,1-2.169-1.541c.171,0-2.054,3.537-7.248,3.366s-8.275-5.021-8.275-5.021l-1.143.168A1.486,1.486,0,0,0,1830.1,1397.092Z" transform="translate(-1811.624 -1377.728)" fill="url(#linear-gradient)"/>
        <path id="Trazado_145458" data-name="Trazado 145458" d="M1853.739,1949.543l4.882-2.866,4.105,2.6-1.476,1-5.061.6s-1.964-.3-2.049-.355A6.7,6.7,0,0,1,1853.739,1949.543Z" transform="translate(-1833.948 -1833.905)" fill="url(#linear-gradient)"/>
        <path id="Trazado_145459" data-name="Trazado 145459" d="M1846.213,1962.077l-1.238.758a.669.669,0,0,0,.326,1.242l9.241.245a.59.59,0,0,0,.606-.574l.052-1.933C1848.994,1963.61,1846.884,1962.958,1846.213,1962.077Z" transform="translate(-1826.423 -1846.439)" fill="url(#linear-gradient)"/>
        <path id="Trazado_145460" data-name="Trazado 145460" d="M1838.42,1417.82c-9.588-3.309-5.935-22.081-5.935-22.081l-1.13.166a1.5,1.5,0,0,0-1.258,1.2c-.629,3.211-2.235,13.195.22,21.249a22.385,22.385,0,0,0-3.539,11.221c0,6.048,3.539,29.441,3.539,29.441s10.158-.57,15.409-2.51C1832.142,1457.075,1838.42,1417.82,1838.42,1417.82Z" transform="translate(-1811.624 -1377.728)" opacity="0.3" fill="url(#linear-gradient)" style="mix-blend-mode: multiply;isolation: isolate"/>
        <path id="Trazado_145461" data-name="Trazado 145461" d="M1962.06,1768.215a193.063,193.063,0,0,1,18.768,18.074l-15.5-9.858Z" transform="translate(-1923.638 -1686.138)" fill="url(#linear-gradient)"/>
      </g>
      <path id="Trazado_145462" data-name="Trazado 145462" d="M643.455,1053.656s-26.754,18.329-5.632,39.274c0,0-10.913,31.506,24.289,29.746,0,0,5.808,10.737,18.129,5.28,0,0,13.729,5.456,16.545-6.161,0,0,17.249.783,14.961-17.737,0,0,16.545-6.728,6.688-22.041s-38.195-20.065-38.195-20.065l-32.034-5.018Z" transform="translate(-778.901 -872.427)" fill="url(#linear-gradient)"/>
      <path id="Trazado_145463" data-name="Trazado 145463" d="M1184.508,1009.568s-10.737,9.681,1.936,17.425c0,0-7.217,9.681,2.464,17.777,0,0,19.89,23.233,34.85-5.28,0,0,33.618,8.8,27.282-24.993,0,0,18.657-7.393,3.168-27.81,0,0,10.848-18.657-9.889-23.938s-55.763,24.29-55.763,24.29Z" transform="translate(-1234.765 -796.633)" fill="url(#linear-gradient)"/>
      <path id="Trazado_145464" data-name="Trazado 145464" d="M365.563,987.059a5.04,5.04,0,0,0-6.178-3.743,7.419,7.419,0,0,0-8.92-3.94,9.138,9.138,0,0,0-16.414,1.6,6.268,6.268,0,0,0-9.316,5.478c0,.205.01.408.03.608Z" transform="translate(-526.389 -807.264)" opacity="0.5" fill="url(#linear-gradient)"/>
      <path id="Trazado_145465" data-name="Trazado 145465" d="M1755.058,1144.723a5.45,5.45,0,0,0-6.681-4.047,8.021,8.021,0,0,0-9.645-4.261,9.881,9.881,0,0,0-17.749,1.726,6.778,6.778,0,0,0-10.074,5.923c0,.222.012.441.032.658Z" transform="translate(-1674.141 -936.995)" opacity="0.5" fill="url(#linear-gradient)"/>
      <path id="Trazado_145466" data-name="Trazado 145466" d="M814.609,1312.763l-.467.937-1.528,1.572s-2.42,1.613-2.537,1.7-2.845,1.174-2.845,1.174l-2.919-.029-3.636-.577-.192-.01-.953,1.628-1.54,1.8-2.684,1.745-2.816,1.012-3.329.5h-.645s-.631.822-.69.91-2.042,1.158-2.042,1.158c-4.067,2.786-10.19-.85-10.19-.85a8.974,8.974,0,0,1-1.822,6.735,47.214,47.214,0,0,0,7.63.188s5.808,10.737,18.129,5.28c0,0,13.729,5.456,16.545-6.161,0,0,17.249.783,14.961-17.738a20.148,20.148,0,0,0,5.089-3.257c.159-2.186.25-3.588.25-3.588l-15.137,4.459C819.425,1315.956,814.609,1312.763,814.609,1312.763Z" transform="translate(-898.19 -1082.11)" fill="url(#linear-gradient)"/>
      <path id="Trazado_145467" data-name="Trazado 145467" d="M556.161,110.945s-37.138-8.8-35.906,29.394c0,0-6.513.7-4.928,9.681,0,0-27.458,10.385-10.737,40.307,0,0-6.16,4.224,0,13.025,0,0-11.441,37.842,22.353,46.115,0,0-1.936,10.033,8.448,8.272,0,0,3.872,29.394,35.73,19.361,0,0,7.04,10.335,19.713,2.087,0,0,22,25.723,47.875-3.319,0,0,17.777,6.688,20.593-11.265,0,0,14.257,3.872,13.9-10.209,0,0,19.889,4.928,18.833-16.721,0,0,10.385-3.52,5.808-13.9,0,0,14.081-5.28,6.512-22.177,0,0,27.106-23.41-4.224-43.123,0,0,2.464-9.329-5.456-10.033,0,0,4.4-10.913-7.921-14.609,0,0-1.056-41.363-40.835-27.986,0,0-2.992-6.688-11.265-3.52,0,0-3.7-11.265-14.257-3.872,0,0-21.649-25.17-44.531,2.288C575.875,100.737,559.33,94.225,556.161,110.945Z" transform="translate(-670.838 -72.79)" fill="url(#linear-gradient)"/>
      <path id="Trazado_145468" data-name="Trazado 145468" d="M1223.763,1275.678s11.346,2.969,19.613-1.167c-9.163,1.12-9.653-4.406-9.653-4.406s-3.96-1-4.048-1.012-2.743-1.76-2.743-1.76l-2.9-2.567-2.64-4.136-.6-1.512-2.535.075-4.107-.364-3.579-1.426-3.667-2.787-2.283-2.478-.328-.661s-2.259.117-2.347.117-2.875-1.158-2.875-1.158l-3.007-3.067c-1.042,7.509-5.383,4.6-5.383,4.6a7.684,7.684,0,0,1-9.88-.6c-1.18,3.414-.8,7.861,5.656,11.806,0,0-7.216,9.681,2.464,17.777C1188.913,1280.958,1208.8,1304.192,1223.763,1275.678Z" transform="translate(-1234.769 -1032.822)" fill="url(#linear-gradient)"/>
      <path id="Trazado_145469" data-name="Trazado 145469" d="M685.055,995.035l-4.62,1.115s-5.94-.616-6.072-.748-4.532-2.684-4.532-2.684l-3.45-5.279-.884-.749s-6.578.748-6.755.7-4.62-2.015-4.62-2.015-3.142-2.6-3.363-2.987-.245-.191-.245-.191-9.241,5.016-9.593,5.236-6.556,1.012-6.556,1.012l-6.952-.924-5.94-2.816-5.6-3.788-4.429.84-2.948.22-6.072-.748-5.236-3.432-2.127-3.887c-7.627,3.755-9.387-5.632-9.387-5.632-11,5.619-21.385,1.583-27.1-1.75,3.683,4.594,9.249,8.4,17.54,10.433,0,0-1.936,10.033,8.448,8.272,0,0,3.872,29.394,35.73,19.361,0,0,7.04,10.335,19.713,2.087,0,0,22,25.723,47.875-3.319,0,0,17.777,6.688,20.593-11.265C696.144,1004.07,685.055,995.035,685.055,995.035Z" transform="translate(-719.999 -800.288)" fill="url(#linear-gradient)"/>
      <path id="Trazado_145470" data-name="Trazado 145470" d="M848.833,1041.908c0,.617,20.525,19.385,37.72,58.635v32.386s-9.329-1.76-18.86-22l3.845-16.954s-.117-4.636-.117-4.109-3.109,13.495-5.574,16.369l-4.752-8.742-2.816,1.467s15.372,31.917,17.953,34.5,10.561,9.153,11.265,14.316-1.291,24.759,0,24.524,15.185-1.526,15.513-2.7-1.08-42.947-1.08-42.947,15.841-19.479,23.468-23.116,27.105-13.729,27.105-13.729l-3.051-1.643s-25.228,14.55-27.341,13.025,7.51-24.759,7.51-24.759l-3.051,1.155s-7.979,24.425-9.27,25.246-15.9,14.668-15.81,13.025-.619-43.906-.619-43.906l22.061-18.637h-1.878l-20.388,14.668,4.312-24.876-1.971.352s-6.6,26.636-8.238,27.81-9.5-30.039-9.5-30.039l-3.4,1.3s5.974,42.583,4.689,43.756-16.54-23.468-16.54-23.468-.352-7.392,4.224-18.54c0,0-3.872,1.173-5.75,15.489l-19.654-20.3Z" transform="translate(-960.342 -860.68)" fill="url(#linear-gradient)"/>
      <path id="Trazado_145471" data-name="Trazado 145471" d="M830.71,830.459l-3.765,24.618,5.437.464,6.2-1.276,5.808,4.312,7.348,3.036s6.161.4,6.424.4,9.549-3.388,9.549-3.388l5.337-2.729,2.5,2.553,5.28,2.816,8.008-.924-.045.6s2.246,4.249,2.51,4.487,5.9,3.671,5.9,3.671l5.764.44,5.589-4.111-47.494-44.3-7.817-7.292Z" transform="translate(-942.219 -673.848)" fill="url(#linear-gradient)"/>
      <path id="Trazado_145472" data-name="Trazado 145472" d="M874.421,1328.345l2.758-2.034,1.525-1.9.572-1.071,3.124.572,4.694-.469,1.5-.411a36.34,36.34,0,0,0,1.7-4.87c0-.734.235-2.816-1.907-3.08s-4.87-2.259-8.507-.352-8.889,2.288-9.27,5.1-3.022,3.843-.792,5.4S874.421,1328.345,874.421,1328.345Z" transform="translate(-976.982 -1087.923)" fill="url(#linear-gradient)"/>
      <path id="Trazado_145473" data-name="Trazado 145473" d="M857.875,1031a16.2,16.2,0,0,1-9.337-1.6,12.045,12.045,0,0,1-2.8-2.07,22.041,22.041,0,0,1-3.5-4.411,16.377,16.377,0,0,0,5.106-2.549c-3.8,1.194-7.98,2.216-11.993,1.741a14.183,14.183,0,0,1-5.086-1.491,19.274,19.274,0,0,1-3.766-2.745,40.746,40.746,0,0,0,3.127-2.786c-4.726,3.378-9.932,6.445-15.7,7.581a22.773,22.773,0,0,1-9.145-.011,24.967,24.967,0,0,1-8.036-3.34,35.642,35.642,0,0,1-9.715-9.122,26.9,26.9,0,0,0,4.389,6.143,33.6,33.6,0,0,1-10.6.314,14.274,14.274,0,0,1-10.1-7.2,10.705,10.705,0,0,0,4.778,6.822,13.619,13.619,0,0,0,6.786,2.115,17.9,17.9,0,0,0,4.033-.27,20.759,20.759,0,0,0,4.247-1.235q.489-.2.968-.425.351.375.712.739.8.806,1.665,1.545a23.474,23.474,0,0,0,16.295,5.93c5.869-.282,11.381-2.952,15.947-6.529l.271-.214a11.145,11.145,0,0,0,5.72,4.995,15.307,15.307,0,0,0,9.9.052,12.65,12.65,0,0,0,7.089,8.467,13.075,13.075,0,0,0,11.585-.87,25.736,25.736,0,0,1-2.845.425C856.932,1031.082,858.819,1030.909,857.875,1031Z" transform="translate(-895.664 -835.825)" fill="url(#linear-gradient)"/>
      <path id="Trazado_145474" data-name="Trazado 145474" d="M1284.427,1223.77l.88,6.616s4.224,1.158,4.342,1.158,4.664-.206,4.664-.206l11.235,3.96,1.625,4.057,1.631,3.453,1.467,1.907s10.091.792,10.091.645-19.449-18.833-19.449-18.833l-7.04-3.374Z" transform="translate(-1321.014 -1012.772)" fill="url(#linear-gradient)"/>
      <path id="Trazado_145475" data-name="Trazado 145475" d="M852.295,1343.9a11.123,11.123,0,0,1-3.491,1.758,13.186,13.186,0,0,1-3.894.52,22.589,22.589,0,0,1-3.83-.392c.015-.034.032-.067.047-.1a9.047,9.047,0,0,0,.627-2.034,12.719,12.719,0,0,1-.887,1.906,13.7,13.7,0,0,1-1.15,1.735,13.051,13.051,0,0,1-1.393,1.527,11.142,11.142,0,0,1-1.619,1.271,11.373,11.373,0,0,1-1.807.989l-.234.109-.24.095-.483.187-.493.16c-.163.06-.329.106-.5.151a20.513,20.513,0,0,1-3.839.65c.07-.142.136-.287.193-.434a6.488,6.488,0,0,0,.421-2.656,11.018,11.018,0,0,1-.844,2.466,6.291,6.291,0,0,1-1.554,1.968,7.218,7.218,0,0,1-2.209,1.225,11.174,11.174,0,0,1-2.551.56,6.568,6.568,0,0,0,2.682-.118,6.5,6.5,0,0,0,1.291-.464,6.3,6.3,0,0,0,1.166-.747,5.5,5.5,0,0,0,1.381-1.754,13.61,13.61,0,0,0,3.974-.247,11.5,11.5,0,0,0,3.97-1.644,11.053,11.053,0,0,0,3.058-3.022,11.183,11.183,0,0,0,.979-1.753,13.87,13.87,0,0,0,3.823.831c.171.011.341.027.512.033h.514c.172,0,.343-.006.514-.017s.344-.017.515-.034a12.231,12.231,0,0,0,2.028-.4,10.651,10.651,0,0,0,1.91-.8,9.757,9.757,0,0,0,1.7-1.171,8.808,8.808,0,0,0,2.428-3.251A11.459,11.459,0,0,1,852.295,1343.9Z" transform="translate(-938.594 -1110.353)" fill="url(#linear-gradient)"/>
      <path id="Trazado_145476" data-name="Trazado 145476" d="M1307.539,1269.392a14.543,14.543,0,0,1-4.574-2.281,17.238,17.238,0,0,1-3.592-3.674,29.55,29.55,0,0,1-2.586-4.319c.047-.011.1-.019.142-.03a11.831,11.831,0,0,0,2.622-.935,16.609,16.609,0,0,1-2.691.562,17.972,17.972,0,0,1-2.718.153,17.085,17.085,0,0,1-2.69-.265,14.619,14.619,0,0,1-2.6-.7,14.864,14.864,0,0,1-2.45-1.119l-.3-.161-.287-.178-.574-.359-.554-.391c-.19-.124-.369-.262-.547-.4a26.8,26.8,0,0,1-3.685-3.514c.2-.038.406-.082.605-.137a8.488,8.488,0,0,0,3.112-1.637,14.41,14.41,0,0,1-3.245,1.046,8.223,8.223,0,0,1-3.278-.088,9.435,9.435,0,0,1-3.012-1.356,14.608,14.608,0,0,1-2.583-2.234,8.59,8.59,0,0,0,2.222,2.719,8.479,8.479,0,0,0,1.5.989,8.233,8.233,0,0,0,1.7.637,7.2,7.2,0,0,0,2.919.074,17.79,17.79,0,0,0,3.369,3.97,15.043,15.043,0,0,0,4.83,2.872,14.45,14.45,0,0,0,5.56.839,14.678,14.678,0,0,0,2.6-.347,18.136,18.136,0,0,0,2.121,4.656c.122.187.239.378.366.563l.4.539c.13.182.274.355.421.525s.286.346.438.513a15.973,15.973,0,0,0,2,1.815,13.9,13.9,0,0,0,2.329,1.378,12.738,12.738,0,0,0,2.557.864,11.521,11.521,0,0,0,5.307,0A14.971,14.971,0,0,1,1307.539,1269.392Z" transform="translate(-1310.773 -1032.823)" fill="url(#linear-gradient)"/>
      <path id="Trazado_145477" data-name="Trazado 145477" d="M973.3,1684.8h-28.65a3.038,3.038,0,0,0-2.951,3.742l10.444,44.041a3.035,3.035,0,0,0,2.951,2.337h34.416a3.034,3.034,0,0,0,2.951-2.337l10.444-44.041a3.038,3.038,0,0,0-2.951-3.742Z" transform="translate(-1037.168 -1395.017)" fill="url(#linear-gradient)"/>
      <path id="Trazado_145478" data-name="Trazado 145478" d="M951.47,1684.8h-6.817a3.038,3.038,0,0,0-2.951,3.742l10.444,44.041a3.035,3.035,0,0,0,2.951,2.337h34.416a3.034,3.034,0,0,0,2.951-2.337l.594-2.5C966.609,1722.738,955.61,1698.273,951.47,1684.8Z" transform="translate(-1037.168 -1395.017)" opacity="0.3" fill="url(#linear-gradient)" style="mix-blend-mode: multiply;isolation: isolate"/>
      <g id="Grupo_84431" data-name="Grupo 84431" transform="translate(-113.822 47.328)">
        <path id="Trazado_145479" data-name="Trazado 145479" d="M838.578,297.167l1.027-3.461s1.789-3.814,1.936-3.9,2.992-2.435,3.4-2.758a31.318,31.318,0,0,1,2.9-1.261c.205-.117,1.039-.708,1.039-.708L850.048,283s2.963-2.758,3.051-2.934,3.374-1.555,3.374-1.555,2.963-.733,3.08-.733,3.931.147,4.048.147a27.839,27.839,0,0,1,3.08.645c.381.176,3.374,1.584,3.374,1.584l-4.987,18.8s-5.75,5.28-15.724,4.107-14.785-1.173-13.846-1.643S838.578,297.167,838.578,297.167Z" transform="translate(-835.383 -277.326)" fill="url(#linear-gradient)"/>
        <path id="Trazado_145480" data-name="Trazado 145480" d="M857.2,329.506a11.57,11.57,0,0,1,5.99-9.14,14.667,14.667,0,0,1,9.675-1.245c-3.487,0-7,.479-10.007,2.351a13.611,13.611,0,0,0-5.658,8.033C857.254,328.631,857.426,328.662,857.2,329.506Z" transform="translate(-853.449 -311.308)" fill="url(#linear-gradient)"/>
        <path id="Trazado_145481" data-name="Trazado 145481" d="M933.494,277.783c-3.759-1.552-8.1-2.422-12.128-1.519-3.93.882-6.826,3.646-8.906,6.975a12.837,12.837,0,0,1,6.975-7.2,16.379,16.379,0,0,1,14.058,1.743C932.549,277.393,932.627,277.236,933.494,277.783Z" transform="translate(-899.204 -275.163)" fill="url(#linear-gradient)"/>
      </g>
      <g id="Grupo_84432" data-name="Grupo 84432" transform="translate(-161.659 140.261)">
        <path id="Trazado_145482" data-name="Trazado 145482" d="M562.432,822.788l2.88-2.178s3.7-2.01,3.873-1.994,3.853-.186,4.375-.2a31.27,31.27,0,0,1,3.087.706c.235.027,1.256.046,1.256.046l2.168-.985s4.021-.463,4.2-.553,3.638.749,3.638.749,2.821,1.167,2.915,1.236,3.078,2.449,3.173,2.519a27.843,27.843,0,0,1,2.1,2.346c.2.368,1.777,3.276,1.777,3.276L582.7,839.937s-7.761.842-15.1-6.017-11.209-9.712-10.175-9.534S562.432,822.788,562.432,822.788Z" transform="translate(-557.265 -817.251)" fill="url(#linear-gradient)"/>
        <path id="Trazado_145483" data-name="Trazado 145483" d="M595.582,823.1a11.6,11.6,0,0,1,10.3-3.8,14.634,14.634,0,0,1,8.467,4.727c-2.688-1.976-5.725-3.708-9.111-4.012a13.692,13.692,0,0,0-9.661,3.084C596.143,822.424,596.263,822.551,595.582,823.1Z" transform="translate(-588.991 -818.553)" fill="url(#linear-gradient)"/>
        <path id="Trazado_145484" data-name="Trazado 145484" d="M695.142,825.579a20.984,20.984,0,0,0-8.249-8.129,12.846,12.846,0,0,0-5.871-1.324,17.312,17.312,0,0,0-6.052,1.374,12.839,12.839,0,0,1,10.189-1.572,16.388,16.388,0,0,1,9.983,9.651C694.612,824.7,694.767,824.625,695.142,825.579Z" transform="translate(-654.725 -815.469)" fill="url(#linear-gradient)"/>
      </g>
      <g id="Grupo_84433" data-name="Grupo 84433" transform="translate(-45.741 140.877)">
        <path id="Trazado_145485" data-name="Trazado 145485" d="M1234.916,838.184l1.45-3.307s2.251-3.561,2.407-3.63,3.272-2.043,3.72-2.312a31.21,31.21,0,0,1,3.039-.89c.218-.091,1.119-.573,1.119-.573l1.411-1.918s3.283-2.367,3.393-2.531S1255,821.9,1255,821.9s3.031-.359,3.148-.344,3.882.635,4,.65a27.853,27.853,0,0,1,2.976,1.024c.356.222,3.15,1.992,3.15,1.992l-7.291,18.036s-6.363,4.523-16.113,2.116-14.524-3.007-13.534-3.355S1234.916,838.184,1234.916,838.184Z" transform="translate(-1231.202 -821.127)" fill="url(#linear-gradient)"/>
        <path id="Trazado_145486" data-name="Trazado 145486" d="M1257.2,865a11.623,11.623,0,0,1,7.059-8.313,14.683,14.683,0,0,1,9.778-.039c-3.46-.432-7-.4-10.222,1.086A13.61,13.61,0,0,0,1257.2,865C1257.362,864.14,1257.528,864.192,1257.2,865Z" transform="translate(-1252.729 -849.504)" fill="url(#linear-gradient)"/>
        <path id="Trazado_145487" data-name="Trazado 145487" d="M1340.911,822.9c-3.536-2.009-7.738-3.413-11.844-3.018-4.009.385-7.227,2.767-9.705,5.811a12.838,12.838,0,0,1,7.818-6.275,16.379,16.379,0,0,1,13.731,3.481C1340.022,822.393,1340.119,822.248,1340.911,822.9Z" transform="translate(-1304.198 -819.052)" fill="url(#linear-gradient)"/>
      </g>
      <g id="Grupo_84434" data-name="Grupo 84434" transform="translate(-13.769 110.482)">
        <path id="Trazado_145488" data-name="Trazado 145488" d="M1420.732,661.473l1.45-3.307s2.251-3.561,2.407-3.63,3.272-2.043,3.72-2.312a31.235,31.235,0,0,1,3.039-.89c.218-.091,1.119-.573,1.119-.573l1.411-1.918s3.283-2.367,3.393-2.53,3.541-1.122,3.541-1.122,3.031-.358,3.147-.344,3.882.635,4,.65a27.858,27.858,0,0,1,2.976,1.024c.356.222,3.15,1.992,3.15,1.992l7.851,15.626s-15.009,13.32-24.759,10.913-21.019-9.394-20.029-9.742S1420.732,661.473,1420.732,661.473Z" transform="translate(-1417.085 -644.415)" fill="url(#linear-gradient)"/>
        <path id="Trazado_145489" data-name="Trazado 145489" d="M1442.694,688.29a11.623,11.623,0,0,1,7.059-8.313,14.683,14.683,0,0,1,9.778-.039c-3.46-.432-7-.4-10.222,1.086a13.609,13.609,0,0,0-6.615,7.266C1442.854,687.428,1443.021,687.48,1442.694,688.29Z" transform="translate(-1438.289 -672.793)" fill="url(#linear-gradient)"/>
        <path id="Trazado_145490" data-name="Trazado 145490" d="M1526.4,646.187c-3.536-2.009-7.738-3.413-11.844-3.018-4.009.385-7.227,2.767-9.705,5.811a12.84,12.84,0,0,1,7.818-6.275,16.38,16.38,0,0,1,13.731,3.482C1525.514,645.681,1525.611,645.536,1526.4,646.187Z" transform="translate(-1489.758 -642.34)" fill="url(#linear-gradient)"/>
      </g>
      <g id="Grupo_84435" data-name="Grupo 84435" transform="translate(-67.629 64.28)">
        <path id="Trazado_145491" data-name="Trazado 145491" d="M1107.6,392.851l1.45-3.307s2.251-3.561,2.407-3.63,3.272-2.043,3.72-2.312a31.307,31.307,0,0,1,3.039-.89c.218-.091,1.119-.573,1.119-.573l1.411-1.918s3.283-2.367,3.393-2.53,3.541-1.122,3.541-1.122,3.031-.359,3.147-.344,3.882.635,4,.65a27.857,27.857,0,0,1,2.976,1.024c.356.222,3.15,1.992,3.15,1.992l7.851,15.626s-15.009,13.32-24.759,10.913-21.019-9.394-20.029-9.742S1107.6,392.851,1107.6,392.851Z" transform="translate(-1103.949 -375.794)" fill="url(#linear-gradient)"/>
        <path id="Trazado_145492" data-name="Trazado 145492" d="M1129.559,419.668a11.623,11.623,0,0,1,7.059-8.313,14.682,14.682,0,0,1,9.778-.039c-3.46-.432-7-.4-10.222,1.086a13.608,13.608,0,0,0-6.615,7.266C1129.719,418.807,1129.886,418.859,1129.559,419.668Z" transform="translate(-1125.154 -404.171)" fill="url(#linear-gradient)"/>
        <path id="Trazado_145493" data-name="Trazado 145493" d="M1213.268,377.566c-3.537-2.009-7.738-3.413-11.844-3.018-4.009.385-7.227,2.767-9.705,5.811a12.838,12.838,0,0,1,7.818-6.275,16.381,16.381,0,0,1,13.731,3.482C1212.379,377.061,1212.476,376.915,1213.268,377.566Z" transform="translate(-1176.623 -373.72)" fill="url(#linear-gradient)"/>
      </g>
      <g id="Grupo_84436" data-name="Grupo 84436" transform="translate(-161.563 64.247)">
        <path id="Trazado_145494" data-name="Trazado 145494" d="M559.979,399.217l.279-3.6s.952-4.1,1.077-4.22,2.416-3.007,2.75-3.409a31.261,31.261,0,0,1,2.576-1.841c.176-.158.868-.91.868-.91l.7-2.276s2.32-3.316,2.369-3.507,2.974-2.226,2.974-2.226,2.744-1.337,2.858-1.362,3.875-.679,3.989-.7a27.8,27.8,0,0,1,3.147-.014c.41.092,3.63.843,3.63.843l12.561,12.167s-9.782,17.521-19.781,18.461-22.94-1.944-22.121-2.6S559.979,399.217,559.979,399.217Z" transform="translate(-557.82 -374.835)" fill="url(#linear-gradient)"/>
        <path id="Trazado_145495" data-name="Trazado 145495" d="M571,440.6a11.569,11.569,0,0,1,3.944-10.191,14.667,14.667,0,0,1,9.2-3.242c-3.265.7-6.58,1.828-9.054,4.165A13.693,13.693,0,0,0,571,440.6C570.871,439.736,571.046,439.73,571,440.6Z" transform="translate(-568.643 -417.943)" fill="url(#linear-gradient)"/>
        <path id="Trazado_145496" data-name="Trazado 145496" d="M632.69,374.567c-4-.731-8.43-.673-12.177,1.053-3.658,1.685-5.911,4.993-7.249,8.685a12.824,12.824,0,0,1,5.447-8.585,16.4,16.4,0,0,1,13.978-1.153C631.684,374.383,631.727,374.214,632.69,374.567Z" transform="translate(-603.728 -373.531)" fill="url(#linear-gradient)"/>
      </g>
      <g id="Grupo_84437" data-name="Grupo 84437" transform="translate(-109.871 146.741)">
        <path id="Trazado_145497" data-name="Trazado 145497" d="M862,872.277l1.45-3.306s2.251-3.561,2.407-3.63,3.272-2.043,3.72-2.312a31.237,31.237,0,0,1,3.039-.89c.218-.091,1.119-.573,1.119-.573l1.411-1.918s3.283-2.367,3.393-2.531,3.541-1.122,3.541-1.122,3.031-.358,3.148-.344,3.882.635,4,.65a27.827,27.827,0,0,1,2.976,1.024c.356.222,3.15,1.992,3.15,1.992l7.851,15.626s-15.009,13.32-24.759,10.913-21.019-9.394-20.029-9.742S862,872.277,862,872.277Z" transform="translate(-858.352 -855.22)" fill="url(#linear-gradient)"/>
        <path id="Trazado_145498" data-name="Trazado 145498" d="M883.961,899.094a11.624,11.624,0,0,1,7.059-8.313,14.681,14.681,0,0,1,9.778-.039c-3.46-.432-7-.4-10.222,1.086a13.61,13.61,0,0,0-6.615,7.266C884.122,898.232,884.288,898.284,883.961,899.094Z" transform="translate(-879.556 -883.597)" fill="url(#linear-gradient)"/>
        <path id="Trazado_145499" data-name="Trazado 145499" d="M967.67,856.992c-3.536-2.009-7.738-3.413-11.844-3.018-4.009.385-7.227,2.767-9.705,5.811a12.839,12.839,0,0,1,7.818-6.274,16.38,16.38,0,0,1,13.731,3.481C966.781,856.486,966.878,856.341,967.67,856.992Z" transform="translate(-931.025 -853.145)" fill="url(#linear-gradient)"/>
      </g>
      <g id="Grupo_84438" data-name="Grupo 84438" transform="translate(-27.475 65.9)">
        <path id="Trazado_145500" data-name="Trazado 145500" d="M1342.832,386.347l3.4-1.218s4.134-.81,4.291-.744,3.733.975,4.236,1.115a31.252,31.252,0,0,1,2.734,1.6c.216.1,1.185.419,1.185.419l2.363-.292s3.976.76,4.17.727,3.248,1.8,3.248,1.8,2.343,1.957,2.412,2.051,2.2,3.257,2.274,3.352a27.8,27.8,0,0,1,1.3,2.866c.083.412.716,3.658.716,3.658l-18.116,7.091s-7.658-1.517-12.606-10.256-7.792-12.62-6.858-12.14S1342.832,386.347,1342.832,386.347Z" transform="translate(-1337.404 -384.168)" fill="url(#linear-gradient)"/>
        <path id="Trazado_145501" data-name="Trazado 145501" d="M1378.581,384.8a11.625,11.625,0,0,1,11.042-.509,14.59,14.59,0,0,1,6.593,7.008c-1.945-2.65-4.281-5.173-7.354-6.494a13.662,13.662,0,0,0-10.281,0C1379.318,384.322,1379.394,384.479,1378.581,384.8Z" transform="translate(-1371.499 -383.139)" fill="url(#linear-gradient)"/>
        <path id="Trazado_145502" data-name="Trazado 145502" d="M1475.538,414.331c-.924-3.765-2.671-7.668-5.561-10.337a12.8,12.8,0,0,0-4.928-2.858,17.22,17.22,0,0,0-6.344-.546,12.887,12.887,0,0,1,10.323,1.635c3.854,2.6,6.189,7.545,6.509,12.107C1475.294,413.337,1475.466,413.308,1475.538,414.331Z" transform="translate(-1437.841 -397.246)" fill="url(#linear-gradient)"/>
      </g>
      <g id="Grupo_84439" data-name="Grupo 84439" transform="translate(-108.51 86.313)">
        <path id="Trazado_145503" data-name="Trazado 145503" d="M869.914,520.955l1.45-3.307s2.251-3.561,2.407-3.63,3.272-2.043,3.72-2.312a31.291,31.291,0,0,1,3.039-.89c.218-.091,1.119-.573,1.119-.573l1.411-1.918s3.283-2.367,3.393-2.53,3.541-1.122,3.541-1.122,3.031-.358,3.148-.344,3.882.635,4,.65A27.832,27.832,0,0,1,900.116,506c.356.222,3.15,1.992,3.15,1.992l7.851,15.626s-15.009,13.32-24.759,10.913-21.019-9.394-20.029-9.742S869.914,520.955,869.914,520.955Z" transform="translate(-866.267 -503.897)" fill="url(#linear-gradient)"/>
        <path id="Trazado_145504" data-name="Trazado 145504" d="M891.876,547.771a11.623,11.623,0,0,1,7.059-8.313,14.682,14.682,0,0,1,9.778-.039c-3.46-.432-7-.4-10.222,1.086a13.61,13.61,0,0,0-6.615,7.266C892.037,546.91,892.2,546.962,891.876,547.771Z" transform="translate(-887.471 -532.274)" fill="url(#linear-gradient)"/>
        <path id="Trazado_145505" data-name="Trazado 145505" d="M975.586,505.669c-3.537-2.009-7.738-3.413-11.844-3.018-4.009.385-7.227,2.768-9.705,5.811a12.838,12.838,0,0,1,7.818-6.275,16.38,16.38,0,0,1,13.731,3.482C974.7,505.163,974.793,505.018,975.586,505.669Z" transform="translate(-938.941 -501.822)" fill="url(#linear-gradient)"/>
      </g>
      <path id="Trazado_145506" data-name="Trazado 145506" d="M1102.391,1667a1.917,1.917,0,0,0-1.574.269,1.41,1.41,0,0,0-1.482.031,1.575,1.575,0,0,0,1.707,1.09A1.408,1.408,0,0,0,1102.391,1667Z" transform="translate(-1167.757 -1380.226)" opacity="0.3" fill="url(#linear-gradient)" style="mix-blend-mode: multiply;isolation: isolate"/>
      <path id="Trazado_145509" data-name="Trazado 145509" d="M1.442,0H508.022a1.442,1.442,0,0,1,0,2.883H1.442A1.442,1.442,0,0,1,1.442,0Z" transform="translate(-311 339.879)" fill="url(#linear-gradient)"/>
      <path id="Trazado_145507" data-name="Trazado 145507" d="M1823.722,923.622a13.785,13.785,0,0,0-19.653,7.339,9.456,9.456,0,0,0-14.053,8.263c0,.31.016.615.045.918h37.366C1826.067,934.994,1824.9,929.45,1823.722,923.622Z" transform="translate(-1739.641 -763.322)" opacity="0.5" fill="url(#linear-gradient)"/>
      <path id="Trazado_145508" data-name="Trazado 145508" d="M123.857,1132.1a5.039,5.039,0,0,0-6.178-3.742,7.418,7.418,0,0,0-8.92-3.94,9.137,9.137,0,0,0-12.106-3.355q-2.645,5.16-5.006,11.038Z" transform="translate(-333.392 -927.354)" opacity="0.5" fill="url(#linear-gradient)"/>
    </g>
    <path id="Trazado_145249" data-name="Trazado 145249" d="M11.612,0h99.776A11.793,11.793,0,0,1,123,11.966a11.793,11.793,0,0,1-11.612,11.966H11.612A11.793,11.793,0,0,1,0,11.966,11.793,11.793,0,0,1,11.612,0Z" transform="translate(733.723 1148.535)" fill="url(#linear-gradient)"/>
    <path id="Trazado_145513" data-name="Trazado 145513" d="M11.612,0h99.776A11.793,11.793,0,0,1,123,11.966a11.793,11.793,0,0,1-11.612,11.966H11.612A11.793,11.793,0,0,1,0,11.966,11.793,11.793,0,0,1,11.612,0Z" transform="translate(733.723 1352.535)" fill="url(#linear-gradient)"/>
    <path id="Trazado_145512" data-name="Trazado 145512" d="M11.612,0h99.776A11.793,11.793,0,0,1,123,11.966a11.793,11.793,0,0,1-11.612,11.966H11.612A11.793,11.793,0,0,1,0,11.966,11.793,11.793,0,0,1,11.612,0Z" transform="translate(733.723 1242.535)" fill="url(#linear-gradient)"/>
    <path id="Trazado_145510" data-name="Trazado 145510" d="M11.612,0h99.776A11.793,11.793,0,0,1,123,11.966a11.793,11.793,0,0,1-11.612,11.966H11.612A11.793,11.793,0,0,1,0,11.966,11.793,11.793,0,0,1,11.612,0Z" transform="translate(627.723 1180.535)" fill="url(#linear-gradient)"/>
    <path id="Trazado_145514" data-name="Trazado 145514" d="M11.612,0h99.776A11.793,11.793,0,0,1,123,11.966a11.793,11.793,0,0,1-11.612,11.966H11.612A11.793,11.793,0,0,1,0,11.966,11.793,11.793,0,0,1,11.612,0Z" transform="translate(627.723 1315.535)" fill="url(#linear-gradient)"/>
    <path id="Trazado_145511" data-name="Trazado 145511" d="M11.612,0h99.776A11.793,11.793,0,0,1,123,11.966a11.793,11.793,0,0,1-11.612,11.966H11.612A11.793,11.793,0,0,1,0,11.966,11.793,11.793,0,0,1,11.612,0Z" transform="translate(844.723 1180.535)" fill="url(#linear-gradient)"/>
    <path id="Trazado_145515" data-name="Trazado 145515" d="M11.612,0h99.776A11.793,11.793,0,0,1,123,11.966a11.793,11.793,0,0,1-11.612,11.966H11.612A11.793,11.793,0,0,1,0,11.966,11.793,11.793,0,0,1,11.612,0Z" transform="translate(844.723 1315.534)" fill="url(#linear-gradient)"/>
    <path id="Trazado_155640" data-name="Trazado 155640" d="M23.53,10.921a3.27,3.27,0,0,1-1.1,2.349,3.868,3.868,0,0,1-2.618.857,3.478,3.478,0,0,1-2.8-1.2A4.906,4.906,0,0,1,16,9.646V9.081a5.54,5.54,0,0,1,.47-2.349,3.52,3.52,0,0,1,1.343-1.558,3.761,3.761,0,0,1,2.028-.543,3.768,3.768,0,0,1,2.577.857,3.515,3.515,0,0,1,1.13,2.406h-1.9a1.93,1.93,0,0,0-.5-1.3,1.845,1.845,0,0,0-1.3-.4,1.618,1.618,0,0,0-1.425.682,3.824,3.824,0,0,0-.486,2.117v.7a4.093,4.093,0,0,0,.454,2.19,1.588,1.588,0,0,0,1.431.692,1.88,1.88,0,0,0,1.317-.4,1.821,1.821,0,0,0,.5-1.247Zm.844-.419a4.073,4.073,0,0,1,.394-1.822A2.881,2.881,0,0,1,25.9,7.443,3.306,3.306,0,0,1,27.618,7a3.127,3.127,0,0,1,2.269.851,3.414,3.414,0,0,1,.981,2.311l.013.47A3.59,3.59,0,0,1,30,13.172a3.067,3.067,0,0,1-2.368.955,3.082,3.082,0,0,1-2.371-.952,3.653,3.653,0,0,1-.885-2.59Zm1.834.133a2.56,2.56,0,0,0,.368,1.495,1.324,1.324,0,0,0,2.095.006,2.8,2.8,0,0,0,.375-1.635,2.535,2.535,0,0,0-.375-1.485,1.218,1.218,0,0,0-1.054-.527,1.2,1.2,0,0,0-1.041.524A2.849,2.849,0,0,0,26.209,10.636Zm7.49-3.5.057.793A2.4,2.4,0,0,1,35.73,7a1.993,1.993,0,0,1,1.625.641A2.991,2.991,0,0,1,37.9,9.563V14H36.067V9.607a1.19,1.19,0,0,0-.254-.847,1.137,1.137,0,0,0-.844-.263,1.262,1.262,0,0,0-1.162.66V14H31.972V7.132Zm9.312,4.97a.591.591,0,0,0-.333-.53,3.785,3.785,0,0,0-1.07-.346q-2.45-.514-2.45-2.082a1.887,1.887,0,0,1,.759-1.527A3.06,3.06,0,0,1,41.9,7a3.293,3.293,0,0,1,2.092.616,1.94,1.94,0,0,1,.784,1.6H42.941a.888.888,0,0,0-.254-.651,1.075,1.075,0,0,0-.793-.257,1.1,1.1,0,0,0-.717.209.661.661,0,0,0-.254.533.565.565,0,0,0,.289.492,2.971,2.971,0,0,0,.974.324,7.959,7.959,0,0,1,1.155.308,1.9,1.9,0,0,1,1.454,1.847,1.792,1.792,0,0,1-.806,1.52,3.478,3.478,0,0,1-2.082.581,3.632,3.632,0,0,1-1.533-.308,2.572,2.572,0,0,1-1.051-.844,1.962,1.962,0,0,1-.381-1.158h1.739a.958.958,0,0,0,.362.749,1.435,1.435,0,0,0,.9.26,1.328,1.328,0,0,0,.8-.2A.622.622,0,0,0,43.011,12.1Zm6.125,2.025a3.372,3.372,0,0,1-2.46-.927,3.294,3.294,0,0,1-.949-2.469v-.178a4.149,4.149,0,0,1,.4-1.85,2.935,2.935,0,0,1,1.133-1.257A3.18,3.18,0,0,1,48.933,7a2.85,2.85,0,0,1,2.219.889,3.611,3.611,0,0,1,.809,2.52v.749H47.588a1.7,1.7,0,0,0,.536,1.079,1.621,1.621,0,0,0,1.133.406,1.98,1.98,0,0,0,1.657-.768l.9,1.009A2.754,2.754,0,0,1,50.7,13.8,3.665,3.665,0,0,1,49.136,14.127ZM48.927,8.49a1.149,1.149,0,0,0-.885.368,1.9,1.9,0,0,0-.435,1.054h2.552V9.766a1.356,1.356,0,0,0-.33-.943A1.186,1.186,0,0,0,48.927,8.49Zm6.932,4.158a1.2,1.2,0,0,0,.825-.279.979.979,0,0,0,.33-.743h1.72a2.353,2.353,0,0,1-.381,1.279,2.513,2.513,0,0,1-1.025.9,3.208,3.208,0,0,1-1.438.321,2.982,2.982,0,0,1-2.323-.936,3.705,3.705,0,0,1-.851-2.587v-.121a3.663,3.663,0,0,1,.844-2.533A2.947,2.947,0,0,1,55.878,7a2.889,2.889,0,0,1,2.066.733,2.6,2.6,0,0,1,.79,1.952h-1.72a1.25,1.25,0,0,0-.33-.866,1.23,1.23,0,0,0-1.806.133,2.7,2.7,0,0,0-.327,1.514v.19a2.735,2.735,0,0,0,.324,1.523A1.119,1.119,0,0,0,55.859,12.648Zm8.036.654a2.3,2.3,0,0,1-1.879.825,2.17,2.17,0,0,1-1.685-.635,2.71,2.71,0,0,1-.594-1.86v-4.5h1.834v4.437q0,1.073.978,1.073a1.325,1.325,0,0,0,1.282-.647V7.132h1.841V14H63.946Zm6.322.825a3.372,3.372,0,0,1-2.46-.927,3.294,3.294,0,0,1-.949-2.469v-.178a4.149,4.149,0,0,1,.4-1.85,2.935,2.935,0,0,1,1.133-1.257A3.18,3.18,0,0,1,70.014,7a2.85,2.85,0,0,1,2.219.889,3.611,3.611,0,0,1,.809,2.52v.749H68.668a1.7,1.7,0,0,0,.536,1.079,1.621,1.621,0,0,0,1.133.406,1.98,1.98,0,0,0,1.657-.768l.9,1.009a2.754,2.754,0,0,1-1.117.911A3.665,3.665,0,0,1,70.217,14.127ZM70.008,8.49a1.149,1.149,0,0,0-.885.368,1.9,1.9,0,0,0-.435,1.054h2.552V9.766a1.356,1.356,0,0,0-.33-.943A1.186,1.186,0,0,0,70.008,8.49Zm5.764-1.358.057.793A2.4,2.4,0,0,1,77.8,7a1.993,1.993,0,0,1,1.625.641,2.991,2.991,0,0,1,.546,1.917V14H78.139V9.607a1.19,1.19,0,0,0-.254-.847,1.137,1.137,0,0,0-.844-.263,1.262,1.262,0,0,0-1.162.66V14H74.045V7.132Zm8.449,5.516a1.2,1.2,0,0,0,.825-.279.979.979,0,0,0,.33-.743H87.1a2.353,2.353,0,0,1-.381,1.279,2.513,2.513,0,0,1-1.025.9,3.208,3.208,0,0,1-1.438.321,2.982,2.982,0,0,1-2.323-.936,3.705,3.705,0,0,1-.851-2.587v-.121a3.663,3.663,0,0,1,.844-2.533A2.947,2.947,0,0,1,84.239,7a2.889,2.889,0,0,1,2.066.733A2.6,2.6,0,0,1,87.1,9.69h-1.72a1.25,1.25,0,0,0-.33-.866,1.23,1.23,0,0,0-1.806.133,2.7,2.7,0,0,0-.327,1.514v.19a2.735,2.735,0,0,0,.324,1.523A1.119,1.119,0,0,0,84.22,12.648ZM90.079,14H88.238V7.132h1.841ZM88.13,5.354a.9.9,0,0,1,.276-.679,1.19,1.19,0,0,1,1.5,0,.9.9,0,0,1,.279.679.9.9,0,0,1-.282.686,1.177,1.177,0,0,1-1.492,0A.9.9,0,0,1,88.13,5.354ZM95.57,14a2.037,2.037,0,0,1-.184-.616,2.22,2.22,0,0,1-1.733.743,2.439,2.439,0,0,1-1.673-.584,1.878,1.878,0,0,1-.663-1.473,1.941,1.941,0,0,1,.809-1.676,3.994,3.994,0,0,1,2.339-.59h.844V9.411a1.132,1.132,0,0,0-.244-.762.961.961,0,0,0-.771-.286,1.093,1.093,0,0,0-.727.222.755.755,0,0,0-.263.609H91.469a1.843,1.843,0,0,1,.368-1.1,2.434,2.434,0,0,1,1.041-.8A3.794,3.794,0,0,1,94.389,7a3,3,0,0,1,2.015.638,2.232,2.232,0,0,1,.746,1.793v2.977a3.284,3.284,0,0,0,.273,1.479V14Zm-1.517-1.276a1.58,1.58,0,0,0,.749-.181,1.188,1.188,0,0,0,.508-.486V10.877h-.686q-1.377,0-1.466.952l-.006.108a.734.734,0,0,0,.241.565A.937.937,0,0,0,94.052,12.724Zm14,1.276H101.72V12.743l2.99-3.187a7.376,7.376,0,0,0,.911-1.174,1.887,1.887,0,0,0,.3-.952,1.412,1.412,0,0,0-.311-.968,1.123,1.123,0,0,0-.889-.352,1.211,1.211,0,0,0-.981.428,1.7,1.7,0,0,0-.359,1.127h-1.841a3.03,3.03,0,0,1,.4-1.542,2.841,2.841,0,0,1,1.139-1.095,3.463,3.463,0,0,1,1.669-.4,3.279,3.279,0,0,1,2.219.686,2.425,2.425,0,0,1,.79,1.936,3.108,3.108,0,0,1-.355,1.4,7.76,7.76,0,0,1-1.219,1.657l-2.1,2.215h3.974Z" transform="translate(733.723 1153)" fill="#12263f"/>
    <path id="Trazado_155641" data-name="Trazado 155641" d="M46.531,10.921a3.27,3.27,0,0,1-1.1,2.349,3.868,3.868,0,0,1-2.618.857,3.478,3.478,0,0,1-2.8-1.2A4.906,4.906,0,0,1,39,9.646V9.081a5.54,5.54,0,0,1,.47-2.349,3.52,3.52,0,0,1,1.343-1.558,4.2,4.2,0,0,1,4.605.314,3.515,3.515,0,0,1,1.13,2.406h-1.9a1.93,1.93,0,0,0-.5-1.3,1.845,1.845,0,0,0-1.3-.4,1.618,1.618,0,0,0-1.425.682,3.824,3.824,0,0,0-.486,2.117v.7a4.093,4.093,0,0,0,.454,2.19,1.588,1.588,0,0,0,1.431.692,1.88,1.88,0,0,0,1.317-.4,1.821,1.821,0,0,0,.5-1.247ZM51.641,14a2.037,2.037,0,0,1-.184-.616,2.22,2.22,0,0,1-1.733.743,2.439,2.439,0,0,1-1.673-.584,1.878,1.878,0,0,1-.663-1.473,1.941,1.941,0,0,1,.809-1.676,3.994,3.994,0,0,1,2.339-.59h.844V9.411a1.132,1.132,0,0,0-.244-.762.961.961,0,0,0-.771-.286,1.093,1.093,0,0,0-.727.222.755.755,0,0,0-.263.609H47.54a1.843,1.843,0,0,1,.368-1.1,2.434,2.434,0,0,1,1.041-.8A3.794,3.794,0,0,1,50.46,7a3,3,0,0,1,2.015.638,2.232,2.232,0,0,1,.746,1.793v2.977a3.284,3.284,0,0,0,.273,1.479V14Zm-1.517-1.276a1.58,1.58,0,0,0,.749-.181,1.188,1.188,0,0,0,.508-.486V10.877h-.686q-1.377,0-1.466.952l-.006.108a.734.734,0,0,0,.241.565A.937.937,0,0,0,50.124,12.724Zm8.62.578a2.3,2.3,0,0,1-1.879.825,2.17,2.17,0,0,1-1.685-.635,2.71,2.71,0,0,1-.594-1.86v-4.5H56.42v4.437q0,1.073.978,1.073a1.325,1.325,0,0,0,1.282-.647V7.132h1.841V14H58.794Zm6.881-1.2a.591.591,0,0,0-.333-.53,3.785,3.785,0,0,0-1.07-.346q-2.45-.514-2.45-2.082a1.887,1.887,0,0,1,.759-1.527A3.06,3.06,0,0,1,64.514,7a3.293,3.293,0,0,1,2.092.616,1.94,1.94,0,0,1,.784,1.6H65.555A.888.888,0,0,0,65.3,8.57a1.075,1.075,0,0,0-.793-.257,1.1,1.1,0,0,0-.717.209.661.661,0,0,0-.254.533.565.565,0,0,0,.289.492,2.971,2.971,0,0,0,.974.324,7.958,7.958,0,0,1,1.155.308,1.9,1.9,0,0,1,1.454,1.847,1.792,1.792,0,0,1-.806,1.52,3.478,3.478,0,0,1-2.082.581,3.632,3.632,0,0,1-1.533-.308,2.572,2.572,0,0,1-1.051-.844,1.962,1.962,0,0,1-.381-1.158h1.739a.958.958,0,0,0,.362.749,1.435,1.435,0,0,0,.9.26,1.328,1.328,0,0,0,.8-.2A.622.622,0,0,0,65.625,12.1ZM72.569,14a2.037,2.037,0,0,1-.184-.616,2.22,2.22,0,0,1-1.733.743,2.439,2.439,0,0,1-1.673-.584,1.878,1.878,0,0,1-.663-1.473,1.941,1.941,0,0,1,.809-1.676,3.994,3.994,0,0,1,2.339-.59h.844V9.411a1.132,1.132,0,0,0-.244-.762.961.961,0,0,0-.771-.286,1.093,1.093,0,0,0-.727.222.755.755,0,0,0-.263.609H68.468a1.843,1.843,0,0,1,.368-1.1,2.434,2.434,0,0,1,1.041-.8A3.794,3.794,0,0,1,71.388,7a3,3,0,0,1,2.015.638,2.232,2.232,0,0,1,.746,1.793v2.977a3.284,3.284,0,0,0,.273,1.479V14Zm-1.517-1.276a1.58,1.58,0,0,0,.749-.181,1.188,1.188,0,0,0,.508-.486V10.877h-.686q-1.377,0-1.466.952l-.006.108a.734.734,0,0,0,.241.565A.937.937,0,0,0,71.052,12.724Zm14,1.276H78.72V12.743l2.99-3.187a7.376,7.376,0,0,0,.911-1.174,1.887,1.887,0,0,0,.3-.952,1.412,1.412,0,0,0-.311-.968,1.123,1.123,0,0,0-.889-.352,1.211,1.211,0,0,0-.981.428,1.7,1.7,0,0,0-.359,1.127H78.536a3.03,3.03,0,0,1,.4-1.542,2.841,2.841,0,0,1,1.139-1.095,3.463,3.463,0,0,1,1.669-.4,3.279,3.279,0,0,1,2.219.686,2.425,2.425,0,0,1,.79,1.936,3.108,3.108,0,0,1-.355,1.4,7.76,7.76,0,0,1-1.219,1.657l-2.1,2.215h3.974Z" transform="translate(733.723 1357)" fill="#12263f"/>
    <path id="Trazado_155642" data-name="Trazado 155642" d="M16.452,10.744V14h-1.9V4.758h3.605a4.171,4.171,0,0,1,1.831.381A2.807,2.807,0,0,1,21.2,6.221a3.018,3.018,0,0,1,.425,1.6A2.654,2.654,0,0,1,20.7,9.96a3.873,3.873,0,0,1-2.574.784Zm0-1.542h1.7a1.673,1.673,0,0,0,1.152-.355,1.293,1.293,0,0,0,.4-1.016,1.524,1.524,0,0,0-.4-1.1A1.494,1.494,0,0,0,18.2,6.3H16.452Zm10.22-.349a4.984,4.984,0,0,0-.66-.051,1.344,1.344,0,0,0-1.365.7V14H22.813V7.132h1.733l.051.819A1.7,1.7,0,0,1,26.126,7a1.922,1.922,0,0,1,.571.083Zm.368,1.65a4.073,4.073,0,0,1,.394-1.822,2.881,2.881,0,0,1,1.133-1.238A3.306,3.306,0,0,1,30.284,7a3.127,3.127,0,0,1,2.269.851,3.414,3.414,0,0,1,.981,2.311l.013.47a3.59,3.59,0,0,1-.882,2.536,3.42,3.42,0,0,1-4.739,0,3.653,3.653,0,0,1-.885-2.59Zm1.834.133a2.56,2.56,0,0,0,.368,1.495,1.324,1.324,0,0,0,2.095.006,2.8,2.8,0,0,0,.375-1.635,2.535,2.535,0,0,0-.375-1.485,1.218,1.218,0,0,0-1.054-.527,1.2,1.2,0,0,0-1.041.524A2.849,2.849,0,0,0,28.875,10.636Zm11.991-.006a4.159,4.159,0,0,1-.7,2.574,2.334,2.334,0,0,1-1.968.924,2.144,2.144,0,0,1-1.784-.857l-.083.73h-1.65V4.25h1.834v3.5A2.089,2.089,0,0,1,38.18,7a2.353,2.353,0,0,1,1.971.924,4.165,4.165,0,0,1,.714,2.6ZM39.031,10.5a2.732,2.732,0,0,0-.33-1.52,1.116,1.116,0,0,0-.984-.479,1.21,1.21,0,0,0-1.206.717v2.71a1.226,1.226,0,0,0,1.219.724,1.133,1.133,0,0,0,1.168-.876A4.519,4.519,0,0,0,39.031,10.5Zm4.9,3.5H42.091V4.25h1.841Zm4.672.127a3.372,3.372,0,0,1-2.46-.927,3.294,3.294,0,0,1-.949-2.469v-.178a4.149,4.149,0,0,1,.4-1.85,2.935,2.935,0,0,1,1.133-1.257A3.18,3.18,0,0,1,48.4,7a2.85,2.85,0,0,1,2.219.889,3.611,3.611,0,0,1,.809,2.52v.749H47.054a1.7,1.7,0,0,0,.536,1.079,1.621,1.621,0,0,0,1.133.406,1.98,1.98,0,0,0,1.657-.768l.9,1.009a2.754,2.754,0,0,1-1.117.911A3.665,3.665,0,0,1,48.6,14.127ZM48.394,8.49a1.149,1.149,0,0,0-.885.368,1.9,1.9,0,0,0-.435,1.054h2.552V9.766a1.356,1.356,0,0,0-.33-.943A1.186,1.186,0,0,0,48.394,8.49Zm5.8-1.358.057.768A2.414,2.414,0,0,1,56.22,7a1.832,1.832,0,0,1,1.822,1.047A2.358,2.358,0,0,1,60.105,7a2.049,2.049,0,0,1,1.663.651,2.991,2.991,0,0,1,.546,1.958V14H60.473V9.62a1.308,1.308,0,0,0-.229-.854,1.013,1.013,0,0,0-.806-.27,1.145,1.145,0,0,0-1.143.787L58.3,14H56.468V9.626a1.292,1.292,0,0,0-.235-.863,1.023,1.023,0,0,0-.8-.267,1.189,1.189,0,0,0-1.13.647V14H52.469V7.132ZM67.7,14a2.037,2.037,0,0,1-.184-.616,2.22,2.22,0,0,1-1.733.743,2.439,2.439,0,0,1-1.673-.584,1.878,1.878,0,0,1-.663-1.473,1.941,1.941,0,0,1,.809-1.676A3.994,3.994,0,0,1,66.6,9.8h.844V9.411a1.132,1.132,0,0,0-.244-.762.961.961,0,0,0-.771-.286,1.093,1.093,0,0,0-.727.222.755.755,0,0,0-.263.609H63.6a1.843,1.843,0,0,1,.368-1.1,2.434,2.434,0,0,1,1.041-.8A3.794,3.794,0,0,1,66.523,7a3,3,0,0,1,2.015.638,2.232,2.232,0,0,1,.746,1.793v2.977a3.284,3.284,0,0,0,.273,1.479V14Zm-1.517-1.276a1.58,1.58,0,0,0,.749-.181,1.188,1.188,0,0,0,.508-.486V10.877h-.686q-1.377,0-1.466.952l-.006.108a.734.734,0,0,0,.241.565A.937.937,0,0,0,66.186,12.724Zm10.6-.076a1.2,1.2,0,0,0,.825-.279.979.979,0,0,0,.33-.743h1.72a2.353,2.353,0,0,1-.381,1.279,2.513,2.513,0,0,1-1.025.9,3.208,3.208,0,0,1-1.438.321,2.982,2.982,0,0,1-2.323-.936,3.705,3.705,0,0,1-.851-2.587v-.121a3.663,3.663,0,0,1,.844-2.533A2.947,2.947,0,0,1,76.806,7a2.889,2.889,0,0,1,2.066.733,2.6,2.6,0,0,1,.79,1.952h-1.72a1.25,1.25,0,0,0-.33-.866,1.23,1.23,0,0,0-1.806.133,2.7,2.7,0,0,0-.327,1.514v.19a2.735,2.735,0,0,0,.324,1.523A1.119,1.119,0,0,0,76.787,12.648Zm7.782-3.8a4.984,4.984,0,0,0-.66-.051,1.344,1.344,0,0,0-1.365.7V14H80.71V7.132h1.733l.051.819A1.7,1.7,0,0,1,84.023,7a1.922,1.922,0,0,1,.571.083ZM87.432,14H85.6V7.132h1.834Zm-.54-9.655h2L87.134,6.313H85.642Zm4.316,1.1V7.132h1.174V8.478H91.209v3.428a.818.818,0,0,0,.146.546.733.733,0,0,0,.559.165,2.926,2.926,0,0,0,.54-.044v1.39a3.777,3.777,0,0,1-1.111.165,1.752,1.752,0,0,1-1.968-1.949v-3.7h-1V7.132h1V5.443ZM95.341,14H93.5V7.132h1.841ZM93.392,5.354a.9.9,0,0,1,.276-.679,1.19,1.19,0,0,1,1.5,0,.9.9,0,0,1,.279.679.9.9,0,0,1-.282.686,1.177,1.177,0,0,1-1.492,0A.9.9,0,0,1,93.392,5.354Zm6.316,7.293a1.2,1.2,0,0,0,.825-.279.979.979,0,0,0,.33-.743h1.72a2.353,2.353,0,0,1-.381,1.279,2.513,2.513,0,0,1-1.025.9,3.208,3.208,0,0,1-1.438.321,2.982,2.982,0,0,1-2.323-.936,3.705,3.705,0,0,1-.851-2.587v-.121a3.663,3.663,0,0,1,.844-2.533A2.947,2.947,0,0,1,99.727,7a2.889,2.889,0,0,1,2.066.733,2.6,2.6,0,0,1,.79,1.952h-1.72a1.25,1.25,0,0,0-.33-.866,1.23,1.23,0,0,0-1.806.133,2.7,2.7,0,0,0-.327,1.514v.19a2.735,2.735,0,0,0,.324,1.523A1.119,1.119,0,0,0,99.708,12.648Zm3.637-2.146a4.073,4.073,0,0,1,.394-1.822,2.881,2.881,0,0,1,1.133-1.238A3.306,3.306,0,0,1,106.589,7a3.127,3.127,0,0,1,2.269.851,3.414,3.414,0,0,1,.981,2.311l.013.47a3.59,3.59,0,0,1-.882,2.536,3.42,3.42,0,0,1-4.739,0,3.653,3.653,0,0,1-.885-2.59Zm1.834.133a2.56,2.56,0,0,0,.368,1.495,1.324,1.324,0,0,0,2.095.006,2.8,2.8,0,0,0,.375-1.635,2.535,2.535,0,0,0-.375-1.485,1.218,1.218,0,0,0-1.054-.527,1.2,1.2,0,0,0-1.041.524A2.849,2.849,0,0,0,105.18,10.636Z" transform="translate(733.723 1247)" fill="#fff"/>
    <path id="Trazado_155643" data-name="Trazado 155643" d="M23.53,10.921a3.27,3.27,0,0,1-1.1,2.349,3.868,3.868,0,0,1-2.618.857,3.478,3.478,0,0,1-2.8-1.2A4.906,4.906,0,0,1,16,9.646V9.081a5.54,5.54,0,0,1,.47-2.349,3.52,3.52,0,0,1,1.343-1.558,3.761,3.761,0,0,1,2.028-.543,3.768,3.768,0,0,1,2.577.857,3.515,3.515,0,0,1,1.13,2.406h-1.9a1.93,1.93,0,0,0-.5-1.3,1.845,1.845,0,0,0-1.3-.4,1.618,1.618,0,0,0-1.425.682,3.824,3.824,0,0,0-.486,2.117v.7a4.093,4.093,0,0,0,.454,2.19,1.588,1.588,0,0,0,1.431.692,1.88,1.88,0,0,0,1.317-.4,1.821,1.821,0,0,0,.5-1.247Zm.844-.419a4.073,4.073,0,0,1,.394-1.822A2.881,2.881,0,0,1,25.9,7.443,3.306,3.306,0,0,1,27.618,7a3.127,3.127,0,0,1,2.269.851,3.414,3.414,0,0,1,.981,2.311l.013.47A3.59,3.59,0,0,1,30,13.172a3.067,3.067,0,0,1-2.368.955,3.082,3.082,0,0,1-2.371-.952,3.653,3.653,0,0,1-.885-2.59Zm1.834.133a2.56,2.56,0,0,0,.368,1.495,1.324,1.324,0,0,0,2.095.006,2.8,2.8,0,0,0,.375-1.635,2.535,2.535,0,0,0-.375-1.485,1.218,1.218,0,0,0-1.054-.527,1.2,1.2,0,0,0-1.041.524A2.849,2.849,0,0,0,26.209,10.636Zm7.49-3.5.057.793A2.4,2.4,0,0,1,35.73,7a1.993,1.993,0,0,1,1.625.641A2.991,2.991,0,0,1,37.9,9.563V14H36.067V9.607a1.19,1.19,0,0,0-.254-.847,1.137,1.137,0,0,0-.844-.263,1.262,1.262,0,0,0-1.162.66V14H31.972V7.132Zm9.312,4.97a.591.591,0,0,0-.333-.53,3.785,3.785,0,0,0-1.07-.346q-2.45-.514-2.45-2.082a1.887,1.887,0,0,1,.759-1.527A3.06,3.06,0,0,1,41.9,7a3.293,3.293,0,0,1,2.092.616,1.94,1.94,0,0,1,.784,1.6H42.941a.888.888,0,0,0-.254-.651,1.075,1.075,0,0,0-.793-.257,1.1,1.1,0,0,0-.717.209.661.661,0,0,0-.254.533.565.565,0,0,0,.289.492,2.971,2.971,0,0,0,.974.324,7.959,7.959,0,0,1,1.155.308,1.9,1.9,0,0,1,1.454,1.847,1.792,1.792,0,0,1-.806,1.52,3.478,3.478,0,0,1-2.082.581,3.632,3.632,0,0,1-1.533-.308,2.572,2.572,0,0,1-1.051-.844,1.962,1.962,0,0,1-.381-1.158h1.739a.958.958,0,0,0,.362.749,1.435,1.435,0,0,0,.9.26,1.328,1.328,0,0,0,.8-.2A.622.622,0,0,0,43.011,12.1Zm6.125,2.025a3.372,3.372,0,0,1-2.46-.927,3.294,3.294,0,0,1-.949-2.469v-.178a4.149,4.149,0,0,1,.4-1.85,2.935,2.935,0,0,1,1.133-1.257A3.18,3.18,0,0,1,48.933,7a2.85,2.85,0,0,1,2.219.889,3.611,3.611,0,0,1,.809,2.52v.749H47.588a1.7,1.7,0,0,0,.536,1.079,1.621,1.621,0,0,0,1.133.406,1.98,1.98,0,0,0,1.657-.768l.9,1.009A2.754,2.754,0,0,1,50.7,13.8,3.665,3.665,0,0,1,49.136,14.127ZM48.927,8.49a1.149,1.149,0,0,0-.885.368,1.9,1.9,0,0,0-.435,1.054h2.552V9.766a1.356,1.356,0,0,0-.33-.943A1.186,1.186,0,0,0,48.927,8.49Zm6.932,4.158a1.2,1.2,0,0,0,.825-.279.979.979,0,0,0,.33-.743h1.72a2.353,2.353,0,0,1-.381,1.279,2.513,2.513,0,0,1-1.025.9,3.208,3.208,0,0,1-1.438.321,2.982,2.982,0,0,1-2.323-.936,3.705,3.705,0,0,1-.851-2.587v-.121a3.663,3.663,0,0,1,.844-2.533A2.947,2.947,0,0,1,55.878,7a2.889,2.889,0,0,1,2.066.733,2.6,2.6,0,0,1,.79,1.952h-1.72a1.25,1.25,0,0,0-.33-.866,1.23,1.23,0,0,0-1.806.133,2.7,2.7,0,0,0-.327,1.514v.19a2.735,2.735,0,0,0,.324,1.523A1.119,1.119,0,0,0,55.859,12.648Zm8.036.654a2.3,2.3,0,0,1-1.879.825,2.17,2.17,0,0,1-1.685-.635,2.71,2.71,0,0,1-.594-1.86v-4.5h1.834v4.437q0,1.073.978,1.073a1.325,1.325,0,0,0,1.282-.647V7.132h1.841V14H63.946Zm6.322.825a3.372,3.372,0,0,1-2.46-.927,3.294,3.294,0,0,1-.949-2.469v-.178a4.149,4.149,0,0,1,.4-1.85,2.935,2.935,0,0,1,1.133-1.257A3.18,3.18,0,0,1,70.014,7a2.85,2.85,0,0,1,2.219.889,3.611,3.611,0,0,1,.809,2.52v.749H68.668a1.7,1.7,0,0,0,.536,1.079,1.621,1.621,0,0,0,1.133.406,1.98,1.98,0,0,0,1.657-.768l.9,1.009a2.754,2.754,0,0,1-1.117.911A3.665,3.665,0,0,1,70.217,14.127ZM70.008,8.49a1.149,1.149,0,0,0-.885.368,1.9,1.9,0,0,0-.435,1.054h2.552V9.766a1.356,1.356,0,0,0-.33-.943A1.186,1.186,0,0,0,70.008,8.49Zm5.764-1.358.057.793A2.4,2.4,0,0,1,77.8,7a1.993,1.993,0,0,1,1.625.641,2.991,2.991,0,0,1,.546,1.917V14H78.139V9.607a1.19,1.19,0,0,0-.254-.847,1.137,1.137,0,0,0-.844-.263,1.262,1.262,0,0,0-1.162.66V14H74.045V7.132Zm8.449,5.516a1.2,1.2,0,0,0,.825-.279.979.979,0,0,0,.33-.743H87.1a2.353,2.353,0,0,1-.381,1.279,2.513,2.513,0,0,1-1.025.9,3.208,3.208,0,0,1-1.438.321,2.982,2.982,0,0,1-2.323-.936,3.705,3.705,0,0,1-.851-2.587v-.121a3.663,3.663,0,0,1,.844-2.533A2.947,2.947,0,0,1,84.239,7a2.889,2.889,0,0,1,2.066.733A2.6,2.6,0,0,1,87.1,9.69h-1.72a1.25,1.25,0,0,0-.33-.866,1.23,1.23,0,0,0-1.806.133,2.7,2.7,0,0,0-.327,1.514v.19a2.735,2.735,0,0,0,.324,1.523A1.119,1.119,0,0,0,84.22,12.648ZM90.079,14H88.238V7.132h1.841ZM88.13,5.354a.9.9,0,0,1,.276-.679,1.19,1.19,0,0,1,1.5,0,.9.9,0,0,1,.279.679.9.9,0,0,1-.282.686,1.177,1.177,0,0,1-1.492,0A.9.9,0,0,1,88.13,5.354ZM95.57,14a2.037,2.037,0,0,1-.184-.616,2.22,2.22,0,0,1-1.733.743,2.439,2.439,0,0,1-1.673-.584,1.878,1.878,0,0,1-.663-1.473,1.941,1.941,0,0,1,.809-1.676,3.994,3.994,0,0,1,2.339-.59h.844V9.411a1.132,1.132,0,0,0-.244-.762.961.961,0,0,0-.771-.286,1.093,1.093,0,0,0-.727.222.755.755,0,0,0-.263.609H91.469a1.843,1.843,0,0,1,.368-1.1,2.434,2.434,0,0,1,1.041-.8A3.794,3.794,0,0,1,94.389,7a3,3,0,0,1,2.015.638,2.232,2.232,0,0,1,.746,1.793v2.977a3.284,3.284,0,0,0,.273,1.479V14Zm-1.517-1.276a1.58,1.58,0,0,0,.749-.181,1.188,1.188,0,0,0,.508-.486V10.877h-.686q-1.377,0-1.466.952l-.006.108a.734.734,0,0,0,.241.565A.937.937,0,0,0,94.052,12.724ZM106.177,14h-1.834V6.929l-2.19.679V6.116l3.828-1.371h.2Z" transform="translate(627.723 1185)" fill="#12263f"/>
    <path id="Trazado_155644" data-name="Trazado 155644" d="M46.531,10.921a3.27,3.27,0,0,1-1.1,2.349,3.868,3.868,0,0,1-2.618.857,3.478,3.478,0,0,1-2.8-1.2A4.906,4.906,0,0,1,39,9.646V9.081a5.54,5.54,0,0,1,.47-2.349,3.52,3.52,0,0,1,1.343-1.558,4.2,4.2,0,0,1,4.605.314,3.515,3.515,0,0,1,1.13,2.406h-1.9a1.93,1.93,0,0,0-.5-1.3,1.845,1.845,0,0,0-1.3-.4,1.618,1.618,0,0,0-1.425.682,3.824,3.824,0,0,0-.486,2.117v.7a4.093,4.093,0,0,0,.454,2.19,1.588,1.588,0,0,0,1.431.692,1.88,1.88,0,0,0,1.317-.4,1.821,1.821,0,0,0,.5-1.247ZM51.641,14a2.037,2.037,0,0,1-.184-.616,2.22,2.22,0,0,1-1.733.743,2.439,2.439,0,0,1-1.673-.584,1.878,1.878,0,0,1-.663-1.473,1.941,1.941,0,0,1,.809-1.676,3.994,3.994,0,0,1,2.339-.59h.844V9.411a1.132,1.132,0,0,0-.244-.762.961.961,0,0,0-.771-.286,1.093,1.093,0,0,0-.727.222.755.755,0,0,0-.263.609H47.54a1.843,1.843,0,0,1,.368-1.1,2.434,2.434,0,0,1,1.041-.8A3.794,3.794,0,0,1,50.46,7a3,3,0,0,1,2.015.638,2.232,2.232,0,0,1,.746,1.793v2.977a3.284,3.284,0,0,0,.273,1.479V14Zm-1.517-1.276a1.58,1.58,0,0,0,.749-.181,1.188,1.188,0,0,0,.508-.486V10.877h-.686q-1.377,0-1.466.952l-.006.108a.734.734,0,0,0,.241.565A.937.937,0,0,0,50.124,12.724Zm8.62.578a2.3,2.3,0,0,1-1.879.825,2.17,2.17,0,0,1-1.685-.635,2.71,2.71,0,0,1-.594-1.86v-4.5H56.42v4.437q0,1.073.978,1.073a1.325,1.325,0,0,0,1.282-.647V7.132h1.841V14H58.794Zm6.881-1.2a.591.591,0,0,0-.333-.53,3.785,3.785,0,0,0-1.07-.346q-2.45-.514-2.45-2.082a1.887,1.887,0,0,1,.759-1.527A3.06,3.06,0,0,1,64.514,7a3.293,3.293,0,0,1,2.092.616,1.94,1.94,0,0,1,.784,1.6H65.555A.888.888,0,0,0,65.3,8.57a1.075,1.075,0,0,0-.793-.257,1.1,1.1,0,0,0-.717.209.661.661,0,0,0-.254.533.565.565,0,0,0,.289.492,2.971,2.971,0,0,0,.974.324,7.958,7.958,0,0,1,1.155.308,1.9,1.9,0,0,1,1.454,1.847,1.792,1.792,0,0,1-.806,1.52,3.478,3.478,0,0,1-2.082.581,3.632,3.632,0,0,1-1.533-.308,2.572,2.572,0,0,1-1.051-.844,1.962,1.962,0,0,1-.381-1.158h1.739a.958.958,0,0,0,.362.749,1.435,1.435,0,0,0,.9.26,1.328,1.328,0,0,0,.8-.2A.622.622,0,0,0,65.625,12.1ZM72.569,14a2.037,2.037,0,0,1-.184-.616,2.22,2.22,0,0,1-1.733.743,2.439,2.439,0,0,1-1.673-.584,1.878,1.878,0,0,1-.663-1.473,1.941,1.941,0,0,1,.809-1.676,3.994,3.994,0,0,1,2.339-.59h.844V9.411a1.132,1.132,0,0,0-.244-.762.961.961,0,0,0-.771-.286,1.093,1.093,0,0,0-.727.222.755.755,0,0,0-.263.609H68.468a1.843,1.843,0,0,1,.368-1.1,2.434,2.434,0,0,1,1.041-.8A3.794,3.794,0,0,1,71.388,7a3,3,0,0,1,2.015.638,2.232,2.232,0,0,1,.746,1.793v2.977a3.284,3.284,0,0,0,.273,1.479V14Zm-1.517-1.276a1.58,1.58,0,0,0,.749-.181,1.188,1.188,0,0,0,.508-.486V10.877h-.686q-1.377,0-1.466.952l-.006.108a.734.734,0,0,0,.241.565A.937.937,0,0,0,71.052,12.724ZM83.176,14H81.341V6.929l-2.19.679V6.116l3.828-1.371h.2Z" transform="translate(627.723 1320)" fill="#12263f"/>
    <path id="Trazado_155645" data-name="Trazado 155645" d="M23.53,10.921a3.27,3.27,0,0,1-1.1,2.349,3.868,3.868,0,0,1-2.618.857,3.478,3.478,0,0,1-2.8-1.2A4.906,4.906,0,0,1,16,9.646V9.081a5.54,5.54,0,0,1,.47-2.349,3.52,3.52,0,0,1,1.343-1.558,3.761,3.761,0,0,1,2.028-.543,3.768,3.768,0,0,1,2.577.857,3.515,3.515,0,0,1,1.13,2.406h-1.9a1.93,1.93,0,0,0-.5-1.3,1.845,1.845,0,0,0-1.3-.4,1.618,1.618,0,0,0-1.425.682,3.824,3.824,0,0,0-.486,2.117v.7a4.093,4.093,0,0,0,.454,2.19,1.588,1.588,0,0,0,1.431.692,1.88,1.88,0,0,0,1.317-.4,1.821,1.821,0,0,0,.5-1.247Zm.844-.419a4.073,4.073,0,0,1,.394-1.822A2.881,2.881,0,0,1,25.9,7.443,3.306,3.306,0,0,1,27.618,7a3.127,3.127,0,0,1,2.269.851,3.414,3.414,0,0,1,.981,2.311l.013.47A3.59,3.59,0,0,1,30,13.172a3.067,3.067,0,0,1-2.368.955,3.082,3.082,0,0,1-2.371-.952,3.653,3.653,0,0,1-.885-2.59Zm1.834.133a2.56,2.56,0,0,0,.368,1.495,1.324,1.324,0,0,0,2.095.006,2.8,2.8,0,0,0,.375-1.635,2.535,2.535,0,0,0-.375-1.485,1.218,1.218,0,0,0-1.054-.527,1.2,1.2,0,0,0-1.041.524A2.849,2.849,0,0,0,26.209,10.636Zm7.49-3.5.057.793A2.4,2.4,0,0,1,35.73,7a1.993,1.993,0,0,1,1.625.641A2.991,2.991,0,0,1,37.9,9.563V14H36.067V9.607a1.19,1.19,0,0,0-.254-.847,1.137,1.137,0,0,0-.844-.263,1.262,1.262,0,0,0-1.162.66V14H31.972V7.132Zm9.312,4.97a.591.591,0,0,0-.333-.53,3.785,3.785,0,0,0-1.07-.346q-2.45-.514-2.45-2.082a1.887,1.887,0,0,1,.759-1.527A3.06,3.06,0,0,1,41.9,7a3.293,3.293,0,0,1,2.092.616,1.94,1.94,0,0,1,.784,1.6H42.941a.888.888,0,0,0-.254-.651,1.075,1.075,0,0,0-.793-.257,1.1,1.1,0,0,0-.717.209.661.661,0,0,0-.254.533.565.565,0,0,0,.289.492,2.971,2.971,0,0,0,.974.324,7.959,7.959,0,0,1,1.155.308,1.9,1.9,0,0,1,1.454,1.847,1.792,1.792,0,0,1-.806,1.52,3.478,3.478,0,0,1-2.082.581,3.632,3.632,0,0,1-1.533-.308,2.572,2.572,0,0,1-1.051-.844,1.962,1.962,0,0,1-.381-1.158h1.739a.958.958,0,0,0,.362.749,1.435,1.435,0,0,0,.9.26,1.328,1.328,0,0,0,.8-.2A.622.622,0,0,0,43.011,12.1Zm6.125,2.025a3.372,3.372,0,0,1-2.46-.927,3.294,3.294,0,0,1-.949-2.469v-.178a4.149,4.149,0,0,1,.4-1.85,2.935,2.935,0,0,1,1.133-1.257A3.18,3.18,0,0,1,48.933,7a2.85,2.85,0,0,1,2.219.889,3.611,3.611,0,0,1,.809,2.52v.749H47.588a1.7,1.7,0,0,0,.536,1.079,1.621,1.621,0,0,0,1.133.406,1.98,1.98,0,0,0,1.657-.768l.9,1.009A2.754,2.754,0,0,1,50.7,13.8,3.665,3.665,0,0,1,49.136,14.127ZM48.927,8.49a1.149,1.149,0,0,0-.885.368,1.9,1.9,0,0,0-.435,1.054h2.552V9.766a1.356,1.356,0,0,0-.33-.943A1.186,1.186,0,0,0,48.927,8.49Zm6.932,4.158a1.2,1.2,0,0,0,.825-.279.979.979,0,0,0,.33-.743h1.72a2.353,2.353,0,0,1-.381,1.279,2.513,2.513,0,0,1-1.025.9,3.208,3.208,0,0,1-1.438.321,2.982,2.982,0,0,1-2.323-.936,3.705,3.705,0,0,1-.851-2.587v-.121a3.663,3.663,0,0,1,.844-2.533A2.947,2.947,0,0,1,55.878,7a2.889,2.889,0,0,1,2.066.733,2.6,2.6,0,0,1,.79,1.952h-1.72a1.25,1.25,0,0,0-.33-.866,1.23,1.23,0,0,0-1.806.133,2.7,2.7,0,0,0-.327,1.514v.19a2.735,2.735,0,0,0,.324,1.523A1.119,1.119,0,0,0,55.859,12.648Zm8.036.654a2.3,2.3,0,0,1-1.879.825,2.17,2.17,0,0,1-1.685-.635,2.71,2.71,0,0,1-.594-1.86v-4.5h1.834v4.437q0,1.073.978,1.073a1.325,1.325,0,0,0,1.282-.647V7.132h1.841V14H63.946Zm6.322.825a3.372,3.372,0,0,1-2.46-.927,3.294,3.294,0,0,1-.949-2.469v-.178a4.149,4.149,0,0,1,.4-1.85,2.935,2.935,0,0,1,1.133-1.257A3.18,3.18,0,0,1,70.014,7a2.85,2.85,0,0,1,2.219.889,3.611,3.611,0,0,1,.809,2.52v.749H68.668a1.7,1.7,0,0,0,.536,1.079,1.621,1.621,0,0,0,1.133.406,1.98,1.98,0,0,0,1.657-.768l.9,1.009a2.754,2.754,0,0,1-1.117.911A3.665,3.665,0,0,1,70.217,14.127ZM70.008,8.49a1.149,1.149,0,0,0-.885.368,1.9,1.9,0,0,0-.435,1.054h2.552V9.766a1.356,1.356,0,0,0-.33-.943A1.186,1.186,0,0,0,70.008,8.49Zm5.764-1.358.057.793A2.4,2.4,0,0,1,77.8,7a1.993,1.993,0,0,1,1.625.641,2.991,2.991,0,0,1,.546,1.917V14H78.139V9.607a1.19,1.19,0,0,0-.254-.847,1.137,1.137,0,0,0-.844-.263,1.262,1.262,0,0,0-1.162.66V14H74.045V7.132Zm8.449,5.516a1.2,1.2,0,0,0,.825-.279.979.979,0,0,0,.33-.743H87.1a2.353,2.353,0,0,1-.381,1.279,2.513,2.513,0,0,1-1.025.9,3.208,3.208,0,0,1-1.438.321,2.982,2.982,0,0,1-2.323-.936,3.705,3.705,0,0,1-.851-2.587v-.121a3.663,3.663,0,0,1,.844-2.533A2.947,2.947,0,0,1,84.239,7a2.889,2.889,0,0,1,2.066.733A2.6,2.6,0,0,1,87.1,9.69h-1.72a1.25,1.25,0,0,0-.33-.866,1.23,1.23,0,0,0-1.806.133,2.7,2.7,0,0,0-.327,1.514v.19a2.735,2.735,0,0,0,.324,1.523A1.119,1.119,0,0,0,84.22,12.648ZM90.079,14H88.238V7.132h1.841ZM88.13,5.354a.9.9,0,0,1,.276-.679,1.19,1.19,0,0,1,1.5,0,.9.9,0,0,1,.279.679.9.9,0,0,1-.282.686,1.177,1.177,0,0,1-1.492,0A.9.9,0,0,1,88.13,5.354ZM95.57,14a2.037,2.037,0,0,1-.184-.616,2.22,2.22,0,0,1-1.733.743,2.439,2.439,0,0,1-1.673-.584,1.878,1.878,0,0,1-.663-1.473,1.941,1.941,0,0,1,.809-1.676,3.994,3.994,0,0,1,2.339-.59h.844V9.411a1.132,1.132,0,0,0-.244-.762.961.961,0,0,0-.771-.286,1.093,1.093,0,0,0-.727.222.755.755,0,0,0-.263.609H91.469a1.843,1.843,0,0,1,.368-1.1,2.434,2.434,0,0,1,1.041-.8A3.794,3.794,0,0,1,94.389,7a3,3,0,0,1,2.015.638,2.232,2.232,0,0,1,.746,1.793v2.977a3.284,3.284,0,0,0,.273,1.479V14Zm-1.517-1.276a1.58,1.58,0,0,0,.749-.181,1.188,1.188,0,0,0,.508-.486V10.877h-.686q-1.377,0-1.466.952l-.006.108a.734.734,0,0,0,.241.565A.937.937,0,0,0,94.052,12.724Zm9.534-4.158h.978a1.377,1.377,0,0,0,1.035-.349,1.279,1.279,0,0,0,.336-.927,1.131,1.131,0,0,0-.333-.87,1.292,1.292,0,0,0-.917-.311,1.354,1.354,0,0,0-.882.289.923.923,0,0,0-.355.752h-1.834a2.256,2.256,0,0,1,.39-1.3,2.6,2.6,0,0,1,1.092-.9,3.644,3.644,0,0,1,1.546-.324,3.456,3.456,0,0,1,2.3.7,2.393,2.393,0,0,1,.832,1.933,1.945,1.945,0,0,1-.387,1.168,2.516,2.516,0,0,1-1.016.819,2.3,2.3,0,0,1,1.165.838,2.273,2.273,0,0,1,.384,1.32,2.433,2.433,0,0,1-.9,1.974,3.611,3.611,0,0,1-2.377.743,3.424,3.424,0,0,1-2.263-.73,2.384,2.384,0,0,1-.879-1.93h1.834a1.063,1.063,0,0,0,.39.851,1.629,1.629,0,0,0,1.987-.016,1.194,1.194,0,0,0,.371-.917q0-1.384-1.523-1.384h-.971Z" transform="translate(844.723 1185)" fill="#12263f"/>
    <path id="Trazado_155646" data-name="Trazado 155646" d="M46.531,10.921a3.27,3.27,0,0,1-1.1,2.349,3.868,3.868,0,0,1-2.618.857,3.478,3.478,0,0,1-2.8-1.2A4.906,4.906,0,0,1,39,9.646V9.081a5.54,5.54,0,0,1,.47-2.349,3.52,3.52,0,0,1,1.343-1.558,4.2,4.2,0,0,1,4.605.314,3.515,3.515,0,0,1,1.13,2.406h-1.9a1.93,1.93,0,0,0-.5-1.3,1.845,1.845,0,0,0-1.3-.4,1.618,1.618,0,0,0-1.425.682,3.824,3.824,0,0,0-.486,2.117v.7a4.093,4.093,0,0,0,.454,2.19,1.588,1.588,0,0,0,1.431.692,1.88,1.88,0,0,0,1.317-.4,1.821,1.821,0,0,0,.5-1.247ZM51.641,14a2.037,2.037,0,0,1-.184-.616,2.22,2.22,0,0,1-1.733.743,2.439,2.439,0,0,1-1.673-.584,1.878,1.878,0,0,1-.663-1.473,1.941,1.941,0,0,1,.809-1.676,3.994,3.994,0,0,1,2.339-.59h.844V9.411a1.132,1.132,0,0,0-.244-.762.961.961,0,0,0-.771-.286,1.093,1.093,0,0,0-.727.222.755.755,0,0,0-.263.609H47.54a1.843,1.843,0,0,1,.368-1.1,2.434,2.434,0,0,1,1.041-.8A3.794,3.794,0,0,1,50.46,7a3,3,0,0,1,2.015.638,2.232,2.232,0,0,1,.746,1.793v2.977a3.284,3.284,0,0,0,.273,1.479V14Zm-1.517-1.276a1.58,1.58,0,0,0,.749-.181,1.188,1.188,0,0,0,.508-.486V10.877h-.686q-1.377,0-1.466.952l-.006.108a.734.734,0,0,0,.241.565A.937.937,0,0,0,50.124,12.724Zm8.62.578a2.3,2.3,0,0,1-1.879.825,2.17,2.17,0,0,1-1.685-.635,2.71,2.71,0,0,1-.594-1.86v-4.5H56.42v4.437q0,1.073.978,1.073a1.325,1.325,0,0,0,1.282-.647V7.132h1.841V14H58.794Zm6.881-1.2a.591.591,0,0,0-.333-.53,3.785,3.785,0,0,0-1.07-.346q-2.45-.514-2.45-2.082a1.887,1.887,0,0,1,.759-1.527A3.06,3.06,0,0,1,64.514,7a3.293,3.293,0,0,1,2.092.616,1.94,1.94,0,0,1,.784,1.6H65.555A.888.888,0,0,0,65.3,8.57a1.075,1.075,0,0,0-.793-.257,1.1,1.1,0,0,0-.717.209.661.661,0,0,0-.254.533.565.565,0,0,0,.289.492,2.971,2.971,0,0,0,.974.324,7.958,7.958,0,0,1,1.155.308,1.9,1.9,0,0,1,1.454,1.847,1.792,1.792,0,0,1-.806,1.52,3.478,3.478,0,0,1-2.082.581,3.632,3.632,0,0,1-1.533-.308,2.572,2.572,0,0,1-1.051-.844,1.962,1.962,0,0,1-.381-1.158h1.739a.958.958,0,0,0,.362.749,1.435,1.435,0,0,0,.9.26,1.328,1.328,0,0,0,.8-.2A.622.622,0,0,0,65.625,12.1ZM72.569,14a2.037,2.037,0,0,1-.184-.616,2.22,2.22,0,0,1-1.733.743,2.439,2.439,0,0,1-1.673-.584,1.878,1.878,0,0,1-.663-1.473,1.941,1.941,0,0,1,.809-1.676,3.994,3.994,0,0,1,2.339-.59h.844V9.411a1.132,1.132,0,0,0-.244-.762.961.961,0,0,0-.771-.286,1.093,1.093,0,0,0-.727.222.755.755,0,0,0-.263.609H68.468a1.843,1.843,0,0,1,.368-1.1,2.434,2.434,0,0,1,1.041-.8A3.794,3.794,0,0,1,71.388,7a3,3,0,0,1,2.015.638,2.232,2.232,0,0,1,.746,1.793v2.977a3.284,3.284,0,0,0,.273,1.479V14Zm-1.517-1.276a1.58,1.58,0,0,0,.749-.181,1.188,1.188,0,0,0,.508-.486V10.877h-.686q-1.377,0-1.466.952l-.006.108a.734.734,0,0,0,.241.565A.937.937,0,0,0,71.052,12.724Zm9.534-4.158h.978A1.377,1.377,0,0,0,82.6,8.217a1.279,1.279,0,0,0,.336-.927,1.131,1.131,0,0,0-.333-.87,1.292,1.292,0,0,0-.917-.311A1.354,1.354,0,0,0,80.8,6.4a.923.923,0,0,0-.355.752H78.612a2.256,2.256,0,0,1,.39-1.3,2.6,2.6,0,0,1,1.092-.9,3.644,3.644,0,0,1,1.546-.324,3.456,3.456,0,0,1,2.3.7,2.393,2.393,0,0,1,.832,1.933,1.945,1.945,0,0,1-.387,1.168,2.516,2.516,0,0,1-1.016.819,2.3,2.3,0,0,1,1.165.838,2.273,2.273,0,0,1,.384,1.32,2.433,2.433,0,0,1-.9,1.974,3.611,3.611,0,0,1-2.377.743,3.424,3.424,0,0,1-2.263-.73,2.384,2.384,0,0,1-.879-1.93h1.834a1.063,1.063,0,0,0,.39.851,1.629,1.629,0,0,0,1.987-.016,1.194,1.194,0,0,0,.371-.917Q83.081,10,81.557,10h-.971Z" transform="translate(844.723 1319.999)" fill="#12263f"/>
    <path id="Trazado_145516" data-name="Trazado 145516" d="M0,30.831V-46.394" transform="translate(795.223 1311.371)" stroke="#266999" stroke-width="2" fill="url(#linear-gradient)"/>
    <path id="Trazado_145517" data-name="Trazado 145517" d="M0,30.831V-35.878" transform="translate(795.224 1209.68) rotate(180)" stroke="#266999" stroke-width="2" fill="url(#linear-gradient)"/>
    <path id="Trazado_145518" data-name="Trazado 145518" d="M0,30.831V-35.878" transform="matrix(-0.719, -0.695, 0.695, -0.719, 876.016, 1229.688)" stroke="#266999" stroke-width="2" fill="url(#linear-gradient)"/>
    <path id="Trazado_145521" data-name="Trazado 145521" d="M0,30.831V-35.878" transform="matrix(0.719, 0.695, -0.695, 0.719, 718.8, 1289.705)" stroke="#266999" stroke-width="2" fill="url(#linear-gradient)"/>
    <path id="Trazado_145519" data-name="Trazado 145519" d="M0,0V66.709" transform="matrix(0.719, -0.695, 0.695, 0.719, 697.383, 1207.51)" stroke="#266999" stroke-width="2" fill="url(#linear-gradient)"/>
    <path id="Trazado_145520" data-name="Trazado 145520" d="M0,0V66.709" transform="matrix(-0.719, 0.695, -0.695, -0.719, 897.433, 1311.884)" stroke="#266999" stroke-width="2" fill="url(#linear-gradient)"/>
    <g id="Grupo_83428" data-name="Grupo 83428" transform="translate(792.322 1338.607)">
      <path id="Trazado_143840" data-name="Trazado 143840" d="M-355.494,974.058l-2.9,5.024-2.9-5.024Z" transform="translate(361.296 -974.058)" fill="url(#linear-gradient)"/>
    </g>
    <g id="Grupo_84441" data-name="Grupo 84441" transform="translate(798.124 1182.443) rotate(180)">
      <path id="Trazado_143840-2" data-name="Trazado 143840" d="M-355.494,974.058l-2.9,5.024-2.9-5.024Z" transform="translate(361.296 -974.058)" fill="url(#linear-gradient)"/>
    </g>
    <g id="Grupo_84442" data-name="Grupo 84442" transform="matrix(-0.719, -0.695, 0.695, -0.719, 897.021, 1212.11)">
      <path id="Trazado_143840-3" data-name="Trazado 143840" d="M-355.494,974.058l-2.9,5.024-2.9-5.024Z" transform="translate(361.296 -974.058)" fill="url(#linear-gradient)"/>
    </g>
    <g id="Grupo_84445" data-name="Grupo 84445" transform="matrix(0.719, 0.695, -0.695, 0.719, 697.794, 1307.283)">
      <path id="Trazado_143840-4" data-name="Trazado 143840" d="M-355.494,974.058l-2.9,5.024-2.9-5.024Z" transform="translate(361.296 -974.058)" fill="url(#linear-gradient)"/>
    </g>
    <g id="Grupo_84443" data-name="Grupo 84443" transform="matrix(0.719, -0.695, 0.695, 0.719, 694.305, 1208.496)">
      <path id="Trazado_143840-5" data-name="Trazado 143840" d="M5.8,5.024,2.9,0,0,5.024Z" transform="translate(0 0)" fill="url(#linear-gradient)"/>
    </g>
    <g id="Grupo_84444" data-name="Grupo 84444" transform="matrix(-0.719, 0.695, -0.695, -0.719, 900.511, 1310.897)">
      <path id="Trazado_143840-6" data-name="Trazado 143840" d="M5.8,5.024,2.9,0,0,5.024Z" transform="translate(0 0)" fill="url(#linear-gradient)"/>
    </g>
  </g>
</svg>
