<svg xmlns="http://www.w3.org/2000/svg" width="82.632" height="110" viewBox="0 0 82.632 110">
  <g id="observacion-3" transform="translate(-13.684 0)">
    <path id="Trazado_143745" data-name="Trazado 143745" d="M36.015,95.91v12.478H74.054V95.9L86.859,83.09,77.95,74.18H24.473l3.215,15.325" fill="#8ad24a"/>
    <path id="Trazado_143746" data-name="Trazado 143746" d="M74.582,79.825,64.453,90.491l-9.418-9.531-9.418,9.531L35.487,79.825" fill="#fde947"/>
    <path id="Trazado_143747" data-name="Trazado 143747" d="M87.578,57.642h.046a7.084,7.084,0,0,0,0-14.167c-.051,0-.1,0-.153,0H22.618c-.051,0-.1,0-.153,0a7.084,7.084,0,0,0,0,14.167h.046" fill="#f1b986"/>
    <path id="Trazado_143748" data-name="Trazado 143748" d="M85.949,24.98a319.52,319.52,0,0,0-61.809,0,219.114,219.114,0,0,0-1.413,38.43A18.13,18.13,0,0,0,39.994,80.6q15.05.711,30.1,0A18.13,18.13,0,0,0,87.361,63.41a219.071,219.071,0,0,0-1.413-38.43Z" fill="#f1d0a5"/>
    <path id="Trazado_143750" data-name="Trazado 143750" d="M87.471,43.477c-14.519,0-36.822-9.4-46.383-13.759-2.885-1.316-4.611-2.171-4.611-2.171S30.94,41.7,22.618,43.477c-.052,0-.1,0-.152,0a7.036,7.036,0,0,0-4.057,1.277c-2.746-19.776-5.829-32.624,1.11-36.477s11.691.9,11.691.9a75.586,75.586,0,0,1,16.528-5.9C59.126.625,74.232.025,85.815,10.073c12.16,10.55,8.876,24.513,1.656,33.4Z" fill="#617881"/>
    <path id="Trazado_143752" data-name="Trazado 143752" d="M38.834,93.577a21.407,21.407,0,0,1-6.3,4.265,6.52,6.52,0,0,1-3.556.451C16.756,96.578,18.258,77.075,18.258,65.714A14.923,14.923,0,0,1,20.2,58.278c3.377-5.99,9.975-8.553,9.975-8.553l-.662,20.142s-2.327,12.15.9,15.379Z" fill="#8ad24a"/>
    <path id="Trazado_143754" data-name="Trazado 143754" d="M30.178,49.726l-.662,20.142L18.259,65.715c0-11.359,11.92-15.989,11.92-15.989Z" fill="#f1d0a5"/>
    <path id="Trazado_143755" data-name="Trazado 143755" d="M71.255,93.578s5.573,5.573,9.859,4.715c12.217-1.715,10.717-21.219,10.717-32.579S79.91,49.725,79.91,49.725l.662,20.143s2.328,12.148-.9,15.377" fill="#8ad24a"/>
    <path id="Trazado_143756" data-name="Trazado 143756" d="M79.91,49.726l.662,20.142L91.83,65.715c0-11.359-11.92-15.989-11.92-15.989Z" fill="#f1d0a5"/>
    <path id="Trazado_143757" data-name="Trazado 143757" d="M45.749,53.23H64.34v8.983H45.749Z" fill="#0f2771"/>
    <path id="Trazado_143758" data-name="Trazado 143758" d="M26.781,62.214c0-13.73,9.873-20.368,14.952-20.368a9.2,9.2,0,0,1,9.2,9.2V62.213" fill="#0f2771"/>
    <circle id="Elipse_4269" data-name="Elipse 4269" cx="12.074" cy="12.074" r="12.074" transform="translate(26.781 50.139)" fill="#3ca8f4"/>
    <circle id="Elipse_4270" data-name="Elipse 4270" cx="6.514" cy="6.514" r="6.514" transform="translate(32.341 55.699)" fill="#b1e4f9"/>
    <path id="Trazado_143759" data-name="Trazado 143759" d="M83.308,62.214c0-13.73-9.873-20.368-14.952-20.368a9.2,9.2,0,0,0-9.2,9.2V62.213" fill="#0f2771"/>
    <circle id="Elipse_4271" data-name="Elipse 4271" cx="12.074" cy="12.074" r="12.074" transform="translate(59.16 50.139)" fill="#3ca8f4"/>
    <circle id="Elipse_4272" data-name="Elipse 4272" cx="6.514" cy="6.514" r="6.514" transform="translate(64.72 55.699)" fill="#b1e4f9"/>
    <path id="Trazado_143760" data-name="Trazado 143760" d="M38.855,70.339a8.125,8.125,0,1,0-8.125-8.125A8.135,8.135,0,0,0,38.855,70.339Zm0-13.028a4.9,4.9,0,1,1-4.9,4.9A4.908,4.908,0,0,1,38.855,57.311Z"/>
    <path id="Trazado_143761" data-name="Trazado 143761" d="M71.234,54.088a8.125,8.125,0,1,0,8.125,8.125,8.135,8.135,0,0,0-8.125-8.125Zm0,13.028a4.9,4.9,0,1,1,4.9-4.9A4.908,4.908,0,0,1,71.234,67.116Z"/>
    <path id="Trazado_143762" data-name="Trazado 143762" d="M96.316,50.558a8.708,8.708,0,0,0-5.963-8.253,28.336,28.336,0,0,0,5.167-14.853c.243-7.046-2.749-13.477-8.651-18.6A35.9,35.9,0,0,0,68.532.535,53.965,53.965,0,0,0,50.214,1.1,78.946,78.946,0,0,0,31.421,7.267a11.367,11.367,0,0,0-2.931-1.513,11.706,11.706,0,0,0-9.753,1.111,8.452,8.452,0,0,0-2.929,2.683,1.611,1.611,0,0,0,2.67,1.805A5.192,5.192,0,0,1,20.3,9.683c5.738-3.19,9.615.481,9.769.631a1.612,1.612,0,0,0,1.893.286A75.3,75.3,0,0,1,50.9,4.254a50.677,50.677,0,0,1,17.185-.527A32.722,32.722,0,0,1,84.758,11.29c11.308,9.81,8.2,22.439,1.939,30.565-18.406-.423-49.19-15.6-49.5-15.752a1.611,1.611,0,0,0-2.217.856c-1.44,3.68-6.478,13.46-12.539,14.905a8.648,8.648,0,0,0-2.745.455c-.27-1.886-.539-3.7-.8-5.474-1.266-8.542-2.266-15.29-1.914-20.131a1.611,1.611,0,0,0-3.214-.234c-.378,5.2.645,12.1,1.94,20.838.321,2.17.653,4.406.983,6.752A8.691,8.691,0,0,0,18.4,58.247a16.57,16.57,0,0,0-1.755,7.467c0,1.062-.013,2.193-.027,3.39-.067,5.718-.15,12.835,1.214,18.689,1.683,7.227,5.342,11.294,10.873,12.089a6.354,6.354,0,0,0,1.2.111,10.316,10.316,0,0,0,4.5-1.218v9.613A1.611,1.611,0,0,0,36.015,110H74.054a1.611,1.611,0,0,0,1.611-1.611V98.761a10.122,10.122,0,0,0,4.508,1.234,6.408,6.408,0,0,0,1.209-.112,12.109,12.109,0,0,0,2.359-.58,1.611,1.611,0,1,0-1.092-3.032,8.9,8.9,0,0,1-1.762.428l-.09.015c-2.8.559-7.111-2.987-8.4-4.275a1.611,1.611,0,1,0-2.279,2.279,25.048,25.048,0,0,0,2.328,1.994v10.066h-15.8V84.882l6.661,6.741a1.611,1.611,0,0,0,1.146.479h.016a1.611,1.611,0,0,0,1.152-.5L75.49,81.209A19.834,19.834,0,0,0,79.757,79.2c-.116,3.381-.859,4.538-1.227,4.906a1.611,1.611,0,1,0,2.279,2.279c1.7-1.7,2.4-5.01,2.132-10.123-.11-2.135-.368-4.1-.559-5.345l7.851-2.9c0,.367.008.739.013,1.12.09,7.762.215,18.392-3.543,23.893a1.611,1.611,0,1,0,2.661,1.817c4.331-6.34,4.2-17.1,4.1-25.748-.014-1.2-.027-2.328-.027-3.389a16.569,16.569,0,0,0-1.755-7.466,8.687,8.687,0,0,0,4.63-7.689ZM40.07,78.989a16.6,16.6,0,0,1-9.633-3.665c.06-.77.136-1.5.215-2.162a13.675,13.675,0,0,0,21.789-9.337h5.2a13.675,13.675,0,0,0,21.789,9.337c.079.659.155,1.391.215,2.162a16.6,16.6,0,0,1-9.633,3.665c-9.936.47-20.012.47-29.948,0Zm11.136,3.552-5.567,5.634L39.974,82.21Q45.569,82.474,51.206,82.541ZM25.2,54.744c.445-.389.892-.743,1.328-1.065a26.321,26.321,0,0,0-1.357,8.535,13.625,13.625,0,0,0,.808,4.631l-6.06-2.235A14.369,14.369,0,0,1,25.2,54.744ZM60.771,53.23V51.042a7.594,7.594,0,0,1,7.585-7.585c2.013,0,5.328,1.4,8.194,4.514A18.393,18.393,0,0,1,78.622,50.7a13.652,13.652,0,0,0-17.85,2.7V53.23Zm25.14-8.175c.071,2.142.112,4.3.119,6.452a25.133,25.133,0,0,0-5.039-3.07A21.014,21.014,0,0,0,76.935,43.9,59.2,59.2,0,0,0,85.911,45.055ZM71.234,72.676A10.463,10.463,0,1,1,81.7,62.213,10.475,10.475,0,0,1,71.234,72.676ZM57.549,60.6H52.54v-5.76h5.008ZM28.392,62.214A10.463,10.463,0,1,1,38.855,72.676,10.475,10.475,0,0,1,28.392,62.214ZM49.317,53.23v.175a13.652,13.652,0,0,0-17.85-2.7,18.393,18.393,0,0,1,2.071-2.731c2.866-3.118,6.181-4.514,8.194-4.514a7.594,7.594,0,0,1,7.585,7.585Zm35.6,8.983a26.318,26.318,0,0,0-1.358-8.536c.411.3.833.638,1.254,1a14.393,14.393,0,0,1,5.355,9.93l-6.06,2.235A13.614,13.614,0,0,0,84.919,62.214Zm-50.9-26.5a48.8,48.8,0,0,0,3.266-5.987A227.245,227.245,0,0,0,64.979,40.778a10.825,10.825,0,0,0-7.431,10.264v.577H52.54v-.577A10.82,10.82,0,0,0,41.732,40.235c-3.629,0-9,2.738-12.635,8.2a25.129,25.129,0,0,0-5.043,3.073c.008-2.263.052-4.536.131-6.8,3.442-1.18,6.745-4.2,9.837-8.991ZM17,50.558A5.481,5.481,0,0,1,20.942,45.3c-.1,3.095-.132,6.2-.1,9.272q-.384.452-.735.919A5.464,5.464,0,0,1,17,50.558Zm20.631,56.219V96.74a24.253,24.253,0,0,0,2.347-2.024,1.611,1.611,0,0,0-2.279-2.279c-1.288,1.288-5.6,4.838-8.4,4.275L29.2,96.7c-9.662-1.356-9.485-16.5-9.356-27.556,0-.381.009-.753.012-1.121l7.851,2.9c-.191,1.243-.448,3.209-.559,5.345-.264,5.112.433,8.424,2.132,10.123a1.611,1.611,0,0,0,2.279-2.279c-.368-.368-1.11-1.524-1.227-4.906a19.84,19.84,0,0,0,4.239,2l9.878,10.4a1.612,1.612,0,0,0,2.315.023l6.66-6.741v21.895Zm26.8-18.6-5.567-5.634q5.63-.067,11.231-.33ZM89.98,55.5q-.351-.468-.737-.921c.032-3.086,0-6.192-.1-9.271A5.471,5.471,0,0,1,89.98,55.5Z"/>
  </g>
</svg>
