<svg xmlns="http://www.w3.org/2000/svg" width="110" height="90.181" viewBox="0 0 110 90.181">
  <g id="mira" transform="translate(0 -0.107)">
    <path id="Trazado_143734" data-name="Trazado 143734" d="M55,73.394c-24.127,0-39.352-12.624-52.852-28.2C15.648,29.625,30.873,17,55,17s39.352,12.625,52.852,28.2C94.352,60.771,79.126,73.394,55,73.394Zm0,0" fill="#ffda73" fill-rule="evenodd"/>
    <path id="Trazado_143735" data-name="Trazado 143735" d="M55,73.387c16.074,0,29.184-12.663,29.184-28.189S71.074,17.008,55,17.008,25.817,29.671,25.817,45.2,38.926,73.387,55,73.387Zm0,0" fill="#3ca8f4" fill-rule="evenodd"/>
    <path id="Trazado_143736" data-name="Trazado 143736" d="M97.942,71.38a2.148,2.148,0,0,0-2.148,2.148V85.991H83.331a2.148,2.148,0,0,0,0,4.3H97.942a2.148,2.148,0,0,0,2.148-2.148V73.529A2.149,2.149,0,0,0,97.942,71.38Zm0,0" fill-rule="evenodd"/>
    <path id="Trazado_143737" data-name="Trazado 143737" d="M12.058,19.015a2.149,2.149,0,0,0,2.148-2.148V4.4H26.668a2.148,2.148,0,0,0,0-4.3H12.058A2.148,2.148,0,0,0,9.91,2.256v14.61A2.148,2.148,0,0,0,12.058,19.015Zm0,0" fill-rule="evenodd"/>
    <path id="Trazado_143738" data-name="Trazado 143738" d="M26.668,85.991H14.207V73.529a2.148,2.148,0,1,0-4.3,0V88.14a2.148,2.148,0,0,0,2.148,2.148h14.61a2.148,2.148,0,1,0,0-4.3Zm0,0" fill-rule="evenodd"/>
    <path id="Trazado_143739" data-name="Trazado 143739" d="M83.331,4.4H95.794V16.866a2.148,2.148,0,1,0,4.3,0V2.256A2.148,2.148,0,0,0,97.942.107H83.331a2.148,2.148,0,0,0,0,4.3Zm0,0" fill-rule="evenodd"/>
    <path id="Trazado_143740" data-name="Trazado 143740" d="M109.475,43.79c-2.126-2.452-4.11-4.62-6.066-6.627a2.148,2.148,0,1,0-3.077,3c1.516,1.556,3.052,3.214,4.665,5.036C97.138,54.09,88.244,62.4,76.6,67.151a29.634,29.634,0,0,0,.008-43.9,58.277,58.277,0,0,1,11.021,5.994,2.149,2.149,0,0,0,2.436-3.54A59.945,59.945,0,0,0,55,14.852a59.584,59.584,0,0,0-31.516,8.565C15.854,27.992,8.773,34.275.525,43.79a2.147,2.147,0,0,0,0,2.815c2.127,2.453,4.108,4.618,6.058,6.62a2.148,2.148,0,0,0,3.077-3C8.15,48.675,6.617,47.019,5,45.2,12.862,36.305,21.756,27.99,33.4,23.244a29.635,29.635,0,0,0-.008,43.9,58.242,58.242,0,0,1-11.028-6,2.149,2.149,0,0,0-2.436,3.54A59.949,59.949,0,0,0,55,75.543a59.593,59.593,0,0,0,31.516-8.564C94.146,62.4,101.227,56.12,109.475,46.6A2.148,2.148,0,0,0,109.475,43.79ZM27.965,45.2c0-14.359,12.128-26.041,27.035-26.041S82.035,30.839,82.035,45.2,69.907,71.238,55,71.238,27.965,59.556,27.965,45.2Zm0,0" fill-rule="evenodd"/>
    <path id="Trazado_143741" data-name="Trazado 143741" d="M55,55.254A10.061,10.061,0,1,0,44.664,45.2,10.21,10.21,0,0,0,55,55.254Zm0-15.817A5.767,5.767,0,1,1,48.961,45.2,5.911,5.911,0,0,1,55,39.437Zm0,0" fill-rule="evenodd"/>
    <path id="Trazado_143742" data-name="Trazado 143742" d="M55,64.63c11.051,0,20.042-8.717,20.042-19.432a2.148,2.148,0,1,0-4.3,0c0,8.345-7.063,15.136-15.745,15.136S39.254,53.543,39.254,45.2a2.148,2.148,0,1,0-4.3,0C34.957,55.913,43.948,64.63,55,64.63Zm0,0" fill-rule="evenodd"/>
    <path id="Trazado_143743" data-name="Trazado 143743" d="M16.506,57.639a2.148,2.148,0,1,0-2.148,2.148A2.153,2.153,0,0,0,16.506,57.639Zm0,0" fill-rule="evenodd"/>
    <path id="Trazado_143744" data-name="Trazado 143744" d="M93.487,32.749A2.148,2.148,0,1,0,95.635,30.6,2.153,2.153,0,0,0,93.487,32.749Zm0,0" fill-rule="evenodd"/>
  </g>
</svg>
