<svg xmlns="http://www.w3.org/2000/svg" width="86.624" height="86.611" viewBox="0 0 86.624 86.611">
  <g id="liderazgo" transform="translate(0.001 -0.035)" style="isolation: isolate">
    <path id="Trazado_145584" data-name="Trazado 145584" d="M216.563,155.647l4.475-11.635-12.992,11.549,2.887,4.331Z" transform="translate(-170.506 -117.997)" fill="#3ca8f4"/>
    <path id="Trazado_145585" data-name="Trazado 145585" d="M21.038,18.142H35.474a7.218,7.218,0,0,0-9.788-6.727A10.105,10.105,0,0,0,8.046,18.142Z" transform="translate(-6.595 -6.563)" fill="#f9f6ed"/>
    <g id="Grupo_84469" data-name="Grupo 84469" transform="translate(45.671 11.579)">
      <circle id="Elipse_4293" data-name="Elipse 4293" cx="7.218" cy="7.218" r="7.218" transform="translate(1.975)" fill="#3ca8f4"/>
      <path id="Trazado_145586" data-name="Trazado 145586" d="M271.433,158.044,265.182,157l1.444-7.218h14.436v-5.774h-23.1l-4.475,11.635a5.774,5.774,0,0,0,4.865,7.824l8.272.751v8.662h7.218v-12a2.887,2.887,0,0,0-2.411-2.844Z" transform="translate(-253.103 -129.576)" fill="#3ca8f4"/>
    </g>
    <path id="Trazado_145587" data-name="Trazado 145587" d="M408.046,8.012V19.561l11.549-5.774Z" transform="translate(-334.416 -6.538)" fill="#8ad24a"/>
    <g id="Grupo_84470" data-name="Grupo 84470" transform="translate(9.581 26.015)">
      <circle id="Elipse_4294" data-name="Elipse 4294" cx="7.218" cy="7.218" r="7.218" transform="translate(1.975)" fill="#fde947"/>
      <path id="Trazado_145588" data-name="Trazado 145588" d="M71.433,224.931l-6.251-1.039,1.444-5.774h7.218l10.105-5.774-2.887-4.331L72.4,212.343,63.739,210.9H57.964l-4.475,11.635a5.775,5.775,0,0,0,4.865,7.824l8.272.751v8.662h7.218v-12A2.887,2.887,0,0,0,71.433,224.931Z" transform="translate(-53.103 -196.463)" fill="#fde947"/>
    </g>
    <path id="Trazado_145589" data-name="Trazado 145589" d="M8.046,335.771v-1.444L26.813,330V318.448h23.1L62.9,304.012H93.218v31.759Z" transform="translate(-6.595 -249.125)" fill="#8ad24a"/>
    <path id="Trazado_145590" data-name="Trazado 145590" d="M218.151,248.012l-4.331,7.218L208.046,261l4.331,4.331,7.218-7.218,5.774-8.662Z" transform="translate(-170.506 -203.23)" fill="#3ca8f4"/>
    <path id="Trazado_145591" data-name="Trazado 145591" d="M18.151,328.012,13.82,335.23,8.046,341l4.331,4.331,7.218-7.218,5.774-8.662Z" transform="translate(-6.595 -268.794)" fill="#fde947"/>
    <g id="Grupo_84471" data-name="Grupo 84471" transform="translate(-0.001 0.035)">
      <path id="Trazado_145592" data-name="Trazado 145592" d="M21.7,2.961a8.661,8.661,0,0,0-2.165.289A11.549,11.549,0,0,0,.046,11.623,1.444,1.444,0,0,0,1.49,13.066H28.918a1.444,1.444,0,0,0,1.444-1.444A8.661,8.661,0,0,0,21.7,2.961ZM3.049,10.179a8.662,8.662,0,0,1,15-4.331,1.443,1.443,0,0,0,1.588.39,5.775,5.775,0,0,1,7.651,3.941H3.049Z" transform="translate(-0.037 -0.078)" fill="#3c3c48"/>
      <path id="Trazado_145593" data-name="Trazado 145593" d="M120.046,88.012h2.887V90.9h-2.887Z" transform="translate(-98.384 -72.137)" fill="#3c3c48"/>
      <path id="Trazado_145594" data-name="Trazado 145594" d="M152.046,88.012h2.887V90.9h-2.887Z" transform="translate(-124.609 -72.137)" fill="#3c3c48"/>
      <path id="Trazado_145595" data-name="Trazado 145595" d="M184.046,88.012h2.887V90.9h-2.887Z" transform="translate(-150.835 -72.137)" fill="#3c3c48"/>
      <path id="Trazado_145596" data-name="Trazado 145596" d="M75.074,41.895V13.918L85.828,8.533a1.444,1.444,0,0,0,0-2.57L74.28.189a1.444,1.444,0,0,0-2.093,1.285v23.1H61.3a8.662,8.662,0,1,0-12.232.656l.091.081L36.732,36.351l-8.084,4.1-4.1-.751a8.661,8.661,0,1,0-11.361.115v.115L8.668,51.567a7.218,7.218,0,0,0,.606,6.41,7.535,7.535,0,0,0,.78,1.011l-3.97,6.554L.426,71.185a1.444,1.444,0,0,0-.008,2.042l.008.008,4.331,4.331a1.444,1.444,0,0,0,2.042.008l.008-.008,7.218-7.218a1.441,1.441,0,0,0,.173-.231L19.741,61.8l1.92.173v5.9H20.217a1.444,1.444,0,0,0-1.444,1.444V79.717L1.133,83.759A1.444,1.444,0,0,0,.007,85.2v1.444H2.894v-.289l17.641-4.042a1.444,1.444,0,0,0,1.126-1.444V70.766H43.315a1.443,1.443,0,0,0,1.068-.476L56.956,56.33H86.622V53.443H67.855V42.891a4.331,4.331,0,0,0-3.623-4.331l-4.778-.808.924-4.518H72.186v8.662h2.887Zm0-31.21V3.813l6.871,3.436Zm-20.21,2.339A5.774,5.774,0,1,1,49.089,18.8,5.774,5.774,0,0,1,54.863,13.023Zm-7.81,18.016-2.194,5.7-4.085,3.075-1.343-2.007Zm1.371,15.187a7.653,7.653,0,0,0,2.367.635l1.776.159-4.605,6.886-6.092,6.164-2.3-2.3,4.764-4.749a2.148,2.148,0,0,0,.217-.289ZM18.774,27.459A5.774,5.774,0,1,1,13,33.233,5.774,5.774,0,0,1,18.774,27.459Zm-6.9,40.94L5.781,74.505l-2.3-2.3L8.25,67.46a2.148,2.148,0,0,0,.217-.289l3.869-6.511A7.653,7.653,0,0,0,14.7,61.3l1.776.159Zm12.675-.52V60.661a1.444,1.444,0,0,0-1.314-1.444l-8.272-.751a4.331,4.331,0,0,1-3.652-5.861l4.129-10.711H20.1l8.546,1.444a1.445,1.445,0,0,0,.881-.144L37.05,39.44l1.314,1.978-8.431,4.807H23.1a1.444,1.444,0,0,0-1.444,1.1L20.217,53.1a1.443,1.443,0,0,0,.188,1.14,1.516,1.516,0,0,0,.982.635l6.251,1.039a1.444,1.444,0,0,1,1.2,1.444V67.879ZM56.307,53.443a1.443,1.443,0,0,0-1.068.476L42.665,67.879h-10.9V57.327a4.331,4.331,0,0,0-3.623-4.259l-4.706-.794.794-3.161h6.092a1.63,1.63,0,0,0,.722-.188l10.105-5.774h.1l3.017-2.281a7.32,7.32,0,0,0,1.011,2.772,7.535,7.535,0,0,0,.78,1.011l-3.927,6.554L36.472,56.85a1.444,1.444,0,0,0-.008,2.042l.008.008L40.8,63.231a1.444,1.444,0,0,0,2.042.008l.008-.008,7.218-7.218a1.44,1.44,0,0,0,.173-.231l5.543-8.315,1.92.173v5.8h-1.4Zm2.887-23.1A1.444,1.444,0,0,0,57.751,31.5l-1.444,7.218a1.455,1.455,0,0,0,1.184,1.718l6.251,1.039a1.444,1.444,0,0,1,1.2,1.444V53.443h-4.3V46.225a1.444,1.444,0,0,0-1.314-1.444l-8.272-.751A4.331,4.331,0,0,1,47.4,38.17l4.129-10.711H72.186v2.887H59.194Z" transform="translate(0.001 -0.035)" fill="#3c3c48"/>
    </g>
  </g>
</svg>
