<svg xmlns="http://www.w3.org/2000/svg" width="106.339" height="110" viewBox="0 0 106.339 110">
  <g id="mundo" transform="translate(-5.488 -3.654)">
    <path id="Trazado_143721" data-name="Trazado 143721" d="M81.789,74.481l-3.234-3.234V62.113l-7.307-7.307V47.5L74.9,43.845V32.883l-9.134-9.134H56.633l-7.307-7.307V5.517A43.633,43.633,0,0,0,33.651,9.134h1.06l5.481,5.481v7.307L32.883,29.23v7.307l-7.307,7.307H20.1v5.481L29.23,58.46V63.94l-5.481,5.481V74.9L19.255,79.4a43.7,43.7,0,0,0,30.07,13.738V85.862l-3.654-3.654V74.9H38.364L34.71,71.248V65.767l7.307-7.307H56.633L60.378,62.2l5.389,5.389V74.9l-3.654,3.654v7.307l-2.777,2.777-2.7,2.7v1.48a42.25,42.25,0,0,0,8.495-1.955A43.519,43.519,0,0,0,84.766,77.459Z" fill="#3ca8f4"/>
    <g id="Grupo_56703" data-name="Grupo 56703">
      <path id="Trazado_143722" data-name="Trazado 143722" d="M60.378,62.2,56.633,58.46H42.018l-1.827,1.827L34.71,65.767v5.481L38.364,74.9h7.307v7.307l3.654,3.654v7.271c.6.018,1.206.037,1.827.037a41.653,41.653,0,0,0,5.481-.347v-1.48l2.7-2.7,2.777-2.777V78.555L65.767,74.9V67.594Z" fill="#8ad24a"/>
      <path id="Trazado_143723" data-name="Trazado 143723" d="M51.152,5.481c-.621,0-1.224.018-1.827.037V16.442l7.307,7.307h9.134L74.9,32.883V43.845L71.248,47.5v7.307l7.307,7.307v9.134l3.234,3.234,2.978,2.978A42.762,42.762,0,0,0,89.5,70.553,43.819,43.819,0,0,0,51.152,5.481Z" fill="#8ad24a"/>
      <path id="Trazado_143724" data-name="Trazado 143724" d="M62.113,38.364v5.481L58.46,47.5H54.806V40.191l-3.654-3.654V32.883H62.113Z" fill="#8ad24a"/>
      <path id="Trazado_143725" data-name="Trazado 143725" d="M40.191,14.615v7.307L32.883,29.23v7.307l-7.307,7.307H20.1v5.481L29.23,58.46V63.94l-5.481,5.481V74.9L19.255,79.4a43.825,43.825,0,0,1,14.4-70.261h1.06Z" fill="#8ad24a"/>
    </g>
    <path id="Trazado_143726" data-name="Trazado 143726" d="M85.972,82.629A19.333,19.333,0,0,1,80.8,87.8a20.1,20.1,0,1,1,5.17-5.17Z" fill="#fde947"/>
    <path id="Trazado_143727" data-name="Trazado 143727" d="M85.99,82.647l5.389,5.389.018.018-5.17,5.17-.018-.018L80.82,87.817,80.8,87.8a19.333,19.333,0,0,0,5.17-5.17Z" fill="#0f2771"/>
    <path id="Trazado_143728" data-name="Trazado 143728" d="M95,89.078l-2.32-2.32-1.279,1.3-5.17,5.17-1.3,1.279,2.32,2.32,2.832,2.85H90.1L93.974,95.8l3.873-3.873Z" fill="#fde947"/>
    <path id="Trazado_143733" data-name="Trazado 143733" d="M12.788,0A12.788,12.788,0,1,1,0,12.788,12.788,12.788,0,0,1,12.788,0Z" transform="translate(56.633 58.46)" fill="#90d1ff"/>
    <path id="Trazado_143729" data-name="Trazado 143729" d="M109.465,106.122l-5.17,5.17a1.827,1.827,0,0,1-2.576,0L90.1,99.674,93.974,95.8l3.873-3.873,11.619,11.619A1.827,1.827,0,0,1,109.465,106.122Z" fill="#0f2771"/>
    <path id="Trazado_143730" data-name="Trazado 143730" d="M62.113,31.057H51.152a1.827,1.827,0,0,0-1.827,1.827v3.654a1.827,1.827,0,0,0,.535,1.291l3.119,3.119V47.5a1.827,1.827,0,0,0,1.827,1.827H58.46a1.827,1.827,0,0,0,1.291-.535L63.4,45.136a1.827,1.827,0,0,0,.535-1.292V32.883a1.827,1.827,0,0,0-1.827-1.827ZM60.286,43.088,57.7,45.672H56.633V40.191A1.827,1.827,0,0,0,56.1,38.9l-3.119-3.119V34.71h7.307Z"/>
    <path id="Trazado_143731" data-name="Trazado 143731" d="M79.755,60.913a14.615,14.615,0,1,0,0,20.669A14.615,14.615,0,0,0,79.755,60.913ZM77.172,79a10.961,10.961,0,1,1,0-15.5A10.961,10.961,0,0,1,77.172,79Z"/>
    <path id="Trazado_143732" data-name="Trazado 143732" d="M110.757,102.251,93.965,85.457a1.88,1.88,0,0,0-2.583,0l-3.095-3.093A21.9,21.9,0,0,0,91.321,71,45.628,45.628,0,0,0,51.152,3.654c-.641,0-1.261.018-1.905.038a45.673,45.673,0,0,0,.022,91.266c.623.02,1.242.038,1.883.038a43.592,43.592,0,0,0,5.705-.365,44.21,44.21,0,0,0,8.362-1.876,22.15,22.15,0,0,0,4.2.4,21.922,21.922,0,0,0,11.116-3.045l3.093,3.095a1.827,1.827,0,0,0,0,2.583l16.794,16.793a3.654,3.654,0,0,0,5.166,0l5.166-5.165a3.654,3.654,0,0,0,0-5.168ZM93.17,49.325a42.018,42.018,0,0,1-2.885,15.258A21.769,21.769,0,0,0,73.074,49.66v-1.4l3.118-3.118a1.827,1.827,0,0,0,.535-1.292V32.883a1.827,1.827,0,0,0-.535-1.291l-9.135-9.135a1.827,1.827,0,0,0-1.292-.535H57.389l-6.237-6.237V7.307A42.065,42.065,0,0,1,93.17,49.325ZM53.92,55.747c-.285.285-.535.59-.8.886h-11.1a1.827,1.827,0,0,0-1.291.535l-7.308,7.308a1.827,1.827,0,0,0-.535,1.292v5.481a1.827,1.827,0,0,0,.535,1.291l3.654,3.654a1.827,1.827,0,0,0,1.292.535h5.481v5.481A1.827,1.827,0,0,0,44.38,83.5L47.5,86.619v4.518A41.627,41.627,0,0,1,21.86,79.373l3.181-3.181a1.827,1.827,0,0,0,.535-1.292V70.177l4.945-4.945a1.827,1.827,0,0,0,.535-1.292V58.46a1.827,1.827,0,0,0-.535-1.291l-8.6-8.6v-2.9h3.654a1.827,1.827,0,0,0,1.291-.535l7.308-7.308a1.827,1.827,0,0,0,.535-1.292V29.986l6.772-6.772a1.827,1.827,0,0,0,.535-1.292V14.615a1.827,1.827,0,0,0-.535-1.291L37.7,9.536A41.631,41.631,0,0,1,47.5,7.51v8.932a1.827,1.827,0,0,0,.535,1.291l7.308,7.308a1.827,1.827,0,0,0,1.292.535h8.378l8.064,8.064v9.449l-3.118,3.118a1.827,1.827,0,0,0-.535,1.292v1.838a21.847,21.847,0,0,0-15.5,6.41ZM9.134,49.325A41.97,41.97,0,0,1,34,10.992l4.366,4.379v5.795l-6.772,6.772a1.827,1.827,0,0,0-.535,1.292v6.551L24.82,42.018H20.1a1.827,1.827,0,0,0-1.827,1.827v5.481a1.827,1.827,0,0,0,.535,1.291l8.6,8.6v3.968l-4.945,4.945a1.827,1.827,0,0,0-.535,1.292v4.724L19.365,76.7A41.822,41.822,0,0,1,9.134,49.325ZM56.393,91.012a41.786,41.786,0,0,1-5.241.32v-5.47a1.827,1.827,0,0,0-.535-1.291L47.5,81.452V74.9a1.827,1.827,0,0,0-1.827-1.827H39.12l-2.583-2.583V66.523l6.237-6.237h7.689a21.88,21.88,0,0,0,8.623,30.289c-.892.17-1.787.323-2.693.437Zm.11-6.847a18.269,18.269,0,1,1,25.835,0,18.269,18.269,0,0,1-25.835,0Zm27.061,3.811c.462-.393.923-.791,1.357-1.228s.835-.893,1.228-1.357L88.8,88.04l-2.585,2.585Zm9.109,1.356,2.583,2.585L90.09,97.083,87.507,94.5Zm15.5,15.5L103.008,110,92.673,99.666,97.839,94.5l10.336,10.333Z"/>
  </g>
</svg>
