<svg xmlns="http://www.w3.org/2000/svg" width="110" height="76.267" viewBox="0 0 110 76.267">
  <g id="observacion-2" transform="translate(0 -16.866)">
    <g id="Grupo_56680" data-name="Grupo 56680">
      <path id="Trazado_143704" data-name="Trazado 143704" d="M1.756,55c7.61,11.564,19.956,20.418,34.706,24.515V30.486C21.712,34.582,9.366,43.436,1.756,55Z" fill="#f7ebd4"/>
      <path id="Trazado_143705" data-name="Trazado 143705" d="M73.539,30.486V79.515c14.75-4.1,27.1-12.951,34.706-24.515C100.634,43.436,88.289,34.582,73.539,30.486Z" fill="#f7ebd4"/>
    </g>
    <path id="Trazado_143706" data-name="Trazado 143706" d="M36.462,30.486a30.735,30.735,0,0,0,0,49.029,69.935,69.935,0,0,0,37.077,0,30.735,30.735,0,0,0,0-49.029,69.935,69.935,0,0,0-37.077,0Z" fill="#3ca8f4"/>
    <path id="Trazado_143707" data-name="Trazado 143707" d="M63.885,43.044A8.746,8.746,0,0,0,55,44.352,8.748,8.748,0,0,0,41.382,54.473l5.369,12.96A5.151,5.151,0,0,0,55,69.246a5.151,5.151,0,0,0,8.25-1.812l5.369-12.96A8.748,8.748,0,0,0,63.885,43.044Z" fill="#8ad24a"/>
    <g id="Grupo_56681" data-name="Grupo 56681">
      <circle id="Elipse_4265" data-name="Elipse 4265" cx="1.755" cy="1.755" r="1.755" transform="translate(58.915 49.549)"/>
      <path id="Trazado_143708" data-name="Trazado 143708" d="M64.556,41.422a10.429,10.429,0,0,0-7.8-.088V37.046a1.755,1.755,0,0,0-3.511,0v4.287A10.5,10.5,0,0,0,39.76,55.145l5.368,12.961A6.908,6.908,0,0,0,55,71.418a6.945,6.945,0,0,0,.852.423,6.9,6.9,0,0,0,9.02-3.736l5.369-12.96A10.516,10.516,0,0,0,64.556,41.422ZM67,53.8l-5.369,12.96a3.4,3.4,0,0,1-5.437,1.195,1.755,1.755,0,0,0-2.383,0,3.393,3.393,0,0,1-5.437-1.195L43,53.8a6.992,6.992,0,0,1,10.887-8.09,1.865,1.865,0,0,0,.243.165l.017.01A1.73,1.73,0,0,0,54.4,46l.037.014a1.713,1.713,0,0,0,.254.065l.044.007a1.6,1.6,0,0,0,.533,0l.046-.007a1.7,1.7,0,0,0,.252-.065L55.6,46a1.769,1.769,0,0,0,.246-.111l.019-.011a1.738,1.738,0,0,0,.235-.16,7.04,7.04,0,0,1,4.438-1.585A7,7,0,0,1,67,53.8Z"/>
      <path id="Trazado_143709" data-name="Trazado 143709" d="M86.976,33.877a70.662,70.662,0,0,0-63.952,0A60.33,60.33,0,0,0,.289,54.035a1.756,1.756,0,0,0,0,1.93A60.329,60.329,0,0,0,23.024,76.123a70.662,70.662,0,0,0,63.952,0,60.329,60.329,0,0,0,22.735-20.158,1.755,1.755,0,0,0,0-1.93A60.326,60.326,0,0,0,86.976,33.877ZM3.873,55A57.94,57.94,0,0,1,29.586,34.738a32.548,32.548,0,0,0,0,40.524A57.944,57.944,0,0,1,3.873,55ZM37.2,77.868a28.971,28.971,0,0,1,0-45.736,67.361,67.361,0,0,1,35.591,0,28.972,28.972,0,0,1,0,45.736,67.362,67.362,0,0,1-35.591,0Zm43.21-2.606a32.549,32.549,0,0,0,0-40.524A57.939,57.939,0,0,1,106.127,55,57.94,57.94,0,0,1,80.414,75.262Z"/>
      <path id="Trazado_143710" data-name="Trazado 143710" d="M89.668,81.318a76.511,76.511,0,0,1-69.336,0,1.755,1.755,0,0,0-1.615,3.117,80.021,80.021,0,0,0,72.566,0,1.755,1.755,0,1,0-1.615-3.117Z"/>
      <path id="Trazado_143711" data-name="Trazado 143711" d="M1.755,41.945a1.75,1.75,0,0,0,1.254-.527A67.966,67.966,0,0,1,20.332,28.682,75.616,75.616,0,0,1,55,20.377a76.7,76.7,0,0,1,29.461,5.87,1.755,1.755,0,1,0,1.36-3.236A80.248,80.248,0,0,0,55,16.867a79.138,79.138,0,0,0-36.283,8.7A71.481,71.481,0,0,0,.5,38.96a1.755,1.755,0,0,0,1.253,2.984Z"/>
      <path id="Trazado_143712" data-name="Trazado 143712" d="M90.655,29.205a67.8,67.8,0,0,1,16.337,12.213A1.755,1.755,0,1,0,109.5,38.96a71.313,71.313,0,0,0-17.18-12.847,1.755,1.755,0,0,0-1.663,3.092Z"/>
    </g>
  </g>
</svg>
