<svg id="conversacion" xmlns="http://www.w3.org/2000/svg" width="76.467" height="76.467" viewBox="0 0 76.467 76.467">
  <path id="Trazado_143895" data-name="Trazado 143895" d="M47.387,30.461,40.7,23.777v-7.8A5.974,5.974,0,0,0,34.73,10H15.974A5.974,5.974,0,0,0,10,15.974V29.117a5.974,5.974,0,0,0,5.974,5.974H34.73a5.975,5.975,0,0,0,5.82-4.63Z" transform="translate(-8.507 -8.507)" fill="#fde947"/>
  <path id="Trazado_143896" data-name="Trazado 143896" d="M251.667,338.63l6.683,6.683v7.8a5.974,5.974,0,0,0,5.974,5.974H283.08a5.974,5.974,0,0,0,5.974-5.974V339.974A5.974,5.974,0,0,0,283.08,334H264.324a5.975,5.975,0,0,0-5.82,4.63Z" transform="translate(-214.081 -284.117)" fill="#8ad24a"/>
  <path id="Trazado_143897" data-name="Trazado 143897" d="M34.385,376.426H22.374A12.374,12.374,0,0,0,10,388.8v6.381H46.759V388.8A12.374,12.374,0,0,0,34.385,376.426Z" transform="translate(-8.507 -320.207)" fill="#3ca8f4"/>
  <path id="Trazado_143898" data-name="Trazado 143898" d="M100.868,376.426l-6.856,6.856-6.856-6.856Z" transform="translate(-74.139 -320.207)" fill="#fff"/>
  <path id="Trazado_143899" data-name="Trazado 143899" d="M85.073,232.1H95.09v4.971a4.669,4.669,0,0,1-4.669,4.669H78.916v-3.483A6.157,6.157,0,0,1,85.073,232.1Z" transform="translate(-67.13 -197.433)" fill="#091946"/>
  <path id="Trazado_143900" data-name="Trazado 143900" d="M95.089,296.642v3.829A8.087,8.087,0,0,1,87,308.558h0a8.087,8.087,0,0,1-8.087-8.087v-3.829Z" transform="translate(-67.129 -252.339)" fill="#ffcdac"/>
  <path id="Trazado_143901" data-name="Trazado 143901" d="M280.259,154.329H268.248A12.374,12.374,0,0,0,255.874,166.7v6.381h36.759V166.7A12.374,12.374,0,0,0,280.259,154.329Z" transform="translate(-217.659 -131.28)" fill="#0f2771"/>
  <path id="Trazado_143902" data-name="Trazado 143902" d="M346.741,154.329l-6.856,6.856-6.856-6.856Z" transform="translate(-283.291 -131.28)" fill="#fff"/>
  <path id="Trazado_143903" data-name="Trazado 143903" d="M330.946,10h10.017v4.971a4.669,4.669,0,0,1-4.669,4.669H324.789V16.157A6.157,6.157,0,0,1,330.946,10Z" transform="translate(-276.282 -8.507)" fill="#ffc870"/>
  <path id="Trazado_143904" data-name="Trazado 143904" d="M340.962,74.546v3.829a8.087,8.087,0,0,1-8.087,8.087h0a8.087,8.087,0,0,1-8.087-8.087V74.546Z" transform="translate(-276.281 -63.413)" fill="#ffcdac"/>
  <path id="Trazado_143905" data-name="Trazado 143905" d="M27.14,243.71a1.494,1.494,0,0,0-.33-.054,9.544,9.544,0,0,0,2.643-6.6V229.2a1.509,1.509,0,0,0-.017-.211c.01-.142.017-.285.017-.429V223.59A1.493,1.493,0,0,0,27.96,222.1H17.943a7.659,7.659,0,0,0-7.65,7.65v7.312a9.544,9.544,0,0,0,2.643,6.6,1.491,1.491,0,0,0-.329.054A13.885,13.885,0,0,0,0,257.519V263.9a1.493,1.493,0,0,0,1.493,1.494H38.252a1.493,1.493,0,0,0,1.493-1.494v-6.381A13.885,13.885,0,0,0,27.14,243.71Zm-13.86-8.987H23.291a6.123,6.123,0,0,0,3.175-.883v3.218a6.593,6.593,0,1,1-13.187,0Zm9.844,11.916-3.251,3.251-3.251-3.251ZM13.28,229.747a4.668,4.668,0,0,1,4.663-4.663h8.524v3.478a3.179,3.179,0,0,1-3.175,3.175H13.28v-1.99Zm23.479,32.66H2.987V259.42h6.2a1.493,1.493,0,1,0,0-2.987H3.041a10.9,10.9,0,0,1,9.447-9.7l6.328,6.328a1.493,1.493,0,0,0,2.112,0l6.328-6.328a10.894,10.894,0,0,1,9.5,10.79v4.887Z" transform="translate(0 -188.927)"/>
  <path id="Trazado_143906" data-name="Trazado 143906" d="M273.012,21.614a1.5,1.5,0,0,0-.33-.054,9.544,9.544,0,0,0,2.643-6.6V7.1a1.509,1.509,0,0,0-.017-.211c.01-.142.017-.285.017-.429V1.493A1.493,1.493,0,0,0,273.832,0H263.815a7.659,7.659,0,0,0-7.65,7.65v7.312a9.544,9.544,0,0,0,2.643,6.6,1.5,1.5,0,0,0-.33.054,13.886,13.886,0,0,0-12.606,13.809V41.8a1.493,1.493,0,0,0,1.493,1.493h12.017a1.493,1.493,0,1,0,0-2.987H248.859V35.423a10.894,10.894,0,0,1,9.5-10.79l6.328,6.328a1.493,1.493,0,0,0,2.112,0l6.328-6.328a10.894,10.894,0,0,1,9.5,10.79V40.31h-11a1.493,1.493,0,1,0,0,2.987h12.5a1.493,1.493,0,0,0,1.493-1.493V35.423A13.886,13.886,0,0,0,273.012,21.614Zm-13.86-6.651V12.627h10.012a6.124,6.124,0,0,0,3.175-.883v3.218a6.593,6.593,0,0,1-13.187,0Zm0-7.312a4.668,4.668,0,0,1,4.663-4.663h8.524V6.465a3.179,3.179,0,0,1-3.175,3.175H259.152V7.65Zm6.593,20.143-3.251-3.251H269Z" transform="translate(-209.151)"/>
  <path id="Trazado_143907" data-name="Trazado 143907" d="M371.489,272.449a1.493,1.493,0,1,0-1.056.438A1.5,1.5,0,0,0,371.489,272.449Z" transform="translate(-313.839 -229.591)"/>
  <path id="Trazado_143908" data-name="Trazado 143908" d="M7.467,28.078H26.223a7.425,7.425,0,0,0,6.91-4.63h5.748a1.494,1.494,0,0,0,1.056-2.55l-6.246-6.246V7.467A7.476,7.476,0,0,0,26.223,0H7.467A7.476,7.476,0,0,0,0,7.467V20.61A7.476,7.476,0,0,0,7.467,28.078ZM2.987,7.467a4.486,4.486,0,0,1,4.48-4.48H26.223a4.486,4.486,0,0,1,4.48,4.48v7.8a1.494,1.494,0,0,0,.437,1.056l4.134,4.134H32.043a1.494,1.494,0,0,0-1.456,1.159,4.456,4.456,0,0,1-4.365,3.471H7.467a4.486,4.486,0,0,1-4.48-4.48Z"/>
  <path id="Trazado_143909" data-name="Trazado 143909" d="M274.573,324H255.817a7.425,7.425,0,0,0-6.91,4.63H243.16a1.494,1.494,0,0,0-1.056,2.55l6.246,6.246v7.185a7.476,7.476,0,0,0,7.467,7.467h18.756a7.476,7.476,0,0,0,7.467-7.467V331.467A7.476,7.476,0,0,0,274.573,324Zm4.481,20.61a4.486,4.486,0,0,1-4.481,4.48H255.817a4.486,4.486,0,0,1-4.48-4.48v-7.8a1.494,1.494,0,0,0-.437-1.056l-4.134-4.134H250a1.494,1.494,0,0,0,1.456-1.159,4.456,4.456,0,0,1,4.365-3.471h18.756a4.486,4.486,0,0,1,4.481,4.48Z" transform="translate(-205.574 -275.611)"/>
  <path id="Trazado_143910" data-name="Trazado 143910" d="M382.365,388.9l-3.97,3.97-1.846-1.846a1.494,1.494,0,0,0-2.112,2.112l2.9,2.9a1.493,1.493,0,0,0,2.112,0l5.026-5.026a1.493,1.493,0,0,0-2.112-2.112Z" transform="translate(-318.143 -330.447)"/>
  <path id="Trazado_143911" data-name="Trazado 143911" d="M90.488,40.7a1.493,1.493,0,0,0,1.493-1.493,2.191,2.191,0,1,1,2.673,2.138,2.508,2.508,0,0,0-1.975,2.459v.8a1.493,1.493,0,1,0,2.987,0V44.17a5.179,5.179,0,1,0-6.672-4.96A1.494,1.494,0,0,0,90.488,40.7Z" transform="translate(-75.703 -28.949)"/>
  <path id="Trazado_143912" data-name="Trazado 143912" d="M115.163,133.09a1.494,1.494,0,1,0,1.056.438A1.5,1.5,0,0,0,115.163,133.09Z" transform="translate(-96.693 -113.213)"/>
  <path id="Trazado_143913" data-name="Trazado 143913" d="M92.993,452a1.494,1.494,0,1,0,1.056.438A1.5,1.5,0,0,0,92.993,452Z" transform="translate(-77.835 -384.494)"/>
</svg>
