<svg xmlns="http://www.w3.org/2000/svg" width="74.569" height="92.454" viewBox="0 0 74.569 92.454">
  <g id="anfitrion" transform="translate(-49.522)">
    <g id="Grupo_83444" data-name="Grupo 83444" transform="translate(50.876 1.354)">
      <g id="Grupo_83442" data-name="Grupo 83442" transform="translate(10.04 39.745)">
        <path id="Trazado_143870" data-name="Trazado 143870" d="M112.624,261.243v-17.52a7.223,7.223,0,0,1,5.261-6.952l11.025-3.111,6.614-6.057h5.644l6.948,6.1,7.438,2.079,3.57,1.359c3.121.872,3.473,3.355,3.473,6.6v17.506Z" transform="translate(-112.624 -227.603)" fill="#0f2771"/>
      </g>
      <g id="Grupo_83443" data-name="Grupo 83443" transform="translate(52.971 47.924)">
        <path id="Trazado_143871" data-name="Trazado 143871" d="M359.217,280.854v17.507H353.8V279.049a7.225,7.225,0,0,0-3.431-6.149l3.57,1A7.221,7.221,0,0,1,359.217,280.854Z" transform="translate(-350.369 -272.9)" fill="#0f2771"/>
      </g>
      <path id="Trazado_143872" data-name="Trazado 143872" d="M134.5,437.1H78.931a1.806,1.806,0,0,1-1.806-1.806V422.247h59.183v13.047A1.806,1.806,0,0,1,134.5,437.1Z" transform="translate(-73.495 -347.354)" fill="#8ad24a"/>
      <path id="Trazado_143873" data-name="Trazado 143873" d="M393.9,422.25V435.3a1.805,1.805,0,0,1-1.806,1.806h-7.223a1.805,1.805,0,0,0,1.806-1.806V422.25Z" transform="translate(-325.668 -347.357)" fill="#8ad24a"/>
      <path id="Trazado_143874" data-name="Trazado 143874" d="M234.5,232.713l-.781,1.348.262,1.581-2.572,14.524-2.636-1.806-3.352,1.806-2.553-14.359.186-2-.724-1.027,1.372-16.493h9.358Z" transform="translate(-192.48 -178.586)" fill="#f2fbff"/>
      <path id="Trazado_143875" data-name="Trazado 143875" d="M218.934,214.568h13.2v10.2h-13.2Z" transform="translate(-189.697 -177.177)" fill="#f6a96c"/>
      <path id="Trazado_143876" data-name="Trazado 143876" d="M242.431,326.237l-2.982,14.024h5.988Z" transform="translate(-206.507 -268.681)" fill="#3ca8f4"/>
      <path id="Trazado_143877" data-name="Trazado 143877" d="M247.418,282.9l.6,2.263-2.3,4.325-2.256-4.264.592-2.295,1.652-1.961.019-.018.019.018Z" transform="translate(-209.804 -231.573)" fill="#3ca8f4"/>
      <path id="Trazado_143878" data-name="Trazado 143878" d="M233.859,270.95l-.146,6.555-.518,2.929-3.284-3.465-2.282-4.213-2.269,4.274-3.28,3.568-.538-3.026-.173-6.622Z" transform="translate(-191.692 -223.378)" fill="#dff6fd"/>
      <path id="Trazado_143879" data-name="Trazado 143879" d="M121.658,410.526H58.827a1.806,1.806,0,0,1-1.806-1.806V405.7a1.806,1.806,0,0,1,1.806-1.806h62.832a1.806,1.806,0,0,1,1.806,1.806v3.015A1.806,1.806,0,0,1,121.658,410.526Z" transform="translate(-57.021 -332.32)" fill="#fde947"/>
      <path id="Trazado_143880" data-name="Trazado 143880" d="M243.716,274.706l-1.2,2.264-1.617-1.707a.9.9,0,0,0-1.32.01l-1.615,1.756-1.213-2.3,3.458-3.767.018-.018.018.018Z" transform="translate(-204.295 -223.378)" fill="#3ca8f4"/>
      <path id="Trazado_143881" data-name="Trazado 143881" d="M414.008,405.706v3.016a1.806,1.806,0,0,1-1.806,1.806h-7.223a1.806,1.806,0,0,0,1.806-1.806v-3.016a1.806,1.806,0,0,0-1.806-1.806H412.2A1.806,1.806,0,0,1,414.008,405.706Z" transform="translate(-342.147 -332.32)" fill="#fde947"/>
      <path id="Trazado_143882" data-name="Trazado 143882" d="M205.729,225.614l6.674,8.164.019.022-.019.019-6.061,6.6-3.523-8.392Z" transform="translate(-176.492 -186.228)" fill="#f2fbff"/>
      <path id="Trazado_143883" data-name="Trazado 143883" d="M262.51,225.614l-6.492,8.164L256,233.8l.019.019,6.072,6.536,3.512-8.281Z" transform="translate(-220.069 -186.228)" fill="#f2fbff"/>
      <path id="Trazado_143884" data-name="Trazado 143884" d="M325.924,99.868l-2.5,1.806v9.369h2.5a4.685,4.685,0,0,0,2.4-8.706C327.625,101.916,326.8,99.868,325.924,99.868Z" transform="translate(-275.315 -83.189)" fill="#f6a96c"/>
      <path id="Trazado_143885" data-name="Trazado 143885" d="M153.454,99.868l2.5,1.806v9.369h-2.5a4.685,4.685,0,0,1-2.4-8.707C151.755,101.915,152.577,99.868,153.454,99.868Z" transform="translate(-132.203 -83.189)" fill="#ffbd86"/>
      <path id="Trazado_143886" data-name="Trazado 143886" d="M194.845,86.121a14.535,14.535,0,0,1-1.806.24A13.368,13.368,0,0,1,181.48,73.117V66.68a13.368,13.368,0,0,1,11.567-13.245,14.536,14.536,0,0,1,1.8.241c7.381,0,11.559,5.623,11.559,13v6.437C206.4,80.5,202.226,86.121,194.845,86.121Z" transform="translate(-159.006 -45.13)" fill="#fed2a4"/>
      <path id="Trazado_143887" data-name="Trazado 143887" d="M260.661,66.194v6.437A13.366,13.366,0,0,1,247.295,86a13.538,13.538,0,0,1-1.806-.121,13.368,13.368,0,0,0,11.56-13.243V66.194a13.366,13.366,0,0,0-11.56-13.243,13.539,13.539,0,0,1,1.806-.121,13.363,13.363,0,0,1,13.366,13.364Z" transform="translate(-211.457 -44.645)" fill="#ffbd86"/>
      <path id="Trazado_143888" data-name="Trazado 143888" d="M180.655,7.861a2.185,2.185,0,0,0-1.661.521c-.109.113-.245.006-.389.039a.775.775,0,0,1-.721-.2A2.527,2.527,0,0,0,176.11,7.5a14.7,14.7,0,0,0-14.7,14.7v4.45a4.645,4.645,0,0,1,2.4-.663h1.575a13.134,13.134,0,0,1,.547-1.759.9.9,0,0,1,.843-.574h4.168a7.707,7.707,0,0,0,7.546-6.145,7.707,7.707,0,0,0,7.546,6.145h2.307l1.679-1.806a.9.9,0,0,1,.843.575,13.207,13.207,0,0,1,.546,1.759h1.757c.878,0-.106.241.6.663V22.416C193.765,14.178,188.893,7.861,180.655,7.861Z" transform="translate(-142.561 -7.5)" fill="#918291"/>
      <path id="Trazado_143889" data-name="Trazado 143889" d="M273.588,22.415v4.233a4.642,4.642,0,0,0-2.4-.663h-1.759a13.149,13.149,0,0,0-.545-1.759.9.9,0,0,0-.842-.576h-1.676V22.415a14.922,14.922,0,0,0-9.746-13.994.783.783,0,0,0,.39-.218,2.311,2.311,0,0,1,1.661-.7,14.917,14.917,0,0,1,14.917,14.915Z" transform="translate(-220.577 -7.5)" fill="#7a6d79"/>
    </g>
    <g id="Grupo_83445" data-name="Grupo 83445" transform="translate(49.522 0)">
      <path id="Trazado_143890" data-name="Trazado 143890" d="M215.308,131.434a1.354,1.354,0,0,0-1.354,1.354v1.72a1.354,1.354,0,1,0,2.709,0v-1.72A1.354,1.354,0,0,0,215.308,131.434Z" transform="translate(-184.262 -107.7)"/>
      <path id="Trazado_143891" data-name="Trazado 143891" d="M284.4,135.863a1.354,1.354,0,0,0,1.354-1.354v-1.72a1.354,1.354,0,1,0-2.709,0v1.72A1.354,1.354,0,0,0,284.4,135.863Z" transform="translate(-240.878 -107.7)"/>
      <path id="Trazado_143892" data-name="Trazado 143892" d="M240.423,189.372a1.354,1.354,0,1,0-.954-2.535,6.049,6.049,0,0,1-4.61.015,1.354,1.354,0,1,0-1.028,2.506,8.505,8.505,0,0,0,3.253.651,9.445,9.445,0,0,0,3.339-.637Z" transform="translate(-199.861 -153.027)"/>
      <path id="Trazado_143893" data-name="Trazado 143893" d="M94.2,55.878l2.991-7.054,9.862,2.757a5.888,5.888,0,0,1,4.289,5.652v3.759a1.354,1.354,0,1,0,2.709,0V57.233a8.605,8.605,0,0,0-6.268-8.26L97.366,46.06,95.136,41.4a14.719,14.719,0,0,0,6.244-10.841h.105A6.037,6.037,0,0,0,105.241,19.8V16.27A16.289,16.289,0,0,0,88.97,0a3.641,3.641,0,0,0-2.237.759A3.864,3.864,0,0,0,84.425,0,16.05,16.05,0,0,0,68.372,16.052V19.8A6.037,6.037,0,0,0,72.051,30.56a14.719,14.719,0,0,0,6.268,10.86l-2.088,4.6-10.42,2.94a8.609,8.609,0,0,0-6.248,8.255V71.579h-6.88a3.164,3.164,0,0,0-3.16,3.16v3.015a3.164,3.164,0,0,0,3.16,3.16h.47v8.38a3.164,3.164,0,0,0,3.16,3.16h41.8a1.354,1.354,0,1,0,0-2.709h-41.8a.452.452,0,0,1-.451-.451V80.915h8.12a1.354,1.354,0,1,0,0-2.709h-11.3a.452.452,0,0,1-.451-.451V74.74a.452.452,0,0,1,.451-.451h68.249a.452.452,0,0,1,.451.451v3.015a.452.452,0,0,1-.451.451H71.845a1.354,1.354,0,1,0,0,2.709h45.907v8.379a.452.452,0,0,1-.451.451H105.977a1.354,1.354,0,1,0,0,2.709H117.3a3.164,3.164,0,0,0,3.16-3.16V80.915h.47a3.164,3.164,0,0,0,3.16-3.16V74.74a3.164,3.164,0,0,0-3.16-3.16h-6.88V66.895a1.354,1.354,0,1,0-2.709,0V71.58h-7.716V65.46a1.354,1.354,0,0,0-2.709,0v6.12h-9.5Zm-7.388-4.958L88.649,52.9,86.8,56.378l-1.828-3.455Zm4.634,4.988L89.68,65.882l-1.4-6.516L90.6,55ZM81.158,53.076l-2.477-5.9,1.765-3.891,4.568,5.588Zm1.873,1.965,2.288,4.325-1.382,6.5-1.759-9.894ZM86.806,65.4l1.325,6.184H85.491Zm5.661-12.368-3.874-4.17,4.437-5.58,1.894,3.956Zm9.018-25.173h-.05V22.9a14.9,14.9,0,0,0-.1-1.711h.15a3.3,3.3,0,0,1,1.7.469l.038.02.03.021a3.331,3.331,0,0,1-1.772,6.151Zm-30.4-11.8A13.342,13.342,0,0,1,84.425,2.709a1.175,1.175,0,0,1,.826.338,2.108,2.108,0,0,0,1.486.6h.028A2.161,2.161,0,0,0,88.278,3a.96.96,0,0,1,.692-.293A13.577,13.577,0,0,1,102.532,16.27v2.306a6.052,6.052,0,0,0-1.048-.091h-.726q-.142-.452-.314-.895a2.272,2.272,0,0,0-2.105-1.439H94.353a6.368,6.368,0,0,1-6.22-5.063,1.354,1.354,0,0,0-2.653,0,6.369,6.369,0,0,1-6.22,5.063H75.093a2.272,2.272,0,0,0-2.1,1.438q-.172.443-.315.9h-.544a6.053,6.053,0,0,0-1.048.091ZM68.8,24.524a3.314,3.314,0,0,1,1.583-2.836l.016-.011.027-.014a3.3,3.3,0,0,1,1.671-.468A14.874,14.874,0,0,0,72,22.9v4.943A3.331,3.331,0,0,1,68.8,24.524ZM74.7,29.341V22.9a12.1,12.1,0,0,1,.29-2.637c.006-.025.009-.05.013-.075s.011-.029.014-.044A11.767,11.767,0,0,1,75.4,18.86H79.26a9.1,9.1,0,0,0,7.546-4.052,9.1,9.1,0,0,0,7.546,4.052h3.675a11.891,11.891,0,0,1,.382,1.289c0,.017.011.032.016.049s.009.06.015.09a12.094,12.094,0,0,1,.285,2.616v6.437a12.011,12.011,0,1,1-24.021,0ZM86.715,44.06a14.748,14.748,0,0,0,2.388-.2L86.793,46.77l-2.36-2.887A14.76,14.76,0,0,0,86.715,44.06ZM79.433,56.008,82.2,71.579H72.7V65.46a1.354,1.354,0,0,0-2.709,0v6.12H62.271V57.219a5.89,5.89,0,0,1,4.275-5.648l9.873-2.786Z" transform="translate(-49.522 0)"/>
    </g>
  </g>
</svg>
