<svg xmlns="http://www.w3.org/2000/svg" width="99.044" height="110" viewBox="0 0 99.044 110">
  <g id="lupa-2" transform="translate(-0.107)">
    <path id="Trazado_143763" data-name="Trazado 143763" d="M72.771,61.147l10.05,12.9L84,75.6l1.5,1.964,2.373,3.1,4.063,5.318L95.8,91.043a11.385,11.385,0,0,1-19.069,12.249l-21.994-28.1" fill="#fde947"/>
    <path id="Trazado_143764" data-name="Trazado 143764" d="M78.179,40.118A37.954,37.954,0,1,1,40.225,2.164,37.954,37.954,0,0,1,78.179,40.118Zm0,0" fill="#3ca8f4"/>
    <path id="Trazado_143765" data-name="Trazado 143765" d="M67.073,39.968A26.845,26.845,0,1,1,40.236,13.131,26.838,26.838,0,0,1,67.073,39.968Zm0,0" fill="#fff"/>
    <path id="Trazado_143766" data-name="Trazado 143766" d="M40.091,51.946C30.2,51.913,23.015,39.993,23.015,39.993S30.2,28.04,40.091,28.04,57.167,39.993,57.167,39.993,49.976,51.979,40.091,51.946Zm0,0" fill="#ece9e8"/>
    <path id="Trazado_143767" data-name="Trazado 143767" d="M44.953,39.993a4.862,4.862,0,1,1-4.862-4.862A4.862,4.862,0,0,1,44.953,39.993Zm0,0" fill="#8ad24a"/>
    <path id="Trazado_143768" data-name="Trazado 143768" d="M96.33,88.328,95.1,86.723a2.163,2.163,0,1,0-3.438,2.627l1.226,1.606a9.128,9.128,0,0,1-1.212,12.521c-.086.072-.172.143-.26.212a9.22,9.22,0,0,1-12.941-1.52L58.119,76.016a40.4,40.4,0,0,0,14.165-11.81l8.854,11.368.527.69A2.164,2.164,0,1,0,85.1,73.637l-.54-.706L74.817,60.414a40.072,40.072,0,1,0-20.8,17.378l21.053,27.047a13.459,13.459,0,0,0,9.048,5.066,13.805,13.805,0,0,0,1.617.1,13.456,13.456,0,0,0,8.362-2.911q.194-.154.38-.311A13.453,13.453,0,0,0,96.33,88.328ZM30.147,74.47a35.822,35.822,0,1,1,10.078,1.438A35.673,35.673,0,0,1,30.147,74.47Zm0,0"/>
    <path id="Trazado_143769" data-name="Trazado 143769" d="M40.236,10.967a28.867,28.867,0,0,0-10.485,1.954,2.164,2.164,0,1,0,1.565,4.034A24.674,24.674,0,1,1,19.159,27.132a2.164,2.164,0,1,0-3.693-2.254A29,29,0,1,0,40.236,10.967Zm0,0"/>
    <path id="Trazado_143770" data-name="Trazado 143770" d="M86.487,82.87A2.164,2.164,0,0,0,90.5,81.246l-.079-.194a2.164,2.164,0,0,0-4.012,1.623Zm0,0"/>
    <path id="Trazado_143771" data-name="Trazado 143771" d="M21.016,20.187a2.164,2.164,0,0,0,4.012-1.623l-.079-.195a2.164,2.164,0,0,0-4.012,1.624Zm0,0"/>
    <path id="Trazado_143772" data-name="Trazado 143772" d="M21.162,41.111c.319.529,7.944,12.963,18.921,13h.048c10.964,0,18.572-12.472,18.891-13a2.164,2.164,0,0,0,0-2.228c-.32-.531-7.947-13-18.93-13s-18.611,12.471-18.931,13A2.164,2.164,0,0,0,21.162,41.111ZM40.091,30.2c6.872,0,12.51,7.012,14.476,9.79-1.961,2.781-7.583,9.788-14.436,9.788H40.1c-6.873-.023-12.512-7.015-14.481-9.791C27.585,37.209,33.222,30.2,40.091,30.2Zm0,0"/>
    <path id="Trazado_143773" data-name="Trazado 143773" d="M40.091,47.019a7.026,7.026,0,1,0-7.026-7.026A7.034,7.034,0,0,0,40.091,47.019Zm0-9.724a2.7,2.7,0,1,1-2.7,2.7A2.7,2.7,0,0,1,40.091,37.295Zm0,0"/>
  </g>
</svg>
