<svg xmlns="http://www.w3.org/2000/svg" width="561.386" height="315.449" viewBox="0 0 561.386 315.449">
  <g id="Grupo_86216" data-name="Grupo 86216" transform="translate(-518.669 -114.999)">
    <path id="Trazado_145283" data-name="Trazado 145283" d="M427.781,126.1a6.472,6.472,0,0,0,1.991,4.683l-4.323,4.323a12.622,12.622,0,0,1,8.845-21.629v6.111A6.514,6.514,0,0,0,427.781,126.1Z" transform="translate(331.021 1.523)" fill="#8ad24a"/>
    <path id="Trazado_145284" data-name="Trazado 145284" d="M446.918,126.1h-6.111a6.514,6.514,0,0,0-6.513-6.512v-6.111A12.623,12.623,0,0,1,446.918,126.1Z" transform="translate(331.021 1.523)" fill="#fde947"/>
    <path id="Trazado_145285" data-name="Trazado 145285" d="M446.918,126.1a12.623,12.623,0,0,1-21.469,9.006l4.323-4.323a6.51,6.51,0,0,0,11.035-4.683Z" transform="translate(331.021 1.523)" fill="#90d1ff"/>
    <path id="Trazado_148653" data-name="Trazado 148653" d="M.247,0H38.913a.247.247,0,0,1,.247.247V1.384a.247.247,0,0,1-.247.247H.247A.247.247,0,0,1,0,1.384V.247A.247.247,0,0,1,.247,0Z" transform="translate(782.951 118.648)" fill="#93ff33"/>
    <path id="Trazado_148654" data-name="Trazado 148654" d="M.247,0H38.913a.247.247,0,0,1,.247.247V1.384a.247.247,0,0,1-.247.247H.247A.247.247,0,0,1,0,1.384V.247A.247.247,0,0,1,.247,0Z" transform="translate(822.111 125.719) rotate(180)" fill="#93ff33"/>
    <path id="Trazado_148655" data-name="Trazado 148655" d="M.247,0H38.913a.247.247,0,0,1,.247.247V1.384a.247.247,0,0,1-.247.247H.247A.247.247,0,0,1,0,1.384V.247A.247.247,0,0,1,.247,0Z" transform="translate(822.111 131.158) rotate(180)" fill="#93ff33"/>
    <path id="Trazado_148656" data-name="Trazado 148656" d="M.247,0H38.913a.247.247,0,0,1,.247.247V1.384a.247.247,0,0,1-.247.247H.247A.247.247,0,0,1,0,1.384V.247A.247.247,0,0,1,.247,0Z" transform="translate(822.111 136.598) rotate(180)" fill="#93ff33"/>
    <path id="Trazado_145286" data-name="Trazado 145286" d="M621.939,192.344a27.561,27.561,0,0,0-3.218-8.024,28.209,28.209,0,0,0-9.294-9.507,27.817,27.817,0,0,0-7.95-3.4,28.28,28.28,0,0,0-13.291-.139,27.791,27.791,0,0,0-8.024,3.209,28.21,28.21,0,0,0-9.5,9.3,28.179,28.179,0,0,0-.334,29.255,28.211,28.211,0,0,0,9.294,9.508,27.768,27.768,0,0,0,7.94,3.4,28.321,28.321,0,0,0,13.3.139,27.38,27.38,0,0,0,8.014-3.209,28.16,28.16,0,0,0,9.508-9.3,27.534,27.534,0,0,0,3.413-7.939,28.283,28.283,0,0,0,.139-13.292Zm-43.029,6.335a15.616,15.616,0,1,1,15.611,15.611A15.611,15.611,0,0,1,578.91,198.679Z" transform="translate(443.197 1.523)" fill="#fff5a2"/>
    <path id="Trazado_148657" data-name="Trazado 148657" d="M2.452,0h8.39A2.452,2.452,0,0,1,13.3,2.452V13.316a2.452,2.452,0,0,1-2.452,2.452H2.452A2.452,2.452,0,0,1,0,13.316V2.452A2.452,2.452,0,0,1,2.452,0Z" transform="translate(1031.383 166.656)" fill="#fff5a2"/>
    <path id="Trazado_148658" data-name="Trazado 148658" d="M2.452,0h8.39a2.452,2.452,0,0,1,2.452,2.452V13.316a2.452,2.452,0,0,1-2.452,2.452H2.452A2.452,2.452,0,0,1,0,13.316V2.452A2.452,2.452,0,0,1,2.452,0Z" transform="translate(1009.519 180.963) rotate(-45)" fill="#fff5a2"/>
    <path id="Trazado_148659" data-name="Trazado 148659" d="M2.452,0h8.39A2.452,2.452,0,0,1,13.3,2.452V13.316a2.452,2.452,0,0,1-2.452,2.452H2.452A2.452,2.452,0,0,1,0,13.316V2.452A2.452,2.452,0,0,1,2.452,0Z" transform="translate(1004.175 206.541) rotate(-90)" fill="#fff5a2"/>
    <path id="Trazado_148660" data-name="Trazado 148660" d="M2.452,0h8.39A2.452,2.452,0,0,1,13.3,2.452V13.316a2.452,2.452,0,0,1-2.452,2.452H2.452A2.452,2.452,0,0,1,0,13.316V2.452A2.452,2.452,0,0,1,2.452,0Z" transform="translate(1018.482 228.404) rotate(-135)" fill="#fff5a2"/>
    <path id="Trazado_148661" data-name="Trazado 148661" d="M2.452,0h8.39A2.452,2.452,0,0,1,13.3,2.452V13.316a2.452,2.452,0,0,1-2.452,2.452H2.452A2.452,2.452,0,0,1,0,13.316V2.452A2.452,2.452,0,0,1,2.452,0Z" transform="translate(1044.06 233.748) rotate(180)" fill="#fff5a2"/>
    <path id="Trazado_148662" data-name="Trazado 148662" d="M2.452,0h8.39a2.452,2.452,0,0,1,2.452,2.452V13.316a2.452,2.452,0,0,1-2.452,2.452H2.452A2.452,2.452,0,0,1,0,13.316V2.452A2.452,2.452,0,0,1,2.452,0Z" transform="translate(1065.924 219.441) rotate(135)" fill="#fff5a2"/>
    <path id="Trazado_148663" data-name="Trazado 148663" d="M2.452,0h8.39A2.452,2.452,0,0,1,13.3,2.452V13.316a2.452,2.452,0,0,1-2.452,2.452H2.452A2.452,2.452,0,0,1,0,13.316V2.452A2.452,2.452,0,0,1,2.452,0Z" transform="translate(1071.268 193.863) rotate(90)" fill="#fff5a2"/>
    <path id="Trazado_148664" data-name="Trazado 148664" d="M2.452,0h8.39a2.452,2.452,0,0,1,2.452,2.452V13.316a2.452,2.452,0,0,1-2.452,2.452H2.452A2.452,2.452,0,0,1,0,13.316V2.452A2.452,2.452,0,0,1,2.452,0Z" transform="translate(1056.96 172) rotate(45)" fill="#fff5a2"/>
    <path id="Trazado_145287" data-name="Trazado 145287" d="M633.942,141.884a12.283,12.283,0,0,0-1.431-3.569,12.556,12.556,0,0,0-4.135-4.229,12.341,12.341,0,0,0-3.536-1.514,12.525,12.525,0,0,0-3.094-.384,12.575,12.575,0,0,0-6.388,1.749,12.558,12.558,0,0,0-4.225,4.139,12.535,12.535,0,0,0-.148,13.014,12.554,12.554,0,0,0,4.134,4.229,12.373,12.373,0,0,0,3.532,1.514,12.6,12.6,0,0,0,5.917.062,12.18,12.18,0,0,0,3.565-1.428,12.52,12.52,0,0,0,4.229-4.138,12.215,12.215,0,0,0,1.518-3.532,12.525,12.525,0,0,0,.384-3.1A12.4,12.4,0,0,0,633.942,141.884ZM614.8,144.7a6.946,6.946,0,1,1,6.945,6.944A6.944,6.944,0,0,1,614.8,144.7Z" transform="translate(321.414 1.523)" fill="#8ad24a"/>
    <path id="Trazado_148665" data-name="Trazado 148665" d="M1.091,0H4.823A1.091,1.091,0,0,1,5.914,1.091V5.924A1.091,1.091,0,0,1,4.823,7.014H1.091A1.091,1.091,0,0,1,0,5.924V1.091A1.091,1.091,0,0,1,1.091,0Z" transform="translate(940.342 131.303)" fill="#8ad24a"/>
    <path id="Trazado_148666" data-name="Trazado 148666" d="M1.091,0H4.823A1.091,1.091,0,0,1,5.914,1.091V5.923A1.091,1.091,0,0,1,4.823,7.014H1.091A1.091,1.091,0,0,1,0,5.923V1.091A1.091,1.091,0,0,1,1.091,0Z" transform="matrix(0.707, -0.707, 0.707, 0.707, 930.615, 137.668)" fill="#8ad24a"/>
    <path id="Trazado_148667" data-name="Trazado 148667" d="M1.091,0H4.823A1.091,1.091,0,0,1,5.914,1.091V5.924A1.091,1.091,0,0,1,4.823,7.014H1.091A1.091,1.091,0,0,1,0,5.923V1.091A1.091,1.091,0,0,1,1.091,0Z" transform="translate(928.238 149.045) rotate(-90)" fill="#8ad24a"/>
    <path id="Trazado_148668" data-name="Trazado 148668" d="M1.091,0H4.823A1.091,1.091,0,0,1,5.914,1.091V5.923A1.091,1.091,0,0,1,4.823,7.014H1.091A1.091,1.091,0,0,1,0,5.924V1.091A1.091,1.091,0,0,1,1.091,0Z" transform="translate(934.603 158.771) rotate(-135)" fill="#8ad24a"/>
    <path id="Trazado_148669" data-name="Trazado 148669" d="M1.091,0H4.823A1.091,1.091,0,0,1,5.914,1.091V5.924A1.091,1.091,0,0,1,4.823,7.014H1.091A1.091,1.091,0,0,1,0,5.924V1.091A1.091,1.091,0,0,1,1.091,0Z" transform="translate(945.98 161.148) rotate(180)" fill="#8ad24a"/>
    <path id="Trazado_148670" data-name="Trazado 148670" d="M1.091,0H4.823A1.091,1.091,0,0,1,5.914,1.091V5.923A1.091,1.091,0,0,1,4.823,7.014H1.091A1.091,1.091,0,0,1,0,5.923V1.091A1.091,1.091,0,0,1,1.091,0Z" transform="translate(955.707 154.783) rotate(135)" fill="#8ad24a"/>
    <path id="Trazado_148671" data-name="Trazado 148671" d="M1.091,0H4.823A1.091,1.091,0,0,1,5.914,1.091V5.924A1.091,1.091,0,0,1,4.823,7.014H1.091A1.091,1.091,0,0,1,0,5.923V1.091A1.091,1.091,0,0,1,1.091,0Z" transform="translate(958.084 143.406) rotate(90)" fill="#8ad24a"/>
    <path id="Trazado_148672" data-name="Trazado 148672" d="M1.091,0H4.823A1.091,1.091,0,0,1,5.914,1.091V5.923A1.091,1.091,0,0,1,4.823,7.014H1.091A1.091,1.091,0,0,1,0,5.923V1.091A1.091,1.091,0,0,1,1.091,0Z" transform="matrix(0.707, 0.707, -0.707, 0.707, 951.72, 133.68)" fill="#8ad24a"/>
    <path id="Trazado_145359" data-name="Trazado 145359" d="M18.871,0A18.871,18.871,0,1,1,0,18.871,18.871,18.871,0,0,1,18.871,0Z" transform="translate(909.367 336.244)" fill="#fff5a2"/>
    <path id="Trazado_145329" data-name="Trazado 145329" d="M501.143,350.457s3.837-.047,3.65-5.943c0,0,2.55-.281,2.69,1.825a20.776,20.776,0,0,1-.14,3.978h6.087a2.428,2.428,0,0,1,2.428,2.3c.168,3.252.074,8.872-2.5,9.516a15.021,15.021,0,0,1-7.37.2,21.774,21.774,0,0,0-4.867-.713" transform="translate(421.829 1.523)" fill="#fff"/>
    <path id="Trazado_145360" data-name="Trazado 145360" d="M.573,0h3.3a.573.573,0,0,1,.573.573V11.29a.573.573,0,0,1-.573.573H.573A.573.573,0,0,1,0,11.29V.573A.573.573,0,0,1,.573,0Z" transform="translate(918.737 351.582)" fill="#3ca8f4"/>
    <path id="Trazado_145330" data-name="Trazado 145330" d="M330.375,217.7h-7.062a1.023,1.023,0,1,0,0,2.047h7.062a1.023,1.023,0,0,0,0-2.047Zm-4.96,5.9h0v.24a1.43,1.43,0,1,0,2.859,0v-.24h0a3.2,3.2,0,0,0,2.874-3.179h-8.6A3.2,3.2,0,0,0,325.415,223.6Zm-6.4-35.354a.589.589,0,0,0,.5-.891l-4.2-7.007a.589.589,0,1,0-1.01.606l4.205,7.006A.587.587,0,0,0,319.011,188.246Zm8.239-2.186a.589.589,0,0,0,.589-.589v-3.587a.589.589,0,1,0-1.177,0v3.587A.589.589,0,0,0,327.25,186.06Zm-18.239,5.971,3.476,2.074a.589.589,0,1,0,.6-1.011l-3.475-2.074a.589.589,0,1,0-.6,1.011Zm3.7,17.793-3.419,1.57a.589.589,0,0,0,.246,1.124.6.6,0,0,0,.245-.054l3.419-1.57a.589.589,0,0,0-.491-1.07ZM310.6,202.54a.588.588,0,0,0,.089-1.17l-7.231-1.121a.588.588,0,0,0-.18,1.163l7.231,1.121A.7.7,0,0,0,310.6,202.54Zm34.337,9.227-2.859-1.794a.589.589,0,0,0-.626,1l2.859,1.794a.589.589,0,0,0,.626-1Zm6.75-10.236h-7.848a.588.588,0,1,0,0,1.177h7.848a.588.588,0,0,0,0-1.177Zm-10.033-7.119a.58.58,0,0,0,.286-.075l3.308-1.85a.589.589,0,0,0-.575-1.027l-3.307,1.85a.588.588,0,0,0,.288,1.1Zm-2.015-13.941a.591.591,0,0,0-.8.232l-3.7,6.727a.589.589,0,0,0,1.032.567l3.7-6.726A.591.591,0,0,0,339.642,180.471Zm-7.906,20.866a1.6,1.6,0,0,0-1.6,1.492l-.005.044a.358.358,0,0,0-.01.072l-.184,1.629h1.8v-.015a1.611,1.611,0,0,0,0-3.222Zm-4.768-11.382h-.252a11.352,11.352,0,0,0-11.348,11.353c0,6,4.8,10.3,6.885,14.982a1.058,1.058,0,0,0,.959.63h7.264a1.055,1.055,0,0,0,.959-.63c2.084-4.686,6.886-8.984,6.886-14.982A11.353,11.353,0,0,0,326.968,189.955Zm4.821,15.268v.019h-1.924l-1.3,11.6-.669-.072,1.289-11.528H324.5l1.289,11.528-.668.072-1.3-11.6H321.9v-.019a2.28,2.28,0,1,1,2.317-2.466h0l.2,1.817h4.841l.2-1.817a2.279,2.279,0,1,1,2.321,2.466Zm4.913-3.116a.142.142,0,0,1-.048.005.38.38,0,0,1-.373-.329c-.9-7.133-7.7-9.58-7.772-9.6a.377.377,0,1,1,.247-.713c.072.025,7.312,2.617,8.276,10.22A.377.377,0,0,1,336.7,202.107Zm-13.146.746,0-.024a1.609,1.609,0,1,0-1.6,1.73v.015h1.793l-.18-1.629C323.566,202.916,323.556,202.882,323.556,202.853Z" transform="translate(228.625 1.523)" fill="#fde947"/>
    <path id="Trazado_148673" data-name="Trazado 148673" d="M18.871,0A18.871,18.871,0,1,1,0,18.871,18.871,18.871,0,0,1,18.871,0Z" transform="translate(727.902 339.729)" fill="#fff5a2"/>
    <path id="Trazado_148674" data-name="Trazado 148674" d="M0,0H6.206V7.324H0Z" transform="translate(735.062 357.816)" fill="#3ca8f4"/>
    <path id="Trazado_148675" data-name="Trazado 148675" d="M0,0H6.206V13.083H0Z" transform="translate(743.671 352.059)" fill="#0f2771"/>
    <path id="Trazado_145358" data-name="Trazado 145358" d="M0,0H6.206V11.07H0Z" transform="translate(752.281 354.07)" fill="#8ad24a"/>
    <path id="Trazado_145357" data-name="Trazado 145357" d="M881.07,428.925H322.326c-.731,0-1.321-.367-1.321-.819h0c0-.452.59-.819,1.321-.819H881.07c.731,0,1.321.367,1.321.819h0C882.391,428.558,881.8,428.925,881.07,428.925Z" transform="translate(197.664 1.523)" fill="#cbba34"/>
    <path id="Trazado_148676" data-name="Trazado 148676" d="M0,0H189V68H0Z" transform="translate(592.902 182)" fill="#8ad24a"/>
    <path id="Trazado_148677" data-name="Trazado 148677" d="M0,0H189V68H0Z" transform="translate(592.902 260)" fill="#fde947"/>
    <path id="Trazado_148678" data-name="Trazado 148678" d="M0,0H189V68H0Z" transform="translate(793.902 182)" fill="#3ca8f4"/>
    <path id="Trazado_148679" data-name="Trazado 148679" d="M0,0H189V68H0Z" transform="translate(793.902 260)" fill="#4182af"/>
    <path id="Trazado_145300" data-name="Trazado 145300" d="M348.269,268.618l.2-4.739s-7.09-11.529-1.357-14.55,11.159,1.664,11.159,6.905-.418,6.523-2.822,6.831l.48,4.265" transform="translate(209.357 1.523)" fill="#fff5a2"/>
    <path id="Trazado_145301" data-name="Trazado 145301" d="M353.005,261.215c-.29,1.85-.508,2.522-2.341,2.776-2.557.354-4.459-.2-6.679-4.8s-3.368-10.079,2.633-11.969,7.437-5.047,8.711-3.937,3.9,8.343,1.891,9.618-4.7,1.079-4.316,3.123A11.235,11.235,0,0,1,353.005,261.215Z" transform="translate(209.357 1.523)" fill="#091946"/>
    <path id="Trazado_145302" data-name="Trazado 145302" d="M340.238,324.09c-.279.313-.754.13-1.372-.463l-.012-.011a16.357,16.357,0,0,1-2.052-2.539c-.969-1.384-2.065-3.144-3.2-5.118-5.254-9.078-11.5-22.479-10.919-23.507.842-1.489.988-2.945,4.4-1.509a2.606,2.606,0,0,1,1.361,1.3c1.433,3.011,6.406,13.569,9.49,21.744.644,1.7,1.21,3.306,1.642,4.707C340.421,321.463,340.765,323.49,340.238,324.09Z" transform="translate(209.357 1.523)" fill="#e2c2ac"/>
    <path id="Trazado_145303" data-name="Trazado 145303" d="M333.226,301.263l7.222,17.965-3.992,2.032-9.69-17.348Z" transform="translate(209.357 1.523)" fill="#fff5a2"/>
    <path id="Trazado_145304" data-name="Trazado 145304" d="M345.445,327.882a.484.484,0,0,1-.12.068l-1.57.754a.885.885,0,0,1-.891-.069l-2.085-1.4A10.044,10.044,0,0,1,338,324.455l-1.292-2.782-.281-.591.71-.5,2.183-1.529.486-.356h.014l.286.057,2.022.452a3.755,3.755,0,0,1,1.607.8l1.558,2.195a1.605,1.605,0,0,1-1.327-.224,3.512,3.512,0,0,0-1.435-.325l1.019,1.109,2.3,2.924A1.5,1.5,0,0,1,345.445,327.882Z" transform="translate(209.357 1.523)" fill="#fff5a2"/>
    <path id="Trazado_145305" data-name="Trazado 145305" d="M343.476,269.908c-1.46-.55-.777-2.332-1.911-1.278-5.093,4.732-21.894,20.867-18.587,24.767,3.888,4.585,17.919-10.591,21.41-15.484C347.3,273.835,347.006,271.237,343.476,269.908Z" transform="translate(209.357 1.523)" fill="#e2c2ac"/>
    <path id="Trazado_145306" data-name="Trazado 145306" d="M346.554,275.553a11.633,11.633,0,0,1-2.693,4.463c-1.069,1.169-2.7,2.938-4.43,4.808-.022.022-.044.056-.067.078-3.639,3.962-8.258,8.659-8.313,8.881s1,3.061,2.292,6.578l-.9.479-6.177,2.971c-.078-.156-.156-.311-.245-.467-1.981-3.829-3.929-7.268-4.174-8.915-.679-4.808,5.242-11.92,6.222-13.033.078-.111.133-.178.133-.178,5.877-6.689,9.427-10.606,12.009-12.743a3.786,3.786,0,0,1,5.331.456C346.688,270.3,347.522,272.426,346.554,275.553Z" transform="translate(209.357 1.523)" fill="#8ad24a"/>
    <path id="Trazado_145307" data-name="Trazado 145307" d="M339.364,284.9c-3.639,3.962-8.258,8.659-8.313,8.881s1,3.061,2.292,6.578l-.9.479-6.177,2.971c-.078-.156-.156-.311-.245-.467,7.167-3.161,3.25-8.548,3.65-10.061s8.559-9.984,8.559-9.984l1.2,1.525C339.409,284.846,339.387,284.88,339.364,284.9Z" transform="translate(209.357 1.523)" fill="#c3d3dd" opacity="0.5" style="mix-blend-mode: multiply;isolation: isolate"/>
    <path id="Trazado_145308" data-name="Trazado 145308" d="M325.947,303.376l7.146-3.51a.312.312,0,0,1,.416.14l.458.916a.31.31,0,0,1-.139.417l-7.117,3.584a.312.312,0,0,1-.42-.141l-.486-.989A.312.312,0,0,1,325.947,303.376Z" transform="translate(209.357 1.523)" fill="#70bc2d"/>
    <path id="Trazado_145309" data-name="Trazado 145309" d="M362.189,321.238a6.662,6.662,0,0,0-5.625,7.7,44.351,44.351,0,0,0,3.563,11.691c5.309,11.865,8.383,27.082,13.459,27.846s6.858-8.186,3.876-20.561c-2.7-11.186-3.041-25.238-6.655-26.519C368.977,320.748,365.336,320.915,362.189,321.238Z" transform="translate(209.357 1.523)" fill="#e2c2ac"/>
    <path id="Trazado_145310" data-name="Trazado 145310" d="M377.154,365.222c-9.779-5.941-5.615,40.23-2.18,52.52s5.4,1.788,5.693-18.289S381,367.559,377.154,365.222Z" transform="translate(209.357 1.523)" fill="#e2c2ac"/>
    <path id="Trazado_145311" data-name="Trazado 145311" d="M349.193,320.838a6.661,6.661,0,0,0-7.328,6.1,44.337,44.337,0,0,0,.615,12.206c2.267,12.8,1.551,28.308,6.289,30.282s8.642-6.273,8.756-19c.1-11.506,3.183-25.22-.011-27.341C355.9,322.013,352.324,321.29,349.193,320.838Z" transform="translate(209.357 1.523)" fill="#e2c2ac"/>
    <path id="Trazado_145312" data-name="Trazado 145312" d="M352.9,365.771c-9.364-6.576-8.268,39.77-5.656,52.261s5.273,2.142,6.892-17.872S356.585,368.359,352.9,365.771Z" transform="translate(209.357 1.523)" fill="#e2c2ac"/>
    <path id="Trazado_145313" data-name="Trazado 145313" d="M372.839,413.37l.6,6.206h7.24l-.109-6.75Z" transform="translate(209.357 1.523)" fill="#fff5a2"/>
    <path id="Trazado_145314" data-name="Trazado 145314" d="M346.146,413.37l.29,6.206h7.24l-.109-6.75Z" transform="translate(209.357 1.523)" fill="#fff5a2"/>
    <path id="Trazado_145315" data-name="Trazado 145315" d="M381.145,414.373h-9l-3.2-44.752L358.941,339.4s-1.6,27.256-1.97,31.319c-.178,1.959-.9,12.187-1.6,22.281-.746,10.885-1.48,21.614-1.48,21.614h-8.136L343.9,368.141l-.245-2.727-3.706-41.547,31.208-3.684,1.1-.134s8.881,34.647,9.371,46.233S381.145,414.373,381.145,414.373Z" transform="translate(209.357 1.523)" fill="#091946"/>
    <path id="Trazado_145316" data-name="Trazado 145316" d="M381.145,414.37h-9c9.26-1.392,9.494-48.091,9.494-48.091C382.124,377.876,381.145,414.37,381.145,414.37Z" transform="translate(209.357 1.523)" fill="#c3d3dd" opacity="0.8" style="mix-blend-mode: multiply;isolation: isolate"/>
    <path id="Trazado_145317" data-name="Trazado 145317" d="M343.549,333.895c.256,5.32,1.6,15.158.111,31.519l-3.706-41.547,31.208-3.684.645.1a36,36,0,0,1-17.206,7.134C344.584,328.552,343.282,328.174,343.549,333.895Z" transform="translate(209.357 1.523)" fill="#c3d3dd" opacity="0.8" style="mix-blend-mode: multiply;isolation: isolate"/>
    <path id="Trazado_145318" data-name="Trazado 145318" d="M373.332,319.76s-10.707,6.266-22.638,6.511a28.033,28.033,0,0,1-12.053-2.237s.334-19.065-.167-29.26-1.725-25.654,3.05-27.045a27.272,27.272,0,0,1,6.8-1.113,16.929,16.929,0,0,0,2.96.423,15.723,15.723,0,0,0,4.4-.6c4.2.033,13.245,1.068,13.5,10.328v.112C369.515,288.575,369.559,309.766,373.332,319.76Z" transform="translate(209.357 1.523)" fill="#8ad24a"/>
    <path id="Trazado_145319" data-name="Trazado 145319" d="M369.181,276.878c.334,11.619.378,32.6,4.073,42.671a40.418,40.418,0,0,1-4.118-12.332c-1.035-6.945-1.959-13.178-1.692-20.089s-7.178-9.037-7.178-9.037Z" transform="translate(209.357 1.523)" fill="#c3d3dd" opacity="0.5" style="mix-blend-mode: multiply;isolation: isolate"/>
    <path id="Trazado_145320" data-name="Trazado 145320" d="M373.377,319.782a.112.112,0,0,0-.045-.022c-.022-.067-.056-.133-.078-.211C373.3,319.627,373.332,319.7,373.377,319.782Z" transform="translate(209.357 1.523)" fill="#c3d3dd" opacity="0.5" style="mix-blend-mode: multiply;isolation: isolate"/>
    <path id="Trazado_145321" data-name="Trazado 145321" d="M402.222,246.876c.414.068.514.567.344,1.407l0,.016a16.48,16.48,0,0,1-1.045,3.093c-.65,1.559-1.549,3.427-2.606,5.447-4.85,9.3-12.822,21.749-14,21.813-1.708.087-3.016.743-3.632-2.907a2.616,2.616,0,0,1,.369-1.845c1.775-2.824,8.026-12.679,13.276-19.663,1.091-1.455,2.144-2.793,3.1-3.908C399.906,248.128,401.434,246.752,402.222,246.876Z" transform="translate(209.357 1.523)" fill="#e2c2ac"/>
    <path id="Trazado_145322" data-name="Trazado 145322" d="M402.723,240.735a.5.5,0,0,1,.123.066l1.5.933a.9.9,0,0,1,.424.8l-.066,2.542a10.174,10.174,0,0,1-.869,3.883l-1.69,2.471-.619.7-.536-.334-2.491-1.037-.567-.222-.008-.011-.107-.276-.711-1.974a3.811,3.811,0,0,1-.187-1.807l1.031-2.522a1.626,1.626,0,0,1,.529,1.255,3.533,3.533,0,0,0,.5,1.4l.395-1.472,1.251-3.553A1.516,1.516,0,0,1,402.723,240.735Z" transform="translate(209.357 1.523)" fill="#fff5a2"/>
    <path id="Trazado_145323" data-name="Trazado 145323" d="M385.986,266.223l12-16.223,3.838,1.769L391.7,270.741Z" transform="translate(209.357 1.523)" fill="#fff5a2"/>
    <path id="Trazado_145324" data-name="Trazado 145324" d="M354.737,273.169c.318,1.527-1.553,1.906-.056,2.3,6.725,1.764,29.349,7.307,30.871,2.425,1.788-5.739-18.542-9.457-24.545-9.783C356.005,267.837,353.968,269.476,354.737,273.169Z" transform="translate(209.357 1.523)" fill="#e2c2ac"/>
    <path id="Trazado_145325" data-name="Trazado 145325" d="M392.575,270.289c-2.17,3.661-4.3,6.922-5.542,8-3.707,3.15-12.877,1.97-14.347,1.736-.133-.011-.211-.011-.211-.011-6.11-.345-13.433-1.324-16.617-2.359-1.992-.646-3.7-3.718-3.049-5.71.534-1.7.924-5.609,4.185-5.364a56.953,56.953,0,0,1,6.065.845c4.842.88,17.619,3.195,17.941,3.083.212-.078,2.236-2.3,4.686-4.941Z" transform="translate(209.357 1.523)" fill="#8ad24a"/>
    <path id="Trazado_145326" data-name="Trazado 145326" d="M385.192,266.336l7.023,4.552a.262.262,0,0,0,.364-.079l.661-1.028a.264.264,0,0,0-.077-.362l-6.939-4.563a.262.262,0,0,0-.358.066l-.745,1.04A.262.262,0,0,0,385.192,266.336Z" transform="translate(209.357 1.523)" fill="#70bc2d"/>
    <path id="Trazado_145327" data-name="Trazado 145327" d="M373.3,427.407v-9.155s2.854,1.125,7.37-.309c0,0,3.336,3.49,6.517,3.8s4.845,1.708,4.888,3.569C392.158,428.648,373.3,427.407,373.3,427.407Z" transform="translate(209.357 1.523)" fill="#091946"/>
    <path id="Trazado_145328" data-name="Trazado 145328" d="M346.377,418.657s5.459.439,7.281-.377c0,0,.856,2.81,1.289,3.818a3.132,3.132,0,0,0,2.613,2.213c2.105.564,2.514,3.267.566,3.456s-11.762,0-11.762,0Z" transform="translate(209.357 1.523)" fill="#091946"/>
    <path id="Trazado_145331" data-name="Trazado 145331" d="M653.887,240.893a5.035,5.035,0,0,1,1.88,1.922,16.247,16.247,0,0,1,1.436,5.367,39.631,39.631,0,0,1,.283,9.387,51.6,51.6,0,0,1-2.641,13.826q-.535,1.479-1.2,2.908c-.357.766-.735,1.52-1.14,2.264s-.837,1.479-1.3,2.2a21.845,21.845,0,0,1-1.352,2.037,21.238,21.238,0,0,1-1.641,1.934c-.386.535-.755,1.064-1.137,1.576a18.57,18.57,0,0,1-4,4.025,9.4,9.4,0,0,1-10.326.788,21.531,21.531,0,0,1-6.33-4.388,6.912,6.912,0,0,1-1.208-1.858,7.988,7.988,0,0,1,.394-4.043,18.627,18.627,0,0,0,2.006-2.149,16.133,16.133,0,0,0,1.515-2.28c2.268-4.144,2.342-8.9,1.979-13.495-.335-4.219-.448-8.663.678-12.781a16.361,16.361,0,0,1,2.88-5.838c2.59-3.285,6.291-4.339,10.341-4.044a11.169,11.169,0,0,1,4.483,1.43c.618.336,1.626.863,1.626.863A4.214,4.214,0,0,1,653.887,240.893Z" transform="translate(373.346 1.523)" fill="#091946"/>
    <path id="Trazado_145332" data-name="Trazado 145332" d="M650.368,259.3a4.373,4.373,0,0,0,.032,1.77c.191,1.791.626,4.388.679,4.96l-.234,2.682-.317,3.635-3.1,1.049L636.6,277.066l-.594.2.414-1.622,1.865-7.366,1.675-2.522.01-.011.106-2.607c-2.056-.445-4.494-3.72-4.769-8.394a14.58,14.58,0,0,1,2.077-8.458l13.609-2.66-.456,10.853s3.127-3.985,3.116-.3C653.643,257.161,650.729,259.132,650.368,259.3Z" transform="translate(373.346 1.523)" fill="#fff5a2"/>
    <path id="Trazado_145333" data-name="Trazado 145333" d="M646.892,262.111a12.71,12.71,0,0,1-6.91,3.646h-.021l.01-.011.106-2.607A18.479,18.479,0,0,0,646.892,262.111Z" transform="translate(373.346 1.523)" fill="#cbba34" opacity="0.3" style="mix-blend-mode: multiply;isolation: isolate"/>
    <path id="Trazado_145334" data-name="Trazado 145334" d="M635.4,251.04c10.609-2.1,14.251-5.71,14.251-5.71l.493,9.621s3.4-3.985,4.125-2.181L652.1,241.935l-13.348.512-4.947,6.316Z" transform="translate(373.346 1.523)" fill="#091946"/>
    <path id="Trazado_145335" data-name="Trazado 145335" d="M636.092,269.317a3.77,3.77,0,0,0-3.764,1.248c-4.2,4.761-20.952,23.853-17.622,27.141,3.914,3.864,18.246-14.116,20.981-18.888C637.966,274.841,639.4,270.234,636.092,269.317Z" transform="translate(373.346 1.523)" fill="#e2c2ac"/>
    <path id="Trazado_145336" data-name="Trazado 145336" d="M617.449,294.575c-.191,1.409-.064,3.2-2.056,3.773a4.38,4.38,0,0,1-4.144-1.145c-1.919-1.78-5.639-5.278-9.518-9.115a137.043,137.043,0,0,1-11.065-12c-.233-.307-.445-.593-.646-.879-1.018-1.452-1.558-2.565-1.357-3.127.265-.742,1.8-.159,4.049,1.2C600.714,278.157,617.65,293.1,617.449,294.575Z" transform="translate(373.346 1.523)" fill="#fff5a2"/>
    <path id="Trazado_145337" data-name="Trazado 145337" d="M592.765,273.494v.01l-.276.393-1.166,1.738-.032.042-.116.18-.244.35-.265-.117-.2-.1-2.215-.975a7.829,7.829,0,0,1-2.237-2.141l-1.144-1.622a.692.692,0,0,1-.064-.7l.572-1.251a.491.491,0,0,1,.043-.106,1.185,1.185,0,0,1,1.738-.349l2.342,1.769.891.785a2.922,2.922,0,0,0-.276-1.134,1.238,1.238,0,0,1-.2-1.039l1.748,1.2a2.838,2.838,0,0,1,.657,1.25l.393,1.59v.011Z" transform="translate(373.346 1.523)" fill="#fff5a2"/>
    <path id="Trazado_145338" data-name="Trazado 145338" d="M604.731,282.312l-3,5.776a137.043,137.043,0,0,1-11.065-12l-.2-.1-2.215-.975a7.829,7.829,0,0,1-2.237-2.141l-1.144-1.622a.692.692,0,0,1-.064-.7l.572-1.251a.491.491,0,0,1,.043-.106c-.2,2.682,2.883,4.971,4.6,6.01a9.529,9.529,0,0,0,.985.53.608.608,0,0,1,.17.116c1.261,1.007,6.412,7.758,8.648,8.352C602.176,284.834,604.731,282.312,604.731,282.312Z" transform="translate(373.346 1.523)" fill="#cbba34" opacity="0.3" style="mix-blend-mode: multiply;isolation: isolate"/>
    <path id="Trazado_145339" data-name="Trazado 145339" d="M633.6,268.972l-3.4,15.341L628.718,291s-7.545,8.123-13.208,8.592S599.772,287.2,599.772,287.2l5.367-5.481s9.929,6.714,10.153,6.6c.112-.057,4.423-5.465,9.118-10.437C628.8,273.225,633.6,268.972,633.6,268.972Z" transform="translate(373.346 1.523)" fill="#93ff33"/>
    <path id="Trazado_145340" data-name="Trazado 145340" d="M630.2,284.313,628.718,291s-7.545,8.123-13.208,8.592S599.772,287.2,599.772,287.2c11.043,9.069,14.626,10.421,19.078,8.475s5.745-4.1,5.669-7.787a17.507,17.507,0,0,1,1.995-7.487Z" transform="translate(373.346 1.523)" fill="#c3d3dd" opacity="0.2" style="mix-blend-mode: multiply;isolation: isolate"/>
    <path id="Trazado_145341" data-name="Trazado 145341" d="M656.673,348.655c.34,16.215-2.145,29.418-5.55,29.489s-6.442-13.015-6.782-29.23,2.144-29.418,5.55-29.49S656.333,332.44,656.673,348.655Z" transform="translate(373.346 1.523)" fill="#e2c2ac"/>
    <path id="Trazado_145342" data-name="Trazado 145342" d="M638.491,348.752c.34,16.215-2.145,29.418-5.55,29.49s-6.442-13.016-6.782-29.231,2.144-29.418,5.55-29.489S638.15,332.537,638.491,348.752Z" transform="translate(373.346 1.523)" fill="#e2c2ac"/>
    <path id="Trazado_145343" data-name="Trazado 145343" d="M650.07,372.495c9.215-5.359,5.8,38.412,2.874,49.429s-4.315-.8-5.2-18.769S646.444,374.6,650.07,372.495Z" transform="translate(373.346 1.523)" fill="#fff5a2"/>
    <path id="Trazado_145344" data-name="Trazado 145344" d="M632.181,372.591c9.215-5.359,5.8,38.412,2.874,49.429s-4.314-.8-5.205-18.769S628.555,374.7,632.181,372.591Z" transform="translate(373.346 1.523)" fill="#fff5a2"/>
    <path id="Trazado_145345" data-name="Trazado 145345" d="M625.3,320.764s-1.96,17.46-.112,33.874c1.8,16.009,3.844,60.631,3.844,60.631l8.064-.044s3.963-26.8,1.685-41.3l3.351-32.606,5.226,73.416,7.876-.019s3.624-29.406.261-41.265c0,0,6.651-41.5,2.52-53.022" transform="translate(373.346 1.523)" fill="#0f2771"/>
    <path id="Trazado_145346" data-name="Trazado 145346" d="M631.379,421.62a24.034,24.034,0,0,1-4.013,3.81c-2.759,2.164-3.5,1.715-3.549,2.507s11.592-.062,11.592-.062l-.271-6.5A28.068,28.068,0,0,0,631.379,421.62Z" transform="translate(373.346 1.523)" fill="#0f2771"/>
    <path id="Trazado_145347" data-name="Trazado 145347" d="M648.97,420.753a8.287,8.287,0,0,1-.916,4.235c-1.544,2.686-1.551,2.143-1.183,3.117s6.7.113,6.7.113l-.242-7.548S648.88,420.545,648.97,420.753Z" transform="translate(373.346 1.523)" fill="#0f2771"/>
    <path id="Trazado_145348" data-name="Trazado 145348" d="M659.027,320.658c-10.683,3.646-34.456.191-34.456.191s.01-.022.01-.032c.117-.657,1.9-10.069,2.756-17.032.117-.869.2-1.7.276-2.459.71-7.186-1.717-7.112-2.194-13.852s4.186-14.033,7.726-17.987a11.217,11.217,0,0,1,6.836-3.73s-2.872,6.592-.169,8.182c4.8,2.84,11.3-8.013,11.3-8.013s6.677,1.24,7.355,4.505c.467,2.225.34,5.734-.021,9.666v.01c-.562,6.243-1.706,13.567-1.95,18.569-.053,1.177-.042,2.47.021,3.837.1,1.9.276,3.921.509,5.893C657.787,314.765,659.027,320.658,659.027,320.658Z" transform="translate(373.346 1.523)" fill="#8ad24a"/>
    <path id="Trazado_145349" data-name="Trazado 145349" d="M657.024,308.406c-2.077,0-8.935.01-12.517.1-4.25.106-15.432.943-19.926,12.316.117-.657,1.9-10.069,2.756-17.032l19.3-1.866,9.878.594C656.611,304.41,656.791,306.434,657.024,308.406Z" transform="translate(373.346 1.523)" fill="#c3d3dd" opacity="0.2" style="mix-blend-mode: multiply;isolation: isolate"/>
    <path id="Trazado_145350" data-name="Trazado 145350" d="M652.286,275.292a55.854,55.854,0,0,0,.207,9.331c.553,4.424,1.21,11.82,1.21,11.82l-16.14,2.039,19.423,3.145,1.279-6.635Z" transform="translate(373.346 1.523)" fill="#c3d3dd" opacity="0.2" style="mix-blend-mode: multiply;isolation: isolate"/>
    <path id="Trazado_145351" data-name="Trazado 145351" d="M619.114,276.434c.855-.021,21.837-.658,21.837-.658l3.036,30.824-21.638-.331Z" transform="translate(373.346 1.523)" fill="#3ca8f4"/>
    <path id="Trazado_145352" data-name="Trazado 145352" d="M661.6,303.891a4.4,4.4,0,0,1-3.879,1.823c-3.72-.149-12.432-.551-20.042-1.315a74.279,74.279,0,0,1-10.726-1.642c-1.537-.414-2.533-.88-2.734-1.4a.134.134,0,0,1-.011-.064c-.2-.774,1.685-1.357,4.684-1.78,9.688-1.378,31.033-1.05,31.818.169C661.486,300.87,662.748,302.153,661.6,303.891Z" transform="translate(373.346 1.523)" fill="#fff5a2"/>
    <path id="Trazado_145353" data-name="Trazado 145353" d="M628.959,299.62v.01l-.116.466-.456,2.046v.011l-.011.031-.138.626-.519-.021-.763-.032-1.653-.074a8.1,8.1,0,0,1-2.862-1.187l-1.653-1.092a.73.73,0,0,1-.318-.636l.063-1.018.021-.349a.458.458,0,0,1,0-.117,1.179,1.179,0,0,1,1.484-.954l2.83.8,1.113.414a2.654,2.654,0,0,0-.668-.954,1.288,1.288,0,0,1-.562-.9l2.067.477a3.019,3.019,0,0,1,1.071.932l.943,1.336.063.085Z" transform="translate(373.346 1.523)" fill="#fff5a2"/>
    <path id="Trazado_145354" data-name="Trazado 145354" d="M638.562,302.386c-.011.084-.456,1.1-.88,2.013a74.279,74.279,0,0,1-10.726-1.642l-1.653-.074a8.1,8.1,0,0,1-2.862-1.187l-1.653-1.092a.73.73,0,0,1-.318-.636l.063-1.018c.488,1.039,2.152,1.951,3.678,2.544a10.1,10.1,0,0,0,2.809.763c.2-.01.7.032,1.367.1a53.024,53.024,0,0,0,6.55.477c1.918-.16,2.469-3.784,2.469-3.784S638.562,302.163,638.562,302.386Z" transform="translate(373.346 1.523)" fill="#cbba34" opacity="0.3" style="mix-blend-mode: multiply;isolation: isolate"/>
    <path id="Trazado_145355" data-name="Trazado 145355" d="M656.985,268.716a3.769,3.769,0,0,1,2.662,2.938c1.31,6.211,6.5,31.077,1.983,32.3-5.309,1.438-8.937-21.267-8.969-26.768C652.634,272.6,653.653,267.885,656.985,268.716Z" transform="translate(373.346 1.523)" fill="#e2c2ac"/>
    <path id="Trazado_145356" data-name="Trazado 145356" d="M654.7,297.1l-17.274,1.385-.577,6.6s22.941,2.326,25.988-.412.714-19.008.156-21.591-1.816-15.173-6.644-14.739-4.346,7.949-3.81,12.743S654.7,297.1,654.7,297.1Z" transform="translate(373.346 1.523)" fill="#93ff33"/>
    <path id="What_do_you_mean_by" data-name="What do you mean by" d="M1.074,0V-14.219h4.58a6.737,6.737,0,0,1,3.389.854,6.006,6.006,0,0,1,2.349,2.412,7.283,7.283,0,0,1,.854,3.491v.654a7.325,7.325,0,0,1-.825,3.5A6.032,6.032,0,0,1,9.1-.884,6.589,6.589,0,0,1,5.752,0ZM4.5-11.572v8.936H5.693a2.666,2.666,0,0,0,2.266-1.05,5.145,5.145,0,0,0,.791-3.12v-.615a5.1,5.1,0,0,0-.791-3.105,2.713,2.713,0,0,0-2.3-1.045ZM18.965.2a5.432,5.432,0,0,1-3.936-1.45,5.008,5.008,0,0,1-1.5-3.774V-5.3a6.489,6.489,0,0,1,.6-2.861,4.395,4.395,0,0,1,1.753-1.919,5.292,5.292,0,0,1,2.734-.679A4.574,4.574,0,0,1,22.129-9.38a5.43,5.43,0,0,1,1.289,3.853v1.279H16.875a2.372,2.372,0,0,0,.771,1.4,2.3,2.3,0,0,0,1.543.508,2.958,2.958,0,0,0,2.441-1.094l1.5,1.777A4.2,4.2,0,0,1,21.392-.308,5.891,5.891,0,0,1,18.965.2Zm-.371-8.418q-1.445,0-1.719,1.914H20.2v-.254a1.63,1.63,0,0,0-.4-1.226A1.593,1.593,0,0,0,18.594-8.223ZM34.551-5.2A6.44,6.44,0,0,1,33.477-1.2,3.6,3.6,0,0,1,30.449.2a3.122,3.122,0,0,1-2.6-1.279L27.715,0H24.766V-15h3.291v5.283a3.013,3.013,0,0,1,2.373-1.045,3.6,3.6,0,0,1,3.047,1.416,6.473,6.473,0,0,1,1.074,3.984Zm-3.3-.21a4.3,4.3,0,0,0-.405-2.169A1.366,1.366,0,0,0,29.6-8.223a1.576,1.576,0,0,0-1.543.848v4.192a1.585,1.585,0,0,0,1.563.838,1.4,1.4,0,0,0,1.475-1.131A8.121,8.121,0,0,0,31.25-5.405ZM39.473,0h-3.3V-10.566h3.3Zm-3.5-13.3a1.482,1.482,0,0,1,.508-1.159,1.909,1.909,0,0,1,1.318-.452,1.909,1.909,0,0,1,1.318.452,1.482,1.482,0,0,1,.508,1.159,1.482,1.482,0,0,1-.508,1.159,1.909,1.909,0,0,1-1.318.452,1.909,1.909,0,0,1-1.318-.452A1.482,1.482,0,0,1,35.977-13.3ZM44.971,0h-3.3V-15h3.3Zm5.5,0h-3.3V-10.566h3.3Zm-3.5-13.3a1.482,1.482,0,0,1,.508-1.159,1.909,1.909,0,0,1,1.318-.452,1.909,1.909,0,0,1,1.318.452,1.482,1.482,0,0,1,.508,1.159,1.482,1.482,0,0,1-.508,1.159,1.909,1.909,0,0,1-1.318.452,1.909,1.909,0,0,1-1.318-.452A1.482,1.482,0,0,1,46.973-13.3ZM52.08-5.361a6.455,6.455,0,0,1,1.084-3.955,3.568,3.568,0,0,1,3.027-1.445,3.035,3.035,0,0,1,2.383,1.113V-15h3.3V0H58.916L58.75-1.133A3.116,3.116,0,0,1,56.172.2,3.562,3.562,0,0,1,53.184-1.25,6.659,6.659,0,0,1,52.08-5.361Zm3.291.205q0,2.813,1.641,2.813a1.62,1.62,0,0,0,1.563-.918V-7.285a1.576,1.576,0,0,0-1.543-.937q-1.523,0-1.65,2.461ZM69.7,0a3.716,3.716,0,0,1-.312-.947A3.06,3.06,0,0,1,66.846.2a3.749,3.749,0,0,1-2.539-.9,2.875,2.875,0,0,1-1.045-2.271,2.955,2.955,0,0,1,1.27-2.6,6.468,6.468,0,0,1,3.691-.879h1.016v-.559q0-1.462-1.26-1.462a1.03,1.03,0,0,0-1.172,1.158H63.516a2.95,2.95,0,0,1,1.3-2.487,5.479,5.479,0,0,1,3.325-.956,4.8,4.8,0,0,1,3.193.986,3.429,3.429,0,0,1,1.2,2.705v4.678a4.79,4.79,0,0,0,.449,2.227V0ZM67.637-2.148a1.836,1.836,0,0,0,1.021-.264,1.653,1.653,0,0,0,.581-.6V-4.7h-.957q-1.719,0-1.719,1.543a.942.942,0,0,0,.3.728A1.1,1.1,0,0,0,67.637-2.148Zm6.309-3.213a6.455,6.455,0,0,1,1.084-3.955,3.568,3.568,0,0,1,3.027-1.445,3.035,3.035,0,0,1,2.383,1.113V-15h3.3V0H80.781l-.166-1.133A3.116,3.116,0,0,1,78.037.2,3.562,3.562,0,0,1,75.049-1.25,6.659,6.659,0,0,1,73.945-5.361Zm3.291.205q0,2.813,1.641,2.813a1.62,1.62,0,0,0,1.563-.918V-7.285A1.576,1.576,0,0,0,78.9-8.223q-1.523,0-1.65,2.461ZM90.723.2a5.432,5.432,0,0,1-3.936-1.45,5.008,5.008,0,0,1-1.5-3.774V-5.3a6.489,6.489,0,0,1,.6-2.861,4.395,4.395,0,0,1,1.753-1.919,5.292,5.292,0,0,1,2.734-.679A4.574,4.574,0,0,1,93.887-9.38a5.43,5.43,0,0,1,1.289,3.853v1.279H88.633a2.372,2.372,0,0,0,.771,1.4,2.3,2.3,0,0,0,1.543.508,2.958,2.958,0,0,0,2.441-1.094l1.5,1.777A4.2,4.2,0,0,1,93.149-.308,5.891,5.891,0,0,1,90.723.2Zm-.371-8.418q-1.445,0-1.719,1.914h3.32v-.254a1.63,1.63,0,0,0-.4-1.226A1.593,1.593,0,0,0,90.352-8.223Zm11.68,5.254a.76.76,0,0,0-.439-.674,6.685,6.685,0,0,0-1.67-.527,7.615,7.615,0,0,1-2.031-.718A3.4,3.4,0,0,1,96.67-5.967a2.577,2.577,0,0,1-.42-1.455,2.92,2.92,0,0,1,1.2-2.4,4.948,4.948,0,0,1,3.145-.942,5.482,5.482,0,0,1,3.359.947,2.962,2.962,0,0,1,1.27,2.49h-3.3q0-1.27-1.338-1.27a1.326,1.326,0,0,0-.869.288.892.892,0,0,0-.352.718.819.819,0,0,0,.43.713,4.06,4.06,0,0,0,1.372.449,11.857,11.857,0,0,1,1.655.42,3.007,3.007,0,0,1,2.383,2.939,2.767,2.767,0,0,1-1.284,2.354A5.631,5.631,0,0,1,100.6.2a5.747,5.747,0,0,1-2.422-.488,4.05,4.05,0,0,1-1.66-1.328,3.007,3.007,0,0,1-.6-1.768h3.076a1.272,1.272,0,0,0,.488,1.069,2.009,2.009,0,0,0,1.2.337,1.58,1.58,0,0,0,1.011-.273A.875.875,0,0,0,102.031-2.969Z" transform="translate(634.668 223)" fill="#12263f"/>
    <path id="What_do_you_mean_by-2" data-name="What do you mean by" d="M10.029-5.664H4.5V0H1.074V-14.219h9.512v2.646H4.5V-8.3h5.527Zm1.211.283A6.236,6.236,0,0,1,11.855-8.2a4.4,4.4,0,0,1,1.768-1.9,5.323,5.323,0,0,1,2.705-.664,4.858,4.858,0,0,1,3.74,1.47,5.64,5.64,0,0,1,1.367,4v.117a5.472,5.472,0,0,1-1.372,3.921A4.871,4.871,0,0,1,16.348.2a4.927,4.927,0,0,1-3.623-1.353A5.29,5.29,0,0,1,11.25-4.824Zm3.291.205a3.932,3.932,0,0,0,.459,2.148,1.529,1.529,0,0,0,1.357.684q1.758,0,1.8-2.705v-.332q0-2.842-1.816-2.842-1.65,0-1.787,2.451ZM29.277-7.588l-1.084-.078a1.947,1.947,0,0,0-1.992.977V0H22.91V-10.566H26L26.1-9.209a2.548,2.548,0,0,1,2.314-1.553,3.209,3.209,0,0,1,.918.117Zm5.508-5.605v2.627h1.738v2.285H34.785v4.834a1.234,1.234,0,0,0,.215.83,1.152,1.152,0,0,0,.85.234,4.828,4.828,0,0,0,.82-.059V-.088A6.074,6.074,0,0,1,34.814.2a3.448,3.448,0,0,1-2.51-.8,3.282,3.282,0,0,1-.811-2.432V-8.281H30.146v-2.285h1.348v-2.627ZM43.77,0a3.716,3.716,0,0,1-.312-.947A3.06,3.06,0,0,1,40.918.2a3.749,3.749,0,0,1-2.539-.9,2.875,2.875,0,0,1-1.045-2.271,2.955,2.955,0,0,1,1.27-2.6,6.468,6.468,0,0,1,3.691-.879h1.016v-.559q0-1.462-1.26-1.462a1.03,1.03,0,0,0-1.172,1.158H37.588a2.95,2.95,0,0,1,1.3-2.487,5.479,5.479,0,0,1,3.325-.956,4.8,4.8,0,0,1,3.193.986,3.429,3.429,0,0,1,1.2,2.705v4.678a4.79,4.79,0,0,0,.449,2.227V0ZM41.709-2.148a1.836,1.836,0,0,0,1.021-.264,1.653,1.653,0,0,0,.581-.6V-4.7h-.957q-1.719,0-1.719,1.543a.942.942,0,0,0,.3.728A1.1,1.1,0,0,0,41.709-2.148ZM51.9,0H48.6V-15h3.3Zm7.139.2a5.432,5.432,0,0,1-3.936-1.45,5.008,5.008,0,0,1-1.5-3.774V-5.3a6.489,6.489,0,0,1,.6-2.861,4.395,4.395,0,0,1,1.753-1.919,5.292,5.292,0,0,1,2.734-.679A4.574,4.574,0,0,1,62.207-9.38,5.43,5.43,0,0,1,63.5-5.527v1.279H56.953a2.372,2.372,0,0,0,.771,1.4,2.3,2.3,0,0,0,1.543.508,2.958,2.958,0,0,0,2.441-1.094l1.5,1.777A4.2,4.2,0,0,1,61.47-.308,5.891,5.891,0,0,1,59.043.2Zm-.371-8.418q-1.445,0-1.719,1.914h3.32v-.254a1.63,1.63,0,0,0-.4-1.226A1.593,1.593,0,0,0,58.672-8.223ZM68.7-2.539h4.814V0H64.541V-1.836l4.688-6.191H64.746v-2.539h8.662v1.777ZM81.064,0a3.716,3.716,0,0,1-.312-.947A3.06,3.06,0,0,1,78.213.2a3.749,3.749,0,0,1-2.539-.9,2.875,2.875,0,0,1-1.045-2.271,2.955,2.955,0,0,1,1.27-2.6,6.468,6.468,0,0,1,3.691-.879h1.016v-.559q0-1.462-1.26-1.462a1.03,1.03,0,0,0-1.172,1.158H74.883a2.95,2.95,0,0,1,1.3-2.487,5.479,5.479,0,0,1,3.325-.956,4.8,4.8,0,0,1,3.193.986,3.429,3.429,0,0,1,1.2,2.705v4.678a4.79,4.79,0,0,0,.449,2.227V0ZM79-2.148a1.836,1.836,0,0,0,1.021-.264,1.653,1.653,0,0,0,.581-.6V-4.7h-.957q-1.719,0-1.719,1.543a.942.942,0,0,0,.3.728A1.1,1.1,0,0,0,79-2.148Zm12.256-.82a.76.76,0,0,0-.439-.674,6.685,6.685,0,0,0-1.67-.527,7.615,7.615,0,0,1-2.031-.718A3.4,3.4,0,0,1,85.9-5.967a2.577,2.577,0,0,1-.42-1.455,2.92,2.92,0,0,1,1.2-2.4,4.948,4.948,0,0,1,3.145-.942,5.482,5.482,0,0,1,3.359.947,2.962,2.962,0,0,1,1.27,2.49h-3.3q0-1.27-1.338-1.27a1.326,1.326,0,0,0-.869.288.892.892,0,0,0-.352.718.819.819,0,0,0,.43.713,4.06,4.06,0,0,0,1.372.449,11.857,11.857,0,0,1,1.655.42,3.007,3.007,0,0,1,2.383,2.939A2.767,2.767,0,0,1,93.149-.713,5.631,5.631,0,0,1,89.824.2,5.747,5.747,0,0,1,87.4-.293a4.05,4.05,0,0,1-1.66-1.328,3.007,3.007,0,0,1-.6-1.768h3.076a1.272,1.272,0,0,0,.488,1.069,2.009,2.009,0,0,0,1.2.337,1.58,1.58,0,0,0,1.011-.273A.875.875,0,0,0,91.26-2.969Z" transform="translate(640.668 299)" fill="#12263f"/>
    <path id="What_do_you_mean_by-3" data-name="What do you mean by" d="M11.8-6.135a7.546,7.546,0,0,1-.694,3.313A5.132,5.132,0,0,1,9.136-.6,5.494,5.494,0,0,1,6.223.176a5.572,5.572,0,0,1-2.9-.751A5.123,5.123,0,0,1,1.349-2.725,7.329,7.329,0,0,1,.606-5.933v-.721A7.58,7.58,0,0,1,1.3-9.971,5.119,5.119,0,0,1,3.274-12.19a5.533,5.533,0,0,1,2.931-.782,5.479,5.479,0,0,1,2.9.773A5.211,5.211,0,0,1,11.087-10,7.362,7.362,0,0,1,11.8-6.724ZM8.666-6.671a5.381,5.381,0,0,0-.637-2.9,2.044,2.044,0,0,0-1.824-.989q-2.32,0-2.452,3.48l-.009.94a5.535,5.535,0,0,0,.624,2.892A2.041,2.041,0,0,0,6.223-2.232a2.016,2.016,0,0,0,1.8-.993,5.383,5.383,0,0,0,.642-2.856ZM22.087-4.685a5.735,5.735,0,0,1-1,3.538A3.2,3.2,0,0,1,18.4.176a2.742,2.742,0,0,1-2.153-.958V3.656H13.28V-9.51h2.769l.088.879a2.742,2.742,0,0,1,2.241-1.055,3.224,3.224,0,0,1,2.733,1.3,5.805,5.805,0,0,1,.976,3.564Zm-2.962-.185q0-2.531-1.477-2.531a1.394,1.394,0,0,0-1.406.756V-2.9a1.439,1.439,0,0,0,1.424.791q1.415,0,1.459-2.443Zm3.894.026a5.613,5.613,0,0,1,.554-2.536,3.96,3.96,0,0,1,1.591-1.709,4.791,4.791,0,0,1,2.435-.6,4.373,4.373,0,0,1,3.366,1.323,5.076,5.076,0,0,1,1.23,3.6v.105a4.925,4.925,0,0,1-1.235,3.529A4.384,4.384,0,0,1,27.615.176a4.434,4.434,0,0,1-3.261-1.217,4.761,4.761,0,0,1-1.327-3.3Zm2.962.185a3.538,3.538,0,0,0,.413,1.934,1.376,1.376,0,0,0,1.222.615q1.582,0,1.617-2.435v-.3Q29.232-7.4,27.6-7.4q-1.485,0-1.608,2.206ZM39.252-6.829l-.976-.07a1.752,1.752,0,0,0-1.793.879V0H33.521V-9.51H36.3l.1,1.222a2.294,2.294,0,0,1,2.083-1.4,2.888,2.888,0,0,1,.826.105Zm4.957-5.045V-9.51h1.564v2.057H44.209V-3.1a1.111,1.111,0,0,0,.193.747,1.037,1.037,0,0,0,.765.211,4.345,4.345,0,0,0,.738-.053V-.079a5.466,5.466,0,0,1-1.67.255,3.1,3.1,0,0,1-2.259-.721,2.954,2.954,0,0,1-.729-2.188v-4.72H40.034V-9.51h1.213v-2.364ZM52.6-1.028a3.054,3.054,0,0,1-2.54,1.2,3,3,0,0,1-2.369-.91,3.826,3.826,0,0,1-.8-2.615V-9.51h2.962v6.179a1.065,1.065,0,0,0,1.187,1.222,1.548,1.548,0,0,0,1.45-.729V-9.51h2.979V0H52.69ZM59.81-9.51l.1,1.116a3.225,3.225,0,0,1,2.716-1.292,2.713,2.713,0,0,1,2.219.888,4.226,4.226,0,0,1,.76,2.672V0H62.631V-6a1.6,1.6,0,0,0-.29-1.059A1.342,1.342,0,0,0,61.286-7.4a1.413,1.413,0,0,0-1.292.686V0H57.032V-9.51ZM70.365,0H67.395V-9.51h2.971ZM67.219-11.971a1.334,1.334,0,0,1,.457-1.043,1.718,1.718,0,0,1,1.187-.407,1.718,1.718,0,0,1,1.187.407,1.334,1.334,0,0,1,.457,1.043,1.334,1.334,0,0,1-.457,1.043,1.718,1.718,0,0,1-1.187.407,1.718,1.718,0,0,1-1.187-.407A1.334,1.334,0,0,1,67.219-11.971Zm4.6,7.146a5.809,5.809,0,0,1,.976-3.56,3.211,3.211,0,0,1,2.725-1.3,2.731,2.731,0,0,1,2.145,1V-13.5h2.971V0H77.968l-.149-1.02A2.8,2.8,0,0,1,75.5.176a3.205,3.205,0,0,1-2.689-1.3A5.993,5.993,0,0,1,71.815-4.825Zm2.962.185q0,2.531,1.477,2.531a1.458,1.458,0,0,0,1.406-.826V-6.557A1.419,1.419,0,0,0,76.271-7.4q-1.371,0-1.485,2.215ZM87.671,0a3.344,3.344,0,0,1-.281-.853A2.754,2.754,0,0,1,85.1.176a3.374,3.374,0,0,1-2.285-.813,2.588,2.588,0,0,1-.94-2.043,2.66,2.66,0,0,1,1.143-2.338,5.821,5.821,0,0,1,3.322-.791h.914v-.5q0-1.316-1.134-1.316a.927.927,0,0,0-1.055,1.042H82.107a2.655,2.655,0,0,1,1.173-2.239,4.931,4.931,0,0,1,2.993-.86,4.323,4.323,0,0,1,2.874.888,3.086,3.086,0,0,1,1.081,2.435v4.21a4.311,4.311,0,0,0,.4,2V0ZM85.816-1.934a1.652,1.652,0,0,0,.918-.237,1.487,1.487,0,0,0,.523-.536V-4.228H86.4q-1.547,0-1.547,1.389a.848.848,0,0,0,.272.655A.986.986,0,0,0,85.816-1.934Zm5.678-2.892a5.809,5.809,0,0,1,.976-3.56,3.211,3.211,0,0,1,2.725-1.3,2.731,2.731,0,0,1,2.145,1V-13.5h2.971V0H97.646L97.5-1.02a2.8,2.8,0,0,1-2.32,1.2,3.205,3.205,0,0,1-2.689-1.3A5.993,5.993,0,0,1,91.494-4.825Zm2.962.185q0,2.531,1.477,2.531a1.458,1.458,0,0,0,1.406-.826V-6.557A1.419,1.419,0,0,0,95.95-7.4q-1.371,0-1.485,2.215ZM106.594.176a4.889,4.889,0,0,1-3.542-1.305,4.507,4.507,0,0,1-1.354-3.4v-.246a5.84,5.84,0,0,1,.541-2.575,3.955,3.955,0,0,1,1.578-1.727,4.763,4.763,0,0,1,2.461-.611,4.117,4.117,0,0,1,3.164,1.244,4.887,4.887,0,0,1,1.16,3.467v1.151h-5.889a2.135,2.135,0,0,0,.694,1.257,2.066,2.066,0,0,0,1.389.457,2.662,2.662,0,0,0,2.2-.984l1.354,1.6a3.784,3.784,0,0,1-1.569,1.217A5.3,5.3,0,0,1,106.594.176ZM106.26-7.4q-1.3,0-1.547,1.723H107.7v-.229a1.467,1.467,0,0,0-.36-1.1A1.434,1.434,0,0,0,106.26-7.4Zm10.512,4.729a.684.684,0,0,0-.4-.606,6.016,6.016,0,0,0-1.5-.475,6.853,6.853,0,0,1-1.828-.646,3.062,3.062,0,0,1-1.1-.971,2.319,2.319,0,0,1-.378-1.31,2.628,2.628,0,0,1,1.081-2.158,4.453,4.453,0,0,1,2.83-.848,4.934,4.934,0,0,1,3.023.853,2.666,2.666,0,0,1,1.143,2.241h-2.971q0-1.143-1.2-1.143a1.194,1.194,0,0,0-.782.259.8.8,0,0,0-.316.646.737.737,0,0,0,.387.642,3.654,3.654,0,0,0,1.235.4,10.671,10.671,0,0,1,1.49.378,2.706,2.706,0,0,1,2.145,2.646,2.491,2.491,0,0,1-1.156,2.118,5.068,5.068,0,0,1-2.993.817,5.172,5.172,0,0,1-2.18-.439,3.645,3.645,0,0,1-1.494-1.2,2.707,2.707,0,0,1-.536-1.591h2.769a1.145,1.145,0,0,0,.439.962,1.808,1.808,0,0,0,1.081.3,1.422,1.422,0,0,0,.91-.246A.787.787,0,0,0,116.771-2.672Z" transform="translate(828.668 223)" fill="#12263f"/>
    <path id="What_do_you_mean_by-4" data-name="What do you mean by" d="M8.235-2.391H4.008L3.27,0h-3.3L4.667-12.8h2.9L12.3,0H8.982ZM4.746-4.772H7.5L6.117-9.211ZM15.469-9.51l.1,1.116a3.27,3.27,0,0,1,2.716-1.292,2.407,2.407,0,0,1,2.435,1.433,3.165,3.165,0,0,1,2.795-1.433q2.892,0,2.971,3.5V0H23.511V-6a1.813,1.813,0,0,0-.246-1.063,1.048,1.048,0,0,0-.9-.334,1.4,1.4,0,0,0-1.31.782l.009.123V0H18.1V-5.985a1.906,1.906,0,0,0-.237-1.081,1.045,1.045,0,0,0-.905-.334,1.42,1.42,0,0,0-1.3.782V0H12.691V-9.51ZM32.774.176a4.889,4.889,0,0,1-3.542-1.305,4.507,4.507,0,0,1-1.354-3.4v-.246a5.84,5.84,0,0,1,.541-2.575A3.955,3.955,0,0,1,30-9.075a4.763,4.763,0,0,1,2.461-.611,4.117,4.117,0,0,1,3.164,1.244,4.887,4.887,0,0,1,1.16,3.467v1.151H30.894a2.135,2.135,0,0,0,.694,1.257,2.066,2.066,0,0,0,1.389.457,2.662,2.662,0,0,0,2.2-.984l1.354,1.6A3.784,3.784,0,0,1,34.958-.277,5.3,5.3,0,0,1,32.774.176ZM32.44-7.4q-1.3,0-1.547,1.723h2.988v-.229a1.467,1.467,0,0,0-.36-1.1A1.434,1.434,0,0,0,32.44-7.4ZM40.693-9.51l.1,1.116a3.225,3.225,0,0,1,2.716-1.292,2.713,2.713,0,0,1,2.219.888,4.226,4.226,0,0,1,.76,2.672V0H43.515V-6a1.6,1.6,0,0,0-.29-1.059A1.342,1.342,0,0,0,42.17-7.4a1.413,1.413,0,0,0-1.292.686V0H37.916V-9.51ZM53.481,0A3.344,3.344,0,0,1,53.2-.853,2.754,2.754,0,0,1,50.915.176,3.374,3.374,0,0,1,48.63-.637a2.588,2.588,0,0,1-.94-2.043,2.66,2.66,0,0,1,1.143-2.338,5.821,5.821,0,0,1,3.322-.791h.914v-.5q0-1.316-1.134-1.316A.927.927,0,0,0,50.88-6.587H47.918a2.655,2.655,0,0,1,1.173-2.239,4.931,4.931,0,0,1,2.993-.86,4.323,4.323,0,0,1,2.874.888,3.086,3.086,0,0,1,1.081,2.435v4.21a4.311,4.311,0,0,0,.4,2V0ZM51.627-1.934a1.652,1.652,0,0,0,.918-.237,1.487,1.487,0,0,0,.523-.536V-4.228h-.861q-1.547,0-1.547,1.389a.848.848,0,0,0,.272.655A.986.986,0,0,0,51.627-1.934Zm9.545-.352H65.5V0H57.428V-1.652l4.219-5.572H57.612V-9.51h7.8v1.6ZM72.3,0a3.344,3.344,0,0,1-.281-.853A2.754,2.754,0,0,1,69.732.176a3.374,3.374,0,0,1-2.285-.813,2.588,2.588,0,0,1-.94-2.043,2.66,2.66,0,0,1,1.143-2.338,5.821,5.821,0,0,1,3.322-.791h.914v-.5q0-1.316-1.134-1.316A.927.927,0,0,0,69.7-6.587H66.735a2.655,2.655,0,0,1,1.173-2.239,4.931,4.931,0,0,1,2.993-.86,4.323,4.323,0,0,1,2.874.888,3.086,3.086,0,0,1,1.081,2.435v4.21a4.311,4.311,0,0,0,.4,2V0ZM70.444-1.934a1.652,1.652,0,0,0,.918-.237,1.487,1.487,0,0,0,.523-.536V-4.228h-.861q-1.547,0-1.547,1.389a.848.848,0,0,0,.272.655A.986.986,0,0,0,70.444-1.934Zm11.03-.738a.684.684,0,0,0-.4-.606,6.016,6.016,0,0,0-1.5-.475A6.853,6.853,0,0,1,77.748-4.4a3.062,3.062,0,0,1-1.1-.971,2.319,2.319,0,0,1-.378-1.31,2.628,2.628,0,0,1,1.081-2.158,4.453,4.453,0,0,1,2.83-.848,4.934,4.934,0,0,1,3.023.853,2.666,2.666,0,0,1,1.143,2.241H81.378q0-1.143-1.2-1.143a1.194,1.194,0,0,0-.782.259.8.8,0,0,0-.316.646.737.737,0,0,0,.387.642,3.654,3.654,0,0,0,1.235.4,10.671,10.671,0,0,1,1.49.378A2.706,2.706,0,0,1,84.331-2.76,2.491,2.491,0,0,1,83.175-.642a5.068,5.068,0,0,1-2.993.817A5.172,5.172,0,0,1,78-.264a3.645,3.645,0,0,1-1.494-1.2,2.707,2.707,0,0,1-.536-1.591h2.769a1.145,1.145,0,0,0,.439.962,1.808,1.808,0,0,0,1.081.3,1.422,1.422,0,0,0,.91-.246A.787.787,0,0,0,81.475-2.672Z" transform="translate(846.668 299)" fill="#12263f"/>
  </g>
</svg>
