<svg xmlns="http://www.w3.org/2000/svg" width="539.345" height="238.982" viewBox="0 0 539.345 238.982">
  <g id="Grupo_84419" data-name="Grupo 84419" transform="translate(-1682.393 -831.122)">
    <g id="Grupo_84418" data-name="Grupo 84418" transform="translate(1682.393 831.122)">
      <path id="Trazado_145361" data-name="Trazado 145361" d="M2285.19,1246.139,2163.9,1246.1l-103-.03-14.185,0L1806.5,1246s-12.665-31.316-9.271-65.178a101.689,101.689,0,0,1,2.082-12.769c0-.013.006-.024.009-.037q.905-3.921,2.172-7.809a77.563,77.563,0,0,1,18.681-30.837c55.729-56.241,127.746-9.231,154.769-10.6s28.545-55.335,109.284-61.781c44.784-3.574,92.859,4.79,108.384,42.348,6.117,14.8,7.182,34.131,1,59.052-3.6,14.495-.512,23.361,6.348,29.1,14.249,11.932,44.793,10.39,65.619,17.819C2281.1,1210.844,2291.218,1221.36,2285.19,1246.139Z" transform="translate(-1772.003 -1007.67)" fill="#90d1ff" opacity="0.302"/>
      <path id="Trazado_145362" data-name="Trazado 145362" d="M2378.083,1344.17l-350.108,45.487a113.374,113.374,0,0,1-3.988-37.317l346.75-96.324c6.117,14.8,7.182,34.131,1,59.052C2368.139,1329.561,2371.223,1338.428,2378.083,1344.17Z" transform="translate(-1950.127 -1164.349)" fill="#f8fbff"/>
      <path id="Trazado_145363" data-name="Trazado 145363" d="M2055.652,1337.959l-256.32,63.806a101.647,101.647,0,0,1,2.082-12.769c0-.013.005-.024.009-.037q.905-3.922,2.172-7.81Z" transform="translate(-1774.104 -1228.615)" fill="#f8fbff"/>
      <path id="Trazado_145364" data-name="Trazado 145364" d="M2046.719,1651.96l-240.217-.075s-16.031-39.64-7.189-77.947c0-.013.006-.024.009-.037a119.951,119.951,0,0,1,64.9,15.653c40.541,23.056,107.1,6.187,126.364,19.118S2014.274,1635,2028.6,1637.3a23.46,23.46,0,0,1,18.117,14.659S2046.719,1651.958,2046.719,1651.96Z" transform="translate(-1772.002 -1413.556)" fill="#4182af"/>
      <path id="Trazado_145365" data-name="Trazado 145365" d="M3405.024,1191.564a6.7,6.7,0,1,1,6.7,6.7A6.7,6.7,0,0,1,3405.024,1191.564Z" transform="translate(-3033.387 -1108.549)" fill="#f8fbff"/>
      <path id="Trazado_145366" data-name="Trazado 145366" d="M3022.507,1746.153c6.651-2.086,15.208-5.479,10.555-8.026-4.984-2.729-11.339,3.061-14.786,6.893-.178-.03-.357-.058-.538-.084a19.425,19.425,0,0,0-2.678-.189c6.568-10.528,13.9-24.542,7.656-26.324-6.723-1.921-11.541,15.12-13.918,27.057-6.57,1.426-13.638,4.614-21,6.739-2.6-9.464-8.593-23.578-21.145-23.267-13.18.326,3.276,15.646,14.363,24.829a36.326,36.326,0,0,1-7.5.476,35.767,35.767,0,0,0-26.216,10.176h86.562C3037.106,1759.281,3032.182,1749.779,3022.507,1746.153Z" transform="translate(-2674.406 -1526.882)" fill="#93ff33"/>
      <g id="Grupo_84409" data-name="Grupo 84409" transform="translate(138.091)">
        <path id="Trazado_145367" data-name="Trazado 145367" d="M2550.884,837.932s-6.033-6.581-7.9-6.8-9.543,3.459-9.982,4.91,8.446-1.451,8.94,0,1.042,2.439,3.565,2.549a10.645,10.645,0,0,1,4.717,1.536Z" transform="translate(-2487.573 -831.122)" fill="#fff5a2"/>
        <path id="Trazado_145368" data-name="Trazado 145368" d="M2645.361,1882.663c-1.917-1.17-.826-9.9-.826-9.9s8.933-7.147,10.161-1.675,8.486,7.928,12.618,8.6c2.852.462,3.735,2.042,4.008,2.976Z" transform="translate(-2574.813 -1645.112)" fill="#091946"/>
        <path id="Trazado_145369" data-name="Trazado 145369" d="M2543.084,1454.764c-2.289-.863-15.035-31.46-14.5-41.4.063-1.179-.167-10.846-.53-12.849-.283-1.56-.662-3.378-1.118-5.394-.7-3.07-1.566-6.6-2.533-10.4-2.711-10.653-6.162-23.319-8.544-33.4,4.273-9.583,9.75-17.97,14.772-20.834,3.585.437,7.04,1.1,9.6,1.653a45.078,45.078,0,0,1,4.695,3.1c.4,1.987.977,5.3,1.447,9.569.3,2.792.556,6,.676,9.5.85,24.853-3.494,51.86,7.585,95.942C2554.938,1451.482,2546.629,1456.1,2543.084,1454.764Z" transform="translate(-2474.136 -1222.761)" fill="#cbba34"/>
        <path id="Trazado_145370" data-name="Trazado 145370" d="M2546.367,1344.813c-1.846,9.241-6.289,28.989-21.968,39.917-2.711-10.653-6.162-23.319-8.544-33.4,4.273-9.583,9.75-17.97,14.772-20.834,3.585.437,7.04,1.1,9.6,1.653a45.078,45.078,0,0,1,4.695,3.1C2545.318,1337.231,2545.9,1340.545,2546.367,1344.813Z" transform="translate(-2474.136 -1222.761)" fill="#a89a2a"/>
        <path id="Trazado_145371" data-name="Trazado 145371" d="M2510.171,961.395l-.008,1.55s.422,4.848-5.547,5.556-10.491-1.89-10.33-5.631a43.915,43.915,0,0,0,1.167-7.282,16.891,16.891,0,0,0-.212-2.9l11.567-.231,3.407.557Z" transform="translate(-2457.217 -926.277)" fill="#fff5a2"/>
        <path id="Trazado_145372" data-name="Trazado 145372" d="M2513.7,953.01l-.044,8.385a9.786,9.786,0,0,1-4.169.92c-5.316,0-8.753-3.9-10.549-6.728a16.891,16.891,0,0,0-.212-2.9l11.567-.231Z" transform="translate(-2460.706 -926.277)" fill="#cbba34"/>
        <path id="Trazado_145373" data-name="Trazado 145373" d="M2504.287,885.03s-14.814,2.992-16.536-6.262-4.793-15.1,4.593-17.4,11.886.886,13.212,3.836S2508.1,884.013,2504.287,885.03Z" transform="translate(-2450.615 -854.223)" fill="#fff5a2"/>
        <path id="Trazado_145374" data-name="Trazado 145374" d="M2472.7,1901.563a33.044,33.044,0,0,0-2.091-6.993c-1.282-2.564-9.441-.932-9.441-.932s-1.631,1.4-1.981,7.925Z" transform="translate(-2429.696 -1664.011)" fill="#091946"/>
        <path id="Trazado_145375" data-name="Trazado 145375" d="M2470.121,1339.358s-8.121,36.181-10.723,52.513c-.974,6.111-3,25.688-3.32,31.867-.435,8.481-3.232,34.435-3.232,34.435s-4.717-2.981-11.715-.2c0,0-1.768-11.634-2.893-36-.329-7.143,1.051-17.873.884-21.358-.824-17.136-6.3-61.442-1.946-64.286S2470.121,1339.358,2470.121,1339.358Z" transform="translate(-2411.128 -1226.727)" fill="#cbba34"/>
        <path id="Trazado_145376" data-name="Trazado 145376" d="M2493.572,838.746a31.058,31.058,0,0,1-9-2.436c-3.955-1.72-8.944.174-10.564,1.027a2.4,2.4,0,0,1,.4-.974,2.174,2.174,0,0,0-.835,1.236c-.075.055-.109.093-.089.106a2.786,2.786,0,0,0-1.354.088s.37-.053.5.185a.22.22,0,0,0,.059.065c-6.169,2.981-6.739,12.731-4.753,14.987,2.388,2.714,5.252,8.826,5.252,8.826a5.238,5.238,0,0,0,.61-3.833c-.434-2.388,1.629-2.388,4.234-3.474s.434-4.125,2.714-5.971,10.64-.76,10.531-2.172C2494.375,845.277,2493.572,839.063,2493.572,838.746Z" transform="translate(-2435.75 -834.643)" fill="#091946"/>
        <path id="Trazado_145377" data-name="Trazado 145377" d="M2459.641,847.85a4.2,4.2,0,0,0-2,2.27c-.959,2.257-.178,3.489-.178,3.489s15.679,14.219,14.658,16.807c-.532,1.352-12.679,8.475-17.726,11.389-2.075-.174-3.681-.159-3.733-.159l0,0s-3.433,10.462-15.729-.816c-2.159,3.142-18.9,10.857-15.994,24.172q1.025,4.693,1.783,8.865c3.455,18.866,3.184,30,2.511,36.134-.525,4.79-2.511,5.272-.734,6.547a52.861,52.861,0,0,0,9.927,2.89,98.08,98.08,0,0,0,19.231,1.931c12.648.079,17.435-4.279,17.435-4.279,3.348-3.275-3.274-16.161-2.744-25.462.272-4.772-.027-21.109-.074-28.616l0,0,.011-.01c.606-.665,19.109-21.022,22.752-32.579,0,0,0,0,0-.005a15.4,15.4,0,0,0,.432-1.677C2490.582,863.052,2459.641,847.85,2459.641,847.85Z" transform="translate(-2397.865 -844.241)" fill="#90d1ff"/>
        <path id="Trazado_145378" data-name="Trazado 145378" d="M2430.945,1173.978c.673-6.138.943-17.268-2.511-36.134q.355-1.126.7-2.16a3.3,3.3,0,0,1,6.321.223C2438.011,1145.778,2440.31,1162.559,2430.945,1173.978Z" transform="translate(-2405.575 -1068.215)" fill="#3ca8f4"/>
        <path id="Trazado_145379" data-name="Trazado 145379" d="M2420.682,1258.608s7.69-4.649,10.073-4.06,7.553,2.837,7.233,4.211-6.327,2.312-7.372,2.15a5.139,5.139,0,0,0-3.417.619c-.685.591-6.134.811-6.8-.784S2420.682,1258.608,2420.682,1258.608Z" transform="translate(-2399.089 -1163.159)" fill="#fff5a2"/>
        <path id="Trazado_145380" data-name="Trazado 145380" d="M2359.548,1000.733s-9.427.683-14.55,3.685c-3.314,1.943-22.519,32.542-22.519,37.046s20.167,20.481,20.167,20.481,3.743,1.243,3.875-4.718c0,0-10.06-14.871-9.53-16.593.333-1.082,15.16-12.975,15.16-12.975Z" transform="translate(-2322.479 -964.141)" fill="#90d1ff"/>
        <path id="Trazado_145381" data-name="Trazado 145381" d="M2661.022,952.477c-3.643,11.556-22.145,31.913-22.752,32.579l-.01.011-.006.005a.008.008,0,0,0,0-.005c-.053-.2-1.579-6.027,2.064-10.192C2644.024,970.635,2656.823,960.012,2661.022,952.477Z" transform="translate(-2569.844 -926.296)" fill="#3ca8f4"/>
        <g id="Grupo_84408" data-name="Grupo 84408" transform="translate(33.513 35.196)">
          <path id="Trazado_145382" data-name="Trazado 145382" d="M2477.822,1001.739c-.041-.817,3.829-1.946,3.829-1.946s4.428,6.14,11.724,6.246c0,0-2.079,4.046-4.53,5.094C2488.845,1011.133,2478.063,1006.589,2477.822,1001.739Z" transform="translate(-2477.822 -998.601)" fill="#0f2771"/>
          <path id="Trazado_145383" data-name="Trazado 145383" d="M2549.916,1010.588s3.865-2.292,3.879-4.776c0,0,2.5-.312,3.586.9,0,0,.916,4.257-.3,6.73C2557.082,1013.441,2551.516,1012.593,2549.916,1010.588Z" transform="translate(-2534.363 -1003.294)" fill="#0f2771"/>
          <path id="Trazado_145384" data-name="Trazado 145384" d="M2563.358,1091.5a8.08,8.08,0,0,1-2.3,5.349l-2.207,2.257a1.36,1.36,0,0,1-1.995-.055l-3.062-3.5a4.85,4.85,0,0,1-1.195-3.4c.124-2.774.347-8.117.479-13.27.108-4.175.159-8.229.05-10.687-.347-7.85-3.211-32.79-3.211-32.79h1.886a100.882,100.882,0,0,1,8.316,22.556,87.636,87.636,0,0,1,1.838,10.234S2563.689,1082.436,2563.358,1091.5Z" transform="translate(-2534.366 -1026.531)" fill="#1c47cc"/>
          <path id="Trazado_145385" data-name="Trazado 145385" d="M2536.955,1021.806l5.242-1.256a.794.794,0,0,1,.665.913c-.019.854-1.476,3.348-2.122,3.548S2535.716,1023.533,2536.955,1021.806Z" transform="translate(-2524.025 -1014.88)" fill="#1c47cc"/>
          <path id="Trazado_145386" data-name="Trazado 145386" d="M2477.822,996.212c-.041-.817,3.829-1.945,3.829-1.945s4.428,6.14,11.724,6.246c0,0-2.079,4.046-4.53,5.094C2488.845,1005.607,2478.063,1001.063,2477.822,996.212Z" transform="translate(-2477.822 -994.267)" fill="#3ca8f4"/>
          <path id="Trazado_145387" data-name="Trazado 145387" d="M2549.916,1005.727s3.865-2.291,3.879-4.776c0,0,2.5-.312,3.586.9,0,0,.916,4.257-.3,6.73C2557.082,1008.58,2551.516,1007.732,2549.916,1005.727Z" transform="translate(-2534.363 -999.481)" fill="#3ca8f4"/>
          <path id="Trazado_145388" data-name="Trazado 145388" d="M2573.089,1173.5a8.081,8.081,0,0,1-2.3,5.349l-2.207,2.257a1.359,1.359,0,0,1-1.995-.055l-3.063-3.5a4.85,4.85,0,0,1-1.195-3.4c.124-2.774.347-8.118.479-13.27,4.893-6.112,6.578-14.293,7.042-20.922a87.491,87.491,0,0,1,1.839,10.234S2573.42,1164.432,2573.089,1173.5Z" transform="translate(-2544.097 -1108.527)" fill="#1c47cc"/>
        </g>
      </g>
      <path id="Trazado_145391" data-name="Trazado 145391" d="M3619.642,1788.061l-121.289-.036-.161-.03a40.289,40.289,0,0,1,31.489-14.663c20.8.052,20.544-10.743,47.794-17.463a106.01,106.01,0,0,0,22.555-8.638C3615.548,1752.765,3625.67,1763.281,3619.642,1788.061Z" transform="translate(-3106.455 -1549.592)" fill="#4182af"/>
      <g id="Grupo_84417" data-name="Grupo 84417" transform="translate(250.803 37.043)">
        <path id="Trazado_145392" data-name="Trazado 145392" d="M3188.857,1114.294V1285.75a2.723,2.723,0,0,1-2.615,2.805h-2.614a2.519,2.519,0,0,1-1.842-.82,2.9,2.9,0,0,1-.772-1.985V1114.294a2.851,2.851,0,0,1,1.248-2.387,2.452,2.452,0,0,1,1.366-.418h2.614A2.722,2.722,0,0,1,3188.857,1114.294Z" transform="translate(-3108.507 -1088.046)" fill="#70bc2d"/>
        <path id="Trazado_145393" data-name="Trazado 145393" d="M3183.032,1115.412v171.457a2.857,2.857,0,0,1-1.246,2.387,2.9,2.9,0,0,1-.772-1.985V1115.814a2.851,2.851,0,0,1,1.248-2.387A2.9,2.9,0,0,1,3183.032,1115.412Z" transform="translate(-3108.507 -1089.566)" fill="#8ad24a"/>
        <path id="Trazado_145394" data-name="Trazado 145394" d="M2998.957,1434.643l-14.471,9.754,13.122,11.5,32.477-2.048v-13.119Z" transform="translate(-2954.378 -1341.483)" fill="#8ad24a"/>
        <path id="Trazado_145395" data-name="Trazado 145395" d="M3185.48,1469.833a1.5,1.5,0,0,0,.105,1.244c.206.287.493.2.642-.2a1.5,1.5,0,0,0-.1-1.244C3185.916,1469.341,3185.628,1469.433,3185.48,1469.833Z" transform="translate(-3111.943 -1368.79)" fill="#7db6fd"/>
        <path id="Trazado_145396" data-name="Trazado 145396" d="M3185.48,1505.79a1.5,1.5,0,0,0,.105,1.244c.206.287.493.2.642-.2a1.5,1.5,0,0,0-.1-1.244C3185.916,1505.3,3185.628,1505.39,3185.48,1505.79Z" transform="translate(-3111.943 -1396.99)" fill="#7db6fd"/>
        <g id="Grupo_84412" data-name="Grupo 84412" transform="translate(77.065 66.657)">
          <path id="Trazado_145397" data-name="Trazado 145397" d="M3253.309,1311.795l22.613,9.736-21.744,11.547-52.036-1.808v-16.242Z" transform="translate(-3202.142 -1311.795)" fill="#3ca8f4"/>
          <path id="Trazado_145398" data-name="Trazado 145398" d="M3439.313,1311.795h3.284l22.614,9.736h-3.286Z" transform="translate(-3388.146 -1311.795)" fill="#4182af"/>
          <path id="Trazado_145399" data-name="Trazado 145399" d="M3443.34,1368.471h1.751l23.278-11.547h-3.285Z" transform="translate(-3391.304 -1347.188)" fill="#90d1ff"/>
          <path id="Trazado_145400" data-name="Trazado 145400" d="M3214.039,1336.349a1.921,1.921,0,0,1-.135,1.6c-.264.368-.633.251-.823-.261a1.924,1.924,0,0,1,.135-1.6C3213.48,1335.719,3213.849,1335.836,3214.039,1336.349Z" transform="translate(-3210.634 -1330.678)" fill="#7db6fd"/>
          <path id="Trazado_145401" data-name="Trazado 145401" d="M3214.039,1382.477a1.922,1.922,0,0,1-.135,1.6c-.264.369-.633.251-.823-.261a1.924,1.924,0,0,1,.135-1.6C3213.48,1381.847,3213.849,1381.964,3214.039,1382.477Z" transform="translate(-3210.634 -1366.855)" fill="#7db6fd"/>
        </g>
        <g id="Grupo_84413" data-name="Grupo 84413" transform="translate(0 38.492)">
          <path id="Trazado_145402" data-name="Trazado 145402" d="M2882.768,1181.243l-22.613,9.736,21.744,11.547,52.036-1.808v-16.242Z" transform="translate(-2856.87 -1181.243)" fill="#fde947"/>
          <path id="Trazado_145403" data-name="Trazado 145403" d="M2870.826,1181.243h-3.285l-22.613,9.736h3.285Z" transform="translate(-2844.928 -1181.243)" fill="#cbba34"/>
          <path id="Trazado_145404" data-name="Trazado 145404" d="M2869.957,1237.919h-1.751l-23.278-11.547h3.285Z" transform="translate(-2844.928 -1216.636)" fill="#fff5a2"/>
          <path id="Trazado_145405" data-name="Trazado 145405" d="M3185.957,1205.8a1.92,1.92,0,0,0,.135,1.6c.264.368.633.251.823-.262a1.921,1.921,0,0,0-.135-1.6C3186.515,1205.167,3186.147,1205.284,3185.957,1205.8Z" transform="translate(-3112.297 -1200.126)" fill="#7db6fd"/>
          <path id="Trazado_145406" data-name="Trazado 145406" d="M3185.957,1251.925a1.921,1.921,0,0,0,.135,1.6c.264.368.633.251.823-.262a1.922,1.922,0,0,0-.135-1.6C3186.515,1251.3,3186.147,1251.412,3185.957,1251.925Z" transform="translate(-3112.297 -1236.303)" fill="#7db6fd"/>
        </g>
        <path id="Trazado_145407" data-name="Trazado 145407" d="M2988.884,1434.643h-1.874l-15.368,9.84h2.771Z" transform="translate(-2944.304 -1341.483)" fill="#70bc2d"/>
        <path id="Trazado_145408" data-name="Trazado 145408" d="M2987.534,1491.671h-2.524l-13.369-11.419h2.771Z" transform="translate(-2944.304 -1377.254)" fill="#93ff33"/>
        <path id="Trazado_145409" data-name="Trazado 145409" d="M3173.506,1816.943v19.35h-19.491v-19.425a6.967,6.967,0,0,1,6.245-6.931,7.161,7.161,0,0,1,.723-.037h5.48A7.043,7.043,0,0,1,3173.506,1816.943Z" transform="translate(-3087.333 -1635.783)" fill="#3ca8f4"/>
        <path id="Trazado_145410" data-name="Trazado 145410" d="M3166.572,1817.078v19.35h-12.557V1817a6.968,6.968,0,0,1,6.245-6.931A7.044,7.044,0,0,1,3166.572,1817.078Z" transform="translate(-3087.333 -1635.918)" fill="#0f2771"/>
      </g>
      <path id="Trazado_145414" data-name="Trazado 145414" d="M1709.143,1734.164l91.189.6s-8.432-16.952-29.355-13.325c-13.206,2.289-17.58-1.163-23.014-4.549,10.06-3.806,24.964-10.1,18.026-11.619-6.62-1.452-15.645,5-21.2,9.789a27.117,27.117,0,0,0-3.863-1.631c11.893-11.109,34.276-33.256,24.389-33.887-9.7-.619-21.976,21.292-27.817,32.985-.673-.134-1.378-.251-2.122-.349a15.524,15.524,0,0,0-8.437,1.3c-1.289-4.852-3.67-10.4-6.835-9.271-3.194,1.141.417,6.763,3.733,10.987C1714.651,1721.291,1709.143,1734.164,1709.143,1734.164Z" transform="translate(-1703.372 -1496.494)" fill="#93ff33"/>
      <rect id="Rectángulo_32950" data-name="Rectángulo 32950" width="539.345" height="1.431" rx="0.115" transform="translate(0 237.552)" fill="#cbba34"/>
    </g>
  </g>
</svg>
