<svg xmlns="http://www.w3.org/2000/svg" width="77.857" height="83.84" viewBox="0 0 77.857 83.84">
  <g id="carpeta" transform="translate(-18.268 0)">
    <g id="Grupo_84452" data-name="Grupo 84452" transform="translate(19.496 1.228)">
      <g id="Grupo_84450" data-name="Grupo 84450" transform="translate(7.123)">
        <path id="Trazado_145522" data-name="Trazado 145522" d="M120.62,9.959h-3.674A2.459,2.459,0,0,0,114.488,7.5H71.725a2.459,2.459,0,0,0-2.459,2.459V75.3a2.459,2.459,0,0,0,2.459,2.459c46.615,0,42.982.143,43.785-.224a2.467,2.467,0,0,0,1.318-1.478h3.794V9.959Z" transform="translate(-69.266 -7.5)" fill="#7ae582"/>
      </g>
      <path id="Trazado_145523" data-name="Trazado 145523" d="M350.544,7.5h-5.111a2.459,2.459,0,0,1,2.459,2.459V75.3a2.459,2.459,0,0,1-2.459,2.459h5.111A2.459,2.459,0,0,0,353,75.3V9.959A2.459,2.459,0,0,0,350.544,7.5Z" transform="translate(-293.088 -7.5)" fill="#26a6fe"/>
      <path id="Trazado_145524" data-name="Trazado 145524" d="M141.706,52.362,130.349,41.006H96.16a3.4,3.4,0,0,0-3.4,3.4v60.767a3.4,3.4,0,0,0,.058.611h46.428a2.459,2.459,0,0,0,2.459-2.459Z" transform="translate(-81.791 -35.519)" fill="#7ae582"/>
      <path id="Trazado_145525" data-name="Trazado 145525" d="M169.462,53,163.7,49.4l-4.975-8.391h-34.19a3.4,3.4,0,0,0-3.4,3.4v60.767a3.4,3.4,0,0,0,3.4,3.4H169.4c.022,0,.044,0,.066,0V53Z" transform="translate(-105.52 -35.519)" fill="#a6ffac"/>
      <path id="Trazado_145526" data-name="Trazado 145526" d="M393.151,110.632l-5.111-3.191v53.286a3.4,3.4,0,0,1-3.4,3.4h5.111a3.4,3.4,0,0,0,3.4-3.4V110.632Z" transform="translate(-325.876 -91.076)" fill="#a6ffac"/>
      <path id="Trazado_145527" data-name="Trazado 145527" d="M354.083,55.075h10.672L350.684,41V51.677A3.4,3.4,0,0,0,354.083,55.075Z" transform="translate(-297.479 -35.519)" fill="#a6ffac"/>
      <path id="Trazado_145528" data-name="Trazado 145528" d="M98.284,206.083H95.619a3.288,3.288,0,0,0-2.839-1.648H51.509l-4.315-7.14H44.577a2.458,2.458,0,0,0-1.968-.987H28.228a2.459,2.459,0,0,0-2.459,2.459V243.5a3.278,3.278,0,0,0,3.278,3.278H92.78a3.284,3.284,0,0,0,1.579-.409h.006a3.3,3.3,0,0,0,1.05-.922h2.868Z" transform="translate(-25.769 -165.391)" fill="#fb0"/>
      <g id="Grupo_84451" data-name="Grupo 84451" transform="translate(16.841 30.917)">
        <path id="Trazado_145529" data-name="Trazado 145529" d="M130.793,197.628l3.562,6.808h5.111l-3.562-6.808a2.459,2.459,0,0,0-2.179-1.319h-5.111A2.458,2.458,0,0,1,130.793,197.628Z" transform="translate(-128.614 -196.309)" fill="#fb0"/>
        <path id="Trazado_145530" data-name="Trazado 145530" d="M440.111,245.938H435a3.278,3.278,0,0,1,3.278,3.278V285A3.278,3.278,0,0,1,435,288.277h5.111A3.278,3.278,0,0,0,443.389,285V249.216A3.278,3.278,0,0,0,440.111,245.938Z" transform="translate(-384.829 -237.811)" fill="#fb0"/>
      </g>
    </g>
    <g id="Grupo_84453" data-name="Grupo 84453" transform="translate(18.268 0)">
      <path id="Trazado_145531" data-name="Trazado 145531" d="M80.588,310.429H22.775a2.053,2.053,0,0,1-2.05-2.05V275.124a1.228,1.228,0,0,0-2.456,0v33.255a4.512,4.512,0,0,0,4.507,4.506H80.588a1.228,1.228,0,1,0,0-2.456Z" transform="translate(-18.268 -229.046)"/>
      <path id="Trazado_145532" data-name="Trazado 145532" d="M46.1,40.842a1.228,1.228,0,0,0,1.088.659h44.43a2.053,2.053,0,0,1,2.05,2.05V79.333a2.052,2.052,0,0,1-2.05,2.05h-5.3a1.228,1.228,0,0,0,0,2.456h5.3a4.511,4.511,0,0,0,4.506-4.506V43.551a4.512,4.512,0,0,0-4.506-4.507H88V20.785a1.232,1.232,0,0,0-.36-.868l-7-7V3.687A3.691,3.691,0,0,0,76.952,0H29.078a3.691,3.691,0,0,0-3.687,3.687v27.23H21.955A3.691,3.691,0,0,0,18.268,34.6v5.725a1.228,1.228,0,0,0,2.456,0V34.6a1.232,1.232,0,0,1,1.231-1.231H41.448a1.227,1.227,0,0,1,1.09.66L46.1,40.842ZM73.929,9.68l9.877,9.877H76.1a2.173,2.173,0,0,1-2.17-2.171ZM27.847,3.687a1.232,1.232,0,0,1,1.231-1.231H76.952a1.232,1.232,0,0,1,1.231,1.231V10.46L73.569,5.846a1.239,1.239,0,0,0-.869-.36H38.511a4.632,4.632,0,0,0-4.627,4.627v20.8H27.847ZM47.932,39.044l-1.269-2.425H78.687a1.228,1.228,0,0,0,0-2.456H45.378l-.663-1.268a3.676,3.676,0,0,0-3.267-1.978H36.341v-20.8a2.173,2.173,0,0,1,2.171-2.171H71.473v9.443A4.632,4.632,0,0,0,76.1,22.013h9.443V39.044Z" transform="translate(-18.268 0)"/>
      <path id="Trazado_145533" data-name="Trazado 145533" d="M200.46,158.956H165.115a1.228,1.228,0,0,0,0,2.456H200.46a1.228,1.228,0,0,0,0-2.456Z" transform="translate(-140.042 -132.927)"/>
    </g>
  </g>
</svg>
