<svg xmlns="http://www.w3.org/2000/svg" width="110" height="103.266" viewBox="0 0 110 103.266">
  <g id="natural" transform="translate(0 -3.367)">
    <g id="Grupo_56678" data-name="Grupo 56678">
      <path id="Trazado_143693" data-name="Trazado 143693" d="M72.91,34.795l.021-.021-.846-.846-26.9-26.9a7,7,0,0,0-9.9,0l-26.9,26.9-.846.846.022.022A23.121,23.121,0,0,0,40.234,67.429,23.121,23.121,0,0,0,72.91,34.795Z" fill="#93ff33"/>
      <path id="Trazado_143695" data-name="Trazado 143695" d="M59.863,42.968a3.332,3.332,0,0,0-4.712,0L43.566,54.554V45.614L56.583,32.6a3.332,3.332,0,0,0-4.712-4.712l-8.3,8.3V21.007a3.332,3.332,0,1,0-6.664,0V36.19l-8.3-8.3A3.332,3.332,0,0,0,23.884,32.6L36.9,45.614v8.939L25.316,42.968A3.332,3.332,0,0,0,20.6,47.68l16.3,16.3V87.071a3.332,3.332,0,1,0,6.664,0V63.978l16.3-16.3a3.332,3.332,0,0,0,0-4.712Z" fill="#70bc2d"/>
      <g id="Grupo_56676" data-name="Grupo 56676">
        <path id="Trazado_143696" data-name="Trazado 143696" d="M79.728,105.023a8.468,8.468,0,0,1-8.43-9.27l3.14-33.039H85.019l3.14,33.039a8.468,8.468,0,0,1-8.43,9.27Z" fill="#3ca8f4"/>
        <circle id="Elipse_4263" data-name="Elipse 4263" cx="28.66" cy="28.66" r="28.66" transform="translate(51.068 9.339)" fill="#fde947"/>
        <circle id="Elipse_4264" data-name="Elipse 4264" cx="21.317" cy="21.317" r="21.317" transform="translate(58.411 16.682)" fill="#dff6fd"/>
      </g>
      <g id="Grupo_56677" data-name="Grupo 56677">
        <path id="Trazado_143700" data-name="Trazado 143700" d="M83.933,31.78h-8.41l-4.2,7.283,4.2,7.283h8.41l4.2-7.283Z" fill="#93ff33"/>
      </g>
    </g>
    <g id="Grupo_56679" data-name="Grupo 56679">
      <path id="Trazado_143701" data-name="Trazado 143701" d="M110,38a30.333,30.333,0,0,0-9.955-22.441,1.611,1.611,0,0,0-2.164,2.389,27.049,27.049,0,1,1-18.154-7,26.728,26.728,0,0,1,12.522,3.067,1.611,1.611,0,0,0,1.495-2.855A30.256,30.256,0,0,0,57.7,17.26L46.323,5.883a8.627,8.627,0,0,0-12.181,0L9.053,30.974a1.611,1.611,0,1,0,2.279,2.279L36.421,8.163a5.4,5.4,0,0,1,7.624,0L55.609,19.729a30.3,30.3,0,0,0-3.589,6.088,4.895,4.895,0,0,0-1.29.929L45.178,32.3V21.007a4.944,4.944,0,0,0-9.889,0V32.3l-5.553-5.554a4.944,4.944,0,0,0-6.992,6.99L35.29,46.283v4.38l-8.834-8.834a4.943,4.943,0,1,0-6.99,6.99L35.289,64.646v4.373A21.514,21.514,0,0,1,6.629,38.651a1.611,1.611,0,0,0-2.71-1.745,24.738,24.738,0,0,0,31.37,35.738V87.072a4.944,4.944,0,0,0,9.889,0V72.641a24.716,24.716,0,0,0,27.075-3.963l-2.2,23.18A1.611,1.611,0,0,0,71.5,93.615q.078.007.154.007a1.612,1.612,0,0,0,1.6-1.459l2.3-24.182a30.274,30.274,0,0,0,8.344,0l2.653,27.927a6.855,6.855,0,0,1-6.826,7.5,6.886,6.886,0,0,1-6.437-4.487,1.611,1.611,0,0,0-3.024,1.115,10.081,10.081,0,0,0,19.5-4.435L87.08,67.365A30.326,30.326,0,0,0,110,38ZM49.692,41.767a30.061,30.061,0,0,0,.7,3.686l-5.21,5.21v-4.38ZM41.955,63.978V87.071a1.722,1.722,0,0,1-3.443,0V63.978a1.612,1.612,0,0,0-.472-1.139l-16.3-16.3a1.72,1.72,0,0,1,2.434-2.432L35.762,55.692a1.611,1.611,0,0,0,2.751-1.139V45.615a1.612,1.612,0,0,0-.472-1.139L25.024,31.457a1.721,1.721,0,0,1,2.435-2.433l8.3,8.306a1.611,1.611,0,0,0,2.751-1.139V21.007a1.722,1.722,0,0,1,3.443,0V36.19a1.611,1.611,0,0,0,2.751,1.139l5.354-5.356a30.27,30.27,0,0,0-.6,5.462l-7.038,7.04a1.612,1.612,0,0,0-.472,1.139v8.938a1.611,1.611,0,0,0,2.751,1.139l6.786-6.786a30.153,30.153,0,0,0,1.532,3.334l-10.6,10.6a1.609,1.609,0,0,0-.472,1.139Zm16.138,7.678A21.627,21.627,0,0,1,45.178,69.02V64.645l9.569-9.571A30.418,30.418,0,0,0,69.761,66.582,21.222,21.222,0,0,1,58.093,71.656Z"/>
      <path id="Trazado_143702" data-name="Trazado 143702" d="M56.8,38A22.928,22.928,0,1,0,79.728,15.07,22.954,22.954,0,0,0,56.8,38Zm42.633,0A19.705,19.705,0,1,1,79.728,18.293,19.728,19.728,0,0,1,99.434,38Z"/>
      <path id="Trazado_143703" data-name="Trazado 143703" d="M75.523,30.169a1.611,1.611,0,0,0-1.4.806l-3.74,6.477H62.909a1.611,1.611,0,0,0,0,3.223h7.479l3.74,6.477a1.611,1.611,0,0,0,1.4.806h8.41a1.611,1.611,0,0,0,1.4-.806l3.74-6.477h7.479a1.611,1.611,0,1,0,0-3.223H89.068L85.794,31.78l3.74-6.477a1.611,1.611,0,0,0-2.791-1.611L83,30.169ZM83,44.734H76.454l-3.274-5.672,3.274-5.671H83l3.274,5.671Z"/>
    </g>
  </g>
</svg>
