<svg xmlns="http://www.w3.org/2000/svg" width="78.508" height="87.009" viewBox="0 0 78.508 87.009">
  <g id="plan" transform="translate(-0.5)">
    <path id="Trazado_145558" data-name="Trazado 145558" d="M146.012,9.2V91.96H187.9a10.612,10.612,0,0,0,10.612-10.612V9.2a1.7,1.7,0,0,0-1.7-1.7H147.711A1.7,1.7,0,0,0,146.012,9.2Zm0,0" transform="translate(-120.784 -6.225)" fill="#90d1ff"/>
    <path id="Trazado_145560" data-name="Trazado 145560" d="M67.946,416.645a1.7,1.7,0,0,1,1.7,1.7v2.619a10.612,10.612,0,0,0,10.611,10.611H27.749a10.612,10.612,0,0,1-10.612-10.612v-2.619a1.7,1.7,0,0,1,1.7-1.7Zm0,0" transform="translate(-13.81 -345.84)" fill="#4182af"/>
    <g id="Grupo_84468" data-name="Grupo 84468" transform="translate(33.725 26.868)">
      <path id="Trazado_145561" data-name="Trazado 145561" d="M202.185,161.192a3.086,3.086,0,1,1-3.087-3.087A3.087,3.087,0,0,1,202.185,161.192Zm0,0" transform="translate(-196.012 -158.105)" fill="#8ad24a"/>
      <path id="Trazado_145562" data-name="Trazado 145562" d="M202.185,240.419a3.086,3.086,0,1,1-3.087-3.087A3.086,3.086,0,0,1,202.185,240.419Zm0,0" transform="translate(-196.012 -223.868)" fill="#8ad24a"/>
      <path id="Trazado_145563" data-name="Trazado 145563" d="M202.185,319.645a3.086,3.086,0,1,1-3.087-3.087A3.087,3.087,0,0,1,202.185,319.645Zm0,0" transform="translate(-196.012 -289.631)" fill="#8ad24a"/>
    </g>
    <path id="Trazado_145564" data-name="Trazado 145564" d="M199.258,54.785h34.408v7.392H199.258Zm0,0" transform="translate(-164.981 -45.475)" fill="#3ca8f4"/>
    <path id="Trazado_145565" data-name="Trazado 145565" d="M146.043,267.432l5.473,2.72a.753.753,0,0,0,1.042-.935l-2.12-5.732Zm0,0" transform="translate(-120.81 -218.708)" fill="#93ff33"/>
    <path id="Trazado_145566" data-name="Trazado 145566" d="M30.274,139.748,8.311,115.3a1.253,1.253,0,0,1,.095-1.772l3.5-3.139a1.254,1.254,0,0,1,1.772.095l21.963,24.45a1.254,1.254,0,0,1-.095,1.772l-3.5,3.139A1.254,1.254,0,0,1,30.274,139.748Zm0,0" transform="translate(-6.217 -91.36)" fill="#fde947"/>
    <path id="Trazado_145567" data-name="Trazado 145567" d="M30.274,148.984,8.311,124.533a1.253,1.253,0,0,1,.095-1.772l1.747-1.57,23.64,26.318-1.748,1.57A1.254,1.254,0,0,1,30.274,148.984Zm0,0" transform="translate(-6.217 -100.596)" fill="#fde947"/>
    <path id="Trazado_145568" data-name="Trazado 145568" d="M10.693,117.946,8.314,115.3a1.255,1.255,0,0,1,.095-1.772l3.5-3.139a1.254,1.254,0,0,1,1.772.095l2.379,2.648Zm0,0" transform="translate(-6.22 -91.36)" fill="#8ad24a"/>
    <path id="Trazado_145569" data-name="Trazado 145569" d="M76.033,0H26.927a2.978,2.978,0,0,0-2.974,2.974v32.6L8.405,18.269a2.53,2.53,0,0,0-3.572-.191l-3.5,3.14a2.532,2.532,0,0,0-.191,3.572L23.109,49.24a2.521,2.521,0,0,0,.844.616V69.529H19a1.275,1.275,0,1,0,0,2.549H54.137a.425.425,0,0,1,.425.425v2.62A11.871,11.871,0,0,0,59.1,84.46H13.939A9.347,9.347,0,0,1,4.6,75.123V72.5a.425.425,0,0,1,.425-.425h8.423a1.275,1.275,0,1,0,0-2.549H5.026A2.978,2.978,0,0,0,2.052,72.5v2.619A11.9,11.9,0,0,0,13.939,87.009H67.121A11.9,11.9,0,0,0,79.007,75.123V40.439a1.275,1.275,0,1,0-2.549,0V75.123a9.348,9.348,0,0,1-9.337,9.337h-.674a9.347,9.347,0,0,1-9.337-9.337V72.5a2.977,2.977,0,0,0-2.974-2.974H26.5V50.778l3.636,1.808a2.027,2.027,0,0,0,2.8-2.519l-1.954-5.285c.011-.078.02-.157.024-.236a2.511,2.511,0,0,0-.644-1.826l-3.865-4.3V2.974a.425.425,0,0,1,.425-.425H76.033a.425.425,0,0,1,.425.425V19.595a1.275,1.275,0,0,0,2.549,0V2.974A2.978,2.978,0,0,0,76.033,0ZM6.522,19.987l1.514,1.685L4.57,24.786,3.055,23.1Zm-.25,6.7.785-.706,18.719,20.84-.785.706Zm21.42,21.84L29.164,47.2l.931,2.517Zm-.019-3.409L8.954,24.274l.785-.7,18.719,20.84Zm0,0" transform="translate(0)"/>
    <path id="Trazado_145570" data-name="Trazado 145570" d="M448.747,140.469a1.274,1.274,0,0,0-1.275,1.275v9.743a1.275,1.275,0,1,0,2.549,0v-9.743A1.274,1.274,0,0,0,448.747,140.469Zm0,0" transform="translate(-371.014 -116.597)"/>
    <path id="Trazado_145571" data-name="Trazado 145571" d="M192.872,150.605a4.361,4.361,0,1,0,4.361,4.361A4.366,4.366,0,0,0,192.872,150.605Zm0,6.173a1.812,1.812,0,1,1,1.812-1.812A1.813,1.813,0,0,1,192.872,156.778Zm0,0" transform="translate(-156.061 -125.012)"/>
    <path id="Trazado_145572" data-name="Trazado 145572" d="M256.173,172.928h6.245a1.275,1.275,0,1,0,0-2.549h-6.245a1.275,1.275,0,0,0,0,2.549Zm0,0" transform="translate(-211.166 -141.425)"/>
    <path id="Trazado_145573" data-name="Trazado 145573" d="M277.943,188.355h-21.77a1.275,1.275,0,0,0,0,2.549h21.77a1.275,1.275,0,1,0,0-2.549Zm0,0" transform="translate(-211.166 -156.346)"/>
    <path id="Trazado_145574" data-name="Trazado 145574" d="M256.183,151.733h.009a1.275,1.275,0,0,0-.008-2.549h-.021a1.275,1.275,0,0,0,.021,2.549Zm0,0" transform="translate(-211.169 -123.831)"/>
    <path id="Trazado_145575" data-name="Trazado 145575" d="M192.872,229.832a4.361,4.361,0,1,0,4.361,4.361A4.366,4.366,0,0,0,192.872,229.832Zm0,6.173a1.812,1.812,0,1,1,1.812-1.812A1.814,1.814,0,0,1,192.872,236Zm0,0" transform="translate(-156.061 -190.774)"/>
    <path id="Trazado_145576" data-name="Trazado 145576" d="M256.173,252.155h6.245a1.275,1.275,0,1,0,0-2.549h-6.245a1.275,1.275,0,0,0,0,2.549Zm0,0" transform="translate(-211.166 -207.187)"/>
    <path id="Trazado_145577" data-name="Trazado 145577" d="M277.943,267.582h-21.77a1.275,1.275,0,0,0,0,2.549h21.77a1.275,1.275,0,1,0,0-2.549Zm0,0" transform="translate(-211.166 -222.109)"/>
    <path id="Trazado_145578" data-name="Trazado 145578" d="M256.183,230.955h.009a1.275,1.275,0,0,0-.008-2.549h-.021a1.275,1.275,0,0,0,.021,2.549Zm0,0" transform="translate(-211.169 -189.591)"/>
    <path id="Trazado_145579" data-name="Trazado 145579" d="M192.872,309.059a4.361,4.361,0,1,0,4.361,4.361A4.366,4.366,0,0,0,192.872,309.059Zm0,6.173a1.812,1.812,0,1,1,1.812-1.812A1.813,1.813,0,0,1,192.872,315.232Zm0,0" transform="translate(-156.061 -256.537)"/>
    <path id="Trazado_145580" data-name="Trazado 145580" d="M256.173,331.381h6.245a1.275,1.275,0,1,0,0-2.549h-6.245a1.275,1.275,0,0,0,0,2.549Zm0,0" transform="translate(-211.166 -272.95)"/>
    <path id="Trazado_145581" data-name="Trazado 145581" d="M256.173,349.358h21.77a1.275,1.275,0,1,0,0-2.549h-21.77a1.275,1.275,0,0,0,0,2.549Zm0,0" transform="translate(-211.166 -287.872)"/>
    <path id="Trazado_145582" data-name="Trazado 145582" d="M256.183,310.186h.009a1.275,1.275,0,0,0-.008-2.549h-.021a1.275,1.275,0,0,0,.021,2.549Zm0,0" transform="translate(-211.169 -255.357)"/>
    <path id="Trazado_145583" data-name="Trazado 145583" d="M228.715,55.951V48.56a1.274,1.274,0,0,0-1.275-1.275H193.032a1.274,1.274,0,0,0-1.275,1.275v7.392a1.274,1.274,0,0,0,1.275,1.275h34.408A1.274,1.274,0,0,0,228.715,55.951Zm-2.549-1.275H194.307V49.834h31.859Zm0,0" transform="translate(-158.756 -39.25)"/>
  </g>
</svg>
