<svg xmlns="http://www.w3.org/2000/svg" width="81.516" height="83.84" viewBox="0 0 81.516 83.84">
  <g id="toma-de-decisiones" transform="translate(-7.105)">
    <g id="Grupo_84463" data-name="Grupo 84463" transform="translate(8.328 1.226)">
      <g id="Grupo_84455" data-name="Grupo 84455" transform="translate(42.999 34.44)">
        <path id="Trazado_145534" data-name="Trazado 145534" d="M296.313,230.123,309.536,218.7a2.453,2.453,0,0,1,3.657,3.2l-10.958,16.746a10.456,10.456,0,0,1-5.1,4.07l-3.594,1.339v14.613h-16.02v-15.14a9.6,9.6,0,0,1,3.5-7.408l10.2-8.4a3.115,3.115,0,0,1,5.1,2.4Z" transform="translate(-277.522 -218.1)" fill="#ffe6c6"/>
      </g>
      <g id="Grupo_84456" data-name="Grupo 84456" transform="translate(0 34.44)">
        <path id="Trazado_145535" data-name="Trazado 145535" d="M31.862,230.123a3.115,3.115,0,0,1,5.1-2.4l10.2,8.4a9.6,9.6,0,0,1,3.5,7.408v15.138s-15.846-.173-16.02,0,0-14.612,0-14.612l-3.594-1.339a10.457,10.457,0,0,1-5.1-4.07L14.983,221.9a2.453,2.453,0,0,1,3.657-3.2Z" transform="translate(-14.582 -218.1)" fill="#ffe6c6"/>
      </g>
      <path id="Trazado_145536" data-name="Trazado 145536" d="M49.842,248.8H40.2a2.534,2.534,0,0,1-2.533-2.557c0-.458.008-.89.012-1.286a3.426,3.426,0,0,0-2.231-3.244l-1.339-.5a10.457,10.457,0,0,1-5.1-4.07L18.054,220.4a2.442,2.442,0,0,1-.4-1.341,2.476,2.476,0,0,1,.148-.832,2.454,2.454,0,0,0-2.819,3.675l10.958,16.746a10.457,10.457,0,0,0,5.1,4.07l3.594,1.339s-.173,14.785,0,14.612a22.882,22.882,0,0,1,2.523-.073h.24c2.4-.011,5.911.01,8.72.032h0c1.447.011,2.706.023,3.528.032l.249,0h.169l.417,0h.172v-9.79a4.366,4.366,0,0,0-.812-.077Z" transform="translate(-14.582 -183.661)" fill="#f8d3aa"/>
      <path id="Trazado_145537" data-name="Trazado 145537" d="M145.823,433.273V422.7a1.888,1.888,0,0,0-1.888-1.888H128.959a1.888,1.888,0,0,0-1.888,1.888v10.574a1.336,1.336,0,0,0,1.336,1.336h16.081A1.336,1.336,0,0,0,145.823,433.273Z" transform="translate(-108.676 -353.222)" fill="#3ca8f4"/>
      <g id="Grupo_84462" data-name="Grupo 84462" transform="translate(0.659)">
        <g id="XMLID_179_" transform="translate(43.198 43.347)">
          <g id="Grupo_84458" data-name="Grupo 84458">
            <g id="XMLID_180_">
              <g id="Grupo_84457" data-name="Grupo 84457">
                <path id="Trazado_145539" data-name="Trazado 145539" d="M337.482,280.313l-2.139,1.849s0,0,0,0l-11.161,9.672a5,5,0,0,0,6.768-.364l5.215-5.364a5.582,5.582,0,0,0,1.318-5.788Z" transform="translate(-317.41 -279.046)" fill="#f8d3aa"/>
                <path id="Trazado_145540" data-name="Trazado 145540" d="M299.792,273.481a3.117,3.117,0,0,1,0,4.407L288.734,289.33l-5.962-4.209a9.585,9.585,0,0,1,2.638-3.442l10.2-8.4a3.114,3.114,0,0,1,4.183.2Z" transform="translate(-282.772 -272.568)" fill="#ffe6c6"/>
              </g>
            </g>
          </g>
        </g>
        <g id="XMLID_177_" transform="translate(14.168 43.347)">
          <g id="Grupo_84460" data-name="Grupo 84460">
            <g id="XMLID_178_">
              <g id="Grupo_84459" data-name="Grupo 84459">
                <path id="Trazado_145541" data-name="Trazado 145541" d="M117.259,291.737l-9.693-9.693-2-1.73a5.582,5.582,0,0,0,1.318,5.788l5.419,5.484A3.6,3.6,0,0,0,117.259,291.737Z" transform="translate(-105.251 -279.047)" fill="#f8d3aa"/>
                <path id="Trazado_145542" data-name="Trazado 145542" d="M137.706,284.2l-5.8,5.132-6.716-7.419-4.025-4.023a3.115,3.115,0,0,1,4.183-4.608l10.2,8.4A9.636,9.636,0,0,1,137.706,284.2Z" transform="translate(-117.799 -272.568)" fill="#ffe6c6"/>
              </g>
            </g>
          </g>
        </g>
        <path id="Trazado_145556" data-name="Trazado 145556" d="M18.2,0A18.2,18.2,0,1,1,0,18.2,18.2,18.2,0,0,1,18.2,0Z" fill="#8ad24a"/>
        <g id="Grupo_84461" data-name="Grupo 84461" transform="translate(10.428 11.385)">
          <path id="Trazado_145543" data-name="Trazado 145543" d="M88.352,91.421a2.445,2.445,0,0,1-1.687-.672L82.6,86.9a.7.7,0,0,1-.026-.986l2.416-2.549a.7.7,0,0,1,.986-.026l1.813,1.718a.7.7,0,0,0,.978-.019L96.3,77.328a.7.7,0,0,1,.986-.011L99.8,79.772a.7.7,0,0,1,.011.986l-9.706,9.925A2.446,2.446,0,0,1,88.352,91.421Z" transform="translate(-82.383 -77.118)" fill="#f9f7f7"/>
        </g>
        <path id="Trazado_145557" data-name="Trazado 145557" d="M18.2,0A18.2,18.2,0,1,1,0,18.2,18.2,18.2,0,0,1,18.2,0Z" transform="translate(41.351)" fill="#fde947"/>
        <path id="Trazado_145546" data-name="Trazado 145546" d="M339.095,71.938l5.217-5.094a.69.69,0,0,0,.012-.976l-2.813-2.881a.69.69,0,0,0-.976-.012l-5.309,5.184-5.311-5.186a.69.69,0,0,0-.976.012l-2.813,2.881a.69.69,0,0,0,.012.976l5.219,5.1-5.219,5.1a.69.69,0,0,0-.012.976l2.813,2.881a.69.69,0,0,0,.976.012l5.311-5.186,5.309,5.184a.69.69,0,0,0,.976-.012l2.813-2.881a.69.69,0,0,0-.012-.976Z" transform="translate(-275.672 -53.737)" fill="#f9f7f7"/>
      </g>
      <path id="Trazado_145547" data-name="Trazado 145547" d="M284.75,282.964l10.2-8.4a3.13,3.13,0,0,1,.9-.519,3.115,3.115,0,0,0-4.631-.766l-10.2,8.4a9.6,9.6,0,0,0-3.5,7.408v15.14h16.02v-9.862c-.077,0-10.189-.006-10.189-.006a2.1,2.1,0,0,1-2.1-2.1v-1.886a9.6,9.6,0,0,1,3.5-7.408Z" transform="translate(-234.523 -229.221)" fill="#f8d3aa"/>
      <path id="Trazado_145548" data-name="Trazado 145548" d="M289.694,433.273V422.7a1.888,1.888,0,0,0-1.888-1.888H272.83a1.888,1.888,0,0,0-1.888,1.888v10.574a1.336,1.336,0,0,0,1.336,1.336h16.081A1.336,1.336,0,0,0,289.694,433.273Z" transform="translate(-229.019 -353.222)" fill="#3ca8f4"/>
    </g>
    <g id="Grupo_84464" data-name="Grupo 84464" transform="translate(7.105 0)">
      <path id="Trazado_145550" data-name="Trazado 145550" d="M301.778,211.537a3.7,3.7,0,0,0-4.823-.01L285.177,221.7a4.345,4.345,0,0,0-6.519-1.176l-10.2,8.4a10.788,10.788,0,0,0-3.943,8.355v7.263a3.105,3.105,0,0,0-1.076,2.349v11.91a1.226,1.226,0,0,0,2.453,0V246.9a.662.662,0,0,1,.661-.661h14.977a.662.662,0,0,1,.661.661v11.91a1.226,1.226,0,1,0,2.453,0V246.9a3.116,3.116,0,0,0-1.656-2.75v-5.484l2.8-1.041a11.6,11.6,0,0,0,5.7-4.549l10.959-16.745A3.694,3.694,0,0,0,301.778,211.537Zm-1.39,3.447-10.959,16.745a9.165,9.165,0,0,1-4.5,3.594l-4.877,1.816a1.227,1.227,0,0,0,.428,2.376l.057,0v4.269H266.969v-6.5a8.342,8.342,0,0,1,3.049-6.461l10.2-8.4a1.889,1.889,0,0,1,2.537,2.794l-4.024,4.024a1.226,1.226,0,1,0,1.734,1.734l4.024-4.024a4.31,4.31,0,0,0,1.231-2.473l12.84-11.095a1.227,1.227,0,0,1,1.829,1.6Z" transform="translate(-221.521 -176.192)"/>
      <path id="Trazado_145551" data-name="Trazado 145551" d="M45.626,244.545v-7.263A10.8,10.8,0,0,0,41.764,229a1.226,1.226,0,1,0-1.578,1.878,8.35,8.35,0,0,1,2.987,6.407v6.5H29.606V239.51l.057,0a1.227,1.227,0,0,0,.428-2.376l-4.877-1.816a9.164,9.164,0,0,1-4.5-3.594L9.754,214.982a1.227,1.227,0,0,1,1.829-1.6l12.843,11.1a4.318,4.318,0,0,0,1.228,2.471l4.024,4.024a1.226,1.226,0,1,0,1.734-1.734l-4.024-4.024a1.889,1.889,0,0,1,2.537-2.794l6.149,5.063a1.226,1.226,0,1,0,1.559-1.894l-6.149-5.063a4.341,4.341,0,0,0-6.518,1.176l-11.78-10.178a3.68,3.68,0,0,0-5.485,4.8L18.661,233.07a11.6,11.6,0,0,0,5.7,4.549l2.8,1.041v5.484a3.116,3.116,0,0,0-1.656,2.75V258.8a1.226,1.226,0,0,0,2.453,0v-11.91a.662.662,0,0,1,.661-.661H43.588a.662.662,0,0,1,.661.661V258.8a1.226,1.226,0,0,0,2.453,0v-11.91A3.105,3.105,0,0,0,45.626,244.545Z" transform="translate(-7.105 -176.191)"/>
      <path id="Trazado_145552" data-name="Trazado 145552" d="M30.54,38.855A19.427,19.427,0,1,0,11.113,19.427,19.449,19.449,0,0,0,30.54,38.855Zm0-36.4A16.974,16.974,0,1,1,13.566,19.427,16.994,16.994,0,0,1,30.54,2.453Z" transform="translate(-10.458 0)"/>
      <path id="Trazado_145553" data-name="Trazado 145553" d="M79.554,85.367a3.68,3.68,0,0,0,5.162-.1L87.321,82.6a1.226,1.226,0,1,0-1.754-1.715l-2.6,2.664a1.227,1.227,0,0,1-1.721.033L77.562,80.1l1.687-1.781,1.428,1.354a1.932,1.932,0,0,0,2.7-.051l7.168-7.329L92.3,74.007l-3.076,3.145a1.226,1.226,0,1,0,1.754,1.715l3.446-3.524a1.923,1.923,0,0,0-.03-2.72L91.88,70.169a1.923,1.923,0,0,0-2.72.03l-7.173,7.335-1.434-1.359a1.924,1.924,0,0,0-2.72.073L75.417,78.8a1.926,1.926,0,0,0,.073,2.72Z" transform="translate(-63.806 -58.235)"/>
      <path id="Trazado_145554" data-name="Trazado 145554" d="M283.4,38.855a19.445,19.445,0,0,0,12.479-4.539,1.226,1.226,0,0,0-1.577-1.879,16.96,16.96,0,1,1,3.254-3.642A1.227,1.227,0,0,0,299.6,30.15a19.428,19.428,0,1,0-16.2,8.7Z" transform="translate(-221.967 0)"/>
      <path id="Trazado_145555" data-name="Trazado 145555" d="M338.926,58.737l-2.813-2.881a1.917,1.917,0,0,0-2.711-.032l-4.452,4.347L324.5,55.822a1.917,1.917,0,0,0-2.711.033l-2.813,2.881A1.917,1.917,0,0,0,319,61.446l4.32,4.219L319,69.883a1.917,1.917,0,0,0-.032,2.711l2.813,2.881a1.9,1.9,0,0,0,1.349.578h.024a1.9,1.9,0,0,0,1.339-.545l4.454-4.349,4.452,4.347a1.917,1.917,0,0,0,2.711-.033l2.813-2.881a1.919,1.919,0,0,0-.032-2.711l-4.318-4.216,4.318-4.217A1.919,1.919,0,0,0,338.926,58.737Zm-6.963,6.05a1.227,1.227,0,0,0,0,1.755l4.833,4.719-2.064,2.114-4.925-4.809a1.226,1.226,0,0,0-1.714,0l-4.928,4.812L321.1,71.264l4.835-4.722a1.227,1.227,0,0,0,0-1.755L321.1,60.065l2.064-2.114,4.928,4.812a1.226,1.226,0,0,0,1.714,0l4.925-4.809,2.064,2.114Z" transform="translate(-267.515 -46.237)"/>
    </g>
  </g>
</svg>
