<svg xmlns="http://www.w3.org/2000/svg" width="74.56" height="83.349" viewBox="0 0 74.56 83.349">
  <g id="voluntario" transform="translate(0)">
    <path id="Trazado_143863" data-name="Trazado 143863" d="M263.93,368.884V343h26.046v25.884" transform="translate(-220.964 -287.163)" fill="#8ad24a"/>
    <path id="Trazado_143864" data-name="Trazado 143864" d="M49.141,426.638V411.984H73.646v14.654" transform="translate(-41.141 -344.917)" fill="#fde947"/>
    <path id="Trazado_143865" data-name="Trazado 143865" d="M251.634,55.537l2.43-2.423a17.04,17.04,0,0,0,5.008-12.066V20.4a3.476,3.476,0,0,0-6.943-.243v-3.3a3.535,3.535,0,0,0-3.01-3.536,3.476,3.476,0,0,0-3.932,3.2V13.56a3.624,3.624,0,0,0-3.164-3.545,3.478,3.478,0,0,0-3.791,3.463V16.52a3.476,3.476,0,0,0-3.932-3.2,3.535,3.535,0,0,0-3.01,3.536V35.971a.512.512,0,0,1-1.009.121l-.92-3.753A3.616,3.616,0,0,0,225.29,29.6a3.554,3.554,0,0,0-2.889,4.191l1.821,9.233a17.038,17.038,0,0,0,4.685,8.769l3.759,3.749V64.21h18.968Zm0,0" transform="translate(-186.139 -8.373)" fill="#fcc49d"/>
    <path id="Trazado_143866" data-name="Trazado 143866" d="M37.573,145.516l2.286-2.28a16.029,16.029,0,0,0,4.711-11.351V112.454a3.27,3.27,0,0,0-6.532-.228v-3.106a3.325,3.325,0,0,0-2.832-3.327,3.27,3.27,0,0,0-3.7,3.015v-2.785a3.409,3.409,0,0,0-2.977-3.335,3.272,3.272,0,0,0-3.566,3.258v2.862a3.27,3.27,0,0,0-3.7-3.015,3.325,3.325,0,0,0-2.832,3.327v17.987a.482.482,0,0,1-.95.115l-.865-3.531a3.4,3.4,0,0,0-3.83-2.582,3.343,3.343,0,0,0-2.718,3.943l1.713,8.687a16.032,16.032,0,0,0,4.409,8.25l3.537,3.527v7.512H37.573Zm0,0" transform="translate(-8.377 -85.96)" fill="#fcc49d"/>
    <path id="Trazado_143867" data-name="Trazado 143867" d="M74.561,12.023A5.1,5.1,0,0,0,67.5,7.307a5.1,5.1,0,0,0-7.022-3.6,5.1,5.1,0,0,0-9.818,0,5.1,5.1,0,0,0-7.138,4.681V21.18a5.178,5.178,0,0,0-8.049.616c-.085.124-.163.252-.237.382a4.885,4.885,0,0,0-4.084-.251,4.895,4.895,0,0,0-6.612-3.386,4.9,4.9,0,0,0-9.363,0,4.9,4.9,0,0,0-6.749,4.535v11.8A4.97,4.97,0,0,0,.1,39.407l1.713,8.687a17.594,17.594,0,0,0,4.856,9.088l3.059,3.05v5.208H8a1.628,1.628,0,0,0-1.628,1.628V81.721a1.628,1.628,0,1,0,3.256,0V68.695H30.877V81.721a1.628,1.628,0,1,0,3.256,0V67.067A1.628,1.628,0,0,0,32.5,65.439H30.824V60.231l1.808-1.8a17.541,17.541,0,0,0,5.19-12.5V39.108a18.623,18.623,0,0,0,3.8,5.459L44.9,47.839v6.37H42.965a1.628,1.628,0,0,0-1.628,1.628V81.721a1.628,1.628,0,1,0,3.256,0V63.977h7.878a1.628,1.628,0,0,0,0-3.256H44.593V57.465H67.384V81.721a1.628,1.628,0,0,0,3.256,0V55.837a1.628,1.628,0,0,0-1.628-1.628H67.122v-6.37l1.952-1.945A18.545,18.545,0,0,0,74.56,32.676V30.985a1.628,1.628,0,0,0-3.256,0v1.691a15.308,15.308,0,0,1-4.529,10.913l-2.43,2.423a1.628,1.628,0,0,0-.479,1.153v7.045H48.155V47.164a1.627,1.627,0,0,0-.479-1.153l-3.759-3.749a15.358,15.358,0,0,1-4.238-7.931L37.858,25.1a1.926,1.926,0,0,1,3.76-.831L42.56,28.1a2.14,2.14,0,0,0,4.219-.51V8.389a1.849,1.849,0,0,1,3.686-.206v10.7a1.586,1.586,0,0,0,.012.191v1.045a1.628,1.628,0,1,0,3.256,0V8.389c0-.113-.005-.224-.012-.336V5.105a1.849,1.849,0,1,1,3.7,0V8.054c-.007.111-.012.223-.012.336v10.5a1.728,1.728,0,0,0,.012.191v1.045a1.628,1.628,0,0,0,3.256,0V8.183a1.849,1.849,0,0,1,3.686.206v3.3c-.007.111-.012.223-.012.336v6.862a1.728,1.728,0,0,0,.012.191v1.045a1.628,1.628,0,0,0,3.256,0V11.816a1.849,1.849,0,0,1,3.687.207v5.938a1.628,1.628,0,1,0,3.256,0V12.023Zm-39.995,33.9a14.307,14.307,0,0,1-4.233,10.2L28.047,58.4a1.627,1.627,0,0,0-.479,1.153v5.883H12.979V59.556A1.627,1.627,0,0,0,12.5,58.4L8.964,54.876A14.35,14.35,0,0,1,5,47.464L3.29,38.777a1.717,1.717,0,0,1,1.385-2.022,1.72,1.72,0,0,1,1.964,1.281l.885,3.611a2.11,2.11,0,0,0,4.159-.5V23.076a1.643,1.643,0,0,1,3.276-.187V32.95a1.628,1.628,0,0,0,.011.186v.978a1.628,1.628,0,1,0,3.256,0V23.076c0-.107,0-.212-.011-.318V19.986a1.644,1.644,0,0,1,3.288,0v2.77c-.007.106-.011.212-.011.32V32.95a1.66,1.66,0,0,0,.011.188v.977a1.628,1.628,0,1,0,3.256,0V22.887a1.643,1.643,0,0,1,3.276.188v3.1c-.007.106-.011.212-.011.32V32.95a1.66,1.66,0,0,0,.011.188v.977a1.628,1.628,0,1,0,3.256,0V26.306a1.643,1.643,0,0,1,3.276.188Zm0,0" transform="translate(0)"/>
    <path id="Trazado_143868" data-name="Trazado 143868" d="M439.64,140.328a1.631,1.631,0,1,0,1.15.478A1.638,1.638,0,0,0,439.64,140.328Zm0,0" transform="translate(-366.708 -117.484)"/>
    <path id="Trazado_143869" data-name="Trazado 143869" d="M353.955,373a1.628,1.628,0,1,0,1.152.477A1.644,1.644,0,0,0,353.955,373Zm0,0" transform="translate(-294.972 -312.279)"/>
  </g>
</svg>
