<svg id="XMLID_1020_" xmlns="http://www.w3.org/2000/svg" width="110" height="110" viewBox="0 0 110 110">
  <path id="XMLID_1019_" d="M0,0H15.8V26H0Z" transform="translate(21.354 81.855)" fill="#7ae582"/>
  <path id="XMLID_886_" d="M47.68,77.223,37.154,84.385v20.8h0a12.774,12.774,0,0,0,7.816,2.671H60.39a4.675,4.675,0,0,0,4.675-4.675V88.8a4.675,4.675,0,0,0-4.675-4.675H47.68v-6.9Z" fill="#fccd9d"/>
  <g id="XMLID_1162_">
    <rect id="XMLID_1812_" width="14.59" height="17.173" transform="translate(47.68 66.952)" fill="#3ca8f4"/>
    <path id="XMLID_2429_" d="M32.393,0A32.393,32.393,0,1,1,0,32.393,32.393,32.393,0,0,1,32.393,0Z" transform="translate(22.607 2.149)" fill="#fb0"/>
    <g id="XMLID_1959_">
      <circle id="XMLID_1968_" cx="22.565" cy="22.565" r="22.565" transform="translate(32.435 11.977)" fill="#fff"/>
      <path id="XMLID_1967_" d="M71.069,48.829a7.017,7.017,0,0,0-5.731-6.9l-4.087-.762-12.519,0-4.072.759a7.017,7.017,0,0,0-5.731,6.9v1.548a22.553,22.553,0,0,0,32.139,0V48.829Z" fill="#29b39d"/>
      <path id="XMLID_1966_" d="M55,26.455h0a7.652,7.652,0,0,0-7.652,7.652V36.5A7.652,7.652,0,0,0,55,44.153h0A7.652,7.652,0,0,0,62.651,36.5V34.107A7.652,7.652,0,0,0,55,26.455Z" fill="#fccd9d"/>
    </g>
  </g>
  <g id="XMLID_460_">
    <path id="XMLID_463_" d="M86.806,41.063a2.149,2.149,0,0,0-2.64,1.5,30.224,30.224,0,1,1-.154-16.595,2.148,2.148,0,1,0,4.122-1.213,34.55,34.55,0,1,0-42.6,42.992v8.336L38.9,80.6a2.143,2.143,0,0,0-1.742-.894h-15.8a2.149,2.149,0,0,0-2.148,2.148v26A2.149,2.149,0,0,0,21.354,110h15.8a2.147,2.147,0,0,0,1.933-1.215A14.974,14.974,0,0,0,44.97,110H60.39a6.831,6.831,0,0,0,6.824-6.823V88.8a6.818,6.818,0,0,0-2.8-5.5V67.765A34.529,34.529,0,0,0,88.31,43.7,2.149,2.149,0,0,0,86.806,41.063Zm-51.8,64.64H23.5V84h11.5v21.7Zm27.912-2.527A2.529,2.529,0,0,1,60.39,105.7H44.97a10.69,10.69,0,0,1-5.668-1.639V85.522l6.229-4.238v2.842a2.149,2.149,0,0,0,2.148,2.148H60.39A2.53,2.53,0,0,1,62.917,88.8Zm-2.8-21.2H49.828v-13.3a34.679,34.679,0,0,0,10.293.008Z"/>
    <path id="XMLID_1004_" d="M55,9.828A24.713,24.713,0,1,0,79.713,34.542,24.741,24.741,0,0,0,55,9.828ZM41.078,49.46v-.631a4.87,4.87,0,0,1,3.976-4.786l3.064-.571a9.78,9.78,0,0,0,13.762,0l3.064.571a4.87,4.87,0,0,1,3.976,4.786v.632a20.376,20.376,0,0,1-27.842,0ZM60.5,36.5a5.5,5.5,0,0,1-11.008,0V34.107a5.5,5.5,0,0,1,11.008,0Zm11.939,8.643a9.167,9.167,0,0,0-6.709-5.325l-1.422-.265A9.758,9.758,0,0,0,64.8,36.5V34.107a9.8,9.8,0,0,0-19.6,0V36.5a9.757,9.757,0,0,0,.489,3.053l-1.422.265a9.166,9.166,0,0,0-6.709,5.323,20.416,20.416,0,1,1,34.884,0Z"/>
    <path id="XMLID_1046_" d="M100.117,0a2.149,2.149,0,0,0-2.148,2.148V4.819a2.148,2.148,0,0,0,4.3,0V2.148A2.149,2.149,0,0,0,100.117,0Z"/>
    <path id="XMLID_1050_" d="M100.117,12.8a2.149,2.149,0,0,0-2.148,2.148v2.671a2.148,2.148,0,0,0,4.3,0V14.947A2.149,2.149,0,0,0,100.117,12.8Z"/>
    <path id="XMLID_1059_" d="M107.852,7.734h-2.671a2.148,2.148,0,0,0,0,4.3h2.671a2.148,2.148,0,0,0,0-4.3Z"/>
    <path id="XMLID_1060_" d="M95.053,7.734H92.383a2.148,2.148,0,0,0,0,4.3h2.671a2.148,2.148,0,0,0,0-4.3Z"/>
    <path id="XMLID_1064_" d="M9.883,57.069a2.149,2.149,0,0,0-2.148,2.148v2.671a2.148,2.148,0,0,0,4.3,0V59.218A2.149,2.149,0,0,0,9.883,57.069Z"/>
    <path id="XMLID_1065_" d="M9.883,69.868a2.149,2.149,0,0,0-2.148,2.148v2.671a2.148,2.148,0,0,0,4.3,0V72.016A2.149,2.149,0,0,0,9.883,69.868Z"/>
    <path id="XMLID_1069_" d="M17.617,64.8H14.947a2.148,2.148,0,1,0,0,4.3h2.671a2.148,2.148,0,0,0,0-4.3Z"/>
    <path id="XMLID_1071_" d="M4.819,64.8H2.148a2.148,2.148,0,0,0,0,4.3H4.819a2.148,2.148,0,0,0,0-4.3Z"/>
    <path id="XMLID_1089_" d="M87.394,32.394a2.142,2.142,0,1,0,1.519.627A2.163,2.163,0,0,0,87.394,32.394Z"/>
  </g>
</svg>
