<svg xmlns="http://www.w3.org/2000/svg" width="150" height="150" viewBox="0 0 150 150">
  <g id="Grupo_86213" data-name="Grupo 86213" transform="translate(-310.668 -944)">
    <circle id="Elipse_4240" data-name="Elipse 4240" cx="75" cy="75" r="75" transform="translate(310.668 944)" fill="#fff"/>
    <g id="analisis-foda" transform="translate(327.668 961)">
      <g id="Grupo_84373" data-name="Grupo 84373" transform="translate(2.257 2.285)">
        <path id="Trazado_145250" data-name="Trazado 145250" d="M256.225,308.757l-.065-55.707h55.668S314.153,305.961,256.225,308.757Z" transform="translate(-200.381 -198.003)" fill="#0f2771"/>
        <path id="Trazado_145251" data-name="Trazado 145251" d="M11.681,256.334l56.233.982v54.646S14.5,314.289,11.681,256.334Z" transform="translate(-11.292 -200.543)" fill="#fde947"/>
        <path id="Trazado_145252" data-name="Trazado 145252" d="M311.809,70.144l-55.707.065V14.541S309.013,12.216,311.809,70.144Z" transform="translate(-200.336 -13.522)" fill="#3ca8f4"/>
        <path id="Trazado_145253" data-name="Trazado 145253" d="M66.974,10.086,65.968,66.319H9.976s-2.384-53.411,57-56.233Z" transform="translate(-9.963 -10.086)" fill="#8ad24a"/>
        <circle id="Elipse_4288" data-name="Elipse 4288" cx="21.854" cy="21.854" r="21.854" transform="translate(33.889 33.861)" fill="#80b6ff"/>
        <circle id="Elipse_4289" data-name="Elipse 4289" cx="12.485" cy="12.485" r="12.485" transform="translate(43.258 43.23)" fill="#dfedff"/>
        <g id="Grupo_84372" data-name="Grupo 84372" transform="translate(48.286 78.386)">
          <path id="Trazado_145254" data-name="Trazado 145254" d="M235.083,395.913h-12v23.536H238V395.913Z" transform="translate(-223.086 -386.885)" fill="#80b6ff"/>
          <path id="Trazado_145255" data-name="Trazado 145255" d="M235.961,356.065h9.08v9.08h-9.08Z" transform="translate(-233.044 -356.065)" fill="#80b6ff"/>
        </g>
      </g>
      <g id="Grupo_84374" data-name="Grupo 84374" transform="translate(0)">
        <circle id="Elipse_4290" data-name="Elipse 4290" cx="2.265" cy="2.265" r="2.265" transform="translate(34.956 7.494) rotate(-73.032)"/>
        <path id="Trazado_145256" data-name="Trazado 145256" d="M99.012,16.988A57.622,57.622,0,0,0,58,0a58.481,58.481,0,0,0-10.79,1,2.27,2.27,0,0,0,.84,4.462A53.773,53.773,0,0,1,55.73,4.59V34.346A23.879,23.879,0,0,0,34.27,55.8H4.587a53.411,53.411,0,0,1,25.2-43.226,2.27,2.27,0,1,0-2.4-3.855A57.965,57.965,0,0,0,0,58,58,58,0,0,0,99.012,99.012a58,58,0,0,0,0-82.025Zm12.4,38.817H81.73A23.879,23.879,0,0,0,60.27,34.346V4.591A53.451,53.451,0,0,1,111.412,55.8ZM58,38.777a19.3,19.3,0,1,1-19.3,19.3A19.321,19.321,0,0,1,58,38.777ZM55.73,81.806c.747.071,1.5.109,2.27.109s1.523-.038,2.27-.109v6.689H55.73ZM4.593,60.345H34.27A23.9,23.9,0,0,0,51.19,80.922v7.573h-.647a2.27,2.27,0,0,0-2.27,2.27v19.814A53.484,53.484,0,0,1,4.593,60.345Zm48.22,50.867V93.035H63.187v18.177q-2.57.246-5.187.248t-5.187-.248ZM95.8,95.8a53.071,53.071,0,0,1-28.074,14.777V90.765a2.27,2.27,0,0,0-2.27-2.27H64.81V80.922A23.9,23.9,0,0,0,81.73,60.345h29.677A53.074,53.074,0,0,1,95.8,95.8Z" transform="translate(0)"/>
        <path id="Trazado_145261" data-name="Trazado 145261" d="M205.628,220.718a14.755,14.755,0,1,0-14.755-14.755A14.772,14.772,0,0,0,205.628,220.718Zm0-24.971a10.215,10.215,0,1,1-10.215,10.215A10.227,10.227,0,0,1,205.628,195.747Z" transform="translate(-147.628 -147.887)"/>
      </g>
    </g>
  </g>
</svg>
