<svg xmlns="http://www.w3.org/2000/svg" width="83" height="83" viewBox="0 0 83 83">
  <g id="problema" transform="translate(-1 -1)">
    <g id="Grupo_86212" data-name="Grupo 86212" transform="translate(35.806 2.339)">
      <path id="Trazado_148653" data-name="Trazado 148653" d="M38,20.742V6.016A4.011,4.011,0,0,1,42.016,2H56.742V7.355h1.339a4.016,4.016,0,0,1,0,8.032H56.742v5.355H51.387a4.016,4.016,0,0,0-8.032,0Z" transform="translate(-23.274 -2)" fill="#fb0"/>
      <path id="Trazado_148654" data-name="Trazado 148654" d="M56.742,66.742H42.016V61.387a4.016,4.016,0,0,1,0-8.032V48h5.355A4.016,4.016,0,1,0,55.4,48h5.355V62.726A4.011,4.011,0,0,1,56.742,66.742Z" transform="translate(-23.274 13.581)" fill="#fb0"/>
      <path id="Trazado_148655" data-name="Trazado 148655" d="M27,49.016h5.355a4.016,4.016,0,0,1,8.032,0h5.355v5.355a4.016,4.016,0,0,0,0,8.032v5.355H31.016A4.011,4.011,0,0,1,27,63.742Z" transform="translate(-27 12.565)" fill="#fb0"/>
      <path id="Trazado_148656" data-name="Trazado 148656" d="M27,51.4V38.016A4.011,4.011,0,0,1,31.016,34H45.742v5.355a4.016,4.016,0,0,1,0,8.032v5.355H40.387a4.016,4.016,0,0,0-8.032,0H27Z" transform="translate(-27 8.839)" fill="#fb0"/>
    </g>
    <path id="Trazado_148657" data-name="Trazado 148657" d="M68.1,32.048A12.048,12.048,0,0,1,56.905,44.057l-4.873,4.056V43.4A12.045,12.045,0,1,1,68.1,32.048Z" transform="translate(14.565 6.435)" fill="#a6ffac"/>
    <path id="Trazado_148658" data-name="Trazado 148658" d="M24.371,34V66.8a4.691,4.691,0,0,1-4.685,4.685A4.708,4.708,0,0,1,15,66.8V39.355h4.016V34Z" transform="translate(4.742 11.177)" fill="#cf9e76"/>
    <path id="Trazado_148659" data-name="Trazado 148659" d="M17.371,38V65.444a4.691,4.691,0,0,1-4.685,4.685A4.708,4.708,0,0,1,8,65.444V38Z" transform="translate(2.371 12.532)" fill="#cf9e76"/>
    <path id="Trazado_148660" data-name="Trazado 148660" d="M21.387,24V42.742H8V36.048h7.363a3.347,3.347,0,1,0,0-6.694H8V24Z" transform="translate(2.371 7.79)" fill="#e6e9ed"/>
    <path id="Trazado_148661" data-name="Trazado 148661" d="M10.032,36.806H17.4a3.347,3.347,0,1,1,0,6.694H7.355A5.353,5.353,0,0,1,2,38.145V34.129A13.392,13.392,0,0,1,15.387,20.742h5.355L35.468,19.4V5.347a3.347,3.347,0,1,1,6.694,0v15.9a5.348,5.348,0,0,1-4.819,5.328l-8.568.857v17.4H23.419V31.452H10.032Z" transform="translate(0.339 0.339)" fill="#7ae582"/>
    <circle id="Elipse_4357" data-name="Elipse 4357" cx="8.032" cy="8.032" r="8.032" transform="translate(11.71 5.016)" fill="#f0d0b4"/>
    <path id="Trazado_148662" data-name="Trazado 148662" d="M58.129,53.081a2.677,2.677,0,1,1-5.355,0V51.742H47.419V48.895a5.355,5.355,0,0,0,0-10.37V33H31.355A5.36,5.36,0,0,0,26,38.355V67.806a5.36,5.36,0,0,0,5.355,5.355H60.806a5.36,5.36,0,0,0,5.355-5.355V51.742H58.129ZM28.677,38.355a2.68,2.68,0,0,1,2.677-2.677H44.742v5.355h1.339a2.677,2.677,0,0,1,0,5.355H44.742v5.355H41.895a5.355,5.355,0,0,0-10.37,0H28.677Zm2.677,32.129a2.68,2.68,0,0,1-2.677-2.677V54.419h5.355V53.081a2.677,2.677,0,0,1,5.355,0v1.339h5.355v2.847a5.355,5.355,0,0,0,0,10.37v2.847ZM60.636,54.419h2.847V67.806a2.68,2.68,0,0,1-2.677,2.677H47.419V65.129H46.081a2.677,2.677,0,0,1,0-5.355h1.339V54.419h2.847a5.355,5.355,0,0,0,10.37,0Z" transform="translate(8.468 10.839)"/>
    <path id="Trazado_148663" data-name="Trazado 148663" d="M45.032,21.081a2.677,2.677,0,1,1,5.355,0v1.339h8.032V17.065a5.355,5.355,0,0,0,0-10.71V1H42.355A5.36,5.36,0,0,0,37,6.355V22.419h8.032Zm-2.507-1.339H39.677V6.355a2.68,2.68,0,0,1,2.677-2.677H55.742V9.032h2.677a2.677,2.677,0,1,1,0,5.355H55.742v5.355H52.895a5.355,5.355,0,0,0-10.37,0Z" transform="translate(12.194 0)"/>
    <path id="Trazado_148664" data-name="Trazado 148664" d="M54.016,23A4.021,4.021,0,0,0,50,27.016v1.339h2.677V27.016a1.339,1.339,0,1,1,2.677,0v.23a1.343,1.343,0,0,1-.392.946L53.854,29.3a3.986,3.986,0,0,0-1.177,2.839V33.71h2.677V32.141a1.343,1.343,0,0,1,.392-.946l1.108-1.108a3.986,3.986,0,0,0,1.177-2.839v-.23A4.021,4.021,0,0,0,54.016,23Z" transform="translate(16.597 7.452)"/>
    <path id="Trazado_148665" data-name="Trazado 148665" d="M52,33h2.677v2.677H52Z" transform="translate(17.274 10.839)"/>
    <path id="Trazado_148666" data-name="Trazado 148666" d="M56.387,19a13.38,13.38,0,0,0-5.355,25.644V51.31l6.744-5.62A13.381,13.381,0,0,0,56.387,19Zm.76,24.058-.431.029L53.71,45.593v-2.8l-.892-.315a10.713,10.713,0,1,1,4.329.584Z" transform="translate(14.226 6.097)"/>
    <path id="Trazado_148667" data-name="Trazado 148667" d="M44,58h2.677v2.677H44Z" transform="translate(14.565 19.306)"/>
    <path id="Trazado_148668" data-name="Trazado 148668" d="M48,58h2.677v2.677H48Z" transform="translate(15.919 19.306)"/>
    <path id="Trazado_148669" data-name="Trazado 148669" d="M29,51h2.677v2.677H29Z" transform="translate(9.484 16.935)"/>
    <path id="Trazado_148670" data-name="Trazado 148670" d="M29,55h2.677v2.677H29Z" transform="translate(9.484 18.29)"/>
    <path id="Trazado_148671" data-name="Trazado 148671" d="M41,5h2.677V7.677H41Z" transform="translate(13.548 1.355)"/>
    <path id="Trazado_148672" data-name="Trazado 148672" d="M45,5h2.677V7.677H45Z" transform="translate(14.903 1.355)"/>
    <path id="Trazado_148673" data-name="Trazado 148673" d="M30,37h2.677v2.677H30Z" transform="translate(9.823 12.194)"/>
    <path id="Trazado_148674" data-name="Trazado 148674" d="M34,37h2.677v2.677H34Z" transform="translate(11.177 12.194)"/>
    <path id="Trazado_148675" data-name="Trazado 148675" d="M43.839,21.589V5.685a4.685,4.685,0,1,0-9.371,0V18.52l-7.695.7a9.371,9.371,0,1,0-13.356.719A14.736,14.736,0,0,0,1,34.468v4.016a6.7,6.7,0,0,0,6.694,6.694H9.032v32.8a6,6,0,0,0,10.71,3.74,6,6,0,0,0,10.71-3.74V28.986l7.36-.736a6.674,6.674,0,0,0,6.027-6.66Zm-30.79-8.541a6.694,6.694,0,1,1,6.694,6.694A6.7,6.7,0,0,1,13.048,13.048Zm4.685,32.129a4.685,4.685,0,1,0,0-9.371H11.71V33.129h10.71V49.194H11.71V45.177ZM15.056,81.323a3.35,3.35,0,0,1-3.347-3.347v-26.1H18.4v26.1A3.35,3.35,0,0,1,15.056,81.323Zm9.371,0a3.35,3.35,0,0,1-3.347-3.347v-26.1H25.1V46.516h2.677v31.46A3.35,3.35,0,0,1,24.427,81.323Zm3.347-54.76V43.839H25.1V30.452H9.032v5.355H6.355v2.677H17.734a2.008,2.008,0,1,1,0,4.016H7.694a4.021,4.021,0,0,1-4.016-4.016V34.468A12.061,12.061,0,0,1,15.726,22.419l3.941,0c.025,0,.05,0,.075,0s.051,0,.078,0H21.2l15.943-1.45V5.685a2.008,2.008,0,1,1,4.016,0v15.9a4,4,0,0,1-3.616,4Z" transform="translate(0)"/>
  </g>
</svg>
