<svg id="senal-de-direccion" xmlns="http://www.w3.org/2000/svg" width="87.008" height="87.008" viewBox="0 0 87.008 87.008">
  <g id="Grupo_84375" data-name="Grupo 84375" transform="translate(46.903 9.516)">
    <path id="Trazado_145262" data-name="Trazado 145262" d="M314.406,264.5l-10.2,8.5H276V256h28.21Z" transform="translate(-276 -222.013)" fill="#3ca8f4"/>
    <path id="Trazado_145263" data-name="Trazado 145263" d="M314.406,64.5l-10.2,8.5H276V56h28.21Z" transform="translate(-276 -56)" fill="#8ad24a"/>
  </g>
  <path id="Trazado_145264" data-name="Trazado 145264" d="M239.4,10a3.4,3.4,0,0,0-3.4,3.4V83.413h6.8V13.4A3.4,3.4,0,0,0,239.4,10Z" transform="translate(-195.895 -8.301)" fill="#3ca8f4"/>
  <path id="Trazado_145265" data-name="Trazado 145265" d="M48.406,156v16.994H20.2L10,164.5,20.2,156Z" transform="translate(-8.301 -129.49)" fill="#fde947"/>
  <path id="Trazado_145266" data-name="Trazado 145266" d="M174.161,444.325l2.624,7.871H136l2.624-7.871A3.4,3.4,0,0,1,141.849,442h29.086A3.4,3.4,0,0,1,174.161,444.325Z" transform="translate(-112.889 -366.888)" fill="#4182af"/>
  <path id="Trazado_145267" data-name="Trazado 145267" d="M413.7,99.4a1.7,1.7,0,1,0-1.7-1.7A1.7,1.7,0,0,0,413.7,99.4Z" transform="translate(-341.986 -79.686)"/>
  <path id="Trazado_145268" data-name="Trazado 145268" d="M413.7,299.4a1.7,1.7,0,1,0-1.7-1.7A1.7,1.7,0,0,0,413.7,299.4Z" transform="translate(-341.986 -245.699)"/>
  <path id="Trazado_145269" data-name="Trazado 145269" d="M61.7,196a1.7,1.7,0,1,0,1.7,1.7A1.7,1.7,0,0,0,61.7,196Z" transform="translate(-49.804 -162.692)"/>
  <path id="Trazado_145270" data-name="Trazado 145270" d="M75.112,28.21a1.7,1.7,0,0,0,1.088-.394l10.2-8.5a1.7,1.7,0,0,0,0-2.611l-10.2-8.5a1.7,1.7,0,0,0-1.088-.394H48.6V5.1a5.1,5.1,0,0,0-10.2,0V24.811H11.9a1.7,1.7,0,0,0-1.088.394L.611,33.7a1.7,1.7,0,0,0,0,2.611l10.2,8.5A1.7,1.7,0,0,0,11.9,45.2h26.51v28.21H28.961A5.092,5.092,0,0,0,24.123,76.9l-2.237,6.709H16.314a1.7,1.7,0,1,0,0,3.4H72.053a1.7,1.7,0,0,0,0-3.4H65.121L62.885,76.9a5.092,5.092,0,0,0-4.838-3.487H48.6V62.2h26.51A1.7,1.7,0,0,0,76.2,61.8l10.2-8.5a1.7,1.7,0,0,0,0-2.611L76.2,42.2a1.7,1.7,0,0,0-1.088-.394H48.6V28.21ZM74.5,11.216l8.157,6.8-8.157,6.8H48.6V11.216ZM12.511,41.8l-8.157-6.8,8.157-6.8H38.406V41.8ZM59.66,77.974l1.878,5.635H25.469l1.878-5.635a1.7,1.7,0,0,1,1.613-1.162H58.047A1.7,1.7,0,0,1,59.66,77.974ZM41.8,73.413V5.1a1.7,1.7,0,0,1,3.4,0V73.413ZM74.5,45.2,82.654,52,74.5,58.8H48.6V45.2Z" transform="translate(0)"/>
  <path id="Trazado_145271" data-name="Trazado 145271" d="M307.7,99.4h11.216a1.7,1.7,0,1,0,0-3.4H307.7a1.7,1.7,0,0,0,0,3.4Z" transform="translate(-253.999 -79.686)"/>
  <path id="Trazado_145272" data-name="Trazado 145272" d="M307.7,299.4h11.216a1.7,1.7,0,0,0,0-3.4H307.7a1.7,1.7,0,0,0,0,3.4Z" transform="translate(-253.999 -245.699)"/>
  <path id="Trazado_145273" data-name="Trazado 145273" d="M116.314,196H101.7a1.7,1.7,0,0,0,0,3.4h14.615a1.7,1.7,0,0,0,0-3.4Z" transform="translate(-83.006 -162.692)"/>
</svg>
