<svg xmlns="http://www.w3.org/2000/svg" width="150" height="150" viewBox="0 0 150 150">
  <g id="Grupo_86248" data-name="Grupo 86248" transform="translate(-1139.668 -944)">
    <circle id="Elipse_4242" data-name="Elipse 4242" cx="75" cy="75" r="75" transform="translate(1139.668 944)" fill="#fff"/>
    <g id="arbol" transform="translate(1141.576 964)">
      <path id="Trazado_145274" data-name="Trazado 145274" d="M125.486,55.667a17.384,17.384,0,0,0-10.618-16.015A15.5,15.5,0,0,0,94.3,18.61a15.5,15.5,0,0,0-29.853,0A15.5,15.5,0,0,0,43.873,39.652a17.376,17.376,0,0,0,5.967,33.367c1.287,4.66,6.255,8.135,12.193,8.135A13.811,13.811,0,0,0,70.7,78.22a14.276,14.276,0,0,0,17.336,0,13.81,13.81,0,0,0,8.668,2.933c5.938,0,10.907-3.474,12.193-8.135A17.373,17.373,0,0,0,125.486,55.667Z" transform="translate(-5.778 -5.778)" fill="#29b39d"/>
      <path id="Trazado_145277" data-name="Trazado 145277" d="M166.62,335.824c-1.4,2.371-7.191,5.022-9.34,5.173.236.051.476.1.717.134l.058.01q.367.058.742.1l.019,0c.225.024.452.041.68.054l.167.009c.238.011.477.019.718.019h0a13.949,13.949,0,0,0,8.054-2.472l.382-.278-1.944-3.19Z" transform="translate(-104.126 -265.949)" fill="#009000"/>
      <path id="Trazado_145278" data-name="Trazado 145278" d="M201.348,273.171l6.641-10.479a1.986,1.986,0,0,0-.374-2.561h0a1.986,1.986,0,0,0-2.716.1l-4.891,4.951a.961.961,0,0,1-1.636-.8l1.438-10.655a1.986,1.986,0,0,0-1.834-2.247l-1.347-.091a1.986,1.986,0,0,0-2.09,1.637l-2.567,14.585a.961.961,0,0,1-1.692.44l-8.04-9.888a1.985,1.985,0,0,0-2.31-.578l-1.408.592a1.986,1.986,0,0,0-.934,2.852l8.262,13.771a10.329,10.329,0,0,1,1.391,6.64c-1.071,8.258-2.4,16.046-7.844,22.391h28.4c-5.827-6.792-7.264-15.238-8.035-24.144A10.476,10.476,0,0,1,201.348,273.171Z" transform="translate(-120.006 -199.339)" fill="#e6a800"/>
      <path id="Trazado_145281" data-name="Trazado 145281" d="M111.084,33.148a16.808,16.808,0,0,0,1.242-6.384c0-.45-.018-.9-.053-1.351a1.509,1.509,0,1,0-3.008.237c.029.368.044.743.044,1.114a13.833,13.833,0,0,1-1.559,6.417,1.508,1.508,0,0,0,.753,2.083,15.868,15.868,0,0,1-5.448,30.47,1.508,1.508,0,0,0-1.386,1.106c-1.124,4.072-5.641,7.028-10.739,7.028a12.563,12.563,0,0,1-6.655-1.84l4.984-7.865a3.494,3.494,0,0,0-5.437-4.326l-3.74,3.786L81.3,54.588a3.5,3.5,0,0,0-3.227-3.954l-1.347-.091a3.486,3.486,0,0,0-3.677,2.881l-1.18,6.7-1.18,6.7L63.4,57.872a3.454,3.454,0,0,0-.84-.743l-.006,0c-.034-.021-.069-.039-.1-.059a3.538,3.538,0,0,0-1.462-.466l-.049,0c-.076-.006-.152-.01-.228-.011a3.459,3.459,0,0,0-1.377.27l-1.408.592a3.494,3.494,0,0,0-1.643,5.019L62.252,72.4a12.789,12.789,0,0,1-6,1.463c-5.1,0-9.615-2.956-10.739-7.027a1.508,1.508,0,0,0-1.386-1.106,15.868,15.868,0,0,1-5.448-30.47,1.508,1.508,0,0,0,.753-2.083,13.833,13.833,0,0,1-1.559-6.417A14.008,14.008,0,0,1,51.868,12.772,13.854,13.854,0,0,1,58,14.187a1.508,1.508,0,0,0,2.115-.949,13.991,13.991,0,0,1,26.947,0,1.508,1.508,0,0,0,2.115.949,14,14,0,0,1,18.465,5.954,1.509,1.509,0,0,0,2.656-1.43A17.028,17.028,0,0,0,89.429,10.8a17.009,17.009,0,0,0-31.673,0,16.856,16.856,0,0,0-5.889-1.048A17.028,17.028,0,0,0,34.858,26.764,16.808,16.808,0,0,0,36.1,33.148a18.886,18.886,0,0,0,6.848,35.524c1.888,4.885,7.194,8.212,13.307,8.212A15.808,15.808,0,0,0,63.8,74.99l.748,1.246a8.857,8.857,0,0,1,1.188,5.67c-.219,1.692-.49,3.684-.832,5.634a1.509,1.509,0,1,0,2.972.522c.353-2.009.629-4.043.853-5.768a11.885,11.885,0,0,0-1.593-7.61L58.876,60.913a.477.477,0,0,1,.224-.686l1.408-.592a.48.48,0,0,1,.555.139l8.04,9.888c.021.026.044.051.066.076a2.435,2.435,0,0,0,2.456.76l.016,0h0a2.465,2.465,0,0,0,1.16-.675l.037-.037.031-.036a2.465,2.465,0,0,0,.582-1.214l2.567-14.585a.481.481,0,0,1,.5-.394l1.348.091a.477.477,0,0,1,.441.54L76.871,64.841a2.468,2.468,0,0,0,1.359,2.547q.089.044.181.08a2.467,2.467,0,0,0,2.665-.561l4.89-4.951a.474.474,0,0,1,.307-.139l.015,0H86.3a.476.476,0,0,1,.414.732L80.068,73.025a12.057,12.057,0,0,0-1.813,7.453c.632,7.3,1.727,15.526,6.485,22.5H62.434a31.555,31.555,0,0,0,4.015-8.7,1.509,1.509,0,0,0-2.891-.865,27.024,27.024,0,0,1-5.312,10.1A1.509,1.509,0,0,0,59.391,106h28.4a1.508,1.508,0,0,0,1.145-2.491c-5.809-6.771-7.009-15.573-7.677-23.292a9.024,9.024,0,0,1,1.356-5.578l.042-.067a15.59,15.59,0,0,0,8.27,2.31c6.113,0,11.419-3.327,13.307-8.212a18.886,18.886,0,0,0,6.849-35.524Z" fill="#121419"/>
    </g>
  </g>
</svg>
