<svg id="agradable" xmlns="http://www.w3.org/2000/svg" width="87.313" height="87.313" viewBox="0 0 87.313 87.313">
  <g id="_x3C_Group_x3E__63_" transform="translate(1.279 1.279)">
    <path id="Trazado_143915" data-name="Trazado 143915" d="M93.913,49.877A42.377,42.377,0,0,0,20.207,21.341,41.939,41.939,0,0,0,9.5,49.877,41.8,41.8,0,0,0,51.536,91.913,41.748,41.748,0,0,0,93.913,49.877Z" transform="translate(-9.159 -7.5)" fill="#29b39d"/>
    <path id="Trazado_143916" data-name="Trazado 143916" d="M53.288,141.166a42.375,42.375,0,0,1-31.62-70.587,42.375,42.375,0,1,0,59.83,59.83A42.216,42.216,0,0,1,53.288,141.166Z" transform="translate(-7.5 -59.822)" fill="#29b39d"/>
    <g id="Grupo_83446" data-name="Grupo 83446" transform="translate(18.929 6.01)">
      <path id="Trazado_143917" data-name="Trazado 143917" d="M192.568,56.654l.865-4.637a6.5,6.5,0,0,0-2.24-6.2c-.382-.316-.989-.205-1.448-.431-1.075-.529-1.6.268-1.988,1.408l-4.34,13.091c-1.188,3.532-2.366,7.57-5.666,9.274V85.75c0,2.717.54,6.62,6.841,6.62l15.481.006,6.91-2.217V66.614l-6.606-2.729h-1.893a6.028,6.028,0,0,1-5.917-7.231Z" transform="translate(-167.648 -44.798)" fill="#f3d69e"/>
      <path id="Trazado_143918" data-name="Trazado 143918" d="M162.87,83.184V68.7a3.394,3.394,0,0,1,1.247-2.635c2.6-2.114,4.57-5.991,5.582-9l4.134-12.285a1.977,1.977,0,0,1,.774-1.016,6.449,6.449,0,0,0-1.262-.818,1.98,1.98,0,0,0-2.751,1.151l-4.134,12.285c-1.188,3.532-3.7,7.205-7,8.909l-1.705,10.783,1.705,9.325c0,2.718,2.8,4.915,9.1,4.915A7.056,7.056,0,0,1,162.87,83.184Z" transform="translate(-151.06 -42.743)" fill="#efcb83"/>
      <path id="Trazado_143919" data-name="Trazado 143919" d="M305.749,280.865h-7.984c-1.8,0-2.239-.608-2.239-2.409s.437-3.262,2.239-3.262h.251l4.111-1.705,3.792,1.705a2.13,2.13,0,0,1,2.13,2.13v1.07A2.6,2.6,0,0,1,305.749,280.865Z" transform="translate(-265.338 -234.139)" fill="#f3d69e"/>
      <path id="Trazado_143920" data-name="Trazado 143920" d="M296.2,286.6a3.259,3.259,0,0,1-3.254-3.113h-.156a3.262,3.262,0,0,0,0,6.524h8.154a2.13,2.13,0,0,0,2.13-2.13V286.6H296.2Z" transform="translate(-260.361 -242.433)" fill="#efcb83"/>
      <path id="Trazado_143921" data-name="Trazado 143921" d="M306.044,238.555l-7.88.171c-2.022.171-2.467-2.606-2.467-2.809h-.171c0-2.022.616-3.661,2.638-3.661L302,230.551l5.238,1.705a2.663,2.663,0,0,1,2.663,2.663v1.315C309.9,237.7,307.515,238.726,306.044,238.555Z" transform="translate(-265.337 -198.524)" fill="#f3d69e"/>
      <path id="Trazado_143922" data-name="Trazado 143922" d="M296.6,244.521a3.661,3.661,0,0,1-3.661-3.661c0-.08.007-.159.012-.239a3.659,3.659,0,0,0,.238,7.31h9.074a2.663,2.663,0,0,0,2.663-2.663v-.748Z" transform="translate(-260.361 -206.876)" fill="#efcb83"/>
      <path id="Trazado_143923" data-name="Trazado 143923" d="M307.975,195.616l-10.09.171c-2.022,0-2.638-.786-2.638-2.808s.616-3.661,2.638-3.661l4.979-1.705,4.325,1.705h2.15A2.663,2.663,0,0,1,312,191.98V193.3C312,194.765,309.446,195.616,307.975,195.616Z" transform="translate(-265.106 -162.907)" fill="#f3d69e"/>
      <path id="Trazado_143924" data-name="Trazado 143924" d="M296.319,201.582a3.661,3.661,0,0,1-3.661-3.661c0-.08.007-.159.012-.239a3.659,3.659,0,0,0,.238,7.31h11.455a2.663,2.663,0,0,0,2.663-2.663v-.748Z" transform="translate(-260.129 -171.26)" fill="#efcb83"/>
      <path id="Trazado_143925" data-name="Trazado 143925" d="M306.533,161.143h-7.539c-2.022,0-2.467-2.809-2.467-2.809,0-2.022.445-3.661,2.467-3.661h9.074a2.663,2.663,0,0,1,2.663,2.663v1.315C310.73,160.121,308,161.143,306.533,161.143Z" transform="translate(-266.167 -135.585)" fill="#f3d69e"/>
      <path id="Trazado_143926" data-name="Trazado 143926" d="M296.6,158.643a3.661,3.661,0,0,1-3.661-3.661c0-.08.007-.159.012-.239a3.659,3.659,0,0,0,.238,7.31h9.074a2.663,2.663,0,0,0,2.663-2.663v-.748Z" transform="translate(-260.361 -135.643)" fill="#efcb83"/>
      <path id="Trazado_143927" data-name="Trazado 143927" d="M127.653,182.11h-2.1c-1.413,0-1.547-2.332-1.547-3.744l-.087-20.031c0-1.413.222-3.661,1.635-3.661h3.283a2.558,2.558,0,0,1,2.558,2.558v23.375C131.391,182.019,129.066,182.11,127.653,182.11Z" transform="translate(-122.992 -135.585)" fill="#fb0"/>
    </g>
  </g>
  <g id="Grupo_83447" data-name="Grupo 83447" transform="translate(0 0)">
    <path id="Trazado_143929" data-name="Trazado 143929" d="M143.053,360.03a1.45,1.45,0,0,0-1.018,1.384v10.694a1.45,1.45,0,0,0,2.9,0v-6.044l4.589,6.645a1.589,1.589,0,0,0,1.8.658,1.644,1.644,0,0,0,1.123-1.634l-.1-10.353a1.449,1.449,0,0,0-1.449-1.435h-.014a1.449,1.449,0,0,0-1.435,1.464l.06,6.169-4.825-6.987A1.451,1.451,0,0,0,143.053,360.03Z" transform="translate(-117.813 -298.562)"/>
    <path id="Trazado_143930" data-name="Trazado 143930" d="M215.816,361.394v10.714a1.45,1.45,0,1,0,2.9,0V361.394a1.45,1.45,0,1,0-2.9,0Z" transform="translate(-179.012 -298.562)"/>
    <path id="Trazado_143931" data-name="Trazado 143931" d="M334.106,372.3a1.45,1.45,0,0,0-1.45-1.449h-3.024v-2.409h2.694a1.45,1.45,0,0,0,0-2.9h-2.694V363.13h3.024a1.45,1.45,0,1,0,0-2.9h-4.473a1.45,1.45,0,0,0-1.45,1.45V372.3a1.45,1.45,0,0,0,1.45,1.45h4.473A1.45,1.45,0,0,0,334.106,372.3Z" transform="translate(-271.015 -298.8)"/>
    <path id="Trazado_143932" data-name="Trazado 143932" d="M252.718,362.843a3.887,3.887,0,0,1,2.184.666,1.45,1.45,0,1,0,1.623-2.4,6.807,6.807,0,1,0-3.807,12.45,5.816,5.816,0,0,0,4.486-2.031,1.449,1.449,0,1,0-2.222-1.862,2.955,2.955,0,0,1-2.264.994,3.907,3.907,0,0,1,0-7.815Z" transform="translate(-203.976 -298.562)"/>
    <path id="Trazado_143933" data-name="Trazado 143933" d="M373.48,58.628a1.45,1.45,0,0,0-1.87,2.215A40.767,40.767,0,0,1,364.471,128a1.45,1.45,0,0,0-.6,1.961,1.5,1.5,0,0,0,1.961.6,43.667,43.667,0,0,0,7.646-71.929Z" transform="translate(-301.68 -48.346)"/>
    <path id="Trazado_143934" data-name="Trazado 143934" d="M57.545,81.986A40.762,40.762,0,1,1,65.284,9.1a1.45,1.45,0,1,0,1.541-2.456,43.649,43.649,0,1,0-8.292,78.064,1.449,1.449,0,1,0-.988-2.725Z" transform="translate(0 0)"/>
    <path id="Trazado_143935" data-name="Trazado 143935" d="M160.819,68.436V66.447a3.937,3.937,0,0,0-2.657-3.718,3.9,3.9,0,0,0,.334-1.581v-2a3.93,3.93,0,0,0-3.926-3.926H143.546a4.629,4.629,0,0,1-3.625-1.682c-2.039-2.106-.476-6.254-.149-8.624a7.767,7.767,0,0,0-4.181-8.37,3.322,3.322,0,0,0-4.517,1.886l-4.117,12.236a15.643,15.643,0,0,1-4.712,7.066,3.833,3.833,0,0,0-3.594-2.512h-3.27a3.831,3.831,0,0,0-3.827,3.827V82.331a3.831,3.831,0,0,0,3.827,3.827h3.27a3.83,3.83,0,0,0,3.395-2.064c1.486,1.149,3.993,2.064,8.213,2.064H153.25a3.4,3.4,0,0,0,3.4-3.4V80.5a3.38,3.38,0,0,0-.258-1.3,3.934,3.934,0,0,0,2.1-3.478V73.74a3.907,3.907,0,0,0-.335-1.585,3.937,3.937,0,0,0,2.659-3.719Zm-4.882-9.287v2a1.369,1.369,0,0,1-1.368,1.368h-9.05a2.368,2.368,0,0,1,0-4.735h9.05A1.369,1.369,0,0,1,155.937,59.148Zm-33.46,20.829V70.472a1.279,1.279,0,0,0-2.558,0V82.33A1.27,1.27,0,0,1,118.65,83.6h-3.27a1.27,1.27,0,0,1-1.269-1.269V59.049a1.27,1.27,0,0,1,1.269-1.269h3.27a1.27,1.27,0,0,1,1.269,1.269v5.438a1.279,1.279,0,1,0,2.558,0V60.7c3.51-2.135,5.853-6.091,6.9-9.213L133.5,39.249c.152-.249.242-.572.963-.407a5.2,5.2,0,0,1,2.8,5.606c-.649,3.328-1.973,7.876.7,10.727a7.193,7.193,0,0,0,3.448,2.286,4.921,4.921,0,0,0,.793,6.314,4.917,4.917,0,0,0,0,7.334,4.915,4.915,0,0,0-.1,7.158,4.521,4.521,0,0,0-1.047,5.332h-10.8C125.458,83.6,122.477,82.211,122.477,79.977Zm32.088-7.611a1.374,1.374,0,0,1,1.373,1.373v1.989a1.375,1.375,0,0,1-1.373,1.373h-9.038a2.368,2.368,0,0,1,0-4.735Zm-.471,10.39a.844.844,0,0,1-.843.843h-8.121a1.97,1.97,0,0,1,0-3.939c.327,0,7.715,0,8.121,0a.844.844,0,0,1,.843.843Zm4.168-14.321a1.375,1.375,0,0,1-1.373,1.373H145.479a2.368,2.368,0,0,1,0-4.735c1.751,0,9.9,0,11.409,0a1.375,1.375,0,0,1,1.373,1.373Z" transform="translate(-92.53 -30.055)"/>
  </g>
</svg>
