<svg xmlns="http://www.w3.org/2000/svg" width="81.684" height="83.84" viewBox="0 0 81.684 83.84">
  <g id="resolucion-de-problemas" transform="translate(-6.583 0)">
    <g id="Grupo_83436" data-name="Grupo 83436" transform="translate(37.2 1.638)">
      <path id="Trazado_143845" data-name="Trazado 143845" d="M217.945,48.219c1.332-8.531,8.995-10.545,8.985-21.072C226.916,16.235,218.469,9.886,210.25,10c-8.22-.116-16.667,6.233-16.681,17.145-.014,10.527,7.653,12.541,8.985,21.072a2.981,2.981,0,0,1,.408-.023h14.574A2.982,2.982,0,0,1,217.945,48.219Z" transform="translate(-193.569 -10)" fill="#fde947" fill-rule="evenodd"/>
    </g>
    <g id="Grupo_83437" data-name="Grupo 83437" transform="translate(42.914 39.833)">
      <path id="Trazado_143846" data-name="Trazado 143846" d="M232.143,250.624h14.69a3.679,3.679,0,0,0,.292-7.333,2.979,2.979,0,0,0-.408-.023H232.143a2.953,2.953,0,0,0-.408.023,3.679,3.679,0,0,0,.292,7.333Z" transform="translate(-228.463 -243.267)" fill="#f3eff0" fill-rule="evenodd"/>
    </g>
    <g id="Grupo_83438" data-name="Grupo 83438" transform="translate(46.478 47.19)">
      <path id="Trazado_143847" data-name="Trazado 143847" d="M261.258,295.752a3.787,3.787,0,0,0,3.778-3.778V288.2H250.23v3.778A3.786,3.786,0,0,0,254,295.752Z" transform="translate(-250.23 -288.196)" fill="#cdc0c4" fill-rule="evenodd"/>
    </g>
    <g id="Grupo_83439" data-name="Grupo 83439" transform="translate(19.383 58.386)">
      <path id="Trazado_143848" data-name="Trazado 143848" d="M121.966,364.342a4.134,4.134,0,0,0-3.616-2.149h-8.308a2.344,2.344,0,0,1-2.163-.924c-6.126-5.769-11.125-5.486-17.251-3.068a5.929,5.929,0,0,1-2.7.566H84.752v15.521h4.762a4.108,4.108,0,0,1,1.536.288l15.813,4.228c5.56,1.508,7.788,2.892,13.07-.631L139.421,364.3a3.979,3.979,0,1,0-4.182-6.772Z" transform="translate(-84.752 -356.574)" fill="#ffdcd5" fill-rule="evenodd"/>
    </g>
    <g id="Grupo_83440" data-name="Grupo 83440" transform="translate(8.22 57.795)">
      <path id="Trazado_143849" data-name="Trazado 143849" d="M27.744,371.272V355.5a2.534,2.534,0,0,0-2.525-2.529H19.107a2.535,2.535,0,0,0-2.525,2.529v16.031a2.534,2.534,0,0,0,2.525,2.525h6.112a2.534,2.534,0,0,0,2.525-2.525Z" transform="translate(-16.582 -352.966)" fill="#3ca8f4" fill-rule="evenodd"/>
    </g>
    <g id="Grupo_83441" data-name="Grupo 83441" transform="translate(6.583 0)">
      <path id="Trazado_143850" data-name="Trazado 143850" d="M69.122,344.686l-12.056,6.193a5.741,5.741,0,0,0-4.085-1.7H44.673a2.732,2.732,0,0,1-.545-.032c-.075-.051-.263-.228-.415-.371l-.079-.075c-6.762-6.368-12.476-5.964-18.975-3.4a4.293,4.293,0,0,1-2.044.448l-1.83,0a4.169,4.169,0,0,0-3.925-2.783H10.745a4.169,4.169,0,0,0-4.162,4.167v16.031a4.167,4.167,0,0,0,4.162,4.162h6.113a4.169,4.169,0,0,0,3.925-2.78h3.361a4.76,4.76,0,0,1,1.113.232L41.065,369c.692.188,1.328.372,1.942.551a20.02,20.02,0,0,0,5.547,1.092c2.021,0,4.136-.636,6.918-2.492l.041-.028L75,354.247a5.614,5.614,0,0,0-5.881-9.561ZM17.745,363.163a.9.9,0,0,1-.887.887H10.745a.9.9,0,0,1-.887-.887V347.131a.9.9,0,0,1,.887-.892h6.113a.9.9,0,0,1,.887.892ZM73.1,351.58,53.634,365.444c-3.963,2.637-5.649,2.147-9.713.966-.628-.183-1.278-.371-2-.568L26.1,361.613a7.845,7.845,0,0,0-1.961-.344H21.02V349.024l1.742-.007a7.284,7.284,0,0,0,3.1-.673c5.633-2.223,9.979-2.488,15.529,2.738l.078.074a3.821,3.821,0,0,0,3.206,1.294h8.308a2.482,2.482,0,1,1,0,4.964H39.512a1.637,1.637,0,0,0,0,3.275H52.981a5.756,5.756,0,0,0,5.639-6.925l12-6.164A2.349,2.349,0,1,1,73.1,351.58Z" transform="translate(-6.583 -286.807)"/>
      <path id="Trazado_143851" data-name="Trazado 143851" d="M192.278,38.73a5.313,5.313,0,0,0,.567,9.8v2.439a5.419,5.419,0,0,0,5.411,5.416h7.254a5.422,5.422,0,0,0,5.415-5.416V48.529a5.313,5.313,0,0,0,.567-9.8,19.985,19.985,0,0,1,3.7-6.728c2.352-3.2,5.017-6.828,5.011-13.218,0-.57-.024-1.156-.07-1.74a1.637,1.637,0,1,0-3.265.26c.04.5.06,1,.06,1.482,0,5.316-2.123,8.211-4.376,11.277a22.315,22.315,0,0,0-4.307,8.133H195.525a22.31,22.31,0,0,0-4.307-8.132c-2.253-3.066-4.382-5.962-4.375-11.277a15.324,15.324,0,0,1,4.472-11.253,14.834,14.834,0,0,1,10.548-4.257h.047a14.83,14.83,0,0,1,8.977,2.914,1.637,1.637,0,0,0,1.947-2.633A18.574,18.574,0,0,0,189.017,5.2a18.61,18.61,0,0,0-5.449,13.582c-.009,6.392,2.658,10.02,5.011,13.221a19.977,19.977,0,0,1,3.7,6.726Zm15.373,12.238a2.143,2.143,0,0,1-2.141,2.141h-7.254a2.141,2.141,0,0,1-2.136-2.141V48.827h11.531ZM194.6,41.47h14.573a2.041,2.041,0,1,1,0,4.082H194.6a2.041,2.041,0,1,1,0-4.082Z" transform="translate(-154.588 0)"/>
      <path id="Trazado_143852" data-name="Trazado 143852" d="M288.715,64.688a1.637,1.637,0,0,0-3.275,0V74.844a1.637,1.637,0,0,0,3.275,0Z" transform="translate(-239.779 -52.727)"/>
      <path id="Trazado_143853" data-name="Trazado 143853" d="M287.077,170.311a1.637,1.637,0,0,0-1.637,1.637v.009a1.637,1.637,0,1,0,1.637-1.647Z" transform="translate(-239.779 -142.424)"/>
      <path id="Trazado_143854" data-name="Trazado 143854" d="M453.113,114.64h-6.651a1.637,1.637,0,1,0,0,3.275h6.651a1.637,1.637,0,1,0,0-3.275Z" transform="translate(-373.066 -95.869)"/>
      <path id="Trazado_143855" data-name="Trazado 143855" d="M429.653,14.584a1.63,1.63,0,0,0,.911-.278l5.518-3.7a1.637,1.637,0,1,0-1.825-2.719l-5.518,3.7a1.638,1.638,0,0,0,.914,3Z" transform="translate(-359.008 -6.36)"/>
      <path id="Trazado_143856" data-name="Trazado 143856" d="M436.084,203.035l-5.518-3.7a1.637,1.637,0,1,0-1.825,2.719l5.518,3.7a1.637,1.637,0,0,0,1.825-2.719Z" transform="translate(-359.009 -166.46)"/>
      <path id="Trazado_143857" data-name="Trazado 143857" d="M87.075,117.915h6.646a1.637,1.637,0,0,0,0-3.275H87.075a1.637,1.637,0,1,0,0,3.275Z" transform="translate(-72.526 -95.869)"/>
      <path id="Trazado_143858" data-name="Trazado 143858" d="M109.887,10.6l5.518,3.7a1.637,1.637,0,0,0,1.825-2.719l-5.518-3.7a1.637,1.637,0,0,0-1.825,2.719Z" transform="translate(-92.365 -6.361)"/>
      <path id="Trazado_143859" data-name="Trazado 143859" d="M115.406,199.331l-5.518,3.7a1.637,1.637,0,1,0,1.825,2.719l5.518-3.7a1.637,1.637,0,1,0-1.825-2.719Z" transform="translate(-92.366 -166.46)"/>
      <path id="Trazado_143860" data-name="Trazado 143860" d="M374.985,54.937a1.637,1.637,0,1,0,0-2.32,1.627,1.627,0,0,0,0,2.32Z" transform="translate(-314.257 -43.6)"/>
    </g>
  </g>
</svg>
