<svg xmlns="http://www.w3.org/2000/svg" width="78.396" height="78.396" viewBox="0 0 78.396 78.396">
  <g id="investigacion" transform="translate(0 -0.001)">
    <path id="Trazado_143937" data-name="Trazado 143937" d="M398.9,271.435a2.3,2.3,0,0,1-3.248,0l-15.05-15.05,3.248-3.248,15.05,15.05A2.3,2.3,0,0,1,398.9,271.435Zm0,0" transform="translate(-322.328 -214.376)" fill="#3ca8f4"/>
    <path id="Trazado_143938" data-name="Trazado 143938" d="M7.5,62.5H55.732v67.678H7.5Zm0,0" transform="translate(-6.352 -52.929)" fill="#f6f6f6"/>
    <path id="Trazado_143939" data-name="Trazado 143939" d="M40,307.727h9.187v24.8H40Zm0,0" transform="translate(-33.875 -260.608)" fill="#80ffeb"/>
    <path id="Trazado_143940" data-name="Trazado 143940" d="M134,247.727h9.187v33.992H134Zm0,0" transform="translate(-113.482 -209.795)" fill="#1d8070"/>
    <path id="Trazado_143941" data-name="Trazado 143941" d="M230,269.727h9.187V300.35H230Zm0,0" transform="translate(-194.783 -228.426)" fill="#7ae582"/>
    <path id="Trazado_143945" data-name="Trazado 143945" d="M178.473,14.635a24.345,24.345,0,1,0,0,34.429A24.345,24.345,0,0,0,178.473,14.635Zm0,0" transform="translate(-115.949 -6.354)" fill="#fb0"/>
    <path id="Trazado_143946" data-name="Trazado 143946" d="M200.682,71.271a19.752,19.752,0,1,1,0-27.934A19.774,19.774,0,0,1,200.682,71.271Zm0,0" transform="translate(-141.406 -31.809)" fill="#3ca8f4"/>
    <path id="Trazado_143948" data-name="Trazado 143948" d="M77.389,52.7,65.607,40.913a25.5,25.5,0,0,0,1.022-29.419,1.148,1.148,0,1,0-1.919,1.263,23.219,23.219,0,1,1-3-3.678l.063.063A1.148,1.148,0,0,0,63.4,7.523l-.066-.066a25.522,25.522,0,0,0-36.055,0q-.468.468-.907.955H1.148A1.149,1.149,0,0,0,0,9.56v5.079a1.148,1.148,0,1,0,2.3,0v-3.93H24.534a25.3,25.3,0,0,0-2.264,3.864H7.962a1.148,1.148,0,0,0,0,2.3H21.319a25.441,25.441,0,0,0-.824,2.808H7.962a1.148,1.148,0,0,0,0,2.3H20.07a25.662,25.662,0,0,0-.231,2.807H7.962a1.149,1.149,0,0,0,0,2.3H19.879a25.52,25.52,0,0,0,2.571,9.7H20.518a1.148,1.148,0,0,0-1.148,1.149v34a1.148,1.148,0,0,0,1.148,1.149h9.187a1.148,1.148,0,0,0,1.148-1.149V46.491a25.3,25.3,0,0,0,3.215,1.883V71.923a1.149,1.149,0,0,0,1.148,1.149H44.4a1.148,1.148,0,0,0,1.148-1.149V50.97a25.91,25.91,0,0,0,2.68-.165V68.544a1.148,1.148,0,1,0,2.3,0V50.435a25.321,25.321,0,0,0,10.206-4.648L72.515,57.568A3.446,3.446,0,0,0,77.389,52.7ZM28.557,70.775h-6.89v-31.7h2.069a25.51,25.51,0,0,0,3.547,4.442q.621.621,1.274,1.188Zm7.81,0V49.362a25.563,25.563,0,0,0,6.89,1.527V70.775Zm39.4-14.831a1.149,1.149,0,0,1-1.625,0L62.506,44.31c.282-.258.559-.521.831-.793s.536-.548.794-.831L75.764,54.32A1.15,1.15,0,0,1,75.765,55.944Zm0,0"/>
    <path id="Trazado_143949" data-name="Trazado 143949" d="M49.381,174.489a1.148,1.148,0,0,0-1.148,1.148v2.6H2.3V121.758a1.148,1.148,0,1,0-2.3,0v57.632a1.148,1.148,0,0,0,1.148,1.148H49.381a1.148,1.148,0,0,0,1.148-1.148v-3.752A1.148,1.148,0,0,0,49.381,174.489Zm0,0" transform="translate(0 -102.141)"/>
    <path id="Trazado_143950" data-name="Trazado 143950" d="M32.5,301.344v24.809a1.149,1.149,0,0,0,1.148,1.148h9.188a1.149,1.149,0,0,0,1.148-1.148V301.344a1.149,1.149,0,0,0-1.148-1.148H33.648A1.149,1.149,0,0,0,32.5,301.344Zm2.3,1.149h6.891V325H34.8Zm0,0" transform="translate(-27.524 -254.23)"/>
    <path id="Trazado_143951" data-name="Trazado 143951" d="M54.235,197.477a1.149,1.149,0,0,0,0-2.3H45.648a1.149,1.149,0,0,0,0,2.3Zm0,0" transform="translate(-37.686 -165.294)"/>
    <path id="Trazado_143952" data-name="Trazado 143952" d="M180.369,29.988A20.87,20.87,0,1,0,195.148,36.1,20.759,20.759,0,0,0,180.369,29.988Zm13.155,34.051a18.631,18.631,0,1,1,5.44-13.157A18.476,18.476,0,0,1,193.523,64.039Zm0,0" transform="translate(-135.058 -25.396)"/>
  </g>
</svg>
