<svg xmlns="http://www.w3.org/2000/svg" width="150" height="150" viewBox="0 0 150 150">
  <g id="Grupo_86247" data-name="Grupo 86247" transform="translate(-724.668 -944)">
    <circle id="Elipse_4241" data-name="Elipse 4241" cx="75" cy="75" r="75" transform="translate(724.668 944)" fill="#fff"/>
    <g id="senal-de-direccion" transform="translate(751.668 972)">
      <g id="Grupo_84375" data-name="Grupo 84375" transform="translate(51.75 10.5)">
        <path id="Trazado_145262" data-name="Trazado 145262" d="M318.375,265.375l-11.25,9.375H276V256h31.125Z" transform="translate(-276 -218.5)" fill="#7ae582"/>
        <path id="Trazado_145263" data-name="Trazado 145263" d="M318.375,65.375l-11.25,9.375H276V56h31.125Z" transform="translate(-276 -56)" fill="#29b39d"/>
      </g>
      <path id="Trazado_145264" data-name="Trazado 145264" d="M239.75,10A3.749,3.749,0,0,0,236,13.75V91h7.5V13.75A3.751,3.751,0,0,0,239.75,10Z" transform="translate(-191.75 -8.125)" fill="#7ae582"/>
      <path id="Trazado_145265" data-name="Trazado 145265" d="M52.375,156v18.75H21.25L10,165.375,21.25,156Z" transform="translate(-8.125 -126.75)" fill="#fb0"/>
      <path id="Trazado_145266" data-name="Trazado 145266" d="M178.1,444.565l2.9,8.685H136l2.9-8.685A3.751,3.751,0,0,1,142.454,442h32.092A3.751,3.751,0,0,1,178.1,444.565Z" transform="translate(-110.5 -359.125)" fill="#58a65e"/>
      <path id="Trazado_145267" data-name="Trazado 145267" d="M413.875,99.75A1.875,1.875,0,1,0,412,97.875,1.876,1.876,0,0,0,413.875,99.75Z" transform="translate(-334.75 -78)"/>
      <path id="Trazado_145268" data-name="Trazado 145268" d="M413.875,299.75A1.875,1.875,0,1,0,412,297.875,1.876,1.876,0,0,0,413.875,299.75Z" transform="translate(-334.75 -240.5)"/>
      <path id="Trazado_145269" data-name="Trazado 145269" d="M61.875,196a1.875,1.875,0,1,0,1.875,1.875A1.876,1.876,0,0,0,61.875,196Z" transform="translate(-48.75 -159.25)"/>
      <path id="Trazado_145270" data-name="Trazado 145270" d="M82.875,31.125a1.874,1.874,0,0,0,1.2-.435l11.25-9.375a1.875,1.875,0,0,0,0-2.881L84.075,9.06a1.874,1.874,0,0,0-1.2-.435H53.625v-3a5.625,5.625,0,0,0-11.25,0v21.75H13.125a1.875,1.875,0,0,0-1.2.435L.675,37.185a1.875,1.875,0,0,0,0,2.881l11.25,9.375a1.875,1.875,0,0,0,1.2.435h29.25V81H31.954a5.618,5.618,0,0,0-5.338,3.847l-2.468,7.4H18A1.875,1.875,0,0,0,18,96H79.5a1.875,1.875,0,0,0,0-3.75H71.851l-2.467-7.4A5.618,5.618,0,0,0,64.046,81H53.625V68.625h29.25a1.874,1.874,0,0,0,1.2-.435l11.25-9.375a1.875,1.875,0,0,0,0-2.881L84.075,46.56a1.874,1.874,0,0,0-1.2-.435H53.625v-15ZM82.2,12.375l9,7.5-9,7.5H53.625v-15ZM13.8,46.125l-9-7.5,9-7.5H42.375v15ZM65.826,86.033,67.9,92.25H28.1l2.073-6.218a1.873,1.873,0,0,1,1.78-1.282H64.046A1.873,1.873,0,0,1,65.826,86.033ZM46.125,81V5.625a1.875,1.875,0,0,1,3.75,0V81ZM82.2,49.875l9,7.5-9,7.5H53.625v-15Z" transform="translate(0)"/>
      <path id="Trazado_145271" data-name="Trazado 145271" d="M307.875,99.75H320.25a1.875,1.875,0,0,0,0-3.75H307.875a1.875,1.875,0,0,0,0,3.75Z" transform="translate(-248.625 -78)"/>
      <path id="Trazado_145272" data-name="Trazado 145272" d="M307.875,299.75H320.25a1.875,1.875,0,0,0,0-3.75H307.875a1.875,1.875,0,0,0,0,3.75Z" transform="translate(-248.625 -240.5)"/>
      <path id="Trazado_145273" data-name="Trazado 145273" d="M118,196H101.875a1.875,1.875,0,0,0,0,3.75H118a1.875,1.875,0,0,0,0-3.75Z" transform="translate(-81.25 -159.25)"/>
    </g>
  </g>
</svg>
