<svg xmlns="http://www.w3.org/2000/svg" width="109.954" height="110" viewBox="0 0 109.954 110">
  <g id="lupa" transform="translate(-0.013 0.99)">
    <g id="Grupo_56697" data-name="Grupo 56697">
      <g id="Grupo_56683" data-name="Grupo 56683">
        <g id="Grupo_56682" data-name="Grupo 56682">
          <path id="Trazado_143713" data-name="Trazado 143713" d="M30.079,71.587,23.5,78.166l7.347,7.348,6.579-6.58" fill="#fb0"/>
        </g>
      </g>
      <g id="Grupo_56684" data-name="Grupo 56684">
        <ellipse id="Elipse_4266" data-name="Elipse 4266" cx="42.785" cy="42.791" rx="42.785" ry="42.791" transform="translate(21.297 2.129)" fill="#fb0"/>
      </g>
      <g id="Grupo_56696" data-name="Grupo 56696">
        <g id="Grupo_56690" data-name="Grupo 56690">
          <g id="Grupo_56689" data-name="Grupo 56689">
            <g id="Grupo_56686" data-name="Grupo 56686">
              <g id="Grupo_56685" data-name="Grupo 56685">
                <ellipse id="Elipse_4267" data-name="Elipse 4267" cx="32.538" cy="32.506" rx="32.538" ry="32.506" transform="translate(18.191 48.013) rotate(-48.852)" fill="#e5ecec"/>
              </g>
            </g>
            <g id="Grupo_56688" data-name="Grupo 56688">
              <g id="Grupo_56687" data-name="Grupo 56687">
                <path id="Trazado_143714" data-name="Trazado 143714" d="M96.6,47.818a2.13,2.13,0,1,1,2.093-1.748A2.151,2.151,0,0,1,96.6,47.818Z"/>
              </g>
            </g>
          </g>
        </g>
        <g id="Grupo_56695" data-name="Grupo 56695">
          <g id="Grupo_56693" data-name="Grupo 56693">
            <g id="Grupo_56691" data-name="Grupo 56691">
              <ellipse id="Elipse_4268" data-name="Elipse 4268" cx="12.893" cy="12.892" rx="12.893" ry="12.892" transform="matrix(0.002, -1, 1, 0.002, 51.197, 48.758)" fill="#ffcbbe"/>
            </g>
            <g id="Grupo_56692" data-name="Grupo 56692">
              <path id="Trazado_143715" data-name="Trazado 143715" d="M64.086,50.9A15.022,15.022,0,1,1,79.107,35.875,15.038,15.038,0,0,1,64.086,50.9Zm0-25.786A10.764,10.764,0,1,0,74.848,35.875,10.775,10.775,0,0,0,64.086,25.111Z"/>
            </g>
          </g>
          <g id="Grupo_56694" data-name="Grupo 56694">
            <path id="Trazado_143716" data-name="Trazado 143716" d="M79.808,59.955V73.389a32.585,32.585,0,0,1-31.443.032V59.956a4.3,4.3,0,0,1,4.3-4.3H75.51A4.3,4.3,0,0,1,79.808,59.955Z" fill="#29b39d"/>
          </g>
        </g>
      </g>
    </g>
    <g id="Grupo_56702" data-name="Grupo 56702">
      <g id="Grupo_56698" data-name="Grupo 56698">
        <path id="Trazado_143717" data-name="Trazado 143717" d="M14.787,81.837,4.7,91.922a8.762,8.762,0,0,0,12.391,12.392L27.178,94.229Z" fill="#3ca8f4"/>
      </g>
      <g id="Grupo_56701" data-name="Grupo 56701">
        <g id="Grupo_56699" data-name="Grupo 56699">
          <path id="Trazado_143718" data-name="Trazado 143718" d="M19.7,76.163h8.755V93.685H19.7Z" transform="translate(-53.004 41.898) rotate(-45)" fill="#7ae582"/>
        </g>
        <g id="Grupo_56700" data-name="Grupo 56700">
          <path id="Trazado_143719" data-name="Trazado 143719" d="M95.491,53.627a2.128,2.128,0,0,0-2.712,1.309,30.171,30.171,0,0,1-7.214,11.47,30.7,30.7,0,0,1-3.628,3.105V59.955a6.435,6.435,0,0,0-6.427-6.428H52.662a6.434,6.434,0,0,0-6.427,6.428v9.593a30.405,30.405,0,0,1-3.628-46.107,30.222,30.222,0,0,1,21.5-8.914h.015a30.378,30.378,0,0,1,28.7,20.447,2.129,2.129,0,1,0,4.026-1.386,34.637,34.637,0,0,0-32.73-23.319H64.1A34.671,34.671,0,0,0,47.336,75.284h0a34.691,34.691,0,0,0,16.717,4.292h.034a34.732,34.732,0,0,0,16.748-4.324h0A34.817,34.817,0,0,0,96.8,56.339a2.128,2.128,0,0,0-1.308-2.711Zm-45,18.506V59.955a2.171,2.171,0,0,1,2.169-2.169H75.51a2.171,2.171,0,0,1,2.169,2.169V72.1a30.647,30.647,0,0,1-27.185.029Z"/>
          <path id="Trazado_143720" data-name="Trazado 143720" d="M64.083,0a44.9,44.9,0,0,0-36.5,71.071L23.5,75.155l-1.016-1.016a2.13,2.13,0,0,0-3.011,0l-6.191,6.192,0,0L3.2,90.417a10.891,10.891,0,1,0,15.4,15.4L28.684,95.734h0l6.191-6.192a2.129,2.129,0,0,0,0-3.011l-1.016-1.016,4.085-4.086A44.911,44.911,0,1,0,64.083,0ZM15.588,102.809a6.633,6.633,0,0,1-9.379-9.382l8.579-8.58,4.685,4.686,4.695,4.7Zm11.59-11.591-4.685-4.686-4.695-4.7,3.18-3.181,9.38,9.381Zm3.67-8.714L28.68,80.336l-2.169-2.17,3.736-3.737a45.319,45.319,0,0,0,4.337,4.337Zm33.235,3.078A40.662,40.662,0,1,1,104.739,44.92,40.705,40.705,0,0,1,64.083,85.582Z"/>
        </g>
      </g>
    </g>
  </g>
</svg>
