<svg id="pantalla" xmlns="http://www.w3.org/2000/svg" width="110" height="106.378" viewBox="0 0 110 106.378">
  <path id="Trazado_143818" data-name="Trazado 143818" d="M24.166,2.148H93.42v102.08H24.166Zm0,0" fill="#fb0" fill-rule="evenodd"/>
  <path id="Trazado_143819" data-name="Trazado 143819" d="M13.157,12.156H24.166V94.222H13.157Zm0,0" fill="#ffda73" fill-rule="evenodd"/>
  <path id="Trazado_143820" data-name="Trazado 143820" d="M2.148,22.965H13.157V83.412H2.148Zm0,0" fill="#ffda73" fill-rule="evenodd"/>
  <path id="Trazado_143821" data-name="Trazado 143821" d="M76.5,72.875l31.354,31.354ZM58.792,30.132A25.039,25.039,0,1,1,33.755,55.17,25.038,25.038,0,0,1,58.792,30.132Zm0,0" fill="#29b39d" fill-rule="evenodd"/>
  <path id="Trazado_143822" data-name="Trazado 143822" d="M109.371,102.71l-13.8-13.8V2.148A2.148,2.148,0,0,0,93.42,0H24.166a2.148,2.148,0,0,0-2.148,2.148v7.859H13.157a2.149,2.149,0,0,0-2.148,2.148v8.66H2.148A2.149,2.149,0,0,0,0,22.965V83.412a2.148,2.148,0,0,0,2.148,2.148h8.86v8.661a2.149,2.149,0,0,0,2.148,2.148h8.861v7.859a2.148,2.148,0,0,0,2.148,2.148H93.42a2.148,2.148,0,0,0,2.148-2.148V94.984l10.764,10.764a2.149,2.149,0,1,0,3.038-3.039ZM4.3,81.264V25.113h6.711V81.264ZM15.305,92.073V14.3h6.712V92.073ZM91.272,102.08H26.314V4.3H91.272V84.611l-11.8-11.8A27.185,27.185,0,0,0,47.2,30.575a2.149,2.149,0,0,0,1.835,3.886,22.685,22.685,0,0,1,9.76-2.18A22.89,22.89,0,1,1,35.9,55.17a22.679,22.679,0,0,1,2.18-9.76A2.148,2.148,0,1,0,34.2,43.575a26.939,26.939,0,0,0-2.592,11.6A27.174,27.174,0,0,0,76.43,75.844L91.273,90.687V102.08Zm0,0" fill-rule="evenodd"/>
  <path id="Trazado_143823" data-name="Trazado 143823" d="M71.265,65.746A2.148,2.148,0,0,0,73.414,63.6V51.584a2.148,2.148,0,1,0-4.3,0V63.6A2.149,2.149,0,0,0,71.265,65.746Zm0,0" fill-rule="evenodd"/>
  <path id="Trazado_143824" data-name="Trazado 143824" d="M54.636,65.746A2.149,2.149,0,0,0,56.784,63.6V49.2a2.148,2.148,0,0,0-4.3,0V63.6A2.148,2.148,0,0,0,54.636,65.746Zm0,0" fill-rule="evenodd"/>
  <path id="Trazado_143825" data-name="Trazado 143825" d="M46.321,65.746A2.149,2.149,0,0,0,48.469,63.6V55.619a2.148,2.148,0,0,0-4.3,0V63.6A2.148,2.148,0,0,0,46.321,65.746Zm0,0" fill-rule="evenodd"/>
  <path id="Trazado_143826" data-name="Trazado 143826" d="M62.951,65.746A2.149,2.149,0,0,0,65.1,63.6V42.781a2.148,2.148,0,1,0-4.3,0V63.6A2.148,2.148,0,0,0,62.951,65.746Zm0,0" fill-rule="evenodd"/>
  <path id="Trazado_143827" data-name="Trazado 143827" d="M41.088,39.614a2.149,2.149,0,1,0-2.148-2.148A2.153,2.153,0,0,0,41.088,39.614Zm0,0" fill-rule="evenodd"/>
</svg>
