<svg xmlns="http://www.w3.org/2000/svg" width="288.02" height="243.575" viewBox="0 0 288.02 243.575">
  <g id="Grupo_83554" data-name="Grupo 83554" transform="translate(-1462.188 -161.929)">
    <path id="Trazado_144112" data-name="Trazado 144112" d="M1500.744,570.726s-38.918,2.273-38.554,15.731,54.619,10.911,71.319,12.366,40.3,16.731,67.236,17.822,57.988-9.82,75.2-12.367,54.671.364,68.492-5.819,1.9-25.1-25.9-26.006S1500.744,570.726,1500.744,570.726Z" transform="translate(0 -211.218)" fill="#58a65e"/>
    <g id="Grupo_83550" data-name="Grupo 83550" transform="translate(1672.684 271.133)">
      <path id="Trazado_144113" data-name="Trazado 144113" d="M1938.957,388.674s1.453,103.583.045,103.583-2.939,1.924-2.792-6.795c.19-11.283-.069-97.587-.069-97.587Z" transform="translate(-1917.567 -387.875)" fill="#3ca8f4"/>
      <path id="Trazado_144114" data-name="Trazado 144114" d="M1938.916,597.273s21.105,9.953,21.081,12.082c-.017,1.512-1.173,1.106-2.807.388-2.154-.948-18.907-9.009-18.907-9.009Z" transform="translate(-1918.673 -496.067)" fill="#3ca8f4"/>
      <path id="Trazado_144115" data-name="Trazado 144115" d="M1917.618,597.273s-19.438,9.614-19.872,11.889c-.283,1.485,1.163,1.378,2.76.581,2.5-1.247,17.746-9.009,17.746-9.009Z" transform="translate(-1897.71 -496.067)" fill="#3ca8f4"/>
    </g>
    <path id="Trazado_144116" data-name="Trazado 144116" d="M1924.48,264.362a115.653,115.653,0,0,1,19.749,4.477c8.712,3.049,17.86,7.405,17.425,20.184s-7.7,25.777-10.02,34.742-6.89,33.711-9.148,38.734c-4.243,9.439-22.943,10.165-37.464,11.181s-25.993-3.334-26.864-5.643S1924.48,264.362,1924.48,264.362Z" transform="translate(-214.918 -52.925)" fill="#1d8070"/>
    <g id="Grupo_83551" data-name="Grupo 83551" transform="translate(1519.465 271.133)">
      <path id="Trazado_144117" data-name="Trazado 144117" d="M1621.234,388.674s-1.453,103.583-.045,103.583,2.939,1.924,2.792-6.795c-.19-11.283.069-97.587.069-97.587Z" transform="translate(-1601.301 -387.875)" fill="#3ca8f4"/>
      <path id="Trazado_144118" data-name="Trazado 144118" d="M1601.777,597.273s-21.105,9.953-21.081,12.082c.017,1.512,1.173,1.106,2.808.388,2.154-.948,18.907-9.009,18.907-9.009Z" transform="translate(-1580.696 -496.067)" fill="#3ca8f4"/>
      <path id="Trazado_144119" data-name="Trazado 144119" d="M1624.328,597.273s19.439,9.614,19.873,11.889c.284,1.485-1.163,1.378-2.76.581-2.5-1.247-17.745-9.009-17.745-9.009Z" transform="translate(-1602.913 -496.067)" fill="#3ca8f4"/>
    </g>
    <path id="Trazado_144120" data-name="Trazado 144120" d="M1550.139,264.362a115.652,115.652,0,0,0-19.748,4.477c-8.713,3.049-17.861,7.405-17.425,20.184s7.7,25.777,10.019,34.742,6.89,33.711,9.148,38.734c4.243,9.439,22.943,10.165,37.464,11.181s25.992-3.334,26.864-5.643S1550.139,264.362,1550.139,264.362Z" transform="translate(-26.228 -52.925)" fill="#1d8070"/>
    <path id="Trazado_144121" data-name="Trazado 144121" d="M1897.814,575.121s5.179,6.51,5.373,9.294c.081,1.17-3.649,3.592-6.1,4.481-3.921,1.424-7.188,2.636-11.762,4.328s-6.679-.532-5.953-1.694,8.422-6.97,9.656-8.2a5.11,5.11,0,0,0,1.452-2.323Z" transform="translate(-215.479 -213.489)" fill="#266999"/>
    <path id="Trazado_144122" data-name="Trazado 144122" d="M1844.64,602.011s-2.421,7.6-2.929,8.7-5.227,8-5.808,9.085.072,3.122,3.122,3.413,8.712-7.054,11.616-10.062,4.139-3.895,4.139-5.375a37.825,37.825,0,0,0-.726-4.986Z" transform="translate(-192.993 -227.383)" fill="#266999"/>
    <path id="Trazado_144123" data-name="Trazado 144123" d="M1826.011,322.239c-.277.13-7.168-5.833-14.859-10.909-10.166-6.711-21.966-15.811-21.966-15.811-.732-.106-3.985,3.508-4.273,4.049,0,0,13.359,15.512,23.128,23.695,12.925,10.825,17.552,10.02,17.552,10.02s3.043-3.2,2.666-3.743S1826.011,322.239,1826.011,322.239Z" transform="translate(-166.747 -69.022)" fill="#ffda73"/>
    <path id="Trazado_144124" data-name="Trazado 144124" d="M1726.9,350.981s6.462-1.887,8.495-2.105,6.794,2.931,7.429,3.461c.871.726.062,1.738-.6,1.912a25.157,25.157,0,0,1-8.64.057c-1.393-.194-3.921-.414-3.921-.414l-2.759-.514Z" transform="translate(-136.771 -96.586)" fill="#ffda73"/>
    <path id="Trazado_144125" data-name="Trazado 144125" d="M1858.022,271.489a19.918,19.918,0,0,0-2.469,5.026c-1.016,3.049-2.25,23.29-2.9,25.476s-5.954,16.126-6.026,17.869,5.009,5.528,8.495,5.593c5.446.1,8.537-5.52,9.568-7.916s5.416-13.577,5.416-13.577Z" transform="translate(-198.631 -56.608)" fill="#e6a800"/>
    <path id="Trazado_144126" data-name="Trazado 144126" d="M1843.431,352.514s-6.08-5.526-6.516-5.961.8-5.663,2.323-8.93,1.451-7.26,2.323-7.841,2.01.533,4.769.75,5.179.4,5.179.4Z" transform="translate(-193.569 -86.641)" fill="#e6a800"/>
    <path id="Trazado_144127" data-name="Trazado 144127" d="M1833.961,345.162c-.551,0-.823-.871-1.646-1.548s-2.129-1.356-1.6-2.275,3.195-5.809,3.582-7.89.838-9.131,2.42-9.148c1.065-.011,1.4,1.065,2.13,1.258s1.549-.145,1.646.533-1.742,8.616-2.42,11.278S1835.9,345.174,1833.961,345.162Z" transform="translate(-190.349 -83.895)" fill="#266999"/>
    <path id="Trazado_144128" data-name="Trazado 144128" d="M1775.48,288.723s-1.795-3.079-2.281-3.919c-1.551-2.684-3.393-2.2-5.465-2.8s-2.783-1.111-3.168-.906-.434.834.055,1.341,2.486,2.2,2.486,2.2-2.543.387-4.292.692c-3.223.563-5.745,3.218-5.751,3.824s3.525,1.58,6.7,2.193,8.961,1.666,8.961,1.666l4.175-2.22Z" transform="translate(-152.357 -61.551)" fill="#ffda73"/>
    <path id="Trazado_144129" data-name="Trazado 144129" d="M1880.69,411.653l-43.5,12.387a1.494,1.494,0,0,0-.941,2.077c1.534,3.227,5.094,10.862,8.522,18.469,4.5,10,9.439,24.86,11.036,26.457s2.178,6.244,3.485,7.115,2.614,6.1,1.086,7.115-6.4,5.905-8.879,5.179-2.662-2.42-3.824-3.983-1.016-2.794-1.888-4.827-29.042-42.4-33.253-47.629c-4.072-5.053-9.224-12.273-5.373-20.091q.2-.41.436-.819c2.323-4.066,14.08-7.493,25.255-9.9,11.158-2.41,21.74-3.8,21.74-3.8l16.583,3.056Z" transform="translate(-177.543 -122.699)" fill="#102665"/>
    <path id="Trazado_144130" data-name="Trazado 144130" d="M1919.4,404.619s2.759,16.118-1.742,21.636-13.795,7.115-21.491,8.277a98.116,98.116,0,0,1-14.085,1.161c-.726,0-.629,12.74-3.195,22.363s-11.762,27.515-12.488,31.11-.776,6.548-1.26,7.613-.338,3.521-1.209,5.27-4.757-.325-8.332-.232-4.778-.343-4.54-1.94,1.69-8.24,2.126-11.017,9.209-63.083,11.954-65.653c8.221-7.7,29.333-18.587,29.333-18.587Z" transform="translate(-200.907 -125.394)" fill="#091946"/>
    <path id="Trazado_144131" data-name="Trazado 144131" d="M1872.223,187.788a11.687,11.687,0,0,1,1.64,3.684,8.861,8.861,0,0,0,2.566,4.8c1.5,1.544,2.777,2.268,3.265,2.194s0-9.847,0-9.847Z" transform="translate(-211.858 -13.361)" fill="#091946"/>
    <path id="Trazado_144132" data-name="Trazado 144132" d="M1885.148,178.267a15.676,15.676,0,0,0-3.219,9.947c-.037,11.068,2,14.364,3.859,17.663,2.515,4.465,7.741,3.146,10.564.653a70.025,70.025,0,0,0,7.224-8.277s2.131-10.752.388-11.913-10.465-6.4-12.717-7.13A31.365,31.365,0,0,0,1885.148,178.267Z" transform="translate(-216.872 -8.442)" fill="#ffda73"/>
    <path id="Trazado_144133" data-name="Trazado 144133" d="M1923.268,231.254c-1.237.946-13.435,23.234-14.736,29.042s-4.217,4.508-5.157.947-12.128-24.685-12.709-24.9,9.874-4.066,10.095-5.959a2.542,2.542,0,0,0-.035-.714,4.71,4.71,0,0,0-.133-.569,9.33,9.33,0,0,0-.383-1.109,22.426,22.426,0,0,0-1-2.1c-.07-.133-.14-.261-.2-.383-.215-.383-.407-.726-.575-1-.255-.447-.43-.726-.43-.726l10.089-11.251s4.217,10.978,6.61,13.511S1924.506,230.313,1923.268,231.254Z" transform="translate(-221.375 -26.143)" fill="#ffda73"/>
    <path id="Trazado_144134" data-name="Trazado 144134" d="M1911.793,236.191a16.709,16.709,0,0,1-2.26,2.683,9.327,9.327,0,0,0-.383-1.109,22.552,22.552,0,0,0-1-2.1c-.07-.133-.14-.261-.2-.383a21.728,21.728,0,0,0,2.347-1.69c1.865-1.673,2.753-2.771,3.41-1.742C1914.355,232.852,1912.955,234.333,1911.793,236.191Z" transform="translate(-230.316 -35.92)" fill="#e6a800"/>
    <path id="Trazado_144135" data-name="Trazado 144135" d="M1905.073,207.939a1.616,1.616,0,0,1,.054-.231c.109-.351.482-.578.769-.226a1,1,0,0,1,.18.434,1.417,1.417,0,0,1,.01.675.688.688,0,0,1-.436.486.341.341,0,0,1-.263-.016.4.4,0,0,1-.124-.125A1.385,1.385,0,0,1,1905.073,207.939Z" transform="translate(-228.82 -23.445)" fill="#091946"/>
    <path id="Trazado_144136" data-name="Trazado 144136" d="M1886.594,209.094a1.641,1.641,0,0,1,.054-.231c.109-.351.483-.579.769-.227a1.009,1.009,0,0,1,.18.434,1.416,1.416,0,0,1,.01.676.688.688,0,0,1-.436.486.34.34,0,0,1-.262-.017.39.39,0,0,1-.123-.124A1.383,1.383,0,0,1,1886.594,209.094Z" transform="translate(-219.272 -24.042)" fill="#091946"/>
    <path id="Trazado_144137" data-name="Trazado 144137" d="M1893.206,216.8a4.543,4.543,0,0,1,.172-.6,10.2,10.2,0,0,1,.483-1.437c.076-.145.186-.29.376-.253.105.021.377.266.363.384a1.576,1.576,0,0,1,.117.332,11.263,11.263,0,0,1,.39,1.5,1.281,1.281,0,0,1-.314,1.241,1.124,1.124,0,0,1-1.155.1,1.142,1.142,0,0,1-.461-1.043A1.747,1.747,0,0,1,1893.206,216.8Z" transform="translate(-222.683 -27.166)" fill="#e6a800"/>
    <path id="Trazado_144138" data-name="Trazado 144138" d="M1884.1,204.688a2.247,2.247,0,0,1,1.451-.614c.394-.018,1.207.063,1.115.636-.065.4-.521.392-.836.374a5.127,5.127,0,0,0-.531-.029,1.443,1.443,0,0,0-.338.065,2.154,2.154,0,0,0-.452.125A.35.35,0,0,1,1884.1,204.688Z" transform="translate(-217.941 -21.774)" fill="#091946"/>
    <path id="Trazado_144139" data-name="Trazado 144139" d="M1905.864,202.984a2.493,2.493,0,0,0-1.654-.57c-.437.01-1.332.161-1.186.789.1.436.607.4.954.351a5.528,5.528,0,0,1,.586-.072,1.6,1.6,0,0,1,.379.047,2.407,2.407,0,0,1,.51.1A.388.388,0,0,0,1905.864,202.984Z" transform="translate(-227.764 -20.917)" fill="#091946"/>
    <path id="Trazado_144140" data-name="Trazado 144140" d="M1896.5,227.069a1.716,1.716,0,0,1-2.039-1.08.361.361,0,0,1,0-.07c.079-.407,3.277-1.476,3.691-1.289a.083.083,0,0,1,.04.029C1898.51,225.339,1897.73,226.715,1896.5,227.069Z" transform="translate(-223.346 -32.385)" fill="#e6a800"/>
    <path id="Trazado_144141" data-name="Trazado 144141" d="M1898.152,224.63a5.976,5.976,0,0,1-1.8,1.121,3.483,3.483,0,0,1-1.9.238.361.361,0,0,1,0-.07C1894.54,225.512,1897.738,224.444,1898.152,224.63Z" transform="translate(-223.346 -32.385)" fill="#fff"/>
    <path id="Trazado_144142" data-name="Trazado 144142" d="M1897.372,187.593a3.507,3.507,0,0,1-2.353-1.942c-.508-1.5.81-2.263.254-4.006a2.267,2.267,0,0,0-3.122-1.307c-1.343.472-2.214-3.122-3.122-4.538s-8.289,1.343-10.479,1.779-6.268-1.452-7.769-2.9-2.807-4.6-.726-7.212,4.841-1.162,6.825-2.082,5.791-4.211,9.89-3.291,4.292,3.485,6.132,4.356,2.833,1.78,4.368,4.381C1899.593,174.761,1897.372,187.593,1897.372,187.593Z" transform="translate(-210.18)" fill="#091946"/>
    <path id="Trazado_144143" data-name="Trazado 144143" d="M1897.738,252.664a27.906,27.906,0,0,0,11.046,2.152c7.045-.354,15.607-7.126,15.607-7.126l-14.591,28.8a11.163,11.163,0,0,1-2.94-.363c-.545-.327-9.629-23.228-9.629-23.228Z" transform="translate(-224.779 -44.312)" fill="#a6ffac"/>
    <path id="Trazado_144144" data-name="Trazado 144144" d="M1883.6,252.658s9.635,22.827,10.594,22.89,6.55-15.837,10.326-20.992a47.41,47.41,0,0,1,5.733-6.871c.946-.171,15.685,3.232,18.444,9.263s2.323,26.215,2.178,33.331,5.954,24.322,1.888,30.748-6.825,9.475-15.537,8.023c-6.119-1.02-11.458-5.082-18.435-4.792s-15.634-2.759-16.678-5.808-5.108-34.125-6.416-38.045-6.866-19.181-5.664-21.217C1872.932,254.265,1883.6,252.658,1883.6,252.658Z" transform="translate(-210.637 -44.305)" fill="#fb0"/>
    <path id="Trazado_144145" data-name="Trazado 144145" d="M1691.544,316.52c.291-.1,1.192-9.164,3.282-18.139,2.762-11.863,5.069-26.586,5.069-26.586.459-.58,4.234-.193,4.815,0,0,0,2.044,20.448.58,33.108-1.936,16.747-5.848,19.346-5.848,19.346s-4.413-.233-4.51-.883S1691.544,316.52,1691.544,316.52Z" transform="translate(-118.504 -56.608)" fill="#ffda73"/>
    <path id="Trazado_144146" data-name="Trazado 144146" d="M1674.609,281.056s3.049,1.539,4.647,8.679,5.953,30.857,6.825,32.6,3.388,7.446-2.13,7.934-7.768-2.9-8.628-5.514-8.593-24.879-8.593-24.879Z" transform="translate(-105.684 -61.551)" fill="#ffda73"/>
    <path id="Trazado_144147" data-name="Trazado 144147" d="M1633.459,437.672s19.893,4.357,20.62,4.357-5.954,7.986-7.406,19.458-4.671,28.943-6.353,35.577c-1.232,4.862-2.838,10.885-2.838,10.885l8.315-.853L1667,460.906l1.888-36.447-22.8-8.422Z" transform="translate(-88.493 -131.293)" fill="#f8ec86"/>
    <path id="Trazado_144148" data-name="Trazado 144148" d="M1673.372,399.416s7.551-.544,10.02,4.248,3.34,32.381,4.937,46.031,2.9,37.319,2.9,38.335-7,1.743-7,1.743-3.024-19.458-7.089-28.171-7.805-17.716-8.695-24.54.454-14.957,0-15.973-18.169-14.666-18.169-14.666l16.542-7.007Z" transform="translate(-97.186 -122.696)" fill="#ffda73"/>
    <path id="Trazado_144149" data-name="Trazado 144149" d="M1561.6,387.326a23.447,23.447,0,0,0-6.57,12.05c-1.355,7.357,1.161,14.908,1.355,20.716s-2.927,18.974-1.754,28.074,1.815,28.655,6.915,27.3,8.3-16.457,13.765-19.748,13.605-12.2,16.6-18.2,14.286-32.721,15.419-34.85,3.932-6.763,7.221-9.487c6.109-5.06,14.46-3.78,14.46-3.78.968-.775-26.163-4.208-27.518-5.345s-2.555-5.23-2.555-5.23h-29.391Z" transform="translate(-47.63 -112.066)" fill="#3ca8f4"/>
    <path id="Trazado_144150" data-name="Trazado 144150" d="M1620.778,202.589c.322-3.064,2.9-7.26,1.161-12.27s-7.593-10.47-17.287-8.979c-6.454.992-10.448,4.4-12.118,9.342s-1.524,8.64-6.172,10.891-8.2,4.511-9.075,9.407,1.815,6.039-1.67,8.662-8.641,3.059-12.052,7.561a10.8,10.8,0,0,0,0,12.923c2.251,2.614,7.405,5.155,14.739,3.267s10.6-4.5,12.2-9.511,16.046-7.333,20.765-8.567,9.076-4.929,9.947-10.052S1620.447,205.742,1620.778,202.589Z" transform="translate(-51.271 -9.9)" fill="#091946"/>
    <path id="Trazado_144151" data-name="Trazado 144151" d="M1651.977,193.257a17.97,17.97,0,0,1,3.219,9.947c.363,7.551-1.811,13.044-3.993,16.139-2.687,3.811-6.922,3.391-10.045,1.286s-7.986-5.155-7.986-5.155-2.178-12.706-.436-13.868,10.891-6.679,13.142-7.405A31.36,31.36,0,0,1,1651.977,193.257Z" transform="translate(-87.77 -16.187)" fill="#ffda73"/>
    <path id="Trazado_144152" data-name="Trazado 144152" d="M1636.169,251.328c-.58.215-11.768,21.34-12.709,24.9s-3.845,4.862-5.157-.946-13.5-28.1-14.736-29.042,6.174-2.683,8.567-5.216,6.61-13.51,6.61-13.51l10.089,11.251s-.174.279-.43.726c-.221.366-.494.848-.779,1.382a22.553,22.553,0,0,0-1,2.1,8.6,8.6,0,0,0-.517,1.679,2.551,2.551,0,0,0-.035.714C1626.3,247.262,1636.75,251.108,1636.169,251.328Z" transform="translate(-72.977 -33.887)" fill="#ffda73"/>
    <path id="Trazado_144153" data-name="Trazado 144153" d="M1592.017,259.005s13.225,18.106,14.353,19.337c1.208,1.319,5.551-14,5.826-13.863s10.147,3.693,12.035,5.184-.452,13.544-1.46,18.045-.654,10.455-2.792,14.085-13.357,15.123-13.357,15.123c-3.955,8.924-35.393,10.724-37.135,9.708s5.808-13.65,6.534-21.2-2.033-27.445-1.888-30.784S1592.017,259.005,1592.017,259.005Z" transform="translate(-55.305 -50.158)" fill="#3ca8f4"/>
    <path id="Trazado_144154" data-name="Trazado 144154" d="M1648.555,248.068c-.221.366-.494.848-.779,1.382a22.546,22.546,0,0,0-1,2.1,16.913,16.913,0,0,1-2.271-2.695c-1.161-1.859-2.562-3.34-1.911-4.345.656-1.028,1.545.07,3.41,1.743A21.625,21.625,0,0,0,1648.555,248.068Z" transform="translate(-93.128 -42.464)" fill="#e6a800"/>
    <path id="Trazado_144155" data-name="Trazado 144155" d="M1655.7,223.726a1.632,1.632,0,0,0-.054-.232c-.109-.351-.482-.579-.769-.226a1,1,0,0,0-.18.434,1.419,1.419,0,0,0-.01.675.689.689,0,0,0,.436.486.341.341,0,0,0,.262-.016.4.4,0,0,0,.124-.125A1.384,1.384,0,0,0,1655.7,223.726Z" transform="translate(-99.442 -31.602)" fill="#091946"/>
    <path id="Trazado_144156" data-name="Trazado 144156" d="M1673.269,224.584a1.72,1.72,0,0,0-.053-.232c-.109-.35-.483-.578-.77-.226a1.011,1.011,0,0,0-.18.434,1.428,1.428,0,0,0-.01.675.689.689,0,0,0,.436.486.339.339,0,0,0,.262-.016.4.4,0,0,0,.124-.125A1.386,1.386,0,0,0,1673.269,224.584Z" transform="translate(-108.52 -32.046)" fill="#091946"/>
    <path id="Trazado_144157" data-name="Trazado 144157" d="M1666.631,231.343a4.6,4.6,0,0,0-.172-.6,10.344,10.344,0,0,0-.483-1.437c-.076-.145-.186-.289-.376-.253-.106.02-.377.266-.364.384a1.613,1.613,0,0,0-.117.331,11.231,11.231,0,0,0-.39,1.5,1.282,1.282,0,0,0,.314,1.241,1.124,1.124,0,0,0,1.155.1,1.143,1.143,0,0,0,.461-1.043A2.117,2.117,0,0,0,1666.631,231.343Z" transform="translate(-104.636 -34.678)" fill="#e6a800"/>
    <path id="Trazado_144158" data-name="Trazado 144158" d="M1663.373,238.64a2.518,2.518,0,0,1-3.147-.8c-.247-.281-.64.147-.4.425a3.078,3.078,0,0,0,3.854.867C1664.011,238.949,1663.7,238.459,1663.373,238.64Z" transform="translate(-102.078 -39.174)" fill="#e6a800"/>
    <path id="Trazado_144159" data-name="Trazado 144159" d="M1646.6,198.611a15.164,15.164,0,0,1-7.389,4.305c-4.652,1.114-7.508-.29-9.638,1.791s-.291,5.264-.871,7.521-3,3.4-4.308,4.693-.67,3.023-2.275,4.873c-2.142,2.468-5.738,2.324-5.738,2.324s.994-4.308.994-4.647,4.114-19.507,4.6-20.136a111.321,111.321,0,0,1,10.407-6.583c.339,0,11.129-1.4,11.591-1.259a9.8,9.8,0,0,1,2.2,2.9C1646.174,194.688,1646.6,198.611,1646.6,198.611Z" transform="translate(-79.668 -15.27)" fill="#091946"/>
    <path id="Trazado_144160" data-name="Trazado 144160" d="M1674.069,220.293a1.86,1.86,0,0,0-1.2-.51c-.327-.015-1,.052-.925.527.054.331.433.326.693.311a4.2,4.2,0,0,1,.441-.024,1.2,1.2,0,0,1,.28.054,1.8,1.8,0,0,1,.376.1A.29.29,0,0,0,1674.069,220.293Z" transform="translate(-108.372 -29.891)" fill="#091946"/>
    <path id="Trazado_144161" data-name="Trazado 144161" d="M1569.117,389.552s9.606-.722,19.045-1.739,18.078-.363,18.224,0-14.521,2.614-20.112,3.049-18.562,1.62-18.562,1.62Z" transform="translate(-54.523 -116.43)" fill="#3ca8f4"/>
    <path id="Trazado_144162" data-name="Trazado 144162" d="M1653.6,218.977a1.863,1.863,0,0,1,1.236-.426c.327.007,1,.12.886.59-.076.326-.453.3-.713.262a4.158,4.158,0,0,0-.437-.054,1.189,1.189,0,0,0-.283.035,1.8,1.8,0,0,0-.382.077A.29.29,0,0,1,1653.6,218.977Z" transform="translate(-98.849 -29.255)" fill="#091946"/>
    <g id="Grupo_83553" data-name="Grupo 83553" transform="translate(1531.207 268.718)">
      <g id="Grupo_83552" data-name="Grupo 83552" transform="translate(55.844 3.271)">
        <path id="Trazado_144163" data-name="Trazado 144163" d="M1773.089,390.445s-1.453,103.583-.045,103.583,2.939,1.924,2.792-6.795c-.19-11.283.069-97.587.069-97.587Z" transform="translate(-1747.348 -389.646)" fill="#3ca8f4"/>
        <path id="Trazado_144164" data-name="Trazado 144164" d="M1747.35,598.205s-26.839,10.358-26.815,12.488c.017,1.512,1.173,1.106,2.807.388,2.154-.948,24.716-9.009,24.716-9.009Z" transform="translate(-1720.534 -497.405)" fill="#3ca8f4"/>
        <path id="Trazado_144165" data-name="Trazado 144165" d="M1776.258,598.205s26.334,10.02,26.768,12.295c.284,1.485-1.163,1.378-2.76.581-2.5-1.247-24.716-9.009-24.716-9.009Z" transform="translate(-1748.96 -497.405)" fill="#3ca8f4"/>
      </g>
      <path id="Trazado_144166" data-name="Trazado 144166" d="M1770.058,388.594c-.4.448-14.643.68-34.589.779-7.736.035-16.333.046-25.313.046-13.667,0-28.223-.041-41.994-.11-33.532-.163-62.44-.471-62.626-.715-.436-.58-.97-4.263,0-5.082.4-.337,14.039-.517,33.294-.593,16.775-.064,37.807-.046,58.055.012,21.038.064,41.229.174,54.9.3,10.176.093,16.752.192,17.4.285C1771.249,383.8,1771.034,387.52,1770.058,388.594Z" transform="translate(-1604.991 -382.879)" fill="#1d8070"/>
    </g>
    <path id="Trazado_144167" data-name="Trazado 144167" d="M1603.893,266.856a24.4,24.4,0,0,1,9.652,12.42c2.836,8.422,11.845,31.762,11.845,31.762a59.223,59.223,0,0,0,11.5.474c6.513-.436,23.2-2.9,23.2-2.9,1.452-.436,2.759,2.91,2.759,2.91s-14.446,8.852-25.955,10.595-17.628,1.375-21.094-3.631c-3.219-4.65-17.425-26.7-18.151-33.026S1603.893,266.856,1603.893,266.856Z" transform="translate(-69.963 -54.214)" fill="#ffda73"/>
    <path id="Trazado_144168" data-name="Trazado 144168" d="M1611.641,252.91a13.323,13.323,0,0,0-2.681,2.726c-.907,1.651,0,7.042.363,9.947s-1.16,6.574-1.16,6.574l-3.268,1.631-7.188-18.079s7.623-5.518,8.422-5.518S1611.641,252.91,1611.641,252.91Z" transform="translate(-70.02 -45.604)" fill="#091946"/>
    <path id="Trazado_144169" data-name="Trazado 144169" d="M1595.587,280.767s-1.431,4.689-8.859,6.858a20.144,20.144,0,0,1-9.706.54s-3.726-11.14-3.654-11.358a37.4,37.4,0,0,1,5.3-5.591c1.742-1.234,8.8-4.5,9.228-4.356S1595.587,280.767,1595.587,280.767Z" transform="translate(-57.445 -54.214)" fill="#091946"/>
    <path id="Trazado_144170" data-name="Trazado 144170" d="M1721.119,595.3a2.008,2.008,0,0,0-.752,2.511c.607,1.748,4.431,5.465,5.689,7.382s3.436,5.262,6.341,5.262c1.793,0,3.726-2.427,3.726-2.427Z" transform="translate(-133.316 -223.916)" fill="#266999"/>
    <path id="Trazado_144171" data-name="Trazado 144171" d="M1729.839,601.514a4.3,4.3,0,0,1-.273-.366c-.023-.03-.04-.064-.07-.1a42.146,42.146,0,0,0-3.032-3.827c-.139-.163-.285-.325-.43-.488-2.178-2.492-4.467-4.908-4.821-5.53-.581-1.016-.674-6.679-.674-6.679l6.994-1.743s3.567,6.058,6.238,11.088c.116.215.226.43.337.645.517.982.987,1.905,1.382,2.724.1.226.209.441.3.645a12.92,12.92,0,0,1,.813,2.1C1737.232,602.769,1732.057,604.157,1729.839,601.514Z" transform="translate(-133.486 -217.447)" fill="#ffda73"/>
    <path id="Trazado_144172" data-name="Trazado 144172" d="M1702.932,263.327s-1.2-6.339-5.977-8.131c-1.007-.378-9.209.363-8.84,2.033s3.563,2.4,5.523,3.049a16.181,16.181,0,0,1,4.478,3.049s2.855.726,3.072.726A14.093,14.093,0,0,0,1702.932,263.327Z" transform="translate(-116.726 -48.139)" fill="#ffda73"/>
    <path id="Trazado_144173" data-name="Trazado 144173" d="M1663.594,613.49a.646.646,0,0,1-.344.267c-1.364.507-7.36.4-11.948.266s-10.611.355-10.918-.663l-.012-.039c-.276-1.16.655-8.3.655-8.3l5.211-1.108,3.1.255a39.359,39.359,0,0,0,7.323,3.855l.007,0c.213.082.412.161.612.24C1662.325,610.342,1664.13,612.631,1663.594,613.49Z" transform="translate(-92.038 -228.365)" fill="#f8ec86"/>
    <path id="Trazado_144174" data-name="Trazado 144174" d="M1662.493,617.968c-.023-.036-.115-.062-.267-.083-.868-.121-3.694-.041-6.447.042a14.79,14.79,0,0,0,.2-2.971c0-.765-.034-1.524-.059-2.293-.2-.079-.4-.158-.612-.24l-.007,0v.055c-.308.408-.616.816-.895,1.24-.645.983-1.108,2.062-1.679,3.089a6.616,6.616,0,0,0-.639,1.242c-.349.008-.68.016-.97.019-2.633.04-9.418-.235-12.109-.347l-1.125-.049s-.417,1.132-.064,1.56,23.414.687,23.949.447A1.664,1.664,0,0,0,1662.493,617.968Zm-8.83-1.728a21.478,21.478,0,0,1,1.664-2.836c.007.186.016.378.024.563a13.935,13.935,0,0,1-.161,3.979c-.877.028-1.729.059-2.5.079A16.729,16.729,0,0,1,1653.663,616.24Z" transform="translate(-90.67 -232.76)" fill="#266999"/>
    <path id="Trazado_144175" data-name="Trazado 144175" d="M1741.26,609.738a25.21,25.21,0,0,1-3.392-.61c-.261.418-.505.825-.732,1.231a11.647,11.647,0,0,1-1.829,3.009.936.936,0,0,1-.708.29c-.366-.047-.372-.627,0-.581a.506.506,0,0,0,.366-.175,16.215,16.215,0,0,0,1.952-3.351c.1-.174.2-.349.3-.523-.07-.012-.14-.023-.209-.029a15.669,15.669,0,0,0-5.077.076q-.226.052-.453.122a.292.292,0,0,1-.151-.564c.058-.017.116-.035.174-.046a14.022,14.022,0,0,1,4.972-.215c.36.029.726.064,1.087.1.557-.883,1.179-1.8,1.678-2.748.116.215.226.43.337.645-.413.744-.883,1.47-1.342,2.184.238.029.476.058.714.093.668.1,1.336.337,2.01.448C1741.062,609.319,1741.167,609.535,1741.26,609.738Z" transform="translate(-138.953 -229.301)" fill="#266999"/>
    <path id="Trazado_144176" data-name="Trazado 144176" d="M1642.66,299.969a18.674,18.674,0,0,1-2.961,8.082c-.2.315.3.606.5.293a19.3,19.3,0,0,0,3.041-8.375C1643.283,299.6,1642.7,299.6,1642.66,299.969Z" transform="translate(-91.692 -71.18)" fill="#266999"/>
    <path id="Trazado_144177" data-name="Trazado 144177" d="M1596.715,344.171c-.951,1.829-2.692,3.119-4.171,4.5-1.65,1.545-3.336,3.056-4.891,4.7a33.825,33.825,0,0,0-3.71,4.805c-1.136,1.738-1.783,3.87-3.058,5.489-.229.29.179.7.411.411,1.123-1.424,1.624-3.217,2.592-4.744a36.223,36.223,0,0,1,4.552-5.94c1.622-1.67,3.355-3.238,5.062-4.821a16.125,16.125,0,0,0,3.717-4.109C1597.389,344.133,1596.889,343.839,1596.715,344.171Z" transform="translate(-61.294 -94.086)" fill="#266999"/>
    <path id="Trazado_144178" data-name="Trazado 144178" d="M1902.583,327.359c-.271.142-7.431-5.495-15.348-10.211-10.465-6.233-22.674-14.777-22.674-14.777-.737-.072-3.818,3.689-4.081,4.242,0,0,14.062,14.877,24.2,22.6,13.412,10.215,18,9.2,18,9.2s2.892-3.342,2.49-3.862S1902.583,327.359,1902.583,327.359Z" transform="translate(-205.791 -72.563)" fill="#ffda73"/>
    <path id="Trazado_144179" data-name="Trazado 144179" d="M1926.623,340.728l11.472,7.125s-.252,9.3-1.31,10.582-2.923,3.233-8.039,3.226c-1.7,0-10.024-5.278-10.024-5.278Z" transform="translate(-235.883 -92.382)" fill="#fb0"/>
    <path id="Trazado_144180" data-name="Trazado 144180" d="M1914.091,354.765c-.538-.116-.628-1.021-1.3-1.852s-1.81-1.761-1.1-2.552,4.31-5.037,5.113-7,2.679-8.77,4.232-8.464c1.045.206,1.157,1.329,1.829,1.666s1.546.173,1.5.856-3.46,8.081-4.665,10.549S1915.988,355.171,1914.091,354.765Z" transform="translate(-232.136 -89.367)" fill="#266999"/>
    <path id="Trazado_144181" data-name="Trazado 144181" d="M1855.636,295.425c-.869-1.992-2.947-3.724-5.356-3.089-2.159.569-5.876-.175-6.15.461-.155.361.586,1.381,1.477,1.931s-2.059.191-2,1.821c.106,2.973,4.136,4.713,5.453,4.958a14.224,14.224,0,0,0,3.931-.3l3.964-2.447S1856.335,297.028,1855.636,295.425Z" transform="translate(-197.072 -67.31)" fill="#ffda73"/>
    <path id="Trazado_144182" data-name="Trazado 144182" d="M1945.853,342.505c-1.024-1.639-3.07-1.335-4.605-2.137-.331-.173-.625.328-.293.5,1.382.722,3.494.482,4.4,1.929C1945.55,343.115,1946.053,342.824,1945.853,342.505Z" transform="translate(-247.295 -92.178)" fill="#58a65e"/>
    <path id="Trazado_144183" data-name="Trazado 144183" d="M1963.673,258.045c-2.763,1.477-4.216,3.673-5.643,6.4a34.8,34.8,0,0,0-3.6,9.87c-.666,3.676-1.925,7.2-2.641,10.86a21.436,21.436,0,0,0-.432,5.079c.1,2.177.459,4.285-.012,6.449-.08.364.48.52.56.155.771-3.536-.292-7.16.3-10.748.567-3.431,1.8-6.709,2.5-10.11a41.37,41.37,0,0,1,3.133-9.887c1.488-3.078,3.019-5.9,6.129-7.562C1964.3,258.37,1964,257.869,1963.673,258.045Z" transform="translate(-252.733 -49.643)" fill="#58a65e"/>
    <path id="Trazado_144184" data-name="Trazado 144184" d="M1968.805,349.86c-1.319,4.666-1.4,10.176-4.5,14.14-1.762,2.256-4.573,3.281-7.229,4.1a9.155,9.155,0,0,1-4.558.459,7.8,7.8,0,0,1-3.7-1.406c-.271-.258-.682.152-.411.411,1.666,1.588,4.972,1.94,7.117,1.535,2.729-.515,6.116-1.687,8.2-3.6,4.184-3.856,4.2-10.368,5.646-15.483A.291.291,0,0,0,1968.805,349.86Z" transform="translate(-251.174 -96.995)" fill="#58a65e"/>
  </g>
</svg>
