<svg xmlns="http://www.w3.org/2000/svg" width="109.995" height="110" viewBox="0 0 109.995 110">
  <g id="observacion-4" transform="translate(-0.002)">
    <g id="Grupo_56707" data-name="Grupo 56707">
      <path id="Trazado_143774" data-name="Trazado 143774" d="M38.874,80.872l-9.749-9.749L4.161,96.088a6.893,6.893,0,1,0,9.749,9.749Z" fill="#3ca8f4" fill-rule="evenodd"/>
      <path id="Trazado_143775" data-name="Trazado 143775" d="M29.125,71.123l9.749,9.749,7.6-7.6a39.274,39.274,0,0,1-9.749-9.749Z" fill="#fb0" fill-rule="evenodd"/>
      <path id="Trazado_143776" data-name="Trazado 143776" d="M68.786,80.274A39.063,39.063,0,1,0,29.723,41.211,39.138,39.138,0,0,0,68.786,80.274Z" fill="#fb0" fill-rule="evenodd"/>
      <path id="Trazado_143777" data-name="Trazado 143777" d="M68.786,71.681a30.47,30.47,0,1,0-30.469-30.47A30.528,30.528,0,0,0,68.786,71.681Z" fill="#ddf7fd" fill-rule="evenodd"/>
      <g id="Grupo_56706" data-name="Grupo 56706">
        <path id="Trazado_143778" data-name="Trazado 143778" d="M51.6,36.915a8.593,8.593,0,1,0-8.593-8.593A8.61,8.61,0,0,0,51.6,36.915Z" fill="#f4cdac" fill-rule="evenodd"/>
        <path id="Trazado_143779" data-name="Trazado 143779" d="M51.6,54.1H34.412a17.187,17.187,0,0,1,34.374,0Z" fill="#3ca8f4" fill-rule="evenodd"/>
        <path id="Trazado_143780" data-name="Trazado 143780" d="M85.973,36.915a8.593,8.593,0,1,0-8.593-8.593A8.61,8.61,0,0,0,85.973,36.915Z" fill="#f4cdac" fill-rule="evenodd"/>
        <path id="Trazado_143781" data-name="Trazado 143781" d="M85.973,54.1H68.786a17.187,17.187,0,0,1,34.374,0Z" fill="#7ae582" fill-rule="evenodd"/>
        <path id="Trazado_143782" data-name="Trazado 143782" d="M68.786,45.508a8.593,8.593,0,1,0-8.593-8.593A8.61,8.61,0,0,0,68.786,45.508Z" fill="#f4cdac" fill-rule="evenodd"/>
        <path id="Trazado_143783" data-name="Trazado 143783" d="M68.786,62.695H51.6a17.187,17.187,0,1,1,34.374,0Z" fill="#29b39d" fill-rule="evenodd"/>
      </g>
    </g>
    <g id="Grupo_56708" data-name="Grupo 56708">
      <path id="Trazado_143784" data-name="Trazado 143784" d="M68.786,0A41.088,41.088,0,0,0,46.765,6.373a2.148,2.148,0,1,0,2.3,3.63,36.926,36.926,0,0,1,55.694,39.515,19.269,19.269,0,0,0-3.381-7.089c.016-.414.027-.824.027-1.219a32.618,32.618,0,0,0-65.212-1.254c-.023.622-.037,1.654-.015,2.5a19.271,19.271,0,0,0-3.362,7.065,36.973,36.973,0,0,1,4.763-28.028,2.148,2.148,0,0,0-3.63-2.3,41.18,41.18,0,0,0,.024,44.048L27.608,69.6l0,0,0,0L2.642,94.569a9.063,9.063,0,0,0-.013,12.774l.013.014a9.052,9.052,0,0,0,12.787,0L40.393,82.392h0l6.365-6.365A41.206,41.206,0,1,0,68.786,0ZM79.528,28.321a6.445,6.445,0,1,1,6.448,6.445h-.005A6.452,6.452,0,0,1,79.528,28.321Zm16.263,4.351a28.114,28.114,0,0,1,1.155,5.519A19.308,19.308,0,0,0,93.268,36.2,10.793,10.793,0,0,0,95.791,32.672Zm-27,10.687h-.006a6.445,6.445,0,1,1,.006,0ZM51.6,34.766H51.6a6.445,6.445,0,1,1,.005,0ZM44.3,36.2a19.307,19.307,0,0,0-3.68,2,28.424,28.424,0,0,1,1.145-5.546A10.784,10.784,0,0,0,44.3,36.2ZM51.6,39.063h0a15.006,15.006,0,0,1,7.216,1.845,10.779,10.779,0,0,0,2.674,3.881,19.449,19.449,0,0,0-8.774,7.164h-16A15.063,15.063,0,0,1,51.6,39.063ZM50.557,56.25A19.221,19.221,0,0,0,49.468,61.9a28.3,28.3,0,0,1-4.676-5.647Zm9.635,8.593a2.148,2.148,0,0,0,0-4.3H53.9a15.062,15.062,0,0,1,14.883-12.89h0a15.062,15.062,0,0,1,14.883,12.89H77.379a2.148,2.148,0,0,0,0,4.3h6.973a28.176,28.176,0,0,1-31.13,0ZM88.1,61.9a19.212,19.212,0,0,0-1.088-5.648H92.78A28.291,28.291,0,0,1,88.1,61.9Zm-3.248-9.945a19.449,19.449,0,0,0-8.774-7.164,10.781,10.781,0,0,0,2.674-3.881,15.011,15.011,0,0,1,7.215-1.845h0a15.062,15.062,0,0,1,14.883,12.89ZM84.528,17.68a10.756,10.756,0,0,0-9.3,10.642s0,0,0,.006a10.719,10.719,0,0,0-12.89,0v-.005a10.756,10.756,0,0,0-9.363-10.65,28.394,28.394,0,0,1,31.549.008ZM12.391,104.318a4.75,4.75,0,0,1-6.7.011l-.011-.011a4.766,4.766,0,0,1,0-6.71L29.125,74.162l6.711,6.711ZM38.874,77.834l-6.711-6.711L36.5,66.789A41.584,41.584,0,0,0,43.208,73.5Zm29.912.292A36.966,36.966,0,0,1,35.077,56.25h4.764a32.616,32.616,0,0,0,57.89,0H102.5A36.966,36.966,0,0,1,68.786,78.126Z"/>
      <path id="Trazado_143785" data-name="Trazado 143785" d="M41.163,15.738a2.148,2.148,0,1,0-1.588-3.594h0a2.148,2.148,0,0,0,1.589,3.593Z"/>
      <path id="Trazado_143786" data-name="Trazado 143786" d="M70.934,62.695a2.148,2.148,0,0,0-2.148-2.148h0a2.148,2.148,0,1,0,2.15,2.148Z"/>
    </g>
  </g>
</svg>
